<svg width="80" height="80" viewBox="0 0 80 80" fill="none" xmlns="http://www.w3.org/2000/svg">
<rect width="80" height="80" rx="40" fill="#B9544C"/>
<path d="M47.7772 40.0015C53.3328 40.0015 57.7772 44.446 57.7772 50.0015C57.7772 51.9571 57.2217 53.8015 56.2439 55.3348L63.0883 62.2237L59.9995 65.3126L53.0661 58.4904C51.5328 59.446 49.7106 60.0015 47.7772 60.0015C42.2217 60.0015 37.7772 55.5571 37.7772 50.0015C37.7772 44.446 42.2217 40.0015 47.7772 40.0015ZM47.7772 44.446C46.3038 44.446 44.8907 45.0313 43.8489 46.0731C42.807 47.115 42.2217 48.5281 42.2217 50.0015C42.2217 51.4749 42.807 52.888 43.8489 53.9299C44.8907 54.9718 46.3038 55.5571 47.7772 55.5571C49.2507 55.5571 50.6637 54.9718 51.7056 53.9299C52.7475 52.888 53.3328 51.4749 53.3328 50.0015C53.3328 48.5281 52.7475 47.115 51.7056 46.0731C50.6637 45.0313 49.2507 44.446 47.7772 44.446ZM42.2217 22.2237V40.0015L36.6661 35.0015L31.1106 40.0015V22.2237H26.6661V57.7793H35.555C36.755 59.5793 38.2883 61.1126 40.0661 62.2237H26.6661C25.4874 62.2237 24.3569 61.7555 23.5234 60.922C22.6899 60.0885 22.2217 58.958 22.2217 57.7793V22.2237C22.2217 21.045 22.6899 19.9145 23.5234 19.081C24.3569 18.2475 25.4874 17.7793 26.6661 17.7793H53.3328C54.5115 17.7793 55.642 18.2475 56.4755 19.081C57.309 19.9145 57.7772 21.045 57.7772 22.2237V39.5793C56.4883 38.3571 54.9995 37.3571 53.3328 36.6682V22.2237H42.2217Z" fill="#E8E4DA"/>
</svg>
