<svg width="33" height="32" viewBox="0 0 33 32" fill="none" xmlns="http://www.w3.org/2000/svg">
<path d="M10.5 2V7.594L3.781 14.375L3.5 14.688V15.094C3.5 16.71 4.73 18 6.156 18C7.492 18 8.484 17.531 9.125 17.062C9.527 16.77 9.594 16.641 9.75 16.437L10.5 16.25V27C10.5 28.645 11.855 30 13.5 30C15.145 30 16.5 28.645 16.5 27V23.437L24.125 21.781C24.7961 21.635 25.3973 21.2644 25.8292 20.7303C26.2611 20.1963 26.4977 19.5308 26.5 18.844V2H10.5ZM12.5 4H24.5V7H12.5V4ZM11.906 9H24.5V18.844C24.5 19.32 24.187 19.742 23.719 19.844L15.281 21.625L14.5 21.813V27C14.5 27.566 14.066 28 13.5 28C12.934 28 12.5 27.566 12.5 27V13.656L11.25 13.969L9 14.563L8.594 14.687L8.406 15.031C8.406 15.031 8.32 15.211 7.969 15.469C7.617 15.727 7.059 16 6.156 16C5.848 16 5.676 15.828 5.594 15.406L11.906 9Z" fill="white" stroke="white" stroke-width="0.6" stroke-linejoin="round"/>
</svg>
