<svg width="20" height="21" viewBox="0 0 20 21" fill="none" xmlns="http://www.w3.org/2000/svg">
<g clip-path="url(#clip0_1979_71569)">
<path d="M13.75 8C13.75 8.99456 13.3549 9.94839 12.6517 10.6517C11.9484 11.3549 10.9946 11.75 10 11.75C9.00544 11.75 8.05161 11.3549 7.34835 10.6517C6.64509 9.94839 6.25 8.99456 6.25 8C6.25 7.00544 6.64509 6.05161 7.34835 5.34835C8.05161 4.64509 9.00544 4.25 10 4.25C10.9946 4.25 11.9484 4.64509 12.6517 5.34835C13.3549 6.05161 13.75 7.00544 13.75 8Z" fill="#E8E4DA"/>
<path fill-rule="evenodd" clip-rule="evenodd" d="M0 10.5C0 7.84784 1.05357 5.3043 2.92893 3.42893C4.8043 1.55357 7.34784 0.5 10 0.5C12.6522 0.5 15.1957 1.55357 17.0711 3.42893C18.9464 5.3043 20 7.84784 20 10.5C20 13.1522 18.9464 15.6957 17.0711 17.5711C15.1957 19.4464 12.6522 20.5 10 20.5C7.34784 20.5 4.8043 19.4464 2.92893 17.5711C1.05357 15.6957 0 13.1522 0 10.5ZM10 1.75C8.35222 1.75009 6.73796 2.21545 5.343 3.09253C3.94805 3.96962 2.8291 5.22276 2.11496 6.70774C1.40081 8.19272 1.12048 9.84917 1.30625 11.4864C1.49201 13.1237 2.13632 14.6753 3.165 15.9625C4.0525 14.5325 6.00625 13 10 13C13.9937 13 15.9463 14.5312 16.835 15.9625C17.8637 14.6753 18.508 13.1237 18.6938 11.4864C18.8795 9.84917 18.5992 8.19272 17.885 6.70774C17.1709 5.22276 16.052 3.96962 14.657 3.09253C13.262 2.21545 11.6478 1.75009 10 1.75Z" fill="#E8E4DA"/>
</g>
<defs>
<clipPath id="clip0_1979_71569">
<rect width="20" height="20" fill="white" transform="translate(0 0.5)"/>
</clipPath>
</defs>
</svg>
