<svg width="48" height="49" viewBox="0 0 48 49" fill="none" xmlns="http://www.w3.org/2000/svg">
<rect y="0.822266" width="48" height="48" rx="24" fill="#B9544C"/>
<path d="M36.0002 30.1549V26.1549C36.0002 24.6749 34.8135 23.4883 33.3335 23.4883H25.3335V19.4883H28.0002V11.4883H20.0002V19.4883H22.6668V23.4883H14.6668C13.1868 23.4883 12.0002 24.6749 12.0002 26.1549V30.1549H9.3335V38.1549H17.3335V30.1549H14.6668V26.1549H22.6668V30.1549H20.0002V38.1549H28.0002V30.1549H25.3335V26.1549H33.3335V30.1549H30.6668V38.1549H38.6668V30.1549H36.0002ZM22.6668 14.1549H25.3335V16.8216H22.6668V14.1549ZM14.6668 35.4883H12.0002V32.8216H14.6668V35.4883ZM25.3335 35.4883H22.6668V32.8216H25.3335V35.4883ZM36.0002 35.4883H33.3335V32.8216H36.0002V35.4883Z" fill="#E8E4DA"/>
</svg>
