<svg width="80" height="80" viewBox="0 0 80 80" fill="none" xmlns="http://www.w3.org/2000/svg">
<rect width="80" height="80" rx="40" fill="#B9544C"/>
<path d="M61.5778 32.6899C64.3556 29.9121 63.0889 26.6677 61.5778 25.0899L54.9112 18.4233C52.1112 15.6455 48.8889 16.9121 47.3112 18.4233L43.5334 22.2233H37.7778C33.5556 22.2233 31.1112 24.4455 29.8667 27.001L20.0001 36.8677V45.7566L18.4223 47.3121C15.6445 50.1121 16.9112 53.3344 18.4223 54.9121L25.0889 61.5788C26.2889 62.7788 27.5778 63.2233 28.8001 63.2233C30.3778 63.2233 31.8223 62.4455 32.6889 61.5788L38.6889 55.5566H46.6667C50.4445 55.5566 52.3556 53.201 53.0445 50.8899C55.5556 50.2233 56.9334 48.3121 57.4889 46.4455C60.9334 45.5566 62.2223 42.2899 62.2223 40.001V33.3344H60.9112L61.5778 32.6899ZM57.7778 40.001C57.7778 41.001 57.3556 42.2233 55.5556 42.2233H53.3334V44.4455C53.3334 45.4455 52.9112 46.6677 51.1112 46.6677H48.8889V48.8899C48.8889 49.8899 48.4667 51.1121 46.6667 51.1121H36.8667L29.5778 58.401C28.8889 59.0455 28.4889 58.6677 28.2445 58.4233L21.6001 51.801C20.9556 51.1121 21.3334 50.7121 21.5778 50.4677L24.4445 47.5788V38.6899L28.8889 34.2455V37.7788C28.8889 40.4677 30.6667 44.4455 35.5556 44.4455C40.4445 44.4455 42.2223 40.4677 42.2223 37.7788H57.7778V40.001ZM58.4223 29.5344L54.6445 33.3344H37.7778V37.7788C37.7778 38.7788 37.3556 40.001 35.5556 40.001C33.7556 40.001 33.3334 38.7788 33.3334 37.7788V31.1121C33.3334 30.0899 33.7112 26.6677 37.7778 26.6677H45.3556L50.4223 21.601C51.1112 20.9566 51.5112 21.3344 51.7556 21.5788L58.4001 28.201C59.0445 28.8899 58.6667 29.2899 58.4223 29.5344V29.5344Z" fill="#E8E4DA"/>
</svg>
