<svg width="48" height="49" viewBox="0 0 48 49" fill="none" xmlns="http://www.w3.org/2000/svg">
<rect y="0.822266" width="48" height="48" rx="24" fill="#B9544C"/>
<path d="M19.9998 18.1549H27.9998C28.7071 18.1549 29.3854 18.4359 29.8855 18.936C30.3855 19.4361 30.6665 20.1144 30.6665 20.8216V31.4883H27.9998V20.8216H25.3332V30.1549H22.6665V20.8216H19.9998V31.4883H17.3332V20.8216C17.3332 20.1144 17.6141 19.4361 18.1142 18.936C18.6143 18.4359 19.2926 18.1549 19.9998 18.1549ZM23.9998 11.4883C25.7508 11.4883 27.4846 11.8332 29.1023 12.5032C30.72 13.1733 32.1898 14.1554 33.4279 15.3935C34.666 16.6316 35.6482 18.1015 36.3182 19.7192C36.9883 21.3368 37.3332 23.0707 37.3332 24.8216C37.3332 28.3578 35.9284 31.7492 33.4279 34.2497C30.9274 36.7502 27.5361 38.1549 23.9998 38.1549C22.2489 38.1549 20.5151 37.8101 18.8974 37.14C17.2797 36.4699 15.8099 35.4878 14.5717 34.2497C12.0713 31.7492 10.6665 28.3578 10.6665 24.8216C10.6665 21.2854 12.0713 17.894 14.5717 15.3935C17.0722 12.893 20.4636 11.4883 23.9998 11.4883M23.9998 14.1549C21.1709 14.1549 18.4578 15.2788 16.4574 17.2791C14.457 19.2795 13.3332 21.9926 13.3332 24.8216C13.3332 27.6506 14.457 30.3637 16.4574 32.3641C18.4578 34.3645 21.1709 35.4883 23.9998 35.4883C26.8288 35.4883 29.5419 34.3645 31.5423 32.3641C33.5427 30.3637 34.6665 27.6506 34.6665 24.8216C34.6665 21.9926 33.5427 19.2795 31.5423 17.2791C29.5419 15.2788 26.8288 14.1549 23.9998 14.1549V14.1549Z" fill="#E8E4DA"/>
</svg>
