<svg width="20" height="21" viewBox="0 0 20 21" fill="none" xmlns="http://www.w3.org/2000/svg">
<g clip-path="url(#clip0_1979_71627)">
<path d="M9.99987 3.93506L9.10362 3.01381C6.99987 0.851311 3.14237 1.59756 1.74987 4.31631C1.09612 5.59506 0.948619 7.44131 2.14237 9.79756C3.29237 12.0663 5.68487 14.7838 9.99987 17.7438C14.3149 14.7838 16.7061 12.0663 17.8574 9.79756C19.0511 7.44006 18.9049 5.59506 18.2499 4.31631C16.8574 1.59756 12.9999 0.850061 10.8961 3.01256L9.99987 3.93506ZM9.99987 19.2501C-9.16638 6.58506 4.09862 -3.29994 9.77987 1.92881C9.85487 1.99756 9.92862 2.06881 9.99987 2.14256C10.0704 2.06888 10.1438 1.99799 10.2199 1.93006C15.8999 -3.30244 29.1661 6.58381 9.99987 19.2501Z" fill="#E8E4DA"/>
</g>
<defs>
<clipPath id="clip0_1979_71627">
<rect width="20" height="20" fill="white" transform="translate(0 0.5)"/>
</clipPath>
</defs>
</svg>
