<svg width="48" height="48" viewBox="0 0 48 48" fill="none" xmlns="http://www.w3.org/2000/svg">
<rect width="48" height="48" rx="24" fill="#B9544C"/>
<path d="M20.0002 14.666C21.4147 14.666 22.7712 15.2279 23.7714 16.2281C24.7716 17.2283 25.3335 18.5849 25.3335 19.9993C25.3335 21.4138 24.7716 22.7704 23.7714 23.7706C22.7712 24.7708 21.4147 25.3327 20.0002 25.3327C18.5857 25.3327 17.2291 24.7708 16.2289 23.7706C15.2287 22.7704 14.6668 21.4138 14.6668 19.9993C14.6668 18.5849 15.2287 17.2283 16.2289 16.2281C17.2291 15.2279 18.5857 14.666 20.0002 14.666M20.0002 27.9993C23.5602 27.9993 30.6668 29.786 30.6668 33.3327V35.9993H9.3335V33.3327C9.3335 29.786 16.4402 27.9993 20.0002 27.9993ZM30.3468 15.146C33.0402 18.0793 33.0402 22.146 30.3468 24.8393L28.1068 22.586C29.2268 21.0127 29.2268 18.9727 28.1068 17.3993L30.3468 15.146ZM34.7602 10.666C40.0002 16.066 39.9602 24.146 34.7602 29.3327L32.5868 27.1593C36.2802 22.9193 36.2802 16.866 32.5868 12.8393L34.7602 10.666Z" fill="#E8E4DA"/>
</svg>
