<svg width="48" height="49" viewBox="0 0 48 49" fill="none" xmlns="http://www.w3.org/2000/svg">
<rect y="0.826172" width="48" height="48" rx="24" fill="#B9544C"/>
<path d="M25.3332 12.8268C30.5332 12.8268 34.6665 16.9602 34.6665 22.1602C34.6665 25.8935 32.5332 29.0935 29.3332 30.5602V36.8268H19.9999V32.8268H18.6665C17.1999 32.8268 15.9999 31.6268 15.9999 30.1602V26.1602H13.9999C13.4665 26.1602 13.0665 25.4935 13.4665 25.0935L15.9999 21.7602C16.2665 16.6935 20.2665 12.8268 25.3332 12.8268ZM25.3332 10.1602C19.1999 10.1602 14.1332 14.6935 13.4665 20.6935L11.3332 23.4935C10.5332 24.5602 10.5332 25.8935 11.0665 26.9602C11.5999 27.8935 12.3999 28.5602 13.3332 28.6935V30.1602C13.3332 32.6935 15.0665 34.6935 17.3332 35.3602V39.4935H31.9999V32.1602C35.3332 29.8935 37.3332 26.2935 37.3332 22.1602C37.3332 15.4935 31.9999 10.1602 25.3332 10.1602ZM21.3332 22.1602C20.5332 22.1602 19.9999 21.6268 19.9999 20.8268C19.9999 20.0268 20.5332 19.4935 21.3332 19.4935C22.1332 19.4935 22.6665 20.0268 22.6665 20.8268C22.6665 21.6268 22.1332 22.1602 21.3332 22.1602ZM25.3332 22.1602C24.5332 22.1602 23.9999 21.6268 23.9999 20.8268C23.9999 20.0268 24.5332 19.4935 25.3332 19.4935C26.1332 19.4935 26.6665 20.0268 26.6665 20.8268C26.6665 21.6268 26.1332 22.1602 25.3332 22.1602ZM29.3332 22.1602C28.6665 22.1602 27.9999 21.6268 27.9999 20.8268C27.9999 20.0268 28.6665 19.4935 29.3332 19.4935C29.9999 19.4935 30.6665 20.0268 30.6665 20.8268C30.6665 21.6268 29.9999 22.1602 29.3332 22.1602Z" fill="#E8E4DA"/>
</svg>
