<svg width="48" height="49" viewBox="0 0 48 49" fill="none" xmlns="http://www.w3.org/2000/svg">
<rect y="0.822266" width="48" height="48" rx="24" fill="#B9544C"/>
<path d="M20 31.4889H17.3333V22.1556H20V31.4889ZM25.3333 31.4889H22.6667V18.1556H25.3333V31.4889ZM30.6667 31.4889H28V26.1556H30.6667V31.4889ZM33.3333 34.1556H14.6667V15.4889H33.3333V34.2889M33.3333 12.8223H14.6667C13.2 12.8223 12 14.0223 12 15.4889V34.1556C12 35.6223 13.2 36.8223 14.6667 36.8223H33.3333C34.8 36.8223 36 35.6223 36 34.1556V15.4889C36 14.0223 34.8 12.8223 33.3333 12.8223Z" fill="#E8E4DA"/>
</svg>
