<svg width="24" height="24" viewBox="0 0 24 24" fill="none" xmlns="http://www.w3.org/2000/svg">
<path d="M12.0001 8.87726C10.2798 8.87726 8.87589 10.2812 8.87589 12.0015C8.87589 13.7218 10.2798 15.1257 12.0001 15.1257C13.7204 15.1257 15.1243 13.7218 15.1243 12.0015C15.1243 10.2812 13.7204 8.87726 12.0001 8.87726ZM21.3704 12.0015C21.3704 10.7077 21.3821 9.4257 21.3095 8.13429C21.2368 6.63429 20.8946 5.30304 19.7978 4.20617C18.6985 3.10695 17.3696 2.7671 15.8696 2.69445C14.5759 2.62179 13.2939 2.63351 12.0025 2.63351C10.7087 2.63351 9.42667 2.62179 8.13527 2.69445C6.63527 2.7671 5.30402 3.10929 4.20714 4.20617C3.10792 5.30538 2.76808 6.63429 2.69542 8.13429C2.62277 9.42804 2.63449 10.7101 2.63449 12.0015C2.63449 13.2929 2.62277 14.5773 2.69542 15.8687C2.76808 17.3687 3.11027 18.6999 4.20714 19.7968C5.30636 20.896 6.63527 21.2359 8.13527 21.3085C9.42902 21.3812 10.711 21.3694 12.0025 21.3694C13.2962 21.3694 14.5782 21.3812 15.8696 21.3085C17.3696 21.2359 18.7009 20.8937 19.7978 19.7968C20.897 18.6976 21.2368 17.3687 21.3095 15.8687C21.3845 14.5773 21.3704 13.2952 21.3704 12.0015ZM12.0001 16.8085C9.33995 16.8085 7.19308 14.6616 7.19308 12.0015C7.19308 9.34132 9.33995 7.19445 12.0001 7.19445C14.6603 7.19445 16.8071 9.34132 16.8071 12.0015C16.8071 14.6616 14.6603 16.8085 12.0001 16.8085ZM17.004 8.12023C16.3829 8.12023 15.8814 7.61867 15.8814 6.99757C15.8814 6.37648 16.3829 5.87492 17.004 5.87492C17.6251 5.87492 18.1267 6.37648 18.1267 6.99757C18.1269 7.14505 18.0979 7.29112 18.0416 7.42741C17.9852 7.5637 17.9026 7.68754 17.7983 7.79182C17.694 7.89611 17.5701 7.9788 17.4339 8.03515C17.2976 8.0915 17.1515 8.12041 17.004 8.12023Z" fill="#E8E4DA"/>
</svg>
