<svg width="80" height="80" viewBox="0 0 80 80" fill="none" xmlns="http://www.w3.org/2000/svg">
<rect width="80" height="80" rx="40" fill="#B9544C"/>
<path d="M53.3333 49.0682C51.6444 49.0682 50.1333 49.7349 48.9778 50.7793L33.1333 41.5571C33.2444 41.046 33.3333 40.5349 33.3333 40.0015C33.3333 39.4682 33.2444 38.9571 33.1333 38.446L48.8 29.3126C50 30.4237 51.5778 31.1126 53.3333 31.1126C57.0222 31.1126 60 28.1349 60 24.446C60 20.7571 57.0222 17.7793 53.3333 17.7793C49.6444 17.7793 46.6667 20.7571 46.6667 24.446C46.6667 24.9793 46.7556 25.4904 46.8667 26.0015L31.2 35.1349C30 34.0237 28.4222 33.3349 26.6667 33.3349C22.9778 33.3349 20 36.3126 20 40.0015C20 43.6904 22.9778 46.6682 26.6667 46.6682C28.4222 46.6682 30 45.9793 31.2 44.8682L47.0222 54.0904C46.9111 54.5571 46.8444 55.046 46.8444 55.5571C46.8444 59.1349 49.7556 62.0237 53.3333 62.0237C56.9111 62.0237 59.8222 59.1349 59.8222 55.5571C59.8222 51.9793 56.9111 49.0682 53.3333 49.0682ZM53.3333 22.2237C54.5556 22.2237 55.5556 23.2237 55.5556 24.446C55.5556 25.6682 54.5556 26.6682 53.3333 26.6682C52.1111 26.6682 51.1111 25.6682 51.1111 24.446C51.1111 23.2237 52.1111 22.2237 53.3333 22.2237ZM26.6667 42.2237C25.4444 42.2237 24.4444 41.2237 24.4444 40.0015C24.4444 38.7793 25.4444 37.7793 26.6667 37.7793C27.8889 37.7793 28.8889 38.7793 28.8889 40.0015C28.8889 41.2237 27.8889 42.2237 26.6667 42.2237ZM53.3333 57.7793C52.1111 57.7793 51.1111 56.7793 51.1111 55.5571C51.1111 54.3349 52.1111 53.3349 53.3333 53.3349C54.5556 53.3349 55.5556 54.3349 55.5556 55.5571C55.5556 56.7793 54.5556 57.7793 53.3333 57.7793Z" fill="#E8E4DA"/>
</svg>
