<svg width="80" height="80" viewBox="0 0 80 80" fill="none" xmlns="http://www.w3.org/2000/svg">
<rect width="80" height="80" rx="40" fill="#B9544C"/>
<path d="M39.9999 17.7793C44.1255 17.7793 48.0821 19.4182 50.9993 22.3354C53.9166 25.2526 55.5554 29.2093 55.5554 33.3349C55.5554 38.6237 52.911 43.2682 48.8888 46.0904V51.1126C48.8888 51.702 48.6547 52.2672 48.2379 52.684C47.8212 53.1007 47.2559 53.3349 46.6666 53.3349H33.3332C32.7439 53.3349 32.1786 53.1007 31.7619 52.684C31.3451 52.2672 31.111 51.702 31.111 51.1126V46.0904C27.0888 43.2682 24.4443 38.6237 24.4443 33.3349C24.4443 29.2093 26.0832 25.2526 29.0005 22.3354C31.9177 19.4182 35.8743 17.7793 39.9999 17.7793M33.3332 60.0015V57.7793H46.6666V60.0015C46.6666 60.5909 46.4324 61.1561 46.0157 61.5729C45.5989 61.9896 45.0337 62.2237 44.4443 62.2237H35.5554C34.9661 62.2237 34.4008 61.9896 33.9841 61.5729C33.5674 61.1561 33.3332 60.5909 33.3332 60.0015ZM39.9999 22.2237C37.053 22.2237 34.2269 23.3944 32.1431 25.4781C30.0594 27.5618 28.8888 30.388 28.8888 33.3349C28.8888 37.8904 31.6221 41.8015 35.5554 43.5126V48.8904H44.4443V43.5126C48.3777 41.8015 51.111 37.8904 51.111 33.3349C51.111 30.388 49.9404 27.5618 47.8566 25.4781C45.7729 23.3944 42.9467 22.2237 39.9999 22.2237V22.2237Z" fill="#E8E4DA"/>
</svg>
