<svg width="48" height="49" viewBox="0 0 48 49" fill="none" xmlns="http://www.w3.org/2000/svg">
<rect y="0.822266" width="48" height="48" rx="24" fill="#B9544C"/>
<path d="M25.3335 12.8229C30.5069 12.8229 34.6669 17.0096 34.6669 22.1562C34.6669 25.8896 32.4935 29.0762 29.3335 30.5696V36.8229H20.0002V32.8229H18.6669C17.1869 32.8229 16.0002 31.6362 16.0002 30.1562V26.1562H14.0002C13.4402 26.1562 13.1202 25.4896 13.4402 25.0762L16.0002 21.7029C16.1177 19.3073 17.1525 17.0488 18.8902 15.3955C20.6278 13.7423 22.9351 12.8211 25.3335 12.8229M25.3335 10.1562C19.2135 10.1562 14.1469 14.7162 13.4135 20.6896L11.3335 23.4896H11.2935L11.2669 23.5296C10.5335 24.5429 10.4402 25.8762 11.0135 26.9829C11.4935 27.9029 12.3469 28.5429 13.3335 28.7429V30.1562C13.3335 32.6229 15.0402 34.7163 17.3335 35.3163V39.4896H32.0002V32.1562C35.3335 29.9296 37.3335 26.2362 37.3335 22.1562C37.3335 15.5296 31.9469 10.1562 25.3335 10.1562ZM31.1069 21.2229L28.4935 21.9029L30.4135 23.8496C30.8802 24.3029 30.8802 25.0762 30.4135 25.5429C29.9469 26.0096 29.1735 26.0096 28.7202 25.5429L26.7869 23.6229L26.0935 26.2363C25.9335 26.8896 25.2802 27.2496 24.6669 27.0896C24.5116 27.0507 24.3656 26.9815 24.2372 26.8859C24.1089 26.7903 24.0007 26.6703 23.9189 26.5327C23.8371 26.3952 23.7833 26.2428 23.7606 26.0843C23.738 25.9259 23.7469 25.7646 23.7869 25.6096L24.4935 22.9962L21.8802 23.7029C21.7252 23.7429 21.5639 23.7518 21.4055 23.7292C21.247 23.7065 21.0946 23.6527 20.9571 23.5709C20.8195 23.4891 20.6995 23.3809 20.6039 23.2526C20.5083 23.1242 20.4391 22.9782 20.4002 22.8229C20.2402 22.2229 20.6135 21.5563 21.2535 21.3963L23.8669 20.7029L21.9469 18.7696C21.7463 18.5405 21.6403 18.2437 21.6504 17.9393C21.6605 17.635 21.7859 17.3459 22.0012 17.1306C22.2165 16.9152 22.5056 16.7898 22.81 16.7797C23.1143 16.7697 23.4111 16.8757 23.6402 17.0762L25.5869 18.9962L26.2669 16.3829C26.4269 15.7296 27.0935 15.3563 27.7202 15.5296C28.3735 15.7029 28.7469 16.3562 28.5735 16.9962L27.8669 19.6229L30.4936 18.9162C31.1335 18.7429 31.7869 19.1162 31.9602 19.7696C32.1335 20.3962 31.7602 21.0629 31.1069 21.2229V21.2229Z" fill="#E8E4DA"/>
</svg>
