<svg width="48" height="49" viewBox="0 0 48 49" fill="none" xmlns="http://www.w3.org/2000/svg">
<rect y="0.826172" width="48" height="48" rx="24" fill="#B9544C"/>
<path d="M22.6667 28.8262H30.6667V31.4928H22.6667V28.8262ZM20 18.1595H17.3333V20.8262H20V18.1595ZM22.6667 26.1595H30.6667V23.4928H22.6667V26.1595ZM22.6667 20.8262H30.6667V18.1595H22.6667V20.8262ZM20 23.4928H17.3333V26.1595H20V23.4928ZM36 15.4928V34.1595C36 35.6262 34.8 36.8262 33.3333 36.8262H14.6667C13.2 36.8262 12 35.6262 12 34.1595V15.4928C12 14.0262 13.2 12.8262 14.6667 12.8262H33.3333C34.8 12.8262 36 14.0262 36 15.4928ZM33.3333 15.4928H14.6667V34.1595H33.3333V15.4928ZM20 28.8262H17.3333V31.4928H20V28.8262Z" fill="#E8E4DA"/>
</svg>
