<svg width="48" height="49" viewBox="0 0 48 49" fill="none" xmlns="http://www.w3.org/2000/svg">
<rect y="0.826172" width="48" height="48" rx="24" fill="#B9544C"/>
<path d="M18.6668 24.8255H29.3335V27.4922H18.6668V24.8255ZM21.3335 35.4922H16.0002V14.1589H25.3335V20.8255H32.0002V24.9589L34.6668 22.2922V19.4922L26.6668 11.4922H16.0002C15.2929 11.4922 14.6146 11.7731 14.1145 12.2732C13.6144 12.7733 13.3335 13.4516 13.3335 14.1589V35.4922C13.3335 36.1994 13.6144 36.8777 14.1145 37.3778C14.6146 37.8779 15.2929 38.1589 16.0002 38.1589H21.3335V35.4922ZM18.6668 32.8255H24.1335L25.3335 31.6255V30.1589H18.6668V32.8255ZM34.9335 26.1589C35.0668 26.1589 35.3335 26.2922 35.4668 26.4255L37.2002 28.1589C37.4668 28.4255 37.4668 28.9589 37.2002 29.2255L35.8668 30.5589L33.0668 27.7589L34.4002 26.4255C34.5335 26.2922 34.6668 26.1589 34.9335 26.1589M34.9335 31.3589L26.8002 39.4922H24.0002V36.6922L32.1335 28.5589L34.9335 31.3589V31.3589Z" fill="#E8E4DA"/>
</svg>
