<svg width="48" height="48" viewBox="0 0 48 48" fill="none" xmlns="http://www.w3.org/2000/svg">
<rect width="48" height="48" rx="24" fill="#B9544C"/>
<path d="M34.6667 30.666C36.1333 30.666 37.3333 29.466 37.3333 27.9993V13.3327C37.3333 11.866 36.1333 10.666 34.6667 10.666H20.6667C21.0667 11.466 21.3333 12.3993 21.3333 13.3327H34.6667V27.9993H22.6667V30.666M28 17.3327V19.9993H20V37.3327H17.3333V29.3327H14.6667V37.3327H12V26.666H10V19.9993C10 18.5327 11.2 17.3327 12.6667 17.3327H28ZM18.6667 13.3327C18.6667 14.7993 17.4667 15.9993 16 15.9993C14.5333 15.9993 13.3333 14.7993 13.3333 13.3327C13.3333 11.866 14.5333 10.666 16 10.666C17.4667 10.666 18.6667 11.866 18.6667 13.3327ZM30.6667 15.9993H33.3333V26.666H30.6667V15.9993ZM26.6667 21.3327H29.3333V26.666H26.6667V21.3327ZM22.6667 21.3327H25.3333V26.666H22.6667V21.3327Z" fill="#E8E4DA"/>
</svg>
