<svg width="48" height="49" viewBox="0 0 48 49" fill="none" xmlns="http://www.w3.org/2000/svg">
<rect y="0.826172" width="48" height="48" rx="24" fill="#B9544C"/>
<path d="M23.9998 12.8262C16.6665 12.8262 10.6665 17.5995 10.6665 23.4928C10.7 24.9098 11.046 26.3018 11.6799 27.5695C12.3137 28.8372 13.2197 29.9492 14.3332 30.8262C14.3332 31.6262 13.7732 33.7195 10.6665 36.8262C13.8265 36.6795 16.8532 35.4928 19.2932 33.4928C20.8132 33.9328 22.4132 34.1595 23.9998 34.1595C31.3332 34.1595 37.3332 29.3862 37.3332 23.4928C37.3332 17.5995 31.3332 12.8262 23.9998 12.8262ZM23.9998 31.4928C18.1065 31.4928 13.3332 27.9062 13.3332 23.4928C13.3332 19.0795 18.1065 15.4928 23.9998 15.4928C29.8932 15.4928 34.6665 19.0795 34.6665 23.4928C34.6665 27.9062 29.8932 31.4928 23.9998 31.4928ZM30.6665 24.8262V22.1595H27.9998V24.8262H30.6665ZM25.3332 24.8262V22.1595H22.6665V24.8262H25.3332ZM19.9998 24.8262V22.1595H17.3332V24.8262H19.9998Z" fill="#E8E4DA"/>
</svg>
