<svg width="80" height="80" viewBox="0 0 80 80" fill="none" xmlns="http://www.w3.org/2000/svg">
<rect width="80" height="80" rx="40" fill="#B9544C"/>
<path d="M28.7111 24.4444H24.4444L44.4444 44.4444L46.6667 42.3556M57.6889 55.8222L55.8222 57.6889C55.6166 57.8949 55.3724 58.0583 55.1036 58.1698C54.8348 58.2814 54.5466 58.3388 54.2556 58.3388C53.9645 58.3388 53.6763 58.2814 53.4075 58.1698C53.1387 58.0583 52.8945 57.8949 52.6889 57.6889L45.7556 50.7556L39.8 56.6667L36.6667 53.5333L39.8222 50.3778L20 30.5556V20H30.5556L50.3778 39.8222L53.5333 36.6667L56.6667 39.8L50.7333 45.7333L57.6667 52.6667C58.5556 53.5556 58.5556 54.9556 57.6889 55.8222V55.8222Z" fill="#E8E4DA"/>
</svg>
