<svg width="80" height="80" viewBox="0 0 80 80" fill="none" xmlns="http://www.w3.org/2000/svg">
<rect width="80" height="80" rx="40" fill="#B9544C"/>
<path d="M40 15.5566L20 24.4455V37.7789C20 50.1122 28.5333 61.6455 40 64.4455C51.4667 61.6455 60 50.1122 60 37.7789V24.4455L40 15.5566ZM40 20.4011L55.5556 27.3344V38.2678C55.5556 42.0455 54.4444 45.89 52.5556 49.2678C48.8889 46.5344 42.8 45.5566 40 45.5566C37.2 45.5566 31.1111 46.5344 27.4444 49.2678C25.5556 45.89 24.4444 42.0455 24.4444 38.2678V27.3344L40 20.4011M40 26.6678C37.9372 26.6678 35.9589 27.4872 34.5003 28.9458C33.0417 30.4044 32.2222 32.3827 32.2222 34.4455C32.2222 36.5083 33.0417 38.4866 34.5003 39.9452C35.9589 41.4039 37.9372 42.2233 40 42.2233C42.0628 42.2233 44.0411 41.4039 45.4997 39.9452C46.9583 38.4866 47.7778 36.5083 47.7778 34.4455C47.7778 32.3827 46.9583 30.4044 45.4997 28.9458C44.0411 27.4872 42.0628 26.6678 40 26.6678M40 31.1122C40.8841 31.1122 41.7319 31.4634 42.357 32.0885C42.9821 32.7136 43.3333 33.5615 43.3333 34.4455C43.3333 35.3296 42.9821 36.1774 42.357 36.8026C41.7319 37.4277 40.8841 37.7789 40 37.7789C39.1159 37.7789 38.2681 37.4277 37.643 36.8026C37.0179 36.1774 36.6667 35.3296 36.6667 34.4455C36.6667 33.5615 37.0179 32.7136 37.643 32.0885C38.2681 31.4634 39.1159 31.1122 40 31.1122ZM40 50.0011C43.4889 50.0011 48.0889 51.3566 50.0667 52.9789C47.3111 56.4011 43.7778 59.0011 40 60.0011C36.2222 59.0011 32.6889 56.4011 29.9333 52.9789C31.9333 51.3566 36.5111 50.0011 40 50.0011Z" fill="#E8E4DA"/>
</svg>
