<svg width="511" height="462" viewBox="0 0 511 462" fill="none" xmlns="http://www.w3.org/2000/svg">
<circle cx="230.6" cy="230.6" r="229.1" stroke="#EDEDED" stroke-width="3"/>
<path d="M476.48 230.6C476.48 357.126 373.789 459.699 247.109 459.699C120.43 459.699 17.7393 357.126 17.7393 230.6C17.7393 104.073 120.43 1.5 247.109 1.5C373.789 1.5 476.48 104.073 476.48 230.6Z" stroke="#EDEDED" stroke-width="3"/>
<path d="M493.261 230.6C493.261 357.126 390.57 459.699 263.891 459.699C137.211 459.699 34.5205 357.126 34.5205 230.6C34.5205 104.073 137.211 1.5 263.891 1.5C390.57 1.5 493.261 104.073 493.261 230.6Z" stroke="#EDEDED" stroke-width="3"/>
<circle cx="280.4" cy="230.6" r="229.1" stroke="#EDEDED" stroke-width="3"/>
</svg>
