<svg width="151" height="40" viewBox="0 0 151 40" fill="none" xmlns="http://www.w3.org/2000/svg">
<ellipse cx="19.0891" cy="18.972" rx="19.0891" ry="18.972" fill="white"/>
<path d="M24.2557 18.8729C24.9919 18.0124 25.3602 17.0578 25.3602 16.0059C25.3602 15.1341 25.2103 14.399 24.9105 13.8015C24.5987 13.2642 24.1609 12.8394 23.5995 12.5296C22.7502 12.016 21.7629 11.7713 20.6391 11.7945H14.665V20.2346H20.789C22.3253 20.2109 23.4804 19.7565 24.2557 18.8729Z" fill="#CC0029"/>
<path d="M20.4179 8.08335C21.4896 8.08335 22.526 8.17907 23.5238 8.36803C24.5215 8.61866 25.5321 9.1293 26.5552 9.90242C27.4134 10.4851 28.1109 11.3174 28.647 12.3989C29.2069 13.4463 29.4873 14.6832 29.4873 16.11C29.4873 18.0371 28.7745 19.7901 27.3524 21.3718C26.3547 22.5095 25.0422 23.2698 23.4151 23.6522C25.3073 24.0227 26.855 24.711 28.0409 25.5576C29.8199 26.8275 30.7099 28.9209 30.7099 31.2422C30.7099 32.783 30.0617 34.084 29.0555 35.1591C26.9722 36.429 24.6257 37.3136 22.1155 37.7118C31.2197 36.2701 38.1776 28.431 38.1776 18.9765C38.1776 8.49828 29.6313 0.00390625 19.0885 0.00390625C8.54579 0.00390625 0 8.49828 0 18.9765C0 26.3983 4.29027 32.8205 10.5378 35.9381V8.08335H20.4174H20.4179Z" fill="#CC0029"/>
<path d="M19.7222 37.9389C19.7456 37.9379 19.7689 37.9374 19.7917 37.9369C19.8935 37.9335 19.9953 37.929 20.097 37.9236C20.1134 37.9226 20.1298 37.9216 20.1467 37.9206C20.234 37.9157 20.3214 37.9108 20.4082 37.9049C20.4321 37.9034 20.4564 37.9014 20.4802 37.8999C20.6877 37.8851 20.8942 37.8669 21.0997 37.8456C21.1146 37.8442 21.1295 37.8427 21.1439 37.8407C21.2387 37.8304 21.334 37.82 21.4283 37.8082C21.4382 37.8067 21.4487 37.8057 21.4586 37.8047C21.6735 37.7781 21.8875 37.748 22.0999 37.7144C22.1049 37.7134 22.1099 37.7129 22.1143 37.7119C24.6246 37.3138 26.971 36.4292 29.0543 35.1592C30.0605 34.0842 30.7088 32.7827 30.7088 31.2424C30.7088 28.9215 29.8182 26.8282 28.0397 25.5577C26.8538 24.7116 25.3061 24.0229 23.4139 23.6523C22.7552 23.8073 22.0453 23.9 21.2839 23.9306C21.2809 23.9306 21.2779 23.9306 21.2749 23.9306C21.1682 23.935 21.0605 23.9385 20.9513 23.94H14.6641V37.4204C16.0852 37.7573 17.563 37.9483 19.0879 37.9483C19.1901 37.9483 19.2919 37.9473 19.3941 37.9458C19.4224 37.9458 19.4507 37.9448 19.479 37.9443C19.5599 37.9428 19.6408 37.9404 19.7212 37.9379L19.7222 37.9389Z" fill="#FF1947"/>
<path d="M51.9843 9.52267C52.2401 9.40057 52.4605 9.26411 52.6397 9.11663C52.8382 8.96268 52.9933 8.79701 53.1008 8.62247C53.3086 8.26119 53.4093 7.87717 53.3999 7.4819C53.3999 6.71002 53.1453 6.07964 52.6428 5.60895C52.1457 5.14352 51.3949 4.90315 50.4106 4.89453H46.5146V14.4661H50.7476C51.5382 14.4661 52.2071 14.2102 52.7349 13.7065C53.2696 13.2233 53.5454 12.5585 53.5548 11.7291C53.5548 11.229 53.4214 10.7595 53.1574 10.3321C52.889 9.93854 52.4947 9.66656 51.9845 9.52291L51.9843 9.52267ZM48.1083 10.2572H50.3856C50.9304 10.2658 51.3334 10.4037 51.5832 10.6671C51.8335 10.9357 51.9604 11.2635 51.9604 11.6413C51.9604 12.0191 51.8335 12.3341 51.583 12.6025C51.3327 12.8747 50.9297 13.0169 50.3861 13.0253H48.1081V10.2572H48.1083ZM51.4214 8.49726C51.1718 8.76133 50.7743 8.89541 50.2398 8.89541H48.1085V6.25728H50.2391C50.7748 6.26566 51.173 6.39136 51.4223 6.62982C51.6762 6.88599 51.8051 7.20322 51.8051 7.57287C51.8051 7.94253 51.6764 8.25233 51.4216 8.49726H51.4214Z" fill="#CC0029"/>
<path d="M56.8726 4.89453H55.3633V6.33533H56.8726V4.89453Z" fill="#CC0029"/>
<path d="M56.8726 7.62891H55.3633V14.4688H56.8726V7.62891Z" fill="#CC0029"/>
<path d="M59.1146 8.91361H62.5293L59.0406 13.3234L59.0312 13.3354V14.4688H64.3966V13.106H60.788L64.3867 8.78241L64.3966 8.7702V7.62891H59.1146V8.91361Z" fill="#CC0029"/>
<path d="M72.6502 5.56681C72.2744 5.28286 71.8972 5.09181 71.5267 4.9994C71.1611 4.92996 70.7773 4.89453 70.3859 4.89453H66.7393V14.4661H68.3332V10.7645H70.5818C71.6137 10.747 72.4098 10.4267 72.9472 9.81332C73.4711 9.23083 73.737 8.57531 73.737 7.86496C73.737 7.34016 73.6322 6.87809 73.426 6.49287C73.2285 6.09352 72.9667 5.78157 72.6502 5.56681ZM72.1431 7.82641C72.1431 8.19703 72.0114 8.53939 71.7515 8.84297C71.4783 9.15397 71.0642 9.31582 70.5215 9.3242H68.3332V6.33533H70.4676C70.8706 6.32432 71.2215 6.41482 71.5243 6.59773C71.7214 6.70643 71.876 6.85702 71.9844 7.04233C72.0899 7.25254 72.1434 7.51613 72.1434 7.82641H72.1431Z" fill="#CC0029"/>
<path d="M78.6353 7.54297C77.8921 7.54297 77.2784 7.7989 76.8094 8.30383V7.62724H75.2998V14.4671H76.8094V10.3532C76.8178 9.87488 76.9636 9.52509 77.2442 9.31129C77.494 9.0939 77.7987 8.98353 78.1499 8.98353C78.4613 8.98353 78.7663 9.09462 79.0575 9.31393L79.0905 9.33882L80.1547 8.1348L80.1858 8.10009L80.1492 8.07112C79.7202 7.72923 79.2107 7.55183 78.635 7.54297H78.6353Z" fill="#CC0029"/>
<path d="M86.7366 9.38862C86.6169 9.00987 86.4117 8.68594 86.1308 8.43048C85.9412 8.2016 85.6705 7.99451 85.3253 7.81399C84.9753 7.6428 84.5126 7.55159 83.9487 7.54297C83.4038 7.55135 82.9505 7.64233 82.6 7.81303C82.2459 7.99211 81.966 8.19801 81.7714 8.42258C81.5042 8.68211 81.3031 9.0058 81.1735 9.38527C81.0499 9.77097 80.9873 10.3279 80.9873 11.0408C80.9873 11.7538 81.0499 12.3045 81.1737 12.6811C81.3024 13.0586 81.5033 13.3902 81.7687 13.666C81.9667 13.8813 82.2464 14.0771 82.5983 14.2473C82.9485 14.4365 83.4026 14.5368 83.9472 14.5454H83.9487C84.5118 14.5368 84.9751 14.4365 85.3212 14.2492C85.5108 14.17 85.6688 14.073 85.7863 13.9646C85.92 13.8683 86.0344 13.7675 86.1253 13.6677C86.4112 13.3905 86.6169 13.0581 86.7366 12.6796C86.8508 12.3037 86.9088 11.7524 86.9088 11.0408C86.9088 10.3293 86.851 9.77456 86.7366 9.38862ZM85.3995 11.054C85.3995 11.5086 85.3768 11.8484 85.3323 12.0631C85.2882 12.2769 85.1974 12.468 85.0608 12.6315C84.9601 12.7565 84.8093 12.869 84.6113 12.9655C84.4232 13.0579 84.1997 13.1046 83.9479 13.1046C83.7145 13.1046 83.4956 13.0577 83.299 12.966C83.1085 12.8685 82.9519 12.7553 82.8365 12.6334C82.7173 12.4692 82.6301 12.2769 82.5773 12.0615C82.5239 11.8491 82.4966 11.506 82.4966 11.0411C82.4966 10.5761 82.5239 10.2242 82.5773 10.0078C82.6299 9.80162 82.7168 9.61822 82.8351 9.46332C82.9531 9.31728 83.1085 9.20068 83.2964 9.11737C83.4951 9.02878 83.7143 8.98377 83.9477 8.98377C84.1992 8.98377 84.4227 9.0283 84.6137 9.11713C84.8093 9.20044 84.9592 9.31584 85.0623 9.46476C85.1976 9.6187 85.2884 9.8009 85.3323 10.0056C85.3768 10.2249 85.3995 10.5778 85.3995 11.0542V11.054Z" fill="#CC0029"/>
<path d="M52.6469 27.8759H48.6233L48.6018 25.6597H51.9799C52.5752 25.6597 53.0629 25.5843 53.4431 25.4337C53.8232 25.2759 54.1065 25.05 54.293 24.7559C54.4866 24.4547 54.5834 24.0889 54.5834 23.6586C54.5834 23.1709 54.4902 22.7764 54.3037 22.4752C54.1244 22.1739 53.8411 21.9552 53.4538 21.8189C53.0737 21.6826 52.5824 21.6145 51.9799 21.6145H49.7422V34.7505H46.5146V19.0863H51.9799C52.8908 19.0863 53.7048 19.1723 54.4221 19.3445C55.1465 19.5166 55.7597 19.7784 56.2618 20.1298C56.7638 20.4813 57.1475 20.926 57.4129 21.4639C57.6783 21.9946 57.811 22.6258 57.811 23.3574C57.811 24.0029 57.6639 24.5982 57.3699 25.1432C57.083 25.6883 56.6275 26.133 56.0035 26.4773C55.3867 26.8216 54.5799 27.0116 53.5829 27.0475L52.6469 27.8759ZM52.5071 34.7505H47.7411L48.9998 32.233H52.5071C53.0737 32.233 53.5363 32.1434 53.8949 31.9641C54.2535 31.7776 54.5189 31.5266 54.691 31.211C54.8632 30.8954 54.9492 30.5332 54.9492 30.1244C54.9492 29.6654 54.8703 29.2673 54.7125 28.9302C54.5619 28.5931 54.3181 28.3349 53.981 28.1556C53.6439 27.9691 53.1992 27.8759 52.6469 27.8759H49.5378L49.5593 25.6597H53.4323L54.1746 26.5311C55.1285 26.5167 55.896 26.6853 56.4769 27.0367C57.065 27.381 57.4918 27.8293 57.7572 28.3815C58.0297 28.9338 58.166 29.5255 58.166 30.1567C58.166 31.1608 57.9472 32.0071 57.5097 32.6956C57.0722 33.377 56.4303 33.8898 55.584 34.2341C54.7448 34.5784 53.7192 34.7505 52.5071 34.7505Z" fill="white"/>
<path d="M66.6759 32.1254V26.9399C66.6759 26.5669 66.6149 26.2478 66.493 25.9824C66.3711 25.7099 66.181 25.4983 65.9228 25.3477C65.6718 25.197 65.3454 25.1217 64.9438 25.1217C64.5995 25.1217 64.3019 25.1827 64.0508 25.3046C63.7998 25.4194 63.6061 25.5879 63.4699 25.8103C63.3336 26.0254 63.2655 26.2801 63.2655 26.5741H60.167C60.167 26.0792 60.2818 25.6094 60.5113 25.1648C60.7408 24.7201 61.0743 24.3292 61.5118 23.9921C61.9494 23.6478 62.4693 23.3789 63.0718 23.1852C63.6815 22.9916 64.3628 22.8947 65.1159 22.8947C66.0196 22.8947 66.8229 23.0454 67.5258 23.3466C68.2287 23.6478 68.7809 24.0997 69.1826 24.7022C69.5914 25.3046 69.7958 26.0577 69.7958 26.9614V31.9426C69.7958 32.5809 69.8353 33.1045 69.9142 33.5133C69.993 33.9149 70.1078 34.2664 70.2584 34.5676V34.7505H67.1277C66.9771 34.4349 66.8624 34.0404 66.7835 33.5671C66.7117 33.0865 66.6759 32.606 66.6759 32.1254ZM67.0847 27.6607L67.1062 29.4143H65.3741C64.9653 29.4143 64.6103 29.4609 64.309 29.5542C64.0078 29.6474 63.7604 29.7801 63.5667 29.9522C63.373 30.1172 63.2296 30.3109 63.1364 30.5332C63.0503 30.7555 63.0073 30.9994 63.0073 31.2648C63.0073 31.5301 63.0682 31.7704 63.1902 31.9856C63.3121 32.1936 63.4878 32.3585 63.7173 32.4805C63.9468 32.5952 64.2158 32.6526 64.5242 32.6526C64.9904 32.6526 65.3956 32.5594 65.7399 32.3729C66.0842 32.1864 66.3495 31.9569 66.536 31.6844C66.7297 31.4118 66.8301 31.1536 66.8372 30.9097L67.6549 32.2223C67.5401 32.5163 67.3823 32.8212 67.1815 33.1367C66.9879 33.4523 66.7404 33.75 66.4392 34.0297C66.138 34.3022 65.7758 34.5282 65.3526 34.7075C64.9294 34.8796 64.4274 34.9657 63.8464 34.9657C63.1077 34.9657 62.4371 34.8186 61.8346 34.5246C61.2393 34.2233 60.7659 33.8109 60.4145 33.2874C60.0702 32.7566 59.8981 32.1541 59.8981 31.4799C59.8981 30.8703 60.0128 30.3288 60.2424 29.8554C60.4719 29.3821 60.809 28.984 61.2536 28.6612C61.7055 28.3313 62.2685 28.0839 62.9427 27.9189C63.6169 27.7468 64.3987 27.6607 65.288 27.6607H67.0847Z" fill="white"/>
<path d="M76.9932 32.545C77.3733 32.545 77.7104 32.4733 78.0045 32.3299C78.2985 32.1792 78.528 31.9712 78.693 31.7059C78.8651 31.4333 78.9548 31.1142 78.962 30.7484H81.8775C81.8703 31.566 81.6516 32.294 81.2212 32.9323C80.7909 33.5635 80.2135 34.062 79.4891 34.4277C78.7647 34.7864 77.9543 34.9657 77.0577 34.9657C76.154 34.9657 75.3651 34.815 74.6909 34.5138C74.0239 34.2126 73.468 33.7966 73.0233 33.2658C72.5786 32.7279 72.2451 32.1039 72.0228 31.3939C71.8005 30.6766 71.6893 29.9092 71.6893 29.0916V28.7796C71.6893 27.9548 71.8005 27.1873 72.0228 26.4773C72.2451 25.7601 72.5786 25.1361 73.0233 24.6053C73.468 24.0674 74.0239 23.6478 74.6909 23.3466C75.3579 23.0454 76.1397 22.8947 77.0362 22.8947C77.9901 22.8947 78.8257 23.0776 79.5429 23.4434C80.2673 23.8092 80.8339 24.3328 81.2427 25.0141C81.6587 25.6883 81.8703 26.488 81.8775 27.4133H78.962C78.9548 27.026 78.8723 26.6745 78.7145 26.3589C78.5639 26.0434 78.3416 25.7923 78.0475 25.6059C77.7606 25.4122 77.4056 25.3154 76.9824 25.3154C76.5306 25.3154 76.1612 25.4122 75.8743 25.6059C75.5874 25.7923 75.3651 26.0505 75.2073 26.3805C75.0495 26.7032 74.9383 27.0726 74.8738 27.4886C74.8164 27.8974 74.7877 28.3277 74.7877 28.7796V29.0916C74.7877 29.5434 74.8164 29.9774 74.8738 30.3933C74.9311 30.8093 75.0387 31.1787 75.1965 31.5015C75.3615 31.8242 75.5874 32.0788 75.8743 32.2653C76.1612 32.4518 76.5341 32.545 76.9932 32.545Z" fill="white"/>
<path d="M86.7725 18.2148V34.7505H83.6741V18.2148H86.7725ZM94.1098 23.1099L89.0533 28.8764L86.3422 31.6198L85.2126 29.3821L87.3643 26.6494L90.3874 23.1099H94.1098ZM90.893 34.7505L87.4503 29.3713L89.5912 27.4993L94.4648 34.7505H90.893Z" fill="white"/>
<path d="M103.792 30.6515C103.792 30.3718 103.749 30.1208 103.663 29.8985C103.584 29.6689 103.434 29.4609 103.211 29.2745C102.989 29.0808 102.677 28.8908 102.275 28.7043C101.874 28.5178 101.354 28.3241 100.715 28.1233C100.005 27.8938 99.3312 27.6356 98.6928 27.3487C98.0617 27.0618 97.5023 26.7283 97.0145 26.3482C96.534 25.9609 96.1539 25.5126 95.8741 25.0034C95.6016 24.4942 95.4653 23.9024 95.4653 23.2283C95.4653 22.5756 95.6088 21.9839 95.8957 21.4531C96.1826 20.9152 96.5842 20.4562 97.1006 20.076C97.617 19.6887 98.2267 19.3911 98.9295 19.1831C99.6396 18.9751 100.418 18.8711 101.264 18.8711C102.419 18.8711 103.427 19.0791 104.287 19.4951C105.148 19.9111 105.815 20.4813 106.288 21.2057C106.769 21.9301 107.009 22.7585 107.009 23.6909H103.803C103.803 23.2318 103.706 22.8302 103.513 22.4859C103.326 22.1345 103.039 21.8584 102.652 21.6575C102.272 21.4567 101.791 21.3563 101.21 21.3563C100.651 21.3563 100.185 21.4424 99.8117 21.6145C99.4388 21.7795 99.159 22.0054 98.9726 22.2923C98.7861 22.572 98.6928 22.8876 98.6928 23.239C98.6928 23.5044 98.7574 23.7447 98.8865 23.9598C99.0228 24.175 99.2236 24.3758 99.489 24.5623C99.7543 24.7488 100.081 24.9245 100.468 25.0895C100.855 25.2544 101.304 25.4158 101.813 25.5736C102.666 25.8318 103.416 26.1223 104.061 26.445C104.714 26.7678 105.259 27.13 105.697 27.5316C106.134 27.9333 106.464 28.3887 106.686 28.8979C106.909 29.4072 107.02 29.9845 107.02 30.63C107.02 31.3114 106.887 31.921 106.622 32.459C106.356 32.9969 105.973 33.4523 105.471 33.8253C104.969 34.1982 104.37 34.4815 103.674 34.6752C102.978 34.8688 102.2 34.9657 101.339 34.9657C100.565 34.9657 99.801 34.8652 99.0479 34.6644C98.2948 34.4564 97.6098 34.1444 96.993 33.7284C96.3834 33.3125 95.8957 32.7817 95.5299 32.1362C95.1641 31.4907 94.9812 30.7269 94.9812 29.8447H98.2195C98.2195 30.3324 98.2948 30.7448 98.4454 31.0819C98.596 31.419 98.8076 31.6915 99.0802 31.8995C99.3599 32.1075 99.6898 32.2581 100.07 32.3514C100.457 32.4446 100.88 32.4912 101.339 32.4912C101.899 32.4912 102.358 32.4123 102.716 32.2545C103.082 32.0968 103.351 31.878 103.523 31.5983C103.703 31.3186 103.792 31.003 103.792 30.6515Z" fill="white"/>
<path d="M114.723 23.1099V25.3046H107.945V23.1099H114.723ZM109.623 20.2374H112.722V31.2433C112.722 31.5804 112.765 31.8386 112.851 32.0179C112.944 32.1972 113.08 32.3227 113.26 32.3944C113.439 32.459 113.665 32.4912 113.937 32.4912C114.131 32.4912 114.303 32.4841 114.454 32.4697C114.612 32.4482 114.744 32.4267 114.852 32.4052L114.863 34.6859C114.597 34.772 114.31 34.8401 114.002 34.8904C113.694 34.9406 113.353 34.9657 112.98 34.9657C112.299 34.9657 111.703 34.8545 111.194 34.6321C110.692 34.4026 110.305 34.0369 110.032 33.5348C109.76 33.0327 109.623 32.3729 109.623 31.5552V20.2374Z" fill="white"/>
<path d="M122.77 32.1254V26.9399C122.77 26.5669 122.709 26.2478 122.587 25.9824C122.465 25.7099 122.275 25.4983 122.017 25.3477C121.766 25.197 121.44 25.1217 121.038 25.1217C120.694 25.1217 120.396 25.1827 120.145 25.3046C119.894 25.4194 119.7 25.5879 119.564 25.8103C119.428 26.0254 119.36 26.2801 119.36 26.5741H116.261C116.261 26.0792 116.376 25.6094 116.606 25.1648C116.835 24.7201 117.169 24.3292 117.606 23.9921C118.044 23.6478 118.564 23.3789 119.166 23.1852C119.776 22.9916 120.457 22.8947 121.21 22.8947C122.114 22.8947 122.917 23.0454 123.62 23.3466C124.323 23.6478 124.875 24.0997 125.277 24.7022C125.686 25.3046 125.89 26.0577 125.89 26.9614V31.9426C125.89 32.5809 125.93 33.1045 126.008 33.5133C126.087 33.9149 126.202 34.2664 126.353 34.5676V34.7505H123.222C123.071 34.4349 122.957 34.0404 122.878 33.5671C122.806 33.0865 122.77 32.606 122.77 32.1254ZM123.179 27.6607L123.2 29.4143H121.468C121.06 29.4143 120.705 29.4609 120.403 29.5542C120.102 29.6474 119.855 29.7801 119.661 29.9522C119.467 30.1172 119.324 30.3109 119.231 30.5332C119.145 30.7555 119.102 30.9994 119.102 31.2648C119.102 31.5301 119.162 31.7704 119.284 31.9856C119.406 32.1936 119.582 32.3585 119.812 32.4805C120.041 32.5952 120.31 32.6526 120.618 32.6526C121.085 32.6526 121.49 32.5594 121.834 32.3729C122.178 32.1864 122.444 31.9569 122.63 31.6844C122.824 31.4118 122.924 31.1536 122.932 30.9097L123.749 32.2223C123.634 32.5163 123.477 32.8212 123.276 33.1367C123.082 33.4523 122.835 33.75 122.533 34.0297C122.232 34.3022 121.87 34.5282 121.447 34.7075C121.024 34.8796 120.522 34.9657 119.941 34.9657C119.202 34.9657 118.531 34.8186 117.929 34.5246C117.334 34.2233 116.86 33.8109 116.509 33.2874C116.164 32.7566 115.992 32.1541 115.992 31.4799C115.992 30.8703 116.107 30.3288 116.337 29.8554C116.566 29.3821 116.903 28.984 117.348 28.6612C117.8 28.3313 118.363 28.0839 119.037 27.9189C119.711 27.7468 120.493 27.6607 121.382 27.6607H123.179Z" fill="white"/>
<path d="M135.648 23.1099H138.456V34.3632C138.456 35.4247 138.219 36.3248 137.746 37.0635C137.28 37.8095 136.627 38.3725 135.788 38.7526C134.949 39.1399 133.973 39.3336 132.862 39.3336C132.374 39.3336 131.857 39.269 131.312 39.1399C130.774 39.0108 130.258 38.81 129.763 38.5374C129.275 38.2649 128.867 37.9206 128.537 37.5046L129.903 35.6757C130.262 36.0917 130.678 36.4145 131.151 36.644C131.624 36.8807 132.148 36.999 132.722 36.999C133.281 36.999 133.754 36.895 134.142 36.687C134.529 36.4862 134.827 36.1885 135.035 35.7941C135.243 35.4068 135.347 34.937 135.347 34.3847V25.7995L135.648 23.1099ZM127.816 29.0701V28.8441C127.816 27.9548 127.923 27.1479 128.139 26.4235C128.361 25.6919 128.673 25.0644 129.075 24.5408C129.483 24.0172 129.978 23.612 130.559 23.3251C131.14 23.0382 131.796 22.8947 132.528 22.8947C133.303 22.8947 133.952 23.0382 134.475 23.3251C134.999 23.612 135.429 24.0208 135.766 24.5515C136.103 25.0751 136.365 25.6955 136.552 26.4127C136.745 27.1228 136.896 27.901 137.003 28.7473V29.2422C136.896 30.0527 136.735 30.8057 136.519 31.5015C136.304 32.1972 136.021 32.8068 135.669 33.3304C135.318 33.8468 134.88 34.2484 134.357 34.5353C133.841 34.8222 133.224 34.9657 132.506 34.9657C131.789 34.9657 131.14 34.8186 130.559 34.5246C129.985 34.2305 129.494 33.8181 129.085 33.2874C128.676 32.7566 128.361 32.1326 128.139 31.4154C127.923 30.6982 127.816 29.9164 127.816 29.0701ZM130.914 28.8441V29.0701C130.914 29.5506 130.961 29.9989 131.054 30.4149C131.147 30.8309 131.291 31.2002 131.484 31.523C131.685 31.8386 131.933 32.086 132.227 32.2653C132.528 32.4374 132.883 32.5235 133.292 32.5235C133.858 32.5235 134.321 32.4052 134.68 32.1685C135.038 31.9246 135.307 31.5911 135.487 31.1679C135.666 30.7448 135.77 30.2571 135.799 29.7048V28.2955C135.784 27.8436 135.723 27.4384 135.616 27.0798C135.508 26.714 135.357 26.402 135.164 26.1438C134.97 25.8856 134.719 25.6848 134.411 25.5413C134.102 25.3979 133.737 25.3261 133.313 25.3261C132.905 25.3261 132.55 25.4194 132.248 25.6059C131.954 25.7852 131.707 26.0326 131.506 26.3482C131.312 26.6638 131.165 27.0367 131.065 27.4671C130.964 27.8902 130.914 28.3492 130.914 28.8441Z" fill="white"/>
<path d="M146.223 34.9657C145.32 34.9657 144.509 34.8222 143.792 34.5353C143.075 34.2413 142.465 33.836 141.963 33.3196C141.468 32.8032 141.088 32.2043 140.823 31.523C140.557 30.8344 140.425 30.1029 140.425 29.3283V28.8979C140.425 28.0157 140.55 27.2089 140.801 26.4773C141.052 25.7457 141.411 25.111 141.877 24.5731C142.35 24.0351 142.924 23.6227 143.598 23.3358C144.273 23.0418 145.033 22.8947 145.879 22.8947C146.704 22.8947 147.436 23.031 148.074 23.3036C148.712 23.5761 149.247 23.9634 149.677 24.4655C150.114 24.9675 150.444 25.57 150.667 26.2729C150.889 26.9686 151 27.7432 151 28.5967V29.8877H141.748V27.8221H147.956V27.5854C147.956 27.1551 147.877 26.7714 147.719 26.4343C147.568 26.09 147.339 25.8174 147.03 25.6166C146.722 25.4158 146.327 25.3154 145.847 25.3154C145.438 25.3154 145.087 25.405 144.793 25.5843C144.498 25.7636 144.258 26.0147 144.072 26.3374C143.892 26.6602 143.756 27.0403 143.663 27.4778C143.577 27.9082 143.534 28.3815 143.534 28.8979V29.3283C143.534 29.7945 143.598 30.2248 143.727 30.6193C143.864 31.0137 144.054 31.3544 144.298 31.6413C144.549 31.9282 144.85 32.1505 145.201 32.3083C145.56 32.4661 145.965 32.545 146.417 32.545C146.977 32.545 147.496 32.4374 147.977 32.2223C148.465 31.9999 148.884 31.6664 149.236 31.2217L150.742 32.857C150.498 33.2085 150.165 33.5456 149.741 33.8683C149.325 34.1911 148.823 34.4564 148.235 34.6644C147.647 34.8652 146.977 34.9657 146.223 34.9657Z" fill="white"/>
</svg>
