<svg width="164" height="43" viewBox="0 0 164 43" fill="none" xmlns="http://www.w3.org/2000/svg">
<ellipse cx="20.7324" cy="20.6051" rx="20.7324" ry="20.6051" fill="white"/>
<path d="M26.343 20.498C27.1425 19.5634 27.5426 18.5266 27.5426 17.3842C27.5426 16.4373 27.3798 15.6389 27.0541 14.99C26.7156 14.4065 26.2401 13.9451 25.6303 13.6086C24.7079 13.0508 23.6356 12.785 22.415 12.8102H15.9268V21.9769H22.5778C24.2464 21.9512 25.5009 21.4576 26.343 20.498Z" fill="#CC0029"/>
<path d="M22.1755 8.77886C23.3394 8.77886 24.4651 8.88281 25.5487 9.08804C26.6324 9.36024 27.73 9.91484 28.8411 10.7545C29.7733 11.3873 30.5307 12.2913 31.113 13.4659C31.7211 14.6035 32.0257 15.9468 32.0257 17.4965C32.0257 19.5895 31.2515 21.4933 29.707 23.2112C28.6233 24.4469 27.1979 25.2726 25.4307 25.6879C27.4858 26.0903 29.1668 26.8378 30.4547 27.7573C32.3869 29.1366 33.3535 31.4101 33.3535 33.9313C33.3535 35.6047 32.6495 37.0177 31.5567 38.1853C29.294 39.5646 26.7456 40.5254 24.0193 40.9578C33.9072 39.392 41.464 30.8781 41.464 20.6097C41.464 9.2295 32.182 0.00390625 20.7317 0.00390625C9.28144 0.00390625 0 9.2295 0 20.6097C0 28.6704 4.65959 35.6454 11.4449 39.0314V8.77886H22.175H22.1755Z" fill="#CC0029"/>
<path d="M21.4194 41.2078C21.4447 41.2067 21.4701 41.2062 21.4949 41.2056C21.6054 41.2019 21.7159 41.1971 21.8264 41.1912C21.8442 41.1901 21.862 41.189 21.8803 41.188C21.9752 41.1826 22.0701 41.1772 22.1644 41.1708C22.1903 41.1692 22.2167 41.1671 22.2426 41.1655C22.468 41.1494 22.6922 41.1295 22.9154 41.1065C22.9316 41.1049 22.9478 41.1033 22.9634 41.1012C23.0664 41.0899 23.1699 41.0786 23.2723 41.0658C23.2831 41.0642 23.2944 41.0631 23.3052 41.062C23.5387 41.0331 23.771 41.0004 24.0018 40.964C24.0071 40.9629 24.0125 40.9624 24.0174 40.9613C26.7437 40.5289 29.2921 39.5681 31.5548 38.1888C32.6476 37.0212 33.3517 35.6077 33.3517 33.9348C33.3517 31.4142 32.3845 29.1406 30.4528 27.7608C29.1649 26.8419 27.4839 26.0938 25.4288 25.6914C24.7134 25.8597 23.9424 25.9604 23.1154 25.9936C23.1122 25.9936 23.109 25.9936 23.1057 25.9936C22.9898 25.9984 22.8728 26.0022 22.7542 26.0038H15.9258V40.6446C17.4693 41.0106 19.0742 41.218 20.7304 41.218C20.8414 41.218 20.952 41.2169 21.063 41.2153C21.0938 41.2153 21.1245 41.2142 21.1552 41.2137C21.2431 41.2121 21.331 41.2094 21.4183 41.2067L21.4194 41.2078Z" fill="#FF1947"/>
<path d="M56.46 10.343C56.7378 10.2103 56.9772 10.0621 57.1719 9.90195C57.3874 9.73475 57.5559 9.55482 57.6726 9.36526C57.8984 8.97288 58.0077 8.5558 57.9975 8.1265C57.9975 7.28818 57.721 6.60353 57.1753 6.09232C56.6353 5.58683 55.8198 5.32577 54.7509 5.31641H50.5195V15.712H55.1169C55.9755 15.712 56.702 15.434 57.2752 14.8869C57.856 14.3622 58.1555 13.6401 58.1657 12.7393C58.1657 12.1962 58.0208 11.6862 57.7341 11.2221C57.4426 10.7946 57.0144 10.4992 56.4603 10.3432L56.46 10.343ZM52.2504 11.1407H54.7237C55.3154 11.1501 55.7531 11.2998 56.0244 11.5859C56.2962 11.8776 56.4341 12.2336 56.4341 12.6439C56.4341 13.0542 56.2962 13.3964 56.0242 13.6879C55.7523 13.9836 55.3147 14.138 54.7242 14.1471H52.2501V11.1407H52.2504ZM55.8486 9.22926C55.5776 9.51607 55.1459 9.66169 54.5654 9.66169H52.2506V6.79647H54.5646C55.1464 6.80557 55.5789 6.94208 55.8497 7.20107C56.1254 7.4793 56.2654 7.82383 56.2654 8.22531C56.2654 8.62679 56.1257 8.96326 55.8489 9.22926H55.8486Z" fill="#CC0029"/>
<path d="M61.7692 5.31641H60.1299V6.88124H61.7692V5.31641Z" fill="#CC0029"/>
<path d="M61.7692 8.28516H60.1299V15.7138H61.7692V8.28516Z" fill="#CC0029"/>
<path d="M64.2038 9.68045H67.9124L64.1235 14.4699L64.1133 14.4829V15.7138H69.9405V14.2338H66.0212L69.9298 9.53796L69.9405 9.5247V8.28516H64.2038V9.68045Z" fill="#CC0029"/>
<path d="M78.9041 6.04656C78.496 5.73817 78.0863 5.53067 77.684 5.4303C77.2868 5.35489 76.8701 5.31641 76.445 5.31641H72.4844V15.712H74.2155V11.6917H76.6576C77.7784 11.6727 78.643 11.3248 79.2267 10.6586C79.7957 10.026 80.0845 9.31403 80.0845 8.54254C80.0845 7.97256 79.9707 7.47071 79.7468 7.05233C79.5323 6.61861 79.2479 6.2798 78.9041 6.04656ZM78.3534 8.50067C78.3534 8.90319 78.2103 9.27503 77.928 9.60474C77.6314 9.94251 77.1817 10.1183 76.5922 10.1274H74.2155V6.88124H76.5336C76.9713 6.86928 77.3525 6.96757 77.6813 7.16622C77.8953 7.28428 78.0633 7.44783 78.181 7.64909C78.2956 7.87739 78.3537 8.16368 78.3537 8.50067H78.3534Z" fill="#CC0029"/>
<path d="M85.4048 8.19531C84.5977 8.19531 83.9311 8.47328 83.4218 9.02167V8.28684H81.7822V15.7155H83.4218V11.2475C83.4309 10.728 83.5892 10.3481 83.894 10.1159C84.1653 9.87975 84.4962 9.75988 84.8776 9.75988C85.2159 9.75988 85.5471 9.88053 85.8634 10.1187L85.8993 10.1458L87.0551 8.83809L87.0888 8.80039L87.049 8.76893C86.5831 8.39761 86.0298 8.20493 85.4045 8.19531H85.4048Z" fill="#CC0029"/>
<path d="M94.2042 10.1998C94.0741 9.78849 93.8513 9.43667 93.5462 9.15923C93.3403 8.91064 93.0463 8.68572 92.6714 8.48966C92.2912 8.30374 91.7887 8.20467 91.1762 8.19531C90.5845 8.20441 90.0921 8.30322 89.7115 8.48862C89.3269 8.68312 89.0229 8.90674 88.8115 9.15064C88.5214 9.43251 88.3029 9.78407 88.1622 10.1962C88.028 10.6151 87.96 11.2199 87.96 11.9943C87.96 12.7686 88.028 13.3667 88.1625 13.7757C88.3022 14.1858 88.5203 14.5459 88.8086 14.8455C89.0237 15.0792 89.3274 15.2919 89.7096 15.4768C90.09 15.6822 90.5832 15.7912 91.1747 15.8005H91.1762C91.7879 15.7912 92.291 15.6822 92.6669 15.4789C92.8728 15.3928 93.0444 15.2875 93.1721 15.1697C93.3173 15.0652 93.4416 14.9557 93.5402 14.8473C93.8507 14.5462 94.0741 14.1853 94.2042 13.7742C94.3282 13.3659 94.3912 12.7671 94.3912 11.9943C94.3912 11.2215 94.3284 10.619 94.2042 10.1998ZM92.7519 12.0086C92.7519 12.5024 92.7274 12.8713 92.679 13.1046C92.6311 13.3368 92.5325 13.5443 92.3841 13.7219C92.2748 13.8576 92.111 13.9798 91.8959 14.0846C91.6916 14.185 91.4488 14.2357 91.1755 14.2357C90.922 14.2357 90.6842 14.1847 90.4707 14.0851C90.2637 13.9793 90.0937 13.8563 89.9684 13.724C89.8389 13.5456 89.7442 13.3368 89.6869 13.1028C89.6288 12.8721 89.5992 12.4995 89.5992 11.9945C89.5992 11.4896 89.6288 11.1073 89.6869 10.8723C89.7439 10.6484 89.8384 10.4492 89.9668 10.281C90.095 10.1224 90.2637 9.99573 90.4678 9.90524C90.6836 9.80903 90.9217 9.76014 91.1752 9.76014C91.4483 9.76014 91.6911 9.80851 91.8986 9.90498C92.111 9.99547 92.2737 10.1208 92.3857 10.2825C92.5327 10.4497 92.6313 10.6476 92.679 10.8699C92.7274 11.1081 92.7519 11.4914 92.7519 12.0088V12.0086Z" fill="#CC0029"/>
<path d="M57.1797 30.2817H52.8097L52.7863 27.8747H56.4553C57.1018 27.8747 57.6315 27.7929 58.0444 27.6294C58.4572 27.458 58.7649 27.2126 58.9674 26.8932C59.1777 26.5661 59.2829 26.1688 59.2829 25.7014C59.2829 25.1717 59.1816 24.7433 58.9791 24.4161C58.7844 24.089 58.4767 23.8514 58.056 23.7034C57.6432 23.5554 57.1096 23.4814 56.4553 23.4814H54.0249V37.7481H50.5195V20.7355H56.4553C57.4445 20.7355 58.3287 20.829 59.1076 21.0159C59.8944 21.2029 60.5604 21.4872 61.1057 21.8689C61.651 22.2506 62.0677 22.7336 62.3559 23.3178C62.6442 23.8942 62.7883 24.5797 62.7883 25.3743C62.7883 26.0753 62.6286 26.7219 62.3092 27.3139C61.9976 27.9059 61.503 28.3889 60.8253 28.7628C60.1554 29.1367 59.279 29.3431 58.1962 29.382L57.1797 30.2817ZM57.0278 37.7481H51.8516L53.2187 35.014H57.0278C57.6432 35.014 58.1456 34.9166 58.5351 34.7219C58.9246 34.5193 59.2128 34.2467 59.3998 33.9039C59.5867 33.5612 59.6802 33.1678 59.6802 32.7238C59.6802 32.2253 59.5945 31.7929 59.4231 31.4268C59.2595 31.0607 58.9947 30.7803 58.6286 30.5855C58.2625 30.383 57.7795 30.2817 57.1797 30.2817H53.8029L53.8262 27.8747H58.0327L58.8389 28.8212C59.8749 28.8056 60.7084 28.9887 61.3394 29.3704C61.9781 29.7443 62.4416 30.2311 62.7298 30.8309C63.0258 31.4307 63.1738 32.0734 63.1738 32.7589C63.1738 33.8494 62.9363 34.7686 62.4611 35.5164C61.9859 36.2564 61.2887 36.8134 60.3696 37.1873C59.4582 37.5612 58.3443 37.7481 57.0278 37.7481Z" fill="#38323C"/>
<path d="M72.4163 34.8971V29.2652C72.4163 28.8601 72.3501 28.5135 72.2177 28.2253C72.0852 27.9293 71.8788 27.6995 71.5984 27.5359C71.3257 27.3723 70.9713 27.2905 70.5351 27.2905C70.1612 27.2905 69.8379 27.3567 69.5653 27.4891C69.2926 27.6138 69.0823 27.7968 68.9343 28.0383C68.7863 28.272 68.7123 28.5485 68.7123 28.8679H65.3472C65.3472 28.3304 65.4718 27.8202 65.7211 27.3373C65.9703 26.8543 66.3326 26.4298 66.8077 26.0636C67.2829 25.6897 67.8476 25.3976 68.502 25.1873C69.1641 24.977 69.9041 24.8718 70.722 24.8718C71.7035 24.8718 72.576 25.0354 73.3394 25.3626C74.1028 25.6897 74.7026 26.1805 75.1388 26.8348C75.5828 27.4891 75.8048 28.3071 75.8048 29.2886V34.6985C75.8048 35.3918 75.8476 35.9604 75.9333 36.4044C76.019 36.8406 76.1436 37.2223 76.3072 37.5495V37.7481H72.907C72.7435 37.4054 72.6188 36.977 72.5331 36.4628C72.4552 35.9409 72.4163 35.419 72.4163 34.8971ZM72.8603 30.0481L72.8837 31.9526H71.0025C70.5585 31.9526 70.1729 32.0033 69.8457 32.1045C69.5185 32.2058 69.2498 32.3499 69.0395 32.5369C68.8291 32.716 68.6734 32.9263 68.5721 33.1678C68.4786 33.4093 68.4319 33.6741 68.4319 33.9624C68.4319 34.2506 68.4981 34.5115 68.6305 34.7452C68.7629 34.9711 68.9538 35.1503 69.2031 35.2827C69.4523 35.4073 69.7444 35.4697 70.0794 35.4697C70.5857 35.4697 71.0258 35.3684 71.3997 35.1659C71.7736 34.9633 72.0619 34.7141 72.2644 34.4181C72.4747 34.1221 72.5838 33.8416 72.5916 33.5768L73.4796 35.0023C73.3549 35.3217 73.1836 35.6527 72.9655 35.9955C72.7551 36.3382 72.4864 36.6615 72.1592 36.9653C71.8321 37.2613 71.4387 37.5067 70.9791 37.7014C70.5195 37.8884 69.9742 37.9818 69.3433 37.9818C68.5409 37.9818 67.8126 37.8221 67.1583 37.5028C66.5117 37.1756 65.9976 36.7277 65.6159 36.159C65.242 35.5826 65.0551 34.9283 65.0551 34.1961C65.0551 33.5339 65.1797 32.9458 65.429 32.4317C65.6782 31.9176 66.0443 31.4852 66.5273 31.1347C67.018 30.7764 67.6295 30.5076 68.3618 30.3285C69.094 30.1415 69.9431 30.0481 70.909 30.0481H72.8603Z" fill="#38323C"/>
<path d="M83.6217 35.3528C84.0346 35.3528 84.4007 35.2749 84.7201 35.1191C85.0394 34.9555 85.2887 34.7296 85.4679 34.4414C85.6548 34.1454 85.7522 33.7988 85.76 33.4015H88.9265C88.9187 34.2895 88.6811 35.0802 88.2137 35.7735C87.7464 36.459 87.1193 37.0003 86.3325 37.3976C85.5458 37.7871 84.6655 37.9818 83.6918 37.9818C82.7103 37.9818 81.8535 37.8182 81.1212 37.4911C80.3968 37.1639 79.7931 36.7121 79.3101 36.1357C78.8272 35.5515 78.465 34.8738 78.2235 34.1026C77.982 33.3236 77.8613 32.4901 77.8613 31.6021V31.2632C77.8613 30.3674 77.982 29.5339 78.2235 28.7628C78.465 27.9838 78.8272 27.3061 79.3101 26.7297C79.7931 26.1454 80.3968 25.6897 81.1212 25.3626C81.8457 25.0354 82.6948 24.8718 83.6685 24.8718C84.7045 24.8718 85.612 25.0705 86.391 25.4677C87.1777 25.865 87.7931 26.4336 88.2371 27.1737C88.6889 27.9059 88.9187 28.7744 88.9265 29.7793H85.76C85.7522 29.3587 85.6626 28.977 85.4912 28.6342C85.3277 28.2915 85.0862 28.0188 84.7668 27.8163C84.4552 27.606 84.0696 27.5008 83.61 27.5008C83.1193 27.5008 82.7181 27.606 82.4065 27.8163C82.095 28.0188 81.8535 28.2993 81.6821 28.6576C81.5107 29.0081 81.39 29.4093 81.3199 29.8611C81.2576 30.3051 81.2264 30.7725 81.2264 31.2632V31.6021C81.2264 32.0928 81.2576 32.5641 81.3199 33.0159C81.3822 33.4677 81.499 33.8689 81.6704 34.2194C81.8496 34.57 82.095 34.8465 82.4065 35.049C82.7181 35.2516 83.1232 35.3528 83.6217 35.3528Z" fill="#38323C"/>
<path d="M94.2429 19.7891V37.7481H90.8778V19.7891H94.2429ZM102.212 25.1055L96.7201 31.3684L93.7756 34.348L92.5487 31.9176L94.8856 28.9497L98.1689 25.1055H102.212ZM98.7181 37.7481L94.9791 31.9059L97.3043 29.8728L102.597 37.7481H98.7181Z" fill="#38323C"/>
<path d="M112.728 33.2963C112.728 32.9925 112.681 32.7199 112.588 32.4784C112.502 32.2292 112.338 32.0033 112.097 31.8007C111.855 31.5904 111.517 31.384 111.08 31.1815C110.644 30.9789 110.079 30.7686 109.386 30.5505C108.615 30.3012 107.883 30.0208 107.189 29.7092C106.504 29.3976 105.896 29.0354 105.367 28.6225C104.845 28.2019 104.432 27.715 104.128 27.162C103.832 26.6089 103.684 25.9663 103.684 25.234C103.684 24.5252 103.84 23.8825 104.151 23.3061C104.463 22.7219 104.899 22.2233 105.46 21.8105C106.021 21.3898 106.683 21.0666 107.446 20.8407C108.218 20.6148 109.063 20.5018 109.982 20.5018C111.236 20.5018 112.331 20.7277 113.265 21.1795C114.2 21.6313 114.925 22.2506 115.439 23.0374C115.961 23.8241 116.221 24.7238 116.221 25.7365H112.74C112.74 25.2379 112.634 24.8017 112.424 24.4278C112.221 24.0461 111.91 23.7462 111.489 23.5281C111.076 23.31 110.555 23.2009 109.924 23.2009C109.316 23.2009 108.81 23.2944 108.405 23.4814C107.999 23.6605 107.696 23.9059 107.493 24.2175C107.291 24.5213 107.189 24.864 107.189 25.2457C107.189 25.5339 107.259 25.7949 107.4 26.0286C107.548 26.2623 107.766 26.4804 108.054 26.6829C108.342 26.8854 108.697 27.0763 109.117 27.2555C109.538 27.4346 110.025 27.6099 110.578 27.7813C111.505 28.0617 112.319 28.3772 113.02 28.7277C113.729 29.0782 114.321 29.4716 114.796 29.9078C115.271 30.3441 115.629 30.8387 115.871 31.3918C116.112 31.9448 116.233 32.5719 116.233 33.273C116.233 34.013 116.089 34.6751 115.801 35.2593C115.513 35.8436 115.096 36.3382 114.551 36.7433C114.005 37.1483 113.355 37.456 112.599 37.6664C111.844 37.8767 110.999 37.9818 110.064 37.9818C109.222 37.9818 108.393 37.8728 107.575 37.6547C106.757 37.4288 106.013 37.0899 105.343 36.6381C104.681 36.1863 104.151 35.6099 103.754 34.9088C103.357 34.2077 103.158 33.3781 103.158 32.42H106.675C106.675 32.9497 106.757 33.3976 106.921 33.7637C107.084 34.1298 107.314 34.4258 107.61 34.6517C107.914 34.8776 108.272 35.0412 108.685 35.1425C109.106 35.2438 109.565 35.2944 110.064 35.2944C110.671 35.2944 111.17 35.2087 111.559 35.0373C111.957 34.866 112.249 34.6284 112.436 34.3246C112.63 34.0208 112.728 33.678 112.728 33.2963Z" fill="#38323C"/>
<path d="M124.599 25.1055V27.4891H117.238V25.1055H124.599ZM119.061 21.9857H122.426V33.939C122.426 34.3051 122.473 34.5855 122.566 34.7803C122.667 34.975 122.815 35.1113 123.01 35.1892C123.205 35.2593 123.45 35.2944 123.746 35.2944C123.957 35.2944 124.144 35.2866 124.307 35.271C124.479 35.2477 124.623 35.2243 124.739 35.2009L124.751 37.678C124.463 37.7715 124.151 37.8455 123.816 37.9C123.481 37.9546 123.111 37.9818 122.706 37.9818C121.966 37.9818 121.32 37.8611 120.767 37.6196C120.221 37.3703 119.801 36.9731 119.505 36.4278C119.209 35.8825 119.061 35.1659 119.061 34.2778V21.9857Z" fill="#38323C"/>
<path d="M133.339 34.8971V29.2652C133.339 28.8601 133.273 28.5135 133.141 28.2253C133.008 27.9293 132.802 27.6995 132.521 27.5359C132.249 27.3723 131.894 27.2905 131.458 27.2905C131.084 27.2905 130.761 27.3567 130.488 27.4891C130.216 27.6138 130.005 27.7968 129.857 28.0383C129.709 28.272 129.635 28.5485 129.635 28.8679H126.27C126.27 28.3304 126.395 27.8202 126.644 27.3373C126.893 26.8543 127.256 26.4298 127.731 26.0636C128.206 25.6897 128.771 25.3976 129.425 25.1873C130.087 24.977 130.827 24.8718 131.645 24.8718C132.627 24.8718 133.499 25.0354 134.262 25.3626C135.026 25.6897 135.626 26.1805 136.062 26.8348C136.506 27.4891 136.728 28.3071 136.728 29.2886V34.6985C136.728 35.3918 136.771 35.9604 136.856 36.4044C136.942 36.8406 137.067 37.2223 137.23 37.5495V37.7481H133.83C133.666 37.4054 133.542 36.977 133.456 36.4628C133.378 35.9409 133.339 35.419 133.339 34.8971ZM133.783 30.0481L133.807 31.9526H131.925C131.481 31.9526 131.096 32.0033 130.769 32.1045C130.442 32.2058 130.173 32.3499 129.962 32.5369C129.752 32.716 129.596 32.9263 129.495 33.1678C129.402 33.4093 129.355 33.6741 129.355 33.9624C129.355 34.2506 129.421 34.5115 129.554 34.7452C129.686 34.9711 129.877 35.1503 130.126 35.2827C130.375 35.4073 130.667 35.4697 131.002 35.4697C131.509 35.4697 131.949 35.3684 132.323 35.1659C132.697 34.9633 132.985 34.7141 133.187 34.4181C133.398 34.1221 133.507 33.8416 133.515 33.5768L134.403 35.0023C134.278 35.3217 134.107 35.6527 133.888 35.9955C133.678 36.3382 133.409 36.6615 133.082 36.9653C132.755 37.2613 132.362 37.5067 131.902 37.7014C131.443 37.8884 130.897 37.9818 130.266 37.9818C129.464 37.9818 128.736 37.8221 128.081 37.5028C127.435 37.1756 126.921 36.7277 126.539 36.159C126.165 35.5826 125.978 34.9283 125.978 34.1961C125.978 33.5339 126.103 32.9458 126.352 32.4317C126.601 31.9176 126.967 31.4852 127.45 31.1347C127.941 30.7764 128.553 30.5076 129.285 30.3285C130.017 30.1415 130.866 30.0481 131.832 30.0481H133.783Z" fill="#38323C"/>
<path d="M147.326 25.1055H150.375V37.3275C150.375 38.4804 150.118 39.458 149.604 40.2603C149.098 41.0704 148.389 41.6819 147.478 42.0948C146.566 42.5154 145.507 42.7257 144.299 42.7257C143.77 42.7257 143.209 42.6556 142.617 42.5154C142.033 42.3752 141.472 42.1571 140.934 41.8611C140.405 41.5651 139.961 41.1912 139.602 40.7394L141.086 38.753C141.476 39.2048 141.927 39.5553 142.442 39.8046C142.956 40.0617 143.524 40.1902 144.147 40.1902C144.755 40.1902 145.269 40.0773 145.69 39.8514C146.11 39.6332 146.434 39.31 146.66 38.8815C146.886 38.4609 146.998 37.9507 146.998 37.3509V28.0266L147.326 25.1055ZM138.819 31.5787V31.3334C138.819 30.3674 138.936 29.4911 139.17 28.7043C139.411 27.9098 139.75 27.2282 140.186 26.6595C140.63 26.0909 141.168 25.6508 141.799 25.3392C142.43 25.0276 143.143 24.8718 143.937 24.8718C144.778 24.8718 145.483 25.0276 146.052 25.3392C146.621 25.6508 147.088 26.0948 147.454 26.6712C147.82 27.2399 148.105 27.9137 148.307 28.6927C148.517 29.4638 148.681 30.309 148.798 31.2282V31.7657C148.681 32.6459 148.506 33.4638 148.272 34.2194C148.038 34.975 147.731 35.6371 147.349 36.2058C146.967 36.7666 146.492 37.2029 145.924 37.5145C145.363 37.826 144.693 37.9818 143.914 37.9818C143.135 37.9818 142.43 37.8221 141.799 37.5028C141.176 37.1834 140.642 36.7355 140.198 36.159C139.754 35.5826 139.411 34.9049 139.17 34.1259C138.936 33.347 138.819 32.4979 138.819 31.5787ZM142.184 31.3334V31.5787C142.184 32.1006 142.235 32.5875 142.336 33.0393C142.438 33.4911 142.593 33.8923 142.804 34.2428C143.022 34.5855 143.291 34.8543 143.61 35.049C143.937 35.236 144.323 35.3294 144.767 35.3294C145.382 35.3294 145.885 35.2009 146.274 34.9439C146.664 34.679 146.956 34.3168 147.15 33.8572C147.345 33.3976 147.458 32.8679 147.489 32.2681V30.7374C147.474 30.2467 147.407 29.8066 147.291 29.4171C147.174 29.0198 147.01 28.681 146.8 28.4005C146.59 28.1201 146.317 27.902 145.982 27.7462C145.647 27.5904 145.25 27.5125 144.79 27.5125C144.346 27.5125 143.961 27.6138 143.633 27.8163C143.314 28.0111 143.045 28.2798 142.827 28.6225C142.617 28.9653 142.457 29.3704 142.348 29.8377C142.239 30.2973 142.184 30.7959 142.184 31.3334Z" fill="#38323C"/>
<path d="M158.812 37.9818C157.83 37.9818 156.95 37.826 156.171 37.5145C155.392 37.1951 154.73 36.755 154.184 36.1941C153.647 35.6332 153.234 34.9828 152.946 34.2428C152.658 33.495 152.514 32.7004 152.514 31.8592V31.3918C152.514 30.4336 152.65 29.5573 152.923 28.7628C153.195 27.9682 153.585 27.2788 154.091 26.6946C154.605 26.1104 155.228 25.6625 155.96 25.3509C156.693 25.0315 157.518 24.8718 158.438 24.8718C159.333 24.8718 160.128 25.0198 160.821 25.3158C161.515 25.6118 162.095 26.0325 162.562 26.5778C163.037 27.123 163.396 27.7774 163.637 28.5408C163.879 29.2964 163.999 30.1376 163.999 31.0646V32.4667H153.951V30.2233H160.693V29.9663C160.693 29.4989 160.607 29.0821 160.436 28.716C160.272 28.3421 160.023 28.0461 159.688 27.828C159.353 27.6099 158.924 27.5008 158.403 27.5008C157.959 27.5008 157.577 27.5982 157.257 27.7929C156.938 27.9877 156.677 28.2603 156.475 28.6109C156.28 28.9614 156.132 29.3742 156.031 29.8494C155.937 30.3168 155.89 30.8309 155.89 31.3918V31.8592C155.89 32.3655 155.96 32.8329 156.101 33.2613C156.249 33.6897 156.455 34.0597 156.72 34.3713C156.993 34.6829 157.32 34.9244 157.701 35.0958C158.091 35.2671 158.531 35.3528 159.022 35.3528C159.629 35.3528 160.194 35.236 160.716 35.0023C161.246 34.7608 161.701 34.3986 162.083 33.9156L163.719 35.6917C163.454 36.0734 163.092 36.4395 162.632 36.79C162.181 37.1405 161.635 37.4288 160.997 37.6547C160.358 37.8728 159.629 37.9818 158.812 37.9818Z" fill="#38323C"/>
</svg>
