<svg width="630" height="492" viewBox="0 0 630 492" fill="none" xmlns="http://www.w3.org/2000/svg">
<g clip-path="url(#clip0_2381_231625)">
<path d="M222.286 109.414C232.206 60.557 200.615 12.9028 151.725 2.97569C102.834 -6.95135 55.159 24.608 45.2387 73.4655C35.4573 121.638 66.0327 168.641 113.755 179.464C114.433 179.618 115.115 179.765 115.8 179.904C164.69 189.831 212.366 158.271 222.286 109.414Z" fill="#B9544C"/>
<path d="M94.642 302.262C95.5845 297.621 92.5833 293.093 87.9387 292.15C83.2941 291.207 78.7649 294.205 77.8225 298.847C76.8801 303.488 79.8812 308.016 84.5258 308.959C89.1704 309.902 93.6996 306.904 94.642 302.262Z" fill="#B9544C"/>
<path d="M382.039 153.365C383.676 145.304 378.464 137.441 370.397 135.803C362.33 134.165 354.463 139.372 352.827 147.434C351.19 155.495 356.402 163.358 364.469 164.996C372.536 166.634 380.403 161.427 382.039 153.365Z" fill="#B9544C"/>
<path d="M400.271 127.132C405.16 128.125 408.319 132.89 407.327 137.776C406.702 140.85 404.583 143.24 401.879 144.341C400.286 144.991 398.491 145.193 396.678 144.825C391.789 143.832 388.63 139.067 389.622 134.181C390.206 131.303 392.1 129.026 394.557 127.842C396.272 127.017 398.261 126.724 400.271 127.132Z" fill="#B9544C"/>
<path d="M523.817 290.384C526.794 275.727 517.316 261.43 502.649 258.452C487.982 255.474 473.679 264.942 470.703 279.599C467.727 294.256 477.204 308.553 491.872 311.531C506.539 314.509 520.841 305.041 523.817 290.384Z" fill="#B9544C"/>
<path d="M628.636 182.711C629.628 177.825 626.469 173.06 621.58 172.067C616.691 171.074 611.924 174.23 610.932 179.116C609.939 184.002 613.099 188.767 617.988 189.76C622.877 190.753 627.644 187.597 628.636 182.711Z" fill="#B9544C"/>
<path d="M531.928 114.255C534.904 99.5974 525.426 85.3011 510.759 82.323C496.092 79.3449 481.79 88.8127 478.813 103.47C475.837 118.127 485.315 132.423 499.982 135.401C514.649 138.38 528.952 128.912 531.928 114.255Z" fill="#B9544C"/>
<path d="M336.441 337.079C341.5 312.162 325.389 287.858 300.455 282.796C275.521 277.733 251.206 293.828 246.147 318.745C241.087 343.663 257.199 367.966 282.133 373.029C307.067 378.092 331.382 361.997 336.441 337.079Z" fill="#B9544C"/>
<path d="M170.925 453.155C172.86 443.628 166.7 434.335 157.166 432.399C147.632 430.464 138.336 436.618 136.401 446.145C134.467 455.672 140.627 464.965 150.161 466.9C159.694 468.836 168.991 462.682 170.925 453.155Z" fill="#B9544C"/>
<path d="M593.66 400.361C594.652 395.476 591.493 390.71 586.604 389.717C581.715 388.725 576.948 391.881 575.956 396.766C574.964 401.652 578.123 406.418 583.012 407.41C587.901 408.403 592.668 405.247 593.66 400.361Z" fill="#B9544C"/>
<path d="M417.253 452.047C420.825 434.459 409.452 417.303 391.851 413.729C374.251 410.156 357.087 421.517 353.516 439.106C349.945 456.694 361.318 473.85 378.918 477.424C396.519 480.997 413.682 469.636 417.253 452.047Z" fill="#B9544C"/>
<path d="M163.108 271.49C171.664 273.227 177.192 281.566 175.456 290.116C174.056 297.011 168.36 301.937 161.721 302.675C160.127 302.853 158.478 302.789 156.821 302.452C148.265 300.715 142.737 292.375 144.473 283.825C145.731 277.626 150.463 273.019 156.231 271.615C158.419 271.083 160.755 271.012 163.108 271.49Z" fill="#B9544C"/>
<path d="M13.386 282.538C19.0084 283.68 22.6414 289.16 21.5006 294.779C20.4134 300.133 15.383 303.681 10.0462 303.015C9.78303 302.982 9.51903 302.939 9.25473 302.885C3.63233 301.744 -0.000686646 296.262 1.14016 290.644C2.19274 285.46 6.9414 281.97 12.0857 282.358C12.517 282.39 12.9511 282.45 13.386 282.538Z" fill="#B9544C"/>
<path d="M481.094 364.609C476.205 363.617 473.046 358.851 474.038 353.966C474.075 353.782 474.118 353.602 474.165 353.423C475.388 348.849 479.981 345.961 484.687 346.917C489.392 347.872 492.496 352.323 491.837 357.012C491.811 357.194 491.78 357.377 491.743 357.56C490.751 362.446 485.983 365.602 481.094 364.609Z" fill="#B9544C"/>
<path d="M113.755 179.464L113.639 179.974L113.755 179.464ZM103.136 226.184L103.255 225.675L103.136 226.184ZM133.762 91.4394L133.252 91.3235L133.371 90.8015L133.89 90.9325L133.762 91.4394ZM161.721 302.674L161.664 302.155L161.721 302.674ZM156.231 271.614L156.355 272.122L156.231 271.614ZM12.0862 282.358L12.0469 282.879L12.0862 282.358ZM394.557 127.841L394.784 128.312L394.557 127.841ZM86.2327 300.554L86.7424 300.669L86.6396 301.122L86.1782 301.073L86.2327 300.554ZM159.964 286.97L159.809 287.469L158.756 287.141L159.676 286.534L159.964 286.97ZM416.741 451.944C420.255 434.639 409.065 417.759 391.747 414.243L391.955 413.218C409.838 416.849 421.394 434.28 417.766 452.152L416.741 451.944ZM391.747 414.243C374.429 410.726 357.542 421.905 354.028 439.211L353.004 439.003C356.633 421.131 374.072 409.587 391.955 413.218L391.747 414.243ZM354.028 439.211C350.515 456.516 361.704 473.396 379.022 476.912L378.814 477.937C360.931 474.306 349.375 456.875 353.004 439.003L354.028 439.211ZM379.022 476.912C396.34 480.429 413.227 469.25 416.741 451.944L417.766 452.152C414.137 470.024 396.697 481.568 378.814 477.937L379.022 476.912ZM335.929 336.976C340.931 312.342 325.002 288.314 300.351 283.309L300.559 282.284C325.775 287.404 342.07 311.984 336.953 337.184L335.929 336.976ZM300.351 283.309C275.699 278.303 251.661 294.216 246.659 318.85L245.634 318.642C250.751 293.442 275.342 277.164 300.559 282.284L300.351 283.309ZM246.659 318.85C241.657 343.484 257.586 367.512 282.237 372.518L282.029 373.542C256.812 368.422 240.517 343.843 245.634 318.642L246.659 318.85ZM282.237 372.518C306.889 377.523 330.927 361.61 335.929 336.976L336.953 337.184C331.836 362.385 307.246 378.663 282.029 373.542L282.237 372.518ZM170.413 453.05C172.29 443.806 166.313 434.789 157.062 432.911L157.27 431.886C167.086 433.879 173.43 443.448 171.438 453.258L170.413 453.05ZM157.062 432.911C147.811 431.032 138.79 437.004 136.913 446.248L135.889 446.04C137.881 436.229 147.454 429.893 157.27 431.886L157.062 432.911ZM136.913 446.248C135.036 455.492 141.014 464.509 150.265 466.387L150.057 467.412C140.24 465.419 133.897 455.85 135.889 446.04L136.913 446.248ZM150.265 466.387C159.516 468.266 168.536 462.294 170.413 453.05L171.438 453.258C169.446 463.068 159.873 469.405 150.057 467.412L150.265 466.387ZM221.774 109.31C231.637 60.7357 200.228 13.3571 151.621 3.48745L151.829 2.4628C201.002 12.4472 232.776 60.3772 222.798 109.518L221.774 109.31ZM151.621 3.48745C103.013 -6.3822 55.6135 24.9948 45.7506 73.5689L44.726 73.3609C54.7038 24.2201 102.656 -7.52163 151.829 2.4628L151.621 3.48745ZM115.904 179.391C164.512 189.261 211.911 157.884 221.774 109.31L222.798 109.518C212.82 158.659 164.869 190.4 115.696 180.416L115.904 179.391ZM523.305 290.28C526.224 275.906 516.929 261.885 502.545 258.965L502.753 257.94C517.703 260.975 527.363 275.547 524.33 290.488L523.305 290.28ZM502.545 258.965C488.161 256.044 474.134 265.329 471.215 279.703L470.191 279.495C473.224 264.555 487.803 254.904 502.753 257.94L502.545 258.965ZM471.215 279.703C468.297 294.077 477.591 308.098 491.976 311.019L491.768 312.043C476.818 309.008 467.157 294.436 470.191 279.495L471.215 279.703ZM491.976 311.019C506.36 313.939 520.387 304.654 523.305 290.28L524.33 290.488C521.296 305.428 506.717 315.079 491.768 312.043L491.976 311.019ZM94.1301 302.157C95.015 297.799 92.197 293.547 87.8351 292.662L88.0431 291.637C92.9703 292.638 96.1547 297.44 95.1548 302.365L94.1301 302.157ZM87.8351 292.662C83.4731 291.776 79.2201 294.592 78.3352 298.95L77.3106 298.742C78.3105 293.817 83.1159 290.637 88.0431 291.637L87.8351 292.662ZM78.3352 298.95C77.4503 303.308 80.2683 307.56 84.6303 308.445L84.4222 309.47C79.495 308.47 76.3106 303.667 77.3106 298.742L78.3352 298.95ZM84.6303 308.445C88.9922 309.331 93.2452 306.515 94.1301 302.157L95.1548 302.365C94.1548 307.29 89.3494 310.47 84.4222 309.47L84.6303 308.445ZM531.415 114.152C534.334 99.7775 525.04 85.7569 510.655 82.8361L510.863 81.8115C525.813 84.847 535.474 99.419 532.44 114.36L531.415 114.152ZM510.655 82.8361C496.271 79.9154 482.244 89.2008 479.326 103.575L478.301 103.367C481.335 88.4262 495.914 78.776 510.863 81.8115L510.655 82.8361ZM479.326 103.575C476.407 117.949 485.701 131.969 500.086 134.89L499.878 135.915C484.928 132.879 475.267 118.307 478.301 103.367L479.326 103.575ZM500.086 134.89C514.47 137.811 528.497 128.525 531.415 114.152L532.44 114.36C529.406 129.3 514.828 138.95 499.878 135.915L500.086 134.89ZM593.148 400.257C594.083 395.655 591.107 391.165 586.5 390.23L586.708 389.205C591.88 390.255 595.222 395.296 594.173 400.465L593.148 400.257ZM586.5 390.23C581.894 389.294 577.403 392.268 576.468 396.87L575.443 396.662C576.493 391.493 581.537 388.155 586.708 389.205L586.5 390.23ZM576.468 396.87C575.534 401.473 578.509 405.963 583.116 406.898L582.908 407.923C577.736 406.872 574.394 401.831 575.443 396.662L576.468 396.87ZM583.116 406.898C587.722 407.833 592.214 404.86 593.148 400.257L594.173 400.465C593.123 405.634 588.079 408.973 582.908 407.923L583.116 406.898ZM628.124 182.607C629.058 178.005 626.083 173.515 621.476 172.579L621.684 171.555C626.856 172.605 630.198 177.646 629.149 182.815L628.124 182.607ZM621.476 172.579C616.87 171.644 612.378 174.618 611.444 179.22L610.419 179.012C611.469 173.843 616.513 170.505 621.684 171.555L621.476 172.579ZM611.444 179.22C610.509 183.823 613.485 188.312 618.092 189.248L617.884 190.272C612.712 189.222 609.37 184.181 610.419 179.012L611.444 179.22ZM618.092 189.248C622.698 190.183 627.189 187.209 628.124 182.607L629.149 182.815C628.099 187.984 623.055 191.322 617.884 190.272L618.092 189.248ZM406.814 137.671C407.749 133.068 404.773 128.579 400.166 127.643L400.375 126.619C405.546 127.669 408.889 132.71 407.839 137.879L406.814 137.671ZM390.134 134.284C389.2 138.886 392.176 143.376 396.782 144.311L396.574 145.336C391.402 144.286 388.06 139.245 389.11 134.076L390.134 134.284ZM474.55 354.07C473.616 358.672 476.592 363.162 481.198 364.097L480.99 365.122C475.818 364.072 472.476 359.031 473.526 353.862L474.55 354.07ZM481.198 364.097C485.805 365.032 490.296 362.059 491.23 357.456L492.255 357.664C491.206 362.833 486.162 366.172 480.99 365.122L481.198 364.097ZM174.944 290.011C176.622 281.745 171.277 273.681 163.004 272.001L163.212 270.976C172.05 272.771 177.762 281.386 175.968 290.22L174.944 290.011ZM144.985 283.928C143.306 292.195 148.652 300.259 156.925 301.939L156.717 302.964C147.878 301.169 142.167 292.554 143.96 283.72L144.985 283.928ZM20.9888 294.675C22.0721 289.34 18.6223 284.135 13.2825 283.051L13.4906 282.026C19.3956 283.225 23.2118 288.981 22.0134 294.883L20.9888 294.675ZM1.65291 290.749C0.569594 296.084 4.01941 301.289 9.35918 302.373L9.15113 303.398C3.24611 302.199 -0.570101 296.443 0.628259 290.541L1.65291 290.749ZM381.527 153.261C383.106 145.483 378.077 137.896 370.293 136.315L370.501 135.291C378.85 136.986 384.246 145.125 382.552 153.469L381.527 153.261ZM370.293 136.315C362.508 134.735 354.918 139.76 353.339 147.538L352.314 147.33C354.009 138.985 362.151 133.595 370.501 135.291L370.293 136.315ZM353.339 147.538C351.76 155.316 356.789 162.903 364.573 164.484L364.365 165.508C356.016 163.813 350.62 155.674 352.314 147.33L353.339 147.538ZM364.573 164.484C372.357 166.064 379.948 161.04 381.527 153.261L382.552 153.469C380.857 161.814 372.715 167.204 364.365 165.508L364.573 164.484ZM193.429 457.723C197.885 435.776 183.695 414.369 161.732 409.91L161.94 408.885C184.468 413.46 199.025 435.418 194.454 457.931L193.429 457.723ZM161.732 409.91C139.77 405.451 118.353 419.628 113.897 441.575L112.873 441.367C117.444 418.853 139.412 404.311 161.94 408.885L161.732 409.91ZM113.897 441.575C109.441 463.521 123.632 484.928 145.594 489.388L145.386 490.413C122.859 485.838 108.301 463.88 112.873 441.367L113.897 441.575ZM145.594 489.388C167.557 493.847 188.973 479.67 193.429 457.723L194.454 457.931C189.883 480.445 167.914 494.987 145.386 490.413L145.594 489.388ZM567.567 299.267C575.446 260.464 550.356 222.617 511.526 214.732L511.734 213.708C551.129 221.707 576.586 260.106 568.592 299.475L567.567 299.267ZM511.526 214.732C472.697 206.848 434.832 231.913 426.954 270.716L425.929 270.508C433.923 231.139 472.339 205.709 511.734 213.708L511.526 214.732ZM373.981 115.879C355.197 112.064 336.88 124.19 333.068 142.961L332.044 142.753C335.97 123.416 354.84 110.925 374.19 114.854L373.981 115.879ZM333.068 142.961C329.257 161.732 341.394 180.042 360.179 183.856L359.971 184.881C340.621 180.952 328.117 162.091 332.044 142.753L333.068 142.961ZM360.179 183.856C378.963 187.67 397.281 175.545 401.092 156.773L402.117 156.981C398.19 176.319 379.321 188.81 359.971 184.881L360.179 183.856ZM70.8955 373.819C111.681 382.1 151.452 355.773 159.728 315.016L160.752 315.224C152.362 356.547 112.038 383.24 70.6874 374.844L70.8955 373.819ZM45.7506 73.5689C36.026 121.463 66.424 168.194 113.871 178.955L113.639 179.974C65.6405 169.088 34.8879 121.813 44.726 73.3609L45.7506 73.5689ZM113.871 178.955C114.545 179.107 115.223 179.253 115.904 179.391L115.696 180.416C115.007 180.276 114.321 180.129 113.639 179.974L113.871 178.955ZM103.017 226.693C102.304 226.527 101.587 226.37 100.864 226.224L101.072 225.199C101.804 225.348 102.532 225.506 103.255 225.675L103.017 226.693ZM175.968 290.22C174.522 297.343 168.637 302.431 161.779 303.194L161.664 302.155C168.084 301.441 173.59 296.677 174.944 290.011L175.968 290.22ZM156.108 271.106C158.368 270.557 160.782 270.483 163.212 270.976L163.004 272.001C160.728 271.539 158.469 271.608 156.355 272.122L156.108 271.106ZM156.355 272.122C150.776 273.479 146.202 277.935 144.985 283.928L143.96 283.72C145.261 277.315 150.15 272.556 156.108 271.106L156.355 272.122ZM159.728 315.016C160.568 310.874 161.052 306.744 161.199 302.656L162.244 302.693C162.095 306.838 161.605 311.026 160.752 315.224L159.728 315.016ZM155.747 271.811C146.83 249.825 127.702 232.447 103.017 226.693L103.255 225.675C128.283 231.509 147.676 249.13 156.716 271.418L155.747 271.811ZM156.925 301.939C158.528 302.264 160.122 302.326 161.664 302.155L161.779 303.194C160.131 303.377 158.428 303.311 156.717 302.964L156.925 301.939ZM22.0134 294.883C20.8714 300.508 15.5875 304.234 9.98195 303.534L10.1115 302.496C15.1794 303.129 19.9564 299.759 20.9888 294.675L22.0134 294.883ZM12.1254 281.837C12.5785 281.871 13.0342 281.933 13.4906 282.026L13.2825 283.051C12.869 282.967 12.4565 282.91 12.0469 282.879L12.1254 281.837ZM100.864 226.224C60.9351 218.116 21.9777 243.18 12.5947 282.479L11.5777 282.236C21.0913 242.39 60.5896 216.979 101.072 225.199L100.864 226.224ZM12.0469 282.879C7.16172 282.511 2.65236 285.827 1.65291 290.749L0.628259 290.541C1.73399 285.095 6.72194 281.429 12.1254 281.837L12.0469 282.879ZM10.5691 302.995C11.8903 336.883 36.1594 366.766 70.8955 373.819L70.6874 374.844C35.4685 367.693 10.8639 337.395 9.52433 303.035L10.5691 302.995ZM9.35918 302.373C9.61048 302.424 9.86139 302.465 10.1115 302.496L9.98195 303.534C9.70554 303.499 9.42844 303.454 9.15113 303.398L9.35918 302.373ZM394.15 128.168C389.249 122.057 382.261 117.56 373.981 115.879L374.19 114.854C382.718 116.586 389.917 121.219 394.965 127.514L394.15 128.168ZM400.166 127.643C398.273 127.259 396.4 127.535 394.784 128.312L394.331 127.37C396.145 126.497 398.249 126.187 400.375 126.619L400.166 127.643ZM394.784 128.312C392.468 129.428 390.685 131.573 390.134 134.284L389.11 134.076C389.728 131.031 391.733 128.621 394.331 127.37L394.784 128.312ZM401.092 156.773C401.944 152.58 401.999 148.412 401.363 144.423L402.396 144.258C403.051 148.369 402.993 152.664 402.117 156.981L401.092 156.773ZM396.782 144.311C398.491 144.658 400.182 144.468 401.682 143.856L402.077 144.825C400.391 145.511 398.491 145.725 396.574 145.336L396.782 144.311ZM401.682 143.856C404.231 142.818 406.226 140.566 406.814 137.671L407.839 137.879C407.178 141.132 404.935 143.66 402.077 144.825L401.682 143.856ZM426.954 270.716C419.678 306.55 440.519 341.57 474.332 352.928L473.999 353.919C439.692 342.395 418.547 306.866 425.929 270.508L426.954 270.716ZM484.583 347.429C480.149 346.529 475.822 349.25 474.67 353.558L473.66 353.288C474.954 348.448 479.813 345.393 484.791 346.404L484.583 347.429ZM474.67 353.558C474.626 353.726 474.585 353.897 474.55 354.07L473.526 353.862C473.565 353.668 473.61 353.477 473.66 353.288L474.67 353.558ZM491.877 356.49C527.442 359.219 560.291 335.101 567.567 299.267L568.592 299.475C561.209 335.833 527.881 360.302 491.797 357.533L491.877 356.49ZM491.23 357.456C491.266 357.284 491.295 357.111 491.319 356.939L492.355 357.084C492.328 357.277 492.294 357.471 492.255 357.664L491.23 357.456ZM491.319 356.939C491.94 352.522 489.016 348.329 484.583 347.429L484.791 346.404C489.769 347.415 493.052 352.123 492.355 357.084L491.319 356.939ZM134.272 91.5553L86.7424 300.669L85.7229 300.438L133.252 91.3235L134.272 91.5553ZM134.197 91.1496L291.729 327.623L290.859 328.203L133.327 91.7292L134.197 91.1496ZM133.89 90.9325L367.118 149.803L366.862 150.817L133.634 91.9463L133.89 90.9325ZM398.691 136.453L367.207 150.785L366.774 149.834L398.258 135.502L398.691 136.453ZM159.676 286.534L366.702 149.873L367.278 150.746L160.252 287.406L159.676 286.534ZM497.773 285.096L483.513 355.322L482.489 355.113L496.748 284.888L497.773 285.096ZM496.922 284.593L619.445 180.515L620.122 181.312L497.599 285.39L496.922 284.593ZM497.674 284.672L585.222 398.245L584.394 398.883L496.846 285.311L497.674 284.672ZM160.12 286.471L291.449 327.414L291.138 328.412L159.809 287.469L160.12 286.471ZM505.744 109.229L291.668 328.279L290.92 327.548L504.997 108.498L505.744 109.229ZM153.317 449.257L290.948 327.522L291.64 328.305L154.01 450.041L153.317 449.257ZM384.976 445.904L290.886 328.24L291.702 327.587L385.793 445.251L384.976 445.904ZM11.3753 292.192L86.2871 300.034L86.1782 301.073L11.2664 293.232L11.3753 292.192ZM134.008 90.978L497.506 284.53L497.015 285.453L133.516 91.9008L134.008 90.978Z" fill="#B9544C" stroke="#B9544C" stroke-width="0.583775"/>
</g>
<defs>
<clipPath id="clip0_2381_231625">
<rect width="630" height="492" fill="white"/>
</clipPath>
</defs>
</svg>
