<svg width="609" height="609" viewBox="0 0 609 609" fill="none" xmlns="http://www.w3.org/2000/svg">
<mask id="mask0_2396_231618" style="mask-type:alpha" maskUnits="userSpaceOnUse" x="0" y="0" width="609" height="609">
<circle cx="304.5" cy="304.5" r="304.5" fill="#EDEDED"/>
</mask>
<g mask="url(#mask0_2396_231618)">
<circle cx="32.349" cy="-8.92473" r="7.38182" transform="rotate(28.9451 32.349 -8.92473)" fill="#F6F6F6"/>
<circle cx="17.1635" cy="18.5264" r="7.38182" transform="rotate(28.9451 17.1635 18.5264)" fill="#F6F6F6"/>
<circle cx="1.98088" cy="45.9835" r="7.38182" transform="rotate(28.9451 1.98088 45.9835)" fill="#F6F6F6"/>
<circle cx="66.2621" cy="9.83113" r="7.38182" transform="rotate(28.9451 66.2621 9.83113)" fill="#F6F6F6"/>
<circle cx="51.0785" cy="37.2882" r="7.38182" transform="rotate(28.9451 51.0785 37.2882)" fill="#F6F6F6"/>
<circle cx="35.894" cy="64.7413" r="7.38182" transform="rotate(28.9451 35.894 64.7413)" fill="#F6F6F6"/>
<circle cx="20.7113" cy="92.1944" r="7.38182" transform="rotate(28.9451 20.7113 92.1944)" fill="#F6F6F6"/>
<circle cx="5.52775" cy="119.649" r="7.38182" transform="rotate(28.9451 5.52775 119.649)" fill="#F6F6F6"/>
<circle cx="-9.65584" cy="147.108" r="7.38182" transform="rotate(28.9451 -9.65584 147.108)" fill="#F6F6F6"/>
<circle cx="100.176" cy="28.5909" r="7.38182" transform="rotate(28.9451 100.176 28.5909)" fill="#F6F6F6"/>
<circle cx="115.358" cy="1.13777" r="7.38182" transform="rotate(28.9451 115.358 1.13777)" fill="#F6F6F6"/>
<circle cx="84.9916" cy="56.0518" r="7.38182" transform="rotate(28.9451 84.9916 56.0518)" fill="#F6F6F6"/>
<circle cx="69.808" cy="83.503" r="7.38182" transform="rotate(28.9451 69.808 83.503)" fill="#F6F6F6"/>
<circle cx="54.6244" cy="110.948" r="7.38182" transform="rotate(28.9451 54.6244 110.948)" fill="#F6F6F6"/>
<circle cx="39.4418" cy="138.415" r="7.38182" transform="rotate(28.9451 39.4418 138.415)" fill="#F6F6F6"/>
<circle cx="24.2572" cy="165.862" r="7.38182" transform="rotate(28.9451 24.2572 165.862)" fill="#F6F6F6"/>
<circle cx="9.07365" cy="193.317" r="7.38182" transform="rotate(28.9451 9.07365 193.317)" fill="#F6F6F6"/>
<circle cx="-6.10994" cy="220.771" r="7.38182" transform="rotate(28.9451 -6.10994 220.771)" fill="#F6F6F6"/>
<circle cx="134.087" cy="47.3487" r="7.38182" transform="rotate(28.9451 134.087 47.3487)" fill="#F6F6F6"/>
<circle cx="149.271" cy="19.8897" r="7.38182" transform="rotate(28.9451 149.271 19.8897)" fill="#F6F6F6"/>
<circle cx="164.455" cy="-7.5595" r="7.38182" transform="rotate(28.9451 164.455 -7.5595)" fill="#F6F6F6"/>
<circle cx="118.904" cy="74.8038" r="7.38182" transform="rotate(28.9451 118.904 74.8038)" fill="#F6F6F6"/>
<circle cx="103.72" cy="102.263" r="7.38182" transform="rotate(28.9451 103.72 102.263)" fill="#F6F6F6"/>
<circle cx="88.5365" cy="129.71" r="7.38182" transform="rotate(28.9451 88.5365 129.71)" fill="#F6F6F6"/>
<circle cx="73.3549" cy="157.161" r="7.38182" transform="rotate(28.9451 73.3549 157.161)" fill="#F6F6F6"/>
<circle cx="58.1713" cy="184.622" r="7.38182" transform="rotate(28.9451 58.1713 184.622)" fill="#F6F6F6"/>
<circle cx="42.9877" cy="212.071" r="7.38182" transform="rotate(28.9451 42.9877 212.071)" fill="#F6F6F6"/>
<circle cx="27.8051" cy="239.526" r="7.38182" transform="rotate(28.9451 27.8051 239.526)" fill="#F6F6F6"/>
<circle cx="12.6205" cy="266.983" r="7.38182" transform="rotate(28.9451 12.6205 266.983)" fill="#F6F6F6"/>
<circle cx="-2.56307" cy="294.437" r="7.38182" transform="rotate(28.9451 -2.56307 294.437)" fill="#F6F6F6"/>
<circle cx="168.001" cy="66.1046" r="7.38182" transform="rotate(28.9451 168.001 66.1046)" fill="#F6F6F6"/>
<circle cx="183.185" cy="38.6417" r="7.38182" transform="rotate(28.9451 183.185 38.6417)" fill="#F6F6F6"/>
<circle cx="198.368" cy="11.1925" r="7.38182" transform="rotate(28.9451 198.368 11.1925)" fill="#F6F6F6"/>
<circle cx="152.818" cy="93.5616" r="7.38182" transform="rotate(28.9451 152.818 93.5616)" fill="#F6F6F6"/>
<circle cx="137.634" cy="121.015" r="7.38182" transform="rotate(28.9451 137.634 121.015)" fill="#F6F6F6"/>
<circle cx="122.451" cy="148.466" r="7.38182" transform="rotate(28.9451 122.451 148.466)" fill="#F6F6F6"/>
<circle cx="107.267" cy="175.919" r="7.38182" transform="rotate(28.9451 107.267 175.919)" fill="#F6F6F6"/>
<circle cx="92.0834" cy="203.372" r="7.38182" transform="rotate(28.9451 92.0834 203.372)" fill="#F6F6F6"/>
<circle cx="76.8998" cy="230.833" r="7.38182" transform="rotate(28.9451 76.8998 230.833)" fill="#F6F6F6"/>
<circle cx="61.7162" cy="258.28" r="7.38182" transform="rotate(28.9451 61.7162 258.28)" fill="#F6F6F6"/>
<circle cx="46.5326" cy="285.735" r="7.38182" transform="rotate(28.9451 46.5326 285.735)" fill="#F6F6F6"/>
<circle cx="31.351" cy="313.19" r="7.38182" transform="rotate(28.9451 31.351 313.19)" fill="#F6F6F6"/>
<circle cx="16.1674" cy="340.648" r="7.38182" transform="rotate(28.9451 16.1674 340.648)" fill="#F6F6F6"/>
<circle cx="0.983809" cy="368.097" r="7.38182" transform="rotate(28.9451 0.983809 368.097)" fill="#F6F6F6"/>
<circle cx="201.914" cy="84.8565" r="7.38182" transform="rotate(28.9451 201.914 84.8565)" fill="#F6F6F6"/>
<circle cx="217.099" cy="57.4034" r="7.38182" transform="rotate(28.9451 217.099 57.4034)" fill="#F6F6F6"/>
<circle cx="232.282" cy="29.9503" r="7.38182" transform="rotate(28.9451 232.282 29.9503)" fill="#F6F6F6"/>
<circle cx="247.465" cy="2.49714" r="7.38182" transform="rotate(28.9451 247.465 2.49714)" fill="#F6F6F6"/>
<circle cx="186.731" cy="112.319" r="7.38182" transform="rotate(28.9451 186.731 112.319)" fill="#F6F6F6"/>
<circle cx="171.548" cy="139.773" r="7.38182" transform="rotate(28.9451 171.548 139.773)" fill="#F6F6F6"/>
<circle cx="156.364" cy="167.218" r="7.38182" transform="rotate(28.9451 156.364 167.218)" fill="#F6F6F6"/>
<circle cx="141.181" cy="194.671" r="7.38182" transform="rotate(28.9451 141.181 194.671)" fill="#F6F6F6"/>
<circle cx="125.997" cy="222.126" r="7.38182" transform="rotate(28.9451 125.997 222.126)" fill="#F6F6F6"/>
<circle cx="110.814" cy="249.581" r="7.38182" transform="rotate(28.9451 110.814 249.581)" fill="#F6F6F6"/>
<circle cx="95.6303" cy="277.04" r="7.38182" transform="rotate(28.9451 95.6303 277.04)" fill="#F6F6F6"/>
<circle cx="80.4467" cy="304.493" r="7.38182" transform="rotate(28.9451 80.4467 304.493)" fill="#F6F6F6"/>
<circle cx="65.2631" cy="331.942" r="7.38182" transform="rotate(28.9451 65.2631 331.942)" fill="#F6F6F6"/>
<circle cx="50.0795" cy="359.392" r="7.38182" transform="rotate(28.9451 50.0795 359.392)" fill="#F6F6F6"/>
<circle cx="34.8959" cy="386.855" r="7.38182" transform="rotate(28.9451 34.8959 386.855)" fill="#F6F6F6"/>
<circle cx="19.7123" cy="414.302" r="7.38182" transform="rotate(28.9451 19.7123 414.302)" fill="#F6F6F6"/>
<circle cx="4.52873" cy="441.761" r="7.38182" transform="rotate(28.9451 4.52873 441.761)" fill="#F6F6F6"/>
<circle cx="235.83" cy="103.614" r="7.38182" transform="rotate(28.9451 235.83 103.614)" fill="#F6F6F6"/>
<circle cx="251.012" cy="76.1612" r="7.38182" transform="rotate(28.9451 251.012 76.1612)" fill="#F6F6F6"/>
<circle cx="266.197" cy="48.7061" r="7.38182" transform="rotate(28.9451 266.197 48.7061)" fill="#F6F6F6"/>
<circle cx="281.38" cy="21.2491" r="7.38182" transform="rotate(28.9451 281.38 21.2491)" fill="#F6F6F6"/>
<circle cx="296.563" cy="-6.19622" r="7.38182" transform="rotate(28.9451 296.563 -6.19622)" fill="#F6F6F6"/>
<circle cx="220.645" cy="131.073" r="7.38182" transform="rotate(28.9451 220.645 131.073)" fill="#F6F6F6"/>
<circle cx="205.461" cy="158.526" r="7.38182" transform="rotate(28.9451 205.461 158.526)" fill="#F6F6F6"/>
<circle cx="190.279" cy="185.983" r="7.38182" transform="rotate(28.9451 190.279 185.983)" fill="#F6F6F6"/>
<circle cx="175.095" cy="213.435" r="7.38182" transform="rotate(28.9451 175.095 213.435)" fill="#F6F6F6"/>
<circle cx="159.911" cy="240.88" r="7.38182" transform="rotate(28.9451 159.911 240.88)" fill="#F6F6F6"/>
<circle cx="144.728" cy="268.337" r="7.38182" transform="rotate(28.9451 144.728 268.337)" fill="#F6F6F6"/>
<circle cx="129.544" cy="295.79" r="7.38182" transform="rotate(28.9451 129.544 295.79)" fill="#F6F6F6"/>
<circle cx="114.361" cy="323.247" r="7.38182" transform="rotate(28.9451 114.361 323.247)" fill="#F6F6F6"/>
<circle cx="99.1772" cy="350.704" r="7.38182" transform="rotate(28.9451 99.1772 350.704)" fill="#F6F6F6"/>
<circle cx="83.9936" cy="378.153" r="7.38182" transform="rotate(28.9451 83.9936 378.153)" fill="#F6F6F6"/>
<circle cx="68.81" cy="405.614" r="7.38182" transform="rotate(28.9451 68.81 405.614)" fill="#F6F6F6"/>
<circle cx="53.6264" cy="433.065" r="7.38182" transform="rotate(28.9451 53.6264 433.065)" fill="#F6F6F6"/>
<circle cx="38.4428" cy="460.513" r="7.38182" transform="rotate(28.9451 38.4428 460.513)" fill="#F6F6F6"/>
<circle cx="23.2592" cy="487.968" r="7.38182" transform="rotate(28.9451 23.2592 487.968)" fill="#F6F6F6"/>
<circle cx="8.07561" cy="515.419" r="7.38182" transform="rotate(28.9451 8.07561 515.419)" fill="#F6F6F6"/>
<circle cx="-7.10799" cy="542.878" r="7.38182" transform="rotate(28.9451 -7.10799 542.878)" fill="#F6F6F6"/>
<circle cx="269.743" cy="122.368" r="7.38182" transform="rotate(28.9451 269.743 122.368)" fill="#F6F6F6"/>
<circle cx="284.926" cy="94.9171" r="7.38182" transform="rotate(28.9451 284.926 94.9171)" fill="#F6F6F6"/>
<circle cx="300.11" cy="67.462" r="7.38182" transform="rotate(28.9451 300.11 67.462)" fill="#F6F6F6"/>
<circle cx="315.293" cy="40.0108" r="7.38182" transform="rotate(28.9451 315.293 40.0108)" fill="#F6F6F6"/>
<circle cx="330.475" cy="12.5538" r="7.38182" transform="rotate(28.9451 330.475 12.5538)" fill="#F6F6F6"/>
<circle cx="254.559" cy="149.823" r="7.38182" transform="rotate(28.9451 254.559 149.823)" fill="#F6F6F6"/>
<circle cx="239.375" cy="177.286" r="7.38182" transform="rotate(28.9451 239.375 177.286)" fill="#F6F6F6"/>
<circle cx="224.193" cy="204.735" r="7.38182" transform="rotate(28.9451 224.193 204.735)" fill="#F6F6F6"/>
<circle cx="209.008" cy="232.185" r="7.38182" transform="rotate(28.9451 209.008 232.185)" fill="#F6F6F6"/>
<circle cx="193.826" cy="259.64" r="7.38182" transform="rotate(28.9451 193.826 259.64)" fill="#F6F6F6"/>
<circle cx="178.642" cy="287.093" r="7.38182" transform="rotate(28.9451 178.642 287.093)" fill="#F6F6F6"/>
<circle cx="163.457" cy="314.544" r="7.38182" transform="rotate(28.9451 163.457 314.544)" fill="#F6F6F6"/>
<circle cx="148.275" cy="341.999" r="7.38182" transform="rotate(28.9451 148.275 341.999)" fill="#F6F6F6"/>
<circle cx="133.09" cy="369.452" r="7.38182" transform="rotate(28.9451 133.09 369.452)" fill="#F6F6F6"/>
<circle cx="117.908" cy="396.907" r="7.38182" transform="rotate(28.9451 117.908 396.907)" fill="#F6F6F6"/>
<circle cx="102.723" cy="424.358" r="7.38182" transform="rotate(28.9451 102.723 424.358)" fill="#F6F6F6"/>
<circle cx="87.5395" cy="451.817" r="7.38182" transform="rotate(28.9451 87.5395 451.817)" fill="#F6F6F6"/>
<circle cx="72.3578" cy="479.278" r="7.38182" transform="rotate(28.9451 72.3578 479.278)" fill="#F6F6F6"/>
<circle cx="57.1733" cy="506.724" r="7.38182" transform="rotate(28.9451 57.1733 506.724)" fill="#F6F6F6"/>
<circle cx="41.9897" cy="534.183" r="7.38182" transform="rotate(28.9451 41.9897 534.183)" fill="#F6F6F6"/>
<circle cx="26.8061" cy="561.632" r="7.38182" transform="rotate(28.9451 26.8061 561.632)" fill="#F6F6F6"/>
<circle cx="303.655" cy="141.128" r="7.38182" transform="rotate(28.9451 303.655 141.128)" fill="#F6F6F6"/>
<circle cx="318.838" cy="113.671" r="7.38182" transform="rotate(28.9451 318.838 113.671)" fill="#F6F6F6"/>
<circle cx="334.022" cy="86.2159" r="7.38182" transform="rotate(28.9451 334.022 86.2159)" fill="#F6F6F6"/>
<circle cx="349.205" cy="58.7647" r="7.38182" transform="rotate(28.9451 349.205 58.7647)" fill="#F6F6F6"/>
<circle cx="364.389" cy="31.3116" r="7.38182" transform="rotate(28.9451 364.389 31.3116)" fill="#F6F6F6"/>
<circle cx="379.573" cy="3.85456" r="7.38182" transform="rotate(28.9451 379.573 3.85456)" fill="#F6F6F6"/>
<circle cx="288.471" cy="168.581" r="7.38182" transform="rotate(28.9451 288.471 168.581)" fill="#F6F6F6"/>
<circle cx="273.289" cy="196.036" r="7.38182" transform="rotate(28.9451 273.289 196.036)" fill="#F6F6F6"/>
<circle cx="258.106" cy="223.491" r="7.38182" transform="rotate(28.9451 258.106 223.491)" fill="#F6F6F6"/>
<circle cx="242.921" cy="250.95" r="7.38182" transform="rotate(28.9451 242.921 250.95)" fill="#F6F6F6"/>
<circle cx="227.739" cy="278.403" r="7.38182" transform="rotate(28.9451 227.739 278.403)" fill="#F6F6F6"/>
<circle cx="212.556" cy="305.849" r="7.38182" transform="rotate(28.9451 212.556 305.849)" fill="#F6F6F6"/>
<circle cx="197.372" cy="333.304" r="7.38182" transform="rotate(28.9451 197.372 333.304)" fill="#F6F6F6"/>
<circle cx="182.189" cy="360.759" r="7.38182" transform="rotate(28.9451 182.189 360.759)" fill="#F6F6F6"/>
<circle cx="167.005" cy="388.218" r="7.38182" transform="rotate(28.9451 167.005 388.218)" fill="#F6F6F6"/>
<circle cx="151.822" cy="415.663" r="7.38182" transform="rotate(28.9451 151.822 415.663)" fill="#F6F6F6"/>
<circle cx="136.638" cy="443.12" r="7.38182" transform="rotate(28.9451 136.638 443.12)" fill="#F6F6F6"/>
<circle cx="121.454" cy="470.579" r="7.38182" transform="rotate(28.9451 121.454 470.579)" fill="#F6F6F6"/>
<circle cx="106.271" cy="498.028" r="7.38182" transform="rotate(28.9451 106.271 498.028)" fill="#F6F6F6"/>
<circle cx="91.0863" cy="525.489" r="7.38182" transform="rotate(28.9451 91.0863 525.489)" fill="#F6F6F6"/>
<circle cx="75.9037" cy="552.931" r="7.38182" transform="rotate(28.9451 75.9037 552.931)" fill="#F6F6F6"/>
<circle cx="60.7192" cy="580.394" r="7.38182" transform="rotate(28.9451 60.7192 580.394)" fill="#F6F6F6"/>
<circle cx="337.569" cy="159.882" r="7.38182" transform="rotate(28.9451 337.569 159.882)" fill="#F6F6F6"/>
<circle cx="352.752" cy="132.431" r="7.38182" transform="rotate(28.9451 352.752 132.431)" fill="#F6F6F6"/>
<circle cx="367.937" cy="104.972" r="7.38182" transform="rotate(28.9451 367.937 104.972)" fill="#F6F6F6"/>
<circle cx="383.119" cy="77.5186" r="7.38182" transform="rotate(28.9451 383.119 77.5186)" fill="#F6F6F6"/>
<circle cx="398.302" cy="50.0694" r="7.38182" transform="rotate(28.9451 398.302 50.0694)" fill="#F6F6F6"/>
<circle cx="413.487" cy="22.6124" r="7.38182" transform="rotate(28.9451 413.487 22.6124)" fill="#F6F6F6"/>
<circle cx="428.669" cy="-4.84075" r="7.38182" transform="rotate(28.9451 428.669 -4.84075)" fill="#F6F6F6"/>
<circle cx="322.385" cy="187.337" r="7.38182" transform="rotate(28.9451 322.385 187.337)" fill="#F6F6F6"/>
<circle cx="307.202" cy="214.794" r="7.38182" transform="rotate(28.9451 307.202 214.794)" fill="#F6F6F6"/>
<circle cx="292.018" cy="242.245" r="7.38182" transform="rotate(28.9451 292.018 242.245)" fill="#F6F6F6"/>
<circle cx="276.834" cy="269.696" r="7.38182" transform="rotate(28.9451 276.834 269.696)" fill="#F6F6F6"/>
<circle cx="261.651" cy="297.159" r="7.38182" transform="rotate(28.9451 261.651 297.159)" fill="#F6F6F6"/>
<circle cx="246.467" cy="324.601" r="7.38182" transform="rotate(28.9451 246.467 324.601)" fill="#F6F6F6"/>
<circle cx="231.285" cy="352.064" r="7.38182" transform="rotate(28.9451 231.285 352.064)" fill="#F6F6F6"/>
<circle cx="216.101" cy="379.521" r="7.38182" transform="rotate(28.9451 216.101 379.521)" fill="#F6F6F6"/>
<circle cx="200.918" cy="406.962" r="7.38182" transform="rotate(28.9451 200.918 406.962)" fill="#F6F6F6"/>
<circle cx="185.735" cy="434.427" r="7.38182" transform="rotate(28.9451 185.735 434.427)" fill="#F6F6F6"/>
<circle cx="170.551" cy="461.874" r="7.38182" transform="rotate(28.9451 170.551 461.874)" fill="#F6F6F6"/>
<circle cx="155.368" cy="489.337" r="7.38182" transform="rotate(28.9451 155.368 489.337)" fill="#F6F6F6"/>
<circle cx="140.184" cy="516.778" r="7.38182" transform="rotate(28.9451 140.184 516.778)" fill="#F6F6F6"/>
<circle cx="125.001" cy="544.241" r="7.38182" transform="rotate(28.9451 125.001 544.241)" fill="#F6F6F6"/>
<circle cx="109.817" cy="571.696" r="7.38182" transform="rotate(28.9451 109.817 571.696)" fill="#F6F6F6"/>
<circle cx="94.6332" cy="599.144" r="7.38182" transform="rotate(28.9451 94.6332 599.144)" fill="#F6F6F6"/>
<circle cx="371.483" cy="178.634" r="7.38182" transform="rotate(28.9451 371.483 178.634)" fill="#F6F6F6"/>
<circle cx="386.665" cy="151.183" r="7.38182" transform="rotate(28.9451 386.665 151.183)" fill="#F6F6F6"/>
<circle cx="401.85" cy="123.73" r="7.38182" transform="rotate(28.9451 401.85 123.73)" fill="#F6F6F6"/>
<circle cx="417.033" cy="96.2784" r="7.38182" transform="rotate(28.9451 417.033 96.2784)" fill="#F6F6F6"/>
<circle cx="432.217" cy="68.8331" r="7.38182" transform="rotate(28.9451 432.217 68.8331)" fill="#F6F6F6"/>
<circle cx="447.401" cy="41.3721" r="7.38182" transform="rotate(28.9451 447.401 41.3721)" fill="#F6F6F6"/>
<circle cx="462.584" cy="13.919" r="7.38182" transform="rotate(28.9451 462.584 13.919)" fill="#F6F6F6"/>
<circle cx="356.298" cy="206.091" r="7.38182" transform="rotate(28.9451 356.298 206.091)" fill="#F6F6F6"/>
<circle cx="341.115" cy="233.552" r="7.38182" transform="rotate(28.9451 341.115 233.552)" fill="#F6F6F6"/>
<circle cx="325.932" cy="261.001" r="7.38182" transform="rotate(28.9451 325.932 261.001)" fill="#F6F6F6"/>
<circle cx="310.748" cy="288.454" r="7.38182" transform="rotate(28.9451 310.748 288.454)" fill="#F6F6F6"/>
<circle cx="295.565" cy="315.915" r="7.38182" transform="rotate(28.9451 295.565 315.915)" fill="#F6F6F6"/>
<circle cx="280.381" cy="343.368" r="7.38182" transform="rotate(28.9451 280.381 343.368)" fill="#F6F6F6"/>
<circle cx="265.198" cy="370.823" r="7.38182" transform="rotate(28.9451 265.198 370.823)" fill="#F6F6F6"/>
<circle cx="250.014" cy="398.274" r="7.38182" transform="rotate(28.9451 250.014 398.274)" fill="#F6F6F6"/>
<circle cx="234.83" cy="425.732" r="7.38182" transform="rotate(28.9451 234.83 425.732)" fill="#F6F6F6"/>
<circle cx="219.647" cy="453.175" r="7.38182" transform="rotate(28.9451 219.647 453.175)" fill="#F6F6F6"/>
<circle cx="204.463" cy="480.64" r="7.38182" transform="rotate(28.9451 204.463 480.64)" fill="#F6F6F6"/>
<circle cx="189.28" cy="508.079" r="7.38182" transform="rotate(28.9451 189.28 508.079)" fill="#F6F6F6"/>
<circle cx="174.098" cy="535.54" r="7.38182" transform="rotate(28.9451 174.098 535.54)" fill="#F6F6F6"/>
<circle cx="158.914" cy="562.991" r="7.38182" transform="rotate(28.9451 158.914 562.991)" fill="#F6F6F6"/>
<circle cx="143.731" cy="590.45" r="7.38182" transform="rotate(28.9451 143.731 590.45)" fill="#F6F6F6"/>
<circle cx="128.547" cy="617.903" r="7.38182" transform="rotate(28.9451 128.547 617.903)" fill="#F6F6F6"/>
<circle cx="405.396" cy="197.399" r="7.38182" transform="rotate(28.9451 405.396 197.399)" fill="#F6F6F6"/>
<circle cx="420.58" cy="169.946" r="7.38182" transform="rotate(28.9451 420.58 169.946)" fill="#F6F6F6"/>
<circle cx="435.763" cy="142.485" r="7.38182" transform="rotate(28.9451 435.763 142.485)" fill="#F6F6F6"/>
<circle cx="450.947" cy="115.04" r="7.38182" transform="rotate(28.9451 450.947 115.04)" fill="#F6F6F6"/>
<circle cx="466.13" cy="87.587" r="7.38182" transform="rotate(28.9451 466.13 87.587)" fill="#F6F6F6"/>
<circle cx="481.314" cy="60.1319" r="7.38182" transform="rotate(28.9451 481.314 60.1319)" fill="#F6F6F6"/>
<circle cx="496.497" cy="32.6807" r="7.38182" transform="rotate(28.9451 496.497 32.6807)" fill="#F6F6F6"/>
<circle cx="511.681" cy="5.2237" r="7.38182" transform="rotate(28.9451 511.681 5.2237)" fill="#F6F6F6"/>
<circle cx="390.212" cy="224.853" r="7.38182" transform="rotate(28.9451 390.212 224.853)" fill="#F6F6F6"/>
<circle cx="375.03" cy="252.312" r="7.38182" transform="rotate(28.9451 375.03 252.312)" fill="#F6F6F6"/>
<circle cx="359.845" cy="279.763" r="7.38182" transform="rotate(28.9451 359.845 279.763)" fill="#F6F6F6"/>
<circle cx="344.662" cy="307.216" r="7.38182" transform="rotate(28.9451 344.662 307.216)" fill="#F6F6F6"/>
<circle cx="329.478" cy="334.671" r="7.38182" transform="rotate(28.9451 329.478 334.671)" fill="#F6F6F6"/>
<circle cx="314.294" cy="362.122" r="7.38182" transform="rotate(28.9451 314.294 362.122)" fill="#F6F6F6"/>
<circle cx="299.112" cy="389.577" r="7.38182" transform="rotate(28.9451 299.112 389.577)" fill="#F6F6F6"/>
<circle cx="283.927" cy="417.028" r="7.38182" transform="rotate(28.9451 283.927 417.028)" fill="#F6F6F6"/>
<circle cx="268.744" cy="444.483" r="7.38182" transform="rotate(28.9451 268.744 444.483)" fill="#F6F6F6"/>
<circle cx="253.561" cy="471.937" r="7.38182" transform="rotate(28.9451 253.561 471.937)" fill="#F6F6F6"/>
<circle cx="238.377" cy="499.39" r="7.38182" transform="rotate(28.9451 238.377 499.39)" fill="#F6F6F6"/>
<circle cx="223.194" cy="526.845" r="7.38182" transform="rotate(28.9451 223.194 526.845)" fill="#F6F6F6"/>
<circle cx="208.01" cy="554.296" r="7.38182" transform="rotate(28.9451 208.01 554.296)" fill="#F6F6F6"/>
<circle cx="192.827" cy="581.753" r="7.38182" transform="rotate(28.9451 192.827 581.753)" fill="#F6F6F6"/>
<circle cx="177.643" cy="609.204" r="7.38182" transform="rotate(28.9451 177.643 609.204)" fill="#F6F6F6"/>
<circle cx="439.31" cy="216.159" r="7.38182" transform="rotate(28.9451 439.31 216.159)" fill="#F6F6F6"/>
<circle cx="454.494" cy="188.7" r="7.38182" transform="rotate(28.9451 454.494 188.7)" fill="#F6F6F6"/>
<circle cx="469.677" cy="161.239" r="7.38182" transform="rotate(28.9451 469.677 161.239)" fill="#F6F6F6"/>
<circle cx="484.861" cy="133.796" r="7.38182" transform="rotate(28.9451 484.861 133.796)" fill="#F6F6F6"/>
<circle cx="500.042" cy="106.335" r="7.38182" transform="rotate(28.9451 500.042 106.335)" fill="#F6F6F6"/>
<circle cx="515.226" cy="78.8839" r="7.38182" transform="rotate(28.9451 515.226 78.8839)" fill="#F6F6F6"/>
<circle cx="530.41" cy="51.4327" r="7.38182" transform="rotate(28.9451 530.41 51.4327)" fill="#F6F6F6"/>
<circle cx="545.593" cy="23.9678" r="7.38182" transform="rotate(28.9451 545.593 23.9678)" fill="#F6F6F6"/>
<circle cx="424.126" cy="243.612" r="7.38182" transform="rotate(28.9451 424.126 243.612)" fill="#F6F6F6"/>
<circle cx="408.944" cy="271.064" r="7.38182" transform="rotate(28.9451 408.944 271.064)" fill="#F6F6F6"/>
<circle cx="393.758" cy="298.515" r="7.38182" transform="rotate(28.9451 393.758 298.515)" fill="#F6F6F6"/>
<circle cx="378.577" cy="325.976" r="7.38182" transform="rotate(28.9451 378.577 325.976)" fill="#F6F6F6"/>
<circle cx="363.393" cy="353.427" r="7.38182" transform="rotate(28.9451 363.393 353.427)" fill="#F6F6F6"/>
<circle cx="348.209" cy="380.88" r="7.38182" transform="rotate(28.9451 348.209 380.88)" fill="#F6F6F6"/>
<circle cx="333.026" cy="408.329" r="7.38182" transform="rotate(28.9451 333.026 408.329)" fill="#F6F6F6"/>
<circle cx="317.841" cy="435.786" r="7.38182" transform="rotate(28.9451 317.841 435.786)" fill="#F6F6F6"/>
<circle cx="302.659" cy="463.232" r="7.38182" transform="rotate(28.9451 302.659 463.232)" fill="#F6F6F6"/>
<circle cx="287.474" cy="490.696" r="7.38182" transform="rotate(28.9451 287.474 490.696)" fill="#F6F6F6"/>
<circle cx="272.29" cy="518.149" r="7.38182" transform="rotate(28.9451 272.29 518.149)" fill="#F6F6F6"/>
<circle cx="257.108" cy="545.605" r="7.38182" transform="rotate(28.9451 257.108 545.605)" fill="#F6F6F6"/>
<circle cx="241.923" cy="573.058" r="7.38182" transform="rotate(28.9451 241.923 573.058)" fill="#F6F6F6"/>
<circle cx="226.741" cy="600.509" r="7.38182" transform="rotate(28.9451 226.741 600.509)" fill="#F6F6F6"/>
<circle cx="473.222" cy="234.901" r="7.38182" transform="rotate(28.9451 473.222 234.901)" fill="#F6F6F6"/>
<circle cx="488.406" cy="207.448" r="7.38182" transform="rotate(28.9451 488.406 207.448)" fill="#F6F6F6"/>
<circle cx="503.589" cy="179.999" r="7.38182" transform="rotate(28.9451 503.589 179.999)" fill="#F6F6F6"/>
<circle cx="518.773" cy="152.542" r="7.38182" transform="rotate(28.9451 518.773 152.542)" fill="#F6F6F6"/>
<circle cx="533.956" cy="125.097" r="7.38182" transform="rotate(28.9451 533.956 125.097)" fill="#F6F6F6"/>
<circle cx="549.14" cy="97.6397" r="7.38182" transform="rotate(28.9451 549.14 97.6397)" fill="#F6F6F6"/>
<circle cx="564.323" cy="70.1905" r="7.38182" transform="rotate(28.9451 564.323 70.1905)" fill="#F6F6F6"/>
<circle cx="579.507" cy="42.7315" r="7.38182" transform="rotate(28.9451 579.507 42.7315)" fill="#F6F6F6"/>
<circle cx="458.038" cy="262.364" r="7.38182" transform="rotate(28.9451 458.038 262.364)" fill="#F6F6F6"/>
<circle cx="442.857" cy="289.817" r="7.38182" transform="rotate(28.9451 442.857 289.817)" fill="#F6F6F6"/>
<circle cx="427.673" cy="317.274" r="7.38182" transform="rotate(28.9451 427.673 317.274)" fill="#F6F6F6"/>
<circle cx="412.49" cy="344.718" r="7.38182" transform="rotate(28.9451 412.49 344.718)" fill="#F6F6F6"/>
<circle cx="397.306" cy="372.181" r="7.38182" transform="rotate(28.9451 397.306 372.181)" fill="#F6F6F6"/>
<circle cx="382.122" cy="399.632" r="7.38182" transform="rotate(28.9451 382.122 399.632)" fill="#F6F6F6"/>
<circle cx="366.94" cy="427.093" r="7.38182" transform="rotate(28.9451 366.94 427.093)" fill="#F6F6F6"/>
<circle cx="351.756" cy="454.54" r="7.38182" transform="rotate(28.9451 351.756 454.54)" fill="#F6F6F6"/>
<circle cx="336.572" cy="481.995" r="7.38182" transform="rotate(28.9451 336.572 481.995)" fill="#F6F6F6"/>
<circle cx="321.388" cy="509.452" r="7.38182" transform="rotate(28.9451 321.388 509.452)" fill="#F6F6F6"/>
<circle cx="306.205" cy="536.903" r="7.38182" transform="rotate(28.9451 306.205 536.903)" fill="#F6F6F6"/>
<circle cx="291.021" cy="564.357" r="7.38182" transform="rotate(28.9451 291.021 564.357)" fill="#F6F6F6"/>
<circle cx="275.837" cy="591.81" r="7.38182" transform="rotate(28.9451 275.837 591.81)" fill="#F6F6F6"/>
<circle cx="507.136" cy="253.663" r="7.38182" transform="rotate(28.9451 507.136 253.663)" fill="#F6F6F6"/>
<circle cx="522.32" cy="226.206" r="7.38182" transform="rotate(28.9451 522.32 226.206)" fill="#F6F6F6"/>
<circle cx="537.502" cy="198.761" r="7.38182" transform="rotate(28.9451 537.502 198.761)" fill="#F6F6F6"/>
<circle cx="552.686" cy="171.306" r="7.38182" transform="rotate(28.9451 552.686 171.306)" fill="#F6F6F6"/>
<circle cx="567.87" cy="143.855" r="7.38182" transform="rotate(28.9451 567.87 143.855)" fill="#F6F6F6"/>
<circle cx="583.054" cy="116.394" r="7.38182" transform="rotate(28.9451 583.054 116.394)" fill="#F6F6F6"/>
<circle cx="598.237" cy="88.9444" r="7.38182" transform="rotate(28.9451 598.237 88.9444)" fill="#F6F6F6"/>
<circle cx="613.421" cy="61.4932" r="7.38182" transform="rotate(28.9451 613.421 61.4932)" fill="#F6F6F6"/>
<circle cx="491.953" cy="281.116" r="7.38182" transform="rotate(28.9451 491.953 281.116)" fill="#F6F6F6"/>
<circle cx="476.769" cy="308.579" r="7.38182" transform="rotate(28.9451 476.769 308.579)" fill="#F6F6F6"/>
<circle cx="461.585" cy="336.032" r="7.38182" transform="rotate(28.9451 461.585 336.032)" fill="#F6F6F6"/>
<circle cx="446.402" cy="363.483" r="7.38182" transform="rotate(28.9451 446.402 363.483)" fill="#F6F6F6"/>
<circle cx="431.218" cy="390.927" r="7.38182" transform="rotate(28.9451 431.218 390.927)" fill="#F6F6F6"/>
<circle cx="416.035" cy="418.384" r="7.38182" transform="rotate(28.9451 416.035 418.384)" fill="#F6F6F6"/>
<circle cx="400.853" cy="445.847" r="7.38182" transform="rotate(28.9451 400.853 445.847)" fill="#F6F6F6"/>
<circle cx="385.669" cy="473.296" r="7.38182" transform="rotate(28.9451 385.669 473.296)" fill="#F6F6F6"/>
<circle cx="370.486" cy="500.745" r="7.38182" transform="rotate(28.9451 370.486 500.745)" fill="#F6F6F6"/>
<circle cx="355.302" cy="528.206" r="7.38182" transform="rotate(28.9451 355.302 528.206)" fill="#F6F6F6"/>
<circle cx="340.12" cy="555.659" r="7.38182" transform="rotate(28.9451 340.12 555.659)" fill="#F6F6F6"/>
<circle cx="324.935" cy="583.108" r="7.38182" transform="rotate(28.9451 324.935 583.108)" fill="#F6F6F6"/>
<circle cx="309.752" cy="610.569" r="7.38182" transform="rotate(28.9451 309.752 610.569)" fill="#F6F6F6"/>
<circle cx="541.05" cy="272.427" r="7.38182" transform="rotate(28.9451 541.05 272.427)" fill="#F6F6F6"/>
<circle cx="556.234" cy="244.97" r="7.38182" transform="rotate(28.9451 556.234 244.97)" fill="#F6F6F6"/>
<circle cx="571.416" cy="217.509" r="7.38182" transform="rotate(28.9451 571.416 217.509)" fill="#F6F6F6"/>
<circle cx="586.6" cy="190.064" r="7.38182" transform="rotate(28.9451 586.6 190.064)" fill="#F6F6F6"/>
<circle cx="601.785" cy="162.61" r="7.38182" transform="rotate(28.9451 601.785 162.61)" fill="#F6F6F6"/>
<circle cx="616.967" cy="135.155" r="7.38182" transform="rotate(28.9451 616.967 135.155)" fill="#F6F6F6"/>
<circle cx="525.866" cy="299.878" r="7.38182" transform="rotate(28.9451 525.866 299.878)" fill="#F6F6F6"/>
<circle cx="510.682" cy="327.325" r="7.38182" transform="rotate(28.9451 510.682 327.325)" fill="#F6F6F6"/>
<circle cx="495.498" cy="354.784" r="7.38182" transform="rotate(28.9451 495.498 354.784)" fill="#F6F6F6"/>
<circle cx="480.316" cy="382.243" r="7.38182" transform="rotate(28.9451 480.316 382.243)" fill="#F6F6F6"/>
<circle cx="465.132" cy="409.69" r="7.38182" transform="rotate(28.9451 465.132 409.69)" fill="#F6F6F6"/>
<circle cx="449.949" cy="437.146" r="7.38182" transform="rotate(28.9451 449.949 437.146)" fill="#F6F6F6"/>
<circle cx="434.765" cy="464.597" r="7.38182" transform="rotate(28.9451 434.765 464.597)" fill="#F6F6F6"/>
<circle cx="419.581" cy="492.05" r="7.38182" transform="rotate(28.9451 419.581 492.05)" fill="#F6F6F6"/>
<circle cx="404.398" cy="519.507" r="7.38182" transform="rotate(28.9451 404.398 519.507)" fill="#F6F6F6"/>
<circle cx="389.216" cy="546.96" r="7.38182" transform="rotate(28.9451 389.216 546.96)" fill="#F6F6F6"/>
<circle cx="374.031" cy="574.417" r="7.38182" transform="rotate(28.9451 374.031 574.417)" fill="#F6F6F6"/>
<circle cx="358.849" cy="601.874" r="7.38182" transform="rotate(28.9451 358.849 601.874)" fill="#F6F6F6"/>
<circle cx="574.964" cy="291.181" r="7.38182" transform="rotate(28.9451 574.964 291.181)" fill="#F6F6F6"/>
<circle cx="590.147" cy="263.726" r="7.38182" transform="rotate(28.9451 590.147 263.726)" fill="#F6F6F6"/>
<circle cx="605.331" cy="236.271" r="7.38182" transform="rotate(28.9451 605.331 236.271)" fill="#F6F6F6"/>
<circle cx="559.78" cy="318.634" r="7.38182" transform="rotate(28.9451 559.78 318.634)" fill="#F6F6F6"/>
<circle cx="544.596" cy="346.087" r="7.38182" transform="rotate(28.9451 544.596 346.087)" fill="#F6F6F6"/>
<circle cx="529.414" cy="373.546" r="7.38182" transform="rotate(28.9451 529.414 373.546)" fill="#F6F6F6"/>
<circle cx="514.229" cy="400.995" r="7.38182" transform="rotate(28.9451 514.229 400.995)" fill="#F6F6F6"/>
<circle cx="499.045" cy="428.45" r="7.38182" transform="rotate(28.9451 499.045 428.45)" fill="#F6F6F6"/>
<circle cx="483.862" cy="455.899" r="7.38182" transform="rotate(28.9451 483.862 455.899)" fill="#F6F6F6"/>
<circle cx="468.679" cy="483.36" r="7.38182" transform="rotate(28.9451 468.679 483.36)" fill="#F6F6F6"/>
<circle cx="453.496" cy="510.81" r="7.38182" transform="rotate(28.9451 453.496 510.81)" fill="#F6F6F6"/>
<circle cx="438.311" cy="538.263" r="7.38182" transform="rotate(28.9451 438.311 538.263)" fill="#F6F6F6"/>
<circle cx="423.128" cy="565.722" r="7.38182" transform="rotate(28.9451 423.128 565.722)" fill="#F6F6F6"/>
<circle cx="407.945" cy="593.165" r="7.38182" transform="rotate(28.9451 407.945 593.165)" fill="#F6F6F6"/>
<circle cx="608.878" cy="309.933" r="7.38182" transform="rotate(28.9451 608.878 309.933)" fill="#F6F6F6"/>
<circle cx="593.694" cy="337.392" r="7.38182" transform="rotate(28.9451 593.694 337.392)" fill="#F6F6F6"/>
<circle cx="578.51" cy="364.843" r="7.38182" transform="rotate(28.9451 578.51 364.843)" fill="#F6F6F6"/>
<circle cx="612.424" cy="383.595" r="7.38182" transform="rotate(28.9451 612.424 383.595)" fill="#F6F6F6"/>
<circle cx="563.328" cy="392.296" r="7.38182" transform="rotate(28.9451 563.328 392.296)" fill="#F6F6F6"/>
<circle cx="597.241" cy="411.052" r="7.38182" transform="rotate(28.9451 597.241 411.052)" fill="#F6F6F6"/>
<circle cx="548.144" cy="419.747" r="7.38182" transform="rotate(28.9451 548.144 419.747)" fill="#F6F6F6"/>
<circle cx="582.057" cy="438.509" r="7.38182" transform="rotate(28.9451 582.057 438.509)" fill="#F6F6F6"/>
<circle cx="615.97" cy="457.263" r="7.38182" transform="rotate(28.9451 615.97 457.263)" fill="#F6F6F6"/>
<circle cx="532.96" cy="447.196" r="7.38182" transform="rotate(28.9451 532.96 447.196)" fill="#F6F6F6"/>
<circle cx="566.873" cy="465.962" r="7.38182" transform="rotate(28.9451 566.873 465.962)" fill="#F6F6F6"/>
<circle cx="600.787" cy="484.72" r="7.38182" transform="rotate(28.9451 600.787 484.72)" fill="#F6F6F6"/>
<circle cx="517.777" cy="474.659" r="7.38182" transform="rotate(28.9451 517.777 474.659)" fill="#F6F6F6"/>
<circle cx="551.69" cy="493.419" r="7.38182" transform="rotate(28.9451 551.69 493.419)" fill="#F6F6F6"/>
<circle cx="585.604" cy="512.175" r="7.38182" transform="rotate(28.9451 585.604 512.175)" fill="#F6F6F6"/>
<circle cx="502.592" cy="502.112" r="7.38182" transform="rotate(28.9451 502.592 502.112)" fill="#F6F6F6"/>
<circle cx="536.506" cy="520.872" r="7.38182" transform="rotate(28.9451 536.506 520.872)" fill="#F6F6F6"/>
<circle cx="570.421" cy="539.622" r="7.38182" transform="rotate(28.9451 570.421 539.622)" fill="#F6F6F6"/>
<circle cx="604.332" cy="558.382" r="7.38182" transform="rotate(28.9451 604.332 558.382)" fill="#F6F6F6"/>
<circle cx="487.41" cy="529.564" r="7.38182" transform="rotate(28.9451 487.41 529.564)" fill="#F6F6F6"/>
<circle cx="521.323" cy="548.323" r="7.38182" transform="rotate(28.9451 521.323 548.323)" fill="#F6F6F6"/>
<circle cx="555.236" cy="567.079" r="7.38182" transform="rotate(28.9451 555.236 567.079)" fill="#F6F6F6"/>
<circle cx="589.148" cy="585.833" r="7.38182" transform="rotate(28.9451 589.148 585.833)" fill="#F6F6F6"/>
<circle cx="472.226" cy="557.019" r="7.38182" transform="rotate(28.9451 472.226 557.019)" fill="#F6F6F6"/>
<circle cx="506.139" cy="575.776" r="7.38182" transform="rotate(28.9451 506.139 575.776)" fill="#F6F6F6"/>
<circle cx="540.053" cy="594.532" r="7.38182" transform="rotate(28.9451 540.053 594.532)" fill="#F6F6F6"/>
<circle cx="573.965" cy="613.278" r="7.38182" transform="rotate(28.9451 573.965 613.278)" fill="#F6F6F6"/>
<circle cx="457.041" cy="584.476" r="7.38182" transform="rotate(28.9451 457.041 584.476)" fill="#F6F6F6"/>
<circle cx="490.955" cy="603.23" r="7.38182" transform="rotate(28.9451 490.955 603.23)" fill="#F6F6F6"/>
<circle cx="441.859" cy="611.929" r="7.38182" transform="rotate(28.9451 441.859 611.929)" fill="#F6F6F6"/>
</g>
</svg>
