<svg width="891" height="935" viewBox="0 0 891 935" fill="none" xmlns="http://www.w3.org/2000/svg">
<g opacity="0.3">
<mask id="mask0_2420_232219" style="mask-type:alpha" maskUnits="userSpaceOnUse" x="349" y="321" width="471" height="471">
<circle cx="584.536" cy="556.556" r="234.5" transform="rotate(-22.2 584.536 556.556)" fill="#B9544C"/>
</mask>
<g mask="url(#mask0_2420_232219)">
<circle cx="358.563" cy="419.28" r="5.68485" transform="rotate(6.74505 358.563 419.28)" fill="#B9544C"/>
<circle cx="361.4" cy="395.286" r="5.68485" transform="rotate(6.74505 361.4 395.286)" fill="#B9544C"/>
<circle cx="364.237" cy="371.29" r="5.68485" transform="rotate(6.74505 364.237 371.29)" fill="#B9544C"/>
<circle cx="367.074" cy="347.3" r="5.68485" transform="rotate(6.74505 367.074 347.3)" fill="#B9544C"/>
<circle cx="369.912" cy="323.307" r="5.68485" transform="rotate(6.74505 369.912 323.307)" fill="#B9544C"/>
<circle cx="355.726" cy="443.276" r="5.68485" transform="rotate(6.74505 355.726 443.276)" fill="#B9544C"/>
<circle cx="352.887" cy="467.268" r="5.68485" transform="rotate(6.74505 352.887 467.268)" fill="#B9544C"/>
<circle cx="350.048" cy="491.257" r="5.68485" transform="rotate(6.74505 350.048 491.257)" fill="#B9544C"/>
<circle cx="347.214" cy="515.258" r="5.68485" transform="rotate(6.74505 347.214 515.258)" fill="#B9544C"/>
<circle cx="344.374" cy="539.249" r="5.68485" transform="rotate(6.74505 344.374 539.249)" fill="#B9544C"/>
<circle cx="388.201" cy="422.786" r="5.68485" transform="rotate(6.74505 388.201 422.786)" fill="#B9544C"/>
<circle cx="391.037" cy="398.79" r="5.68485" transform="rotate(6.74505 391.037 398.79)" fill="#B9544C"/>
<circle cx="393.877" cy="374.8" r="5.68485" transform="rotate(6.74505 393.877 374.8)" fill="#B9544C"/>
<circle cx="396.712" cy="350.801" r="5.68485" transform="rotate(6.74505 396.712 350.801)" fill="#B9544C"/>
<circle cx="399.551" cy="326.809" r="5.68485" transform="rotate(6.74505 399.551 326.809)" fill="#B9544C"/>
<circle cx="385.363" cy="446.78" r="5.68485" transform="rotate(6.74505 385.363 446.78)" fill="#B9544C"/>
<circle cx="382.527" cy="470.776" r="5.68485" transform="rotate(6.74505 382.527 470.776)" fill="#B9544C"/>
<circle cx="379.688" cy="494.766" r="5.68485" transform="rotate(6.74505 379.688 494.766)" fill="#B9544C"/>
<circle cx="376.85" cy="518.758" r="5.68485" transform="rotate(6.74505 376.85 518.758)" fill="#B9544C"/>
<circle cx="374.015" cy="542.757" r="5.68485" transform="rotate(6.74505 374.015 542.757)" fill="#B9544C"/>
<circle cx="371.176" cy="566.747" r="5.68485" transform="rotate(6.74505 371.176 566.747)" fill="#B9544C"/>
<circle cx="368.338" cy="590.739" r="5.68485" transform="rotate(6.74505 368.338 590.739)" fill="#B9544C"/>
<circle cx="365.502" cy="614.737" r="5.68485" transform="rotate(6.74505 365.502 614.737)" fill="#B9544C"/>
<circle cx="362.663" cy="638.729" r="5.68485" transform="rotate(6.74505 362.663 638.729)" fill="#B9544C"/>
<circle cx="359.825" cy="662.721" r="5.68485" transform="rotate(6.74505 359.825 662.721)" fill="#B9544C"/>
<circle cx="356.989" cy="686.717" r="5.68485" transform="rotate(6.74505 356.989 686.717)" fill="#B9544C"/>
<circle cx="354.147" cy="710.702" r="5.68485" transform="rotate(6.74505 354.147 710.702)" fill="#B9544C"/>
<circle cx="351.311" cy="734.7" r="5.68485" transform="rotate(6.74505 351.311 734.7)" fill="#B9544C"/>
<circle cx="348.473" cy="758.692" r="5.68485" transform="rotate(6.74505 348.473 758.692)" fill="#B9544C"/>
<circle cx="345.637" cy="782.69" r="5.68485" transform="rotate(6.74505 345.637 782.69)" fill="#B9544C"/>
<circle cx="417.84" cy="426.292" r="5.68485" transform="rotate(6.74505 417.84 426.292)" fill="#B9544C"/>
<circle cx="420.676" cy="402.292" r="5.68485" transform="rotate(6.74505 420.676 402.292)" fill="#B9544C"/>
<circle cx="423.513" cy="378.301" r="5.68485" transform="rotate(6.74505 423.513 378.301)" fill="#B9544C"/>
<circle cx="426.354" cy="354.313" r="5.68485" transform="rotate(6.74505 426.354 354.313)" fill="#B9544C"/>
<circle cx="429.191" cy="330.319" r="5.68485" transform="rotate(6.74505 429.191 330.319)" fill="#B9544C"/>
<circle cx="415.003" cy="450.288" r="5.68485" transform="rotate(6.74505 415.003 450.288)" fill="#B9544C"/>
<circle cx="412.165" cy="474.28" r="5.68485" transform="rotate(6.74505 412.165 474.28)" fill="#B9544C"/>
<circle cx="409.326" cy="498.272" r="5.68485" transform="rotate(6.74505 409.326 498.272)" fill="#B9544C"/>
<circle cx="406.489" cy="522.264" r="5.68485" transform="rotate(6.74505 406.489 522.264)" fill="#B9544C"/>
<circle cx="403.651" cy="546.258" r="5.68485" transform="rotate(6.74505 403.651 546.258)" fill="#B9544C"/>
<circle cx="400.815" cy="570.255" r="5.68485" transform="rotate(6.74505 400.815 570.255)" fill="#B9544C"/>
<circle cx="397.975" cy="594.245" r="5.68485" transform="rotate(6.74505 397.975 594.245)" fill="#B9544C"/>
<circle cx="395.137" cy="618.239" r="5.68485" transform="rotate(6.74505 395.137 618.239)" fill="#B9544C"/>
<circle cx="392.302" cy="642.233" r="5.68485" transform="rotate(6.74505 392.302 642.233)" fill="#B9544C"/>
<circle cx="389.465" cy="666.229" r="5.68485" transform="rotate(6.74505 389.465 666.229)" fill="#B9544C"/>
<circle cx="386.626" cy="690.217" r="5.68485" transform="rotate(6.74505 386.626 690.217)" fill="#B9544C"/>
<circle cx="383.789" cy="714.214" r="5.68485" transform="rotate(6.74505 383.789 714.214)" fill="#B9544C"/>
<circle cx="380.95" cy="738.204" r="5.68485" transform="rotate(6.74505 380.95 738.204)" fill="#B9544C"/>
<circle cx="378.114" cy="762.202" r="5.68485" transform="rotate(6.74505 378.114 762.202)" fill="#B9544C"/>
<circle cx="375.275" cy="786.192" r="5.68485" transform="rotate(6.74505 375.275 786.192)" fill="#B9544C"/>
<circle cx="447.478" cy="429.794" r="5.68485" transform="rotate(6.74505 447.478 429.794)" fill="#B9544C"/>
<circle cx="450.316" cy="405.8" r="5.68485" transform="rotate(6.74505 450.316 405.8)" fill="#B9544C"/>
<circle cx="453.154" cy="381.809" r="5.68485" transform="rotate(6.74505 453.154 381.809)" fill="#B9544C"/>
<circle cx="455.991" cy="357.815" r="5.68485" transform="rotate(6.74505 455.991 357.815)" fill="#B9544C"/>
<circle cx="458.83" cy="333.823" r="5.68485" transform="rotate(6.74505 458.83 333.823)" fill="#B9544C"/>
<circle cx="444.643" cy="453.794" r="5.68485" transform="rotate(6.74505 444.643 453.794)" fill="#B9544C"/>
<circle cx="441.804" cy="477.786" r="5.68485" transform="rotate(6.74505 441.804 477.786)" fill="#B9544C"/>
<circle cx="438.964" cy="501.774" r="5.68485" transform="rotate(6.74505 438.964 501.774)" fill="#B9544C"/>
<circle cx="436.127" cy="525.766" r="5.68485" transform="rotate(6.74505 436.127 525.766)" fill="#B9544C"/>
<circle cx="433.288" cy="549.76" r="5.68485" transform="rotate(6.74505 433.288 549.76)" fill="#B9544C"/>
<circle cx="430.452" cy="573.757" r="5.68485" transform="rotate(6.74505 430.452 573.757)" fill="#B9544C"/>
<circle cx="427.616" cy="597.753" r="5.68485" transform="rotate(6.74505 427.616 597.753)" fill="#B9544C"/>
<circle cx="424.778" cy="621.747" r="5.68485" transform="rotate(6.74505 424.778 621.747)" fill="#B9544C"/>
<circle cx="421.939" cy="645.737" r="5.68485" transform="rotate(6.74505 421.939 645.737)" fill="#B9544C"/>
<circle cx="419.099" cy="669.725" r="5.68485" transform="rotate(6.74505 419.099 669.725)" fill="#B9544C"/>
<circle cx="416.264" cy="693.727" r="5.68485" transform="rotate(6.74505 416.264 693.727)" fill="#B9544C"/>
<circle cx="413.425" cy="717.714" r="5.68485" transform="rotate(6.74505 413.425 717.714)" fill="#B9544C"/>
<circle cx="410.588" cy="741.712" r="5.68485" transform="rotate(6.74505 410.588 741.712)" fill="#B9544C"/>
<circle cx="407.75" cy="765.7" r="5.68485" transform="rotate(6.74505 407.75 765.7)" fill="#B9544C"/>
<circle cx="404.913" cy="789.696" r="5.68485" transform="rotate(6.74505 404.913 789.696)" fill="#B9544C"/>
<circle cx="477.117" cy="433.3" r="5.68485" transform="rotate(6.74505 477.117 433.3)" fill="#B9544C"/>
<circle cx="479.956" cy="409.307" r="5.68485" transform="rotate(6.74505 479.956 409.307)" fill="#B9544C"/>
<circle cx="482.793" cy="385.313" r="5.68485" transform="rotate(6.74505 482.793 385.313)" fill="#B9544C"/>
<circle cx="485.63" cy="361.317" r="5.68485" transform="rotate(6.74505 485.63 361.317)" fill="#B9544C"/>
<circle cx="488.47" cy="337.331" r="5.68485" transform="rotate(6.74505 488.47 337.331)" fill="#B9544C"/>
<circle cx="474.281" cy="457.298" r="5.68485" transform="rotate(6.74505 474.281 457.298)" fill="#B9544C"/>
<circle cx="471.443" cy="481.29" r="5.68485" transform="rotate(6.74505 471.443 481.29)" fill="#B9544C"/>
<circle cx="468.607" cy="505.286" r="5.68485" transform="rotate(6.74505 468.607 505.286)" fill="#B9544C"/>
<circle cx="465.768" cy="529.276" r="5.68485" transform="rotate(6.74505 465.768 529.276)" fill="#B9544C"/>
<circle cx="462.928" cy="553.264" r="5.68485" transform="rotate(6.74505 462.928 553.264)" fill="#B9544C"/>
<circle cx="460.091" cy="577.26" r="5.68485" transform="rotate(6.74505 460.091 577.26)" fill="#B9544C"/>
<circle cx="457.253" cy="601.253" r="5.68485" transform="rotate(6.74505 457.253 601.253)" fill="#B9544C"/>
<circle cx="454.416" cy="625.249" r="5.68485" transform="rotate(6.74505 454.416 625.249)" fill="#B9544C"/>
<circle cx="451.58" cy="649.247" r="5.68485" transform="rotate(6.74505 451.58 649.247)" fill="#B9544C"/>
<circle cx="448.741" cy="673.235" r="5.68485" transform="rotate(6.74505 448.741 673.235)" fill="#B9544C"/>
<circle cx="445.905" cy="697.235" r="5.68485" transform="rotate(6.74505 445.905 697.235)" fill="#B9544C"/>
<circle cx="443.066" cy="721.225" r="5.68485" transform="rotate(6.74505 443.066 721.225)" fill="#B9544C"/>
<circle cx="440.226" cy="745.214" r="5.68485" transform="rotate(6.74505 440.226 745.214)" fill="#B9544C"/>
<circle cx="437.389" cy="769.208" r="5.68485" transform="rotate(6.74505 437.389 769.208)" fill="#B9544C"/>
<circle cx="434.551" cy="793.2" r="5.68485" transform="rotate(6.74505 434.551 793.2)" fill="#B9544C"/>
<circle cx="506.756" cy="436.803" r="5.68485" transform="rotate(6.74505 506.756 436.803)" fill="#B9544C"/>
<circle cx="509.595" cy="412.813" r="5.68485" transform="rotate(6.74505 509.595 412.813)" fill="#B9544C"/>
<circle cx="512.431" cy="388.817" r="5.68485" transform="rotate(6.74505 512.431 388.817)" fill="#B9544C"/>
<circle cx="515.27" cy="364.825" r="5.68485" transform="rotate(6.74505 515.27 364.825)" fill="#B9544C"/>
<circle cx="518.106" cy="340.831" r="5.68485" transform="rotate(6.74505 518.106 340.831)" fill="#B9544C"/>
<circle cx="520.944" cy="316.839" r="5.68485" transform="rotate(6.74505 520.944 316.839)" fill="#B9544C"/>
<circle cx="503.918" cy="460.798" r="5.68485" transform="rotate(6.74505 503.918 460.798)" fill="#B9544C"/>
<circle cx="501.083" cy="484.798" r="5.68485" transform="rotate(6.74505 501.083 484.798)" fill="#B9544C"/>
<circle cx="498.244" cy="508.788" r="5.68485" transform="rotate(6.74505 498.244 508.788)" fill="#B9544C"/>
<circle cx="495.405" cy="532.778" r="5.68485" transform="rotate(6.74505 495.405 532.778)" fill="#B9544C"/>
<circle cx="492.568" cy="556.772" r="5.68485" transform="rotate(6.74505 492.568 556.772)" fill="#B9544C"/>
<circle cx="489.73" cy="580.766" r="5.68485" transform="rotate(6.74505 489.73 580.766)" fill="#B9544C"/>
<circle cx="486.891" cy="604.758" r="5.68485" transform="rotate(6.74505 486.891 604.758)" fill="#B9544C"/>
<circle cx="484.054" cy="628.751" r="5.68485" transform="rotate(6.74505 484.054 628.751)" fill="#B9544C"/>
<circle cx="481.216" cy="652.745" r="5.68485" transform="rotate(6.74505 481.216 652.745)" fill="#B9544C"/>
<circle cx="478.379" cy="676.739" r="5.68485" transform="rotate(6.74505 478.379 676.739)" fill="#B9544C"/>
<circle cx="475.54" cy="700.729" r="5.68485" transform="rotate(6.74505 475.54 700.729)" fill="#B9544C"/>
<circle cx="472.703" cy="724.727" r="5.68485" transform="rotate(6.74505 472.703 724.727)" fill="#B9544C"/>
<circle cx="469.869" cy="748.725" r="5.68485" transform="rotate(6.74505 469.869 748.725)" fill="#B9544C"/>
<circle cx="467.028" cy="772.714" r="5.68485" transform="rotate(6.74505 467.028 772.714)" fill="#B9544C"/>
<circle cx="464.192" cy="796.71" r="5.68485" transform="rotate(6.74505 464.192 796.71)" fill="#B9544C"/>
<circle cx="536.395" cy="440.313" r="5.68485" transform="rotate(6.74505 536.395 440.313)" fill="#B9544C"/>
<circle cx="539.232" cy="416.317" r="5.68485" transform="rotate(6.74505 539.232 416.317)" fill="#B9544C"/>
<circle cx="542.069" cy="392.323" r="5.68485" transform="rotate(6.74505 542.069 392.323)" fill="#B9544C"/>
<circle cx="544.907" cy="368.331" r="5.68485" transform="rotate(6.74505 544.907 368.331)" fill="#B9544C"/>
<circle cx="547.745" cy="344.337" r="5.68485" transform="rotate(6.74505 547.745 344.337)" fill="#B9544C"/>
<circle cx="550.582" cy="320.342" r="5.68485" transform="rotate(6.74505 550.582 320.342)" fill="#B9544C"/>
<circle cx="533.557" cy="464.305" r="5.68485" transform="rotate(6.74505 533.557 464.305)" fill="#B9544C"/>
<circle cx="530.721" cy="488.3" r="5.68485" transform="rotate(6.74505 530.721 488.3)" fill="#B9544C"/>
<circle cx="527.884" cy="512.294" r="5.68485" transform="rotate(6.74505 527.884 512.294)" fill="#B9544C"/>
<circle cx="525.047" cy="536.292" r="5.68485" transform="rotate(6.74505 525.047 536.292)" fill="#B9544C"/>
<circle cx="522.209" cy="560.282" r="5.68485" transform="rotate(6.74505 522.209 560.282)" fill="#B9544C"/>
<circle cx="519.369" cy="584.27" r="5.68485" transform="rotate(6.74505 519.369 584.27)" fill="#B9544C"/>
<circle cx="516.532" cy="608.266" r="5.68485" transform="rotate(6.74505 516.532 608.266)" fill="#B9544C"/>
<circle cx="513.695" cy="632.258" r="5.68485" transform="rotate(6.74505 513.695 632.258)" fill="#B9544C"/>
<circle cx="510.858" cy="656.257" r="5.68485" transform="rotate(6.74505 510.858 656.257)" fill="#B9544C"/>
<circle cx="508.018" cy="680.245" r="5.68485" transform="rotate(6.74505 508.018 680.245)" fill="#B9544C"/>
<circle cx="505.181" cy="704.239" r="5.68485" transform="rotate(6.74505 505.181 704.239)" fill="#B9544C"/>
<circle cx="502.345" cy="728.237" r="5.68485" transform="rotate(6.74505 502.345 728.237)" fill="#B9544C"/>
<circle cx="499.506" cy="752.227" r="5.68485" transform="rotate(6.74505 499.506 752.227)" fill="#B9544C"/>
<circle cx="496.67" cy="776.225" r="5.68485" transform="rotate(6.74505 496.67 776.225)" fill="#B9544C"/>
<circle cx="566.034" cy="443.817" r="5.68485" transform="rotate(6.74505 566.034 443.817)" fill="#B9544C"/>
<circle cx="568.872" cy="419.825" r="5.68485" transform="rotate(6.74505 568.872 419.825)" fill="#B9544C"/>
<circle cx="571.709" cy="395.829" r="5.68485" transform="rotate(6.74505 571.709 395.829)" fill="#B9544C"/>
<circle cx="574.546" cy="371.835" r="5.68485" transform="rotate(6.74505 574.546 371.835)" fill="#B9544C"/>
<circle cx="577.385" cy="347.844" r="5.68485" transform="rotate(6.74505 577.385 347.844)" fill="#B9544C"/>
<circle cx="580.222" cy="323.848" r="5.68485" transform="rotate(6.74505 580.222 323.848)" fill="#B9544C"/>
<circle cx="563.196" cy="467.811" r="5.68485" transform="rotate(6.74505 563.196 467.811)" fill="#B9544C"/>
<circle cx="560.359" cy="491.805" r="5.68485" transform="rotate(6.74505 560.359 491.805)" fill="#B9544C"/>
<circle cx="557.521" cy="515.798" r="5.68485" transform="rotate(6.74505 557.521 515.798)" fill="#B9544C"/>
<circle cx="554.682" cy="539.79" r="5.68485" transform="rotate(6.74505 554.682 539.79)" fill="#B9544C"/>
<circle cx="551.847" cy="563.79" r="5.68485" transform="rotate(6.74505 551.847 563.79)" fill="#B9544C"/>
<circle cx="549.006" cy="587.774" r="5.68485" transform="rotate(6.74505 549.006 587.774)" fill="#B9544C"/>
<circle cx="546.172" cy="611.774" r="5.68485" transform="rotate(6.74505 546.172 611.774)" fill="#B9544C"/>
<circle cx="543.335" cy="635.77" r="5.68485" transform="rotate(6.74505 543.335 635.77)" fill="#B9544C"/>
<circle cx="540.493" cy="659.753" r="5.68485" transform="rotate(6.74505 540.493 659.753)" fill="#B9544C"/>
<circle cx="537.659" cy="683.755" r="5.68485" transform="rotate(6.74505 537.659 683.755)" fill="#B9544C"/>
<circle cx="534.82" cy="707.745" r="5.68485" transform="rotate(6.74505 534.82 707.745)" fill="#B9544C"/>
<circle cx="531.984" cy="731.743" r="5.68485" transform="rotate(6.74505 531.984 731.743)" fill="#B9544C"/>
<circle cx="529.143" cy="755.727" r="5.68485" transform="rotate(6.74505 529.143 755.727)" fill="#B9544C"/>
<circle cx="526.308" cy="779.727" r="5.68485" transform="rotate(6.74505 526.308 779.727)" fill="#B9544C"/>
<circle cx="595.671" cy="447.317" r="5.68485" transform="rotate(6.74505 595.671 447.317)" fill="#B9544C"/>
<circle cx="598.51" cy="423.327" r="5.68485" transform="rotate(6.74505 598.51 423.327)" fill="#B9544C"/>
<circle cx="601.348" cy="399.335" r="5.68485" transform="rotate(6.74505 601.348 399.335)" fill="#B9544C"/>
<circle cx="604.186" cy="375.342" r="5.68485" transform="rotate(6.74505 604.186 375.342)" fill="#B9544C"/>
<circle cx="607.027" cy="351.356" r="5.68485" transform="rotate(6.74505 607.027 351.356)" fill="#B9544C"/>
<circle cx="609.862" cy="327.356" r="5.68485" transform="rotate(6.74505 609.862 327.356)" fill="#B9544C"/>
<circle cx="592.834" cy="471.315" r="5.68485" transform="rotate(6.74505 592.834 471.315)" fill="#B9544C"/>
<circle cx="589.998" cy="495.311" r="5.68485" transform="rotate(6.74505 589.998 495.311)" fill="#B9544C"/>
<circle cx="587.16" cy="519.303" r="5.68485" transform="rotate(6.74505 587.16 519.303)" fill="#B9544C"/>
<circle cx="584.322" cy="543.296" r="5.68485" transform="rotate(6.74505 584.322 543.296)" fill="#B9544C"/>
<circle cx="581.486" cy="567.294" r="5.68485" transform="rotate(6.74505 581.486 567.294)" fill="#B9544C"/>
<circle cx="578.648" cy="591.288" r="5.68485" transform="rotate(6.74505 578.648 591.288)" fill="#B9544C"/>
<circle cx="575.811" cy="615.28" r="5.68485" transform="rotate(6.74505 575.811 615.28)" fill="#B9544C"/>
<circle cx="572.972" cy="639.272" r="5.68485" transform="rotate(6.74505 572.972 639.272)" fill="#B9544C"/>
<circle cx="570.135" cy="663.27" r="5.68485" transform="rotate(6.74505 570.135 663.27)" fill="#B9544C"/>
<circle cx="567.295" cy="687.255" r="5.68485" transform="rotate(6.74505 567.295 687.255)" fill="#B9544C"/>
<circle cx="564.46" cy="711.257" r="5.68485" transform="rotate(6.74505 564.46 711.257)" fill="#B9544C"/>
<circle cx="561.618" cy="735.239" r="5.68485" transform="rotate(6.74505 561.618 735.239)" fill="#B9544C"/>
<circle cx="558.784" cy="759.237" r="5.68485" transform="rotate(6.74505 558.784 759.237)" fill="#B9544C"/>
<circle cx="555.945" cy="783.229" r="5.68485" transform="rotate(6.74505 555.945 783.229)" fill="#B9544C"/>
<circle cx="625.314" cy="450.831" r="5.68485" transform="rotate(6.74505 625.314 450.831)" fill="#B9544C"/>
<circle cx="628.152" cy="426.839" r="5.68485" transform="rotate(6.74505 628.152 426.839)" fill="#B9544C"/>
<circle cx="630.987" cy="402.839" r="5.68485" transform="rotate(6.74505 630.987 402.839)" fill="#B9544C"/>
<circle cx="633.826" cy="378.852" r="5.68485" transform="rotate(6.74505 633.826 378.852)" fill="#B9544C"/>
<circle cx="636.665" cy="354.86" r="5.68485" transform="rotate(6.74505 636.665 354.86)" fill="#B9544C"/>
<circle cx="639.502" cy="330.864" r="5.68485" transform="rotate(6.74505 639.502 330.864)" fill="#B9544C"/>
<circle cx="622.475" cy="474.823" r="5.68485" transform="rotate(6.74505 622.475 474.823)" fill="#B9544C"/>
<circle cx="619.639" cy="498.819" r="5.68485" transform="rotate(6.74505 619.639 498.819)" fill="#B9544C"/>
<circle cx="616.8" cy="522.811" r="5.68485" transform="rotate(6.74505 616.8 522.811)" fill="#B9544C"/>
<circle cx="613.962" cy="546.805" r="5.68485" transform="rotate(6.74505 613.962 546.805)" fill="#B9544C"/>
<circle cx="611.125" cy="570.799" r="5.68485" transform="rotate(6.74505 611.125 570.799)" fill="#B9544C"/>
<circle cx="608.287" cy="594.792" r="5.68485" transform="rotate(6.74505 608.287 594.792)" fill="#B9544C"/>
<circle cx="605.45" cy="618.786" r="5.68485" transform="rotate(6.74505 605.45 618.786)" fill="#B9544C"/>
<circle cx="602.611" cy="642.778" r="5.68485" transform="rotate(6.74505 602.611 642.778)" fill="#B9544C"/>
<circle cx="599.773" cy="666.772" r="5.68485" transform="rotate(6.74505 599.773 666.772)" fill="#B9544C"/>
<circle cx="596.935" cy="690.764" r="5.68485" transform="rotate(6.74505 596.935 690.764)" fill="#B9544C"/>
<circle cx="594.097" cy="714.757" r="5.68485" transform="rotate(6.74505 594.097 714.757)" fill="#B9544C"/>
<circle cx="591.26" cy="738.753" r="5.68485" transform="rotate(6.74505 591.26 738.753)" fill="#B9544C"/>
<circle cx="588.422" cy="762.745" r="5.68485" transform="rotate(6.74505 588.422 762.745)" fill="#B9544C"/>
<circle cx="585.585" cy="786.739" r="5.68485" transform="rotate(6.74505 585.585 786.739)" fill="#B9544C"/>
<circle cx="654.954" cy="454.339" r="5.68485" transform="rotate(6.74505 654.954 454.339)" fill="#B9544C"/>
<circle cx="657.789" cy="430.342" r="5.68485" transform="rotate(6.74505 657.789 430.342)" fill="#B9544C"/>
<circle cx="660.625" cy="406.344" r="5.68485" transform="rotate(6.74505 660.625 406.344)" fill="#B9544C"/>
<circle cx="663.466" cy="382.358" r="5.68485" transform="rotate(6.74505 663.466 382.358)" fill="#B9544C"/>
<circle cx="666.301" cy="358.358" r="5.68485" transform="rotate(6.74505 666.301 358.358)" fill="#B9544C"/>
<circle cx="669.139" cy="334.368" r="5.68485" transform="rotate(6.74505 669.139 334.368)" fill="#B9544C"/>
<circle cx="652.115" cy="478.331" r="5.68485" transform="rotate(6.74505 652.115 478.331)" fill="#B9544C"/>
<circle cx="649.277" cy="502.323" r="5.68485" transform="rotate(6.74505 649.277 502.323)" fill="#B9544C"/>
<circle cx="646.438" cy="526.315" r="5.68485" transform="rotate(6.74505 646.438 526.315)" fill="#B9544C"/>
<circle cx="643.603" cy="550.313" r="5.68485" transform="rotate(6.74505 643.603 550.313)" fill="#B9544C"/>
<circle cx="640.764" cy="574.305" r="5.68485" transform="rotate(6.74505 640.764 574.305)" fill="#B9544C"/>
<circle cx="637.927" cy="598.298" r="5.68485" transform="rotate(6.74505 637.927 598.298)" fill="#B9544C"/>
<circle cx="635.087" cy="622.288" r="5.68485" transform="rotate(6.74505 635.087 622.288)" fill="#B9544C"/>
<circle cx="632.25" cy="646.284" r="5.68485" transform="rotate(6.74505 632.25 646.284)" fill="#B9544C"/>
<circle cx="629.41" cy="670.27" r="5.68485" transform="rotate(6.74505 629.41 670.27)" fill="#B9544C"/>
<circle cx="626.575" cy="694.272" r="5.68485" transform="rotate(6.74505 626.575 694.272)" fill="#B9544C"/>
<circle cx="623.738" cy="718.264" r="5.68485" transform="rotate(6.74505 623.738 718.264)" fill="#B9544C"/>
<circle cx="620.901" cy="742.26" r="5.68485" transform="rotate(6.74505 620.901 742.26)" fill="#B9544C"/>
<circle cx="618.062" cy="766.253" r="5.68485" transform="rotate(6.74505 618.062 766.253)" fill="#B9544C"/>
<circle cx="615.224" cy="790.243" r="5.68485" transform="rotate(6.74505 615.224 790.243)" fill="#B9544C"/>
<circle cx="684.587" cy="457.835" r="5.68485" transform="rotate(6.74505 684.587 457.835)" fill="#B9544C"/>
<circle cx="687.425" cy="433.842" r="5.68485" transform="rotate(6.74505 687.425 433.842)" fill="#B9544C"/>
<circle cx="690.264" cy="409.852" r="5.68485" transform="rotate(6.74505 690.264 409.852)" fill="#B9544C"/>
<circle cx="693.101" cy="385.854" r="5.68485" transform="rotate(6.74505 693.101 385.854)" fill="#B9544C"/>
<circle cx="695.942" cy="361.868" r="5.68485" transform="rotate(6.74505 695.942 361.868)" fill="#B9544C"/>
<circle cx="698.778" cy="337.874" r="5.68485" transform="rotate(6.74505 698.778 337.874)" fill="#B9544C"/>
<circle cx="681.752" cy="481.835" r="5.68485" transform="rotate(6.74505 681.752 481.835)" fill="#B9544C"/>
<circle cx="678.915" cy="505.827" r="5.68485" transform="rotate(6.74505 678.915 505.827)" fill="#B9544C"/>
<circle cx="676.078" cy="529.823" r="5.68485" transform="rotate(6.74505 676.078 529.823)" fill="#B9544C"/>
<circle cx="673.238" cy="553.809" r="5.68485" transform="rotate(6.74505 673.238 553.809)" fill="#B9544C"/>
<circle cx="670.403" cy="577.809" r="5.68485" transform="rotate(6.74505 670.403 577.809)" fill="#B9544C"/>
<circle cx="667.565" cy="601.801" r="5.68485" transform="rotate(6.74505 667.565 601.801)" fill="#B9544C"/>
<circle cx="664.729" cy="625.798" r="5.68485" transform="rotate(6.74505 664.729 625.798)" fill="#B9544C"/>
<circle cx="661.889" cy="649.788" r="5.68485" transform="rotate(6.74505 661.889 649.788)" fill="#B9544C"/>
<circle cx="659.052" cy="673.78" r="5.68485" transform="rotate(6.74505 659.052 673.78)" fill="#B9544C"/>
<circle cx="656.215" cy="697.778" r="5.68485" transform="rotate(6.74505 656.215 697.778)" fill="#B9544C"/>
<circle cx="653.377" cy="721.77" r="5.68485" transform="rotate(6.74505 653.377 721.77)" fill="#B9544C"/>
<circle cx="650.538" cy="745.76" r="5.68485" transform="rotate(6.74505 650.538 745.76)" fill="#B9544C"/>
<circle cx="647.7" cy="769.755" r="5.68485" transform="rotate(6.74505 647.7 769.755)" fill="#B9544C"/>
<circle cx="644.864" cy="793.749" r="5.68485" transform="rotate(6.74505 644.864 793.749)" fill="#B9544C"/>
<circle cx="714.228" cy="461.342" r="5.68485" transform="rotate(6.74505 714.228 461.342)" fill="#B9544C"/>
<circle cx="717.065" cy="437.348" r="5.68485" transform="rotate(6.74505 717.065 437.348)" fill="#B9544C"/>
<circle cx="719.904" cy="413.36" r="5.68485" transform="rotate(6.74505 719.904 413.36)" fill="#B9544C"/>
<circle cx="722.742" cy="389.366" r="5.68485" transform="rotate(6.74505 722.742 389.366)" fill="#B9544C"/>
<circle cx="725.581" cy="365.376" r="5.68485" transform="rotate(6.74505 725.581 365.376)" fill="#B9544C"/>
<circle cx="728.416" cy="341.376" r="5.68485" transform="rotate(6.74505 728.416 341.376)" fill="#B9544C"/>
<circle cx="731.256" cy="317.385" r="5.68485" transform="rotate(6.74505 731.256 317.385)" fill="#B9544C"/>
<circle cx="711.39" cy="485.337" r="5.68485" transform="rotate(6.74505 711.39 485.337)" fill="#B9544C"/>
<circle cx="708.555" cy="509.337" r="5.68485" transform="rotate(6.74505 708.555 509.337)" fill="#B9544C"/>
<circle cx="705.717" cy="533.329" r="5.68485" transform="rotate(6.74505 705.717 533.329)" fill="#B9544C"/>
<circle cx="702.878" cy="557.321" r="5.68485" transform="rotate(6.74505 702.878 557.321)" fill="#B9544C"/>
<circle cx="700.037" cy="581.307" r="5.68485" transform="rotate(6.74505 700.037 581.307)" fill="#B9544C"/>
<circle cx="697.201" cy="605.303" r="5.68485" transform="rotate(6.74505 697.201 605.303)" fill="#B9544C"/>
<circle cx="694.367" cy="629.301" r="5.68485" transform="rotate(6.74505 694.367 629.301)" fill="#B9544C"/>
<circle cx="691.528" cy="653.292" r="5.68485" transform="rotate(6.74505 691.528 653.292)" fill="#B9544C"/>
<circle cx="688.689" cy="677.284" r="5.68485" transform="rotate(6.74505 688.689 677.284)" fill="#B9544C"/>
<circle cx="685.853" cy="701.28" r="5.68485" transform="rotate(6.74505 685.853 701.28)" fill="#B9544C"/>
<circle cx="683.016" cy="725.274" r="5.68485" transform="rotate(6.74505 683.016 725.274)" fill="#B9544C"/>
<circle cx="680.176" cy="749.264" r="5.68485" transform="rotate(6.74505 680.176 749.264)" fill="#B9544C"/>
<circle cx="677.341" cy="773.262" r="5.68485" transform="rotate(6.74505 677.341 773.262)" fill="#B9544C"/>
<circle cx="674.502" cy="797.255" r="5.68485" transform="rotate(6.74505 674.502 797.255)" fill="#B9544C"/>
<circle cx="743.869" cy="464.854" r="5.68485" transform="rotate(6.74505 743.869 464.854)" fill="#B9544C"/>
<circle cx="746.707" cy="440.86" r="5.68485" transform="rotate(6.74505 746.707 440.86)" fill="#B9544C"/>
<circle cx="749.542" cy="416.86" r="5.68485" transform="rotate(6.74505 749.542 416.86)" fill="#B9544C"/>
<circle cx="752.382" cy="392.874" r="5.68485" transform="rotate(6.74505 752.382 392.874)" fill="#B9544C"/>
<circle cx="755.22" cy="368.88" r="5.68485" transform="rotate(6.74505 755.22 368.88)" fill="#B9544C"/>
<circle cx="758.057" cy="344.885" r="5.68485" transform="rotate(6.74505 758.057 344.885)" fill="#B9544C"/>
<circle cx="760.895" cy="320.893" r="5.68485" transform="rotate(6.74505 760.895 320.893)" fill="#B9544C"/>
<circle cx="741.031" cy="488.846" r="5.68485" transform="rotate(6.74505 741.031 488.846)" fill="#B9544C"/>
<circle cx="738.191" cy="512.835" r="5.68485" transform="rotate(6.74505 738.191 512.835)" fill="#B9544C"/>
<circle cx="735.355" cy="536.831" r="5.68485" transform="rotate(6.74505 735.355 536.831)" fill="#B9544C"/>
<circle cx="732.519" cy="560.829" r="5.68485" transform="rotate(6.74505 732.519 560.829)" fill="#B9544C"/>
<circle cx="729.679" cy="584.819" r="5.68485" transform="rotate(6.74505 729.679 584.819)" fill="#B9544C"/>
<circle cx="726.842" cy="608.811" r="5.68485" transform="rotate(6.74505 726.842 608.811)" fill="#B9544C"/>
<circle cx="724.003" cy="632.803" r="5.68485" transform="rotate(6.74505 724.003 632.803)" fill="#B9544C"/>
<circle cx="721.165" cy="656.798" r="5.68485" transform="rotate(6.74505 721.165 656.798)" fill="#B9544C"/>
<circle cx="718.328" cy="680.792" r="5.68485" transform="rotate(6.74505 718.328 680.792)" fill="#B9544C"/>
<circle cx="715.492" cy="704.784" r="5.68485" transform="rotate(6.74505 715.492 704.784)" fill="#B9544C"/>
<circle cx="712.654" cy="728.78" r="5.68485" transform="rotate(6.74505 712.654 728.78)" fill="#B9544C"/>
<circle cx="709.819" cy="752.778" r="5.68485" transform="rotate(6.74505 709.819 752.778)" fill="#B9544C"/>
<circle cx="706.98" cy="776.768" r="5.68485" transform="rotate(6.74505 706.98 776.768)" fill="#B9544C"/>
<circle cx="773.509" cy="468.358" r="5.68485" transform="rotate(6.74505 773.509 468.358)" fill="#B9544C"/>
<circle cx="776.346" cy="444.364" r="5.68485" transform="rotate(6.74505 776.346 444.364)" fill="#B9544C"/>
<circle cx="779.184" cy="420.37" r="5.68485" transform="rotate(6.74505 779.184 420.37)" fill="#B9544C"/>
<circle cx="782.023" cy="396.382" r="5.68485" transform="rotate(6.74505 782.023 396.382)" fill="#B9544C"/>
<circle cx="784.86" cy="372.384" r="5.68485" transform="rotate(6.74505 784.86 372.384)" fill="#B9544C"/>
<circle cx="787.698" cy="348.391" r="5.68485" transform="rotate(6.74505 787.698 348.391)" fill="#B9544C"/>
<circle cx="790.535" cy="324.399" r="5.68485" transform="rotate(6.74505 790.535 324.399)" fill="#B9544C"/>
<circle cx="770.67" cy="492.35" r="5.68485" transform="rotate(6.74505 770.67 492.35)" fill="#B9544C"/>
<circle cx="767.832" cy="516.344" r="5.68485" transform="rotate(6.74505 767.832 516.344)" fill="#B9544C"/>
<circle cx="764.997" cy="540.341" r="5.68485" transform="rotate(6.74505 764.997 540.341)" fill="#B9544C"/>
<circle cx="762.157" cy="564.331" r="5.68485" transform="rotate(6.74505 762.157 564.331)" fill="#B9544C"/>
<circle cx="759.32" cy="588.327" r="5.68485" transform="rotate(6.74505 759.32 588.327)" fill="#B9544C"/>
<circle cx="756.481" cy="612.315" r="5.68485" transform="rotate(6.74505 756.481 612.315)" fill="#B9544C"/>
<circle cx="753.646" cy="636.315" r="5.68485" transform="rotate(6.74505 753.646 636.315)" fill="#B9544C"/>
<circle cx="750.806" cy="660.305" r="5.68485" transform="rotate(6.74505 750.806 660.305)" fill="#B9544C"/>
<circle cx="747.968" cy="684.298" r="5.68485" transform="rotate(6.74505 747.968 684.298)" fill="#B9544C"/>
<circle cx="745.132" cy="708.296" r="5.68485" transform="rotate(6.74505 745.132 708.296)" fill="#B9544C"/>
<circle cx="742.291" cy="732.282" r="5.68485" transform="rotate(6.74505 742.291 732.282)" fill="#B9544C"/>
<circle cx="739.455" cy="756.278" r="5.68485" transform="rotate(6.74505 739.455 756.278)" fill="#B9544C"/>
<circle cx="736.616" cy="780.27" r="5.68485" transform="rotate(6.74505 736.616 780.27)" fill="#B9544C"/>
<circle cx="803.146" cy="471.86" r="5.68485" transform="rotate(6.74505 803.146 471.86)" fill="#B9544C"/>
<circle cx="805.988" cy="447.876" r="5.68485" transform="rotate(6.74505 805.988 447.876)" fill="#B9544C"/>
<circle cx="808.823" cy="423.878" r="5.68485" transform="rotate(6.74505 808.823 423.878)" fill="#B9544C"/>
<circle cx="811.659" cy="399.88" r="5.68485" transform="rotate(6.74505 811.659 399.88)" fill="#B9544C"/>
<circle cx="814.498" cy="375.887" r="5.68485" transform="rotate(6.74505 814.498 375.887)" fill="#B9544C"/>
<circle cx="817.336" cy="351.895" r="5.68485" transform="rotate(6.74505 817.336 351.895)" fill="#B9544C"/>
<circle cx="820.173" cy="327.899" r="5.68485" transform="rotate(6.74505 820.173 327.899)" fill="#B9544C"/>
<circle cx="800.31" cy="495.856" r="5.68485" transform="rotate(6.74505 800.31 495.856)" fill="#B9544C"/>
<circle cx="797.471" cy="519.848" r="5.68485" transform="rotate(6.74505 797.471 519.848)" fill="#B9544C"/>
<circle cx="794.634" cy="543.842" r="5.68485" transform="rotate(6.74505 794.634 543.842)" fill="#B9544C"/>
<circle cx="824.273" cy="547.348" r="5.68485" transform="rotate(6.74505 824.273 547.348)" fill="#B9544C"/>
<circle cx="791.795" cy="567.833" r="5.68485" transform="rotate(6.74505 791.795 567.833)" fill="#B9544C"/>
<circle cx="821.436" cy="571.344" r="5.68485" transform="rotate(6.74505 821.436 571.344)" fill="#B9544C"/>
<circle cx="788.956" cy="591.823" r="5.68485" transform="rotate(6.74505 788.956 591.823)" fill="#B9544C"/>
<circle cx="818.598" cy="595.337" r="5.68485" transform="rotate(6.74505 818.598 595.337)" fill="#B9544C"/>
<circle cx="786.121" cy="615.823" r="5.68485" transform="rotate(6.74505 786.121 615.823)" fill="#B9544C"/>
<circle cx="815.761" cy="619.333" r="5.68485" transform="rotate(6.74505 815.761 619.333)" fill="#B9544C"/>
<circle cx="783.283" cy="639.817" r="5.68485" transform="rotate(6.74505 783.283 639.817)" fill="#B9544C"/>
<circle cx="812.924" cy="643.325" r="5.68485" transform="rotate(6.74505 812.924 643.325)" fill="#B9544C"/>
<circle cx="780.445" cy="663.809" r="5.68485" transform="rotate(6.74505 780.445 663.809)" fill="#B9544C"/>
<circle cx="810.085" cy="667.317" r="5.68485" transform="rotate(6.74505 810.085 667.317)" fill="#B9544C"/>
<circle cx="777.607" cy="687.801" r="5.68485" transform="rotate(6.74505 777.607 687.801)" fill="#B9544C"/>
<circle cx="807.246" cy="691.309" r="5.68485" transform="rotate(6.74505 807.246 691.309)" fill="#B9544C"/>
<circle cx="774.77" cy="711.798" r="5.68485" transform="rotate(6.74505 774.77 711.798)" fill="#B9544C"/>
<circle cx="804.409" cy="715.301" r="5.68485" transform="rotate(6.74505 804.409 715.301)" fill="#B9544C"/>
<circle cx="771.932" cy="735.792" r="5.68485" transform="rotate(6.74505 771.932 735.792)" fill="#B9544C"/>
<circle cx="801.572" cy="739.298" r="5.68485" transform="rotate(6.74505 801.572 739.298)" fill="#B9544C"/>
<circle cx="769.093" cy="759.78" r="5.68485" transform="rotate(6.74505 769.093 759.78)" fill="#B9544C"/>
<circle cx="798.733" cy="763.29" r="5.68485" transform="rotate(6.74505 798.733 763.29)" fill="#B9544C"/>
<circle cx="766.258" cy="783.78" r="5.68485" transform="rotate(6.74505 766.258 783.78)" fill="#B9544C"/>
<circle cx="795.894" cy="787.278" r="5.68485" transform="rotate(6.74505 795.894 787.278)" fill="#B9544C"/>
</g>
</g>
<g opacity="0.7">
<mask id="mask1_2420_232219" style="mask-type:alpha" maskUnits="userSpaceOnUse" x="71" y="143" width="470" height="470">
<circle cx="305.72" cy="377.73" r="234.5" transform="rotate(-22.2 305.72 377.73)" fill="#EDEDED"/>
</mask>
<g mask="url(#mask1_2420_232219)">
<circle cx="79.7478" cy="240.454" r="5.68485" transform="rotate(6.74505 79.7478 240.454)" fill="#EDEDED"/>
<circle cx="82.5843" cy="216.462" r="5.68485" transform="rotate(6.74505 82.5843 216.462)" fill="#EDEDED"/>
<circle cx="85.4217" cy="192.464" r="5.68485" transform="rotate(6.74505 85.4217 192.464)" fill="#EDEDED"/>
<circle cx="88.2591" cy="168.473" r="5.68485" transform="rotate(6.74505 88.2591 168.473)" fill="#EDEDED"/>
<circle cx="91.0974" cy="144.481" r="5.68485" transform="rotate(6.74505 91.0974 144.481)" fill="#EDEDED"/>
<circle cx="76.9114" cy="264.452" r="5.68485" transform="rotate(6.74505 76.9114 264.452)" fill="#EDEDED"/>
<circle cx="74.0725" cy="288.444" r="5.68485" transform="rotate(6.74505 74.0725 288.444)" fill="#EDEDED"/>
<circle cx="71.2332" cy="312.43" r="5.68485" transform="rotate(6.74505 71.2332 312.43)" fill="#EDEDED"/>
<circle cx="68.3992" cy="336.434" r="5.68485" transform="rotate(6.74505 68.3992 336.434)" fill="#EDEDED"/>
<circle cx="65.5593" cy="360.423" r="5.68485" transform="rotate(6.74505 65.5593 360.423)" fill="#EDEDED"/>
<circle cx="109.386" cy="243.96" r="5.68485" transform="rotate(6.74505 109.386 243.96)" fill="#EDEDED"/>
<circle cx="112.222" cy="219.964" r="5.68485" transform="rotate(6.74505 112.222 219.964)" fill="#EDEDED"/>
<circle cx="115.061" cy="195.973" r="5.68485" transform="rotate(6.74505 115.061 195.973)" fill="#EDEDED"/>
<circle cx="117.897" cy="171.975" r="5.68485" transform="rotate(6.74505 117.897 171.975)" fill="#EDEDED"/>
<circle cx="120.736" cy="147.983" r="5.68485" transform="rotate(6.74505 120.736 147.983)" fill="#EDEDED"/>
<circle cx="106.548" cy="267.954" r="5.68485" transform="rotate(6.74505 106.548 267.954)" fill="#EDEDED"/>
<circle cx="103.712" cy="291.952" r="5.68485" transform="rotate(6.74505 103.712 291.952)" fill="#EDEDED"/>
<circle cx="100.872" cy="315.94" r="5.68485" transform="rotate(6.74505 100.872 315.94)" fill="#EDEDED"/>
<circle cx="98.0349" cy="339.932" r="5.68485" transform="rotate(6.74505 98.0349 339.932)" fill="#EDEDED"/>
<circle cx="95.1995" cy="363.93" r="5.68485" transform="rotate(6.74505 95.1995 363.93)" fill="#EDEDED"/>
<circle cx="92.3601" cy="387.921" r="5.68485" transform="rotate(6.74505 92.3601 387.921)" fill="#EDEDED"/>
<circle cx="89.5237" cy="411.915" r="5.68485" transform="rotate(6.74505 89.5237 411.915)" fill="#EDEDED"/>
<circle cx="86.6863" cy="435.911" r="5.68485" transform="rotate(6.74505 86.6863 435.911)" fill="#EDEDED"/>
<circle cx="83.8484" cy="459.903" r="5.68485" transform="rotate(6.74505 83.8484 459.903)" fill="#EDEDED"/>
<circle cx="81.0105" cy="483.895" r="5.68485" transform="rotate(6.74505 81.0105 483.895)" fill="#EDEDED"/>
<circle cx="78.1731" cy="507.891" r="5.68485" transform="rotate(6.74505 78.1731 507.891)" fill="#EDEDED"/>
<circle cx="75.3318" cy="531.876" r="5.68485" transform="rotate(6.74505 75.3318 531.876)" fill="#EDEDED"/>
<circle cx="72.4964" cy="555.876" r="5.68485" transform="rotate(6.74505 72.4964 555.876)" fill="#EDEDED"/>
<circle cx="69.658" cy="579.866" r="5.68485" transform="rotate(6.74505 69.658 579.866)" fill="#EDEDED"/>
<circle cx="66.8225" cy="603.866" r="5.68485" transform="rotate(6.74505 66.8225 603.866)" fill="#EDEDED"/>
<circle cx="139.025" cy="247.466" r="5.68485" transform="rotate(6.74505 139.025 247.466)" fill="#EDEDED"/>
<circle cx="141.86" cy="223.466" r="5.68485" transform="rotate(6.74505 141.86 223.466)" fill="#EDEDED"/>
<circle cx="144.699" cy="199.475" r="5.68485" transform="rotate(6.74505 144.699 199.475)" fill="#EDEDED"/>
<circle cx="147.538" cy="175.487" r="5.68485" transform="rotate(6.74505 147.538 175.487)" fill="#EDEDED"/>
<circle cx="150.376" cy="151.493" r="5.68485" transform="rotate(6.74505 150.376 151.493)" fill="#EDEDED"/>
<circle cx="136.188" cy="271.462" r="5.68485" transform="rotate(6.74505 136.188 271.462)" fill="#EDEDED"/>
<circle cx="133.35" cy="295.454" r="5.68485" transform="rotate(6.74505 133.35 295.454)" fill="#EDEDED"/>
<circle cx="130.512" cy="319.446" r="5.68485" transform="rotate(6.74505 130.512 319.446)" fill="#EDEDED"/>
<circle cx="127.674" cy="343.438" r="5.68485" transform="rotate(6.74505 127.674 343.438)" fill="#EDEDED"/>
<circle cx="124.835" cy="367.432" r="5.68485" transform="rotate(6.74505 124.835 367.432)" fill="#EDEDED"/>
<circle cx="122" cy="391.43" r="5.68485" transform="rotate(6.74505 122 391.43)" fill="#EDEDED"/>
<circle cx="119.16" cy="415.419" r="5.68485" transform="rotate(6.74505 119.16 415.419)" fill="#EDEDED"/>
<circle cx="116.323" cy="439.413" r="5.68485" transform="rotate(6.74505 116.323 439.413)" fill="#EDEDED"/>
<circle cx="113.487" cy="463.407" r="5.68485" transform="rotate(6.74505 113.487 463.407)" fill="#EDEDED"/>
<circle cx="110.65" cy="487.403" r="5.68485" transform="rotate(6.74505 110.65 487.403)" fill="#EDEDED"/>
<circle cx="107.811" cy="511.393" r="5.68485" transform="rotate(6.74505 107.811 511.393)" fill="#EDEDED"/>
<circle cx="104.974" cy="535.387" r="5.68485" transform="rotate(6.74505 104.974 535.387)" fill="#EDEDED"/>
<circle cx="102.135" cy="559.378" r="5.68485" transform="rotate(6.74505 102.135 559.378)" fill="#EDEDED"/>
<circle cx="99.2991" cy="583.376" r="5.68485" transform="rotate(6.74505 99.2991 583.376)" fill="#EDEDED"/>
<circle cx="96.4597" cy="607.366" r="5.68485" transform="rotate(6.74505 96.4597 607.366)" fill="#EDEDED"/>
<circle cx="168.663" cy="250.967" r="5.68485" transform="rotate(6.74505 168.663 250.967)" fill="#EDEDED"/>
<circle cx="171.501" cy="226.975" r="5.68485" transform="rotate(6.74505 171.501 226.975)" fill="#EDEDED"/>
<circle cx="174.339" cy="202.981" r="5.68485" transform="rotate(6.74505 174.339 202.981)" fill="#EDEDED"/>
<circle cx="177.176" cy="178.989" r="5.68485" transform="rotate(6.74505 177.176 178.989)" fill="#EDEDED"/>
<circle cx="180.015" cy="154.997" r="5.68485" transform="rotate(6.74505 180.015 154.997)" fill="#EDEDED"/>
<circle cx="165.827" cy="274.967" r="5.68485" transform="rotate(6.74505 165.827 274.967)" fill="#EDEDED"/>
<circle cx="162.99" cy="298.962" r="5.68485" transform="rotate(6.74505 162.99 298.962)" fill="#EDEDED"/>
<circle cx="160.149" cy="322.948" r="5.68485" transform="rotate(6.74505 160.149 322.948)" fill="#EDEDED"/>
<circle cx="157.312" cy="346.94" r="5.68485" transform="rotate(6.74505 157.312 346.94)" fill="#EDEDED"/>
<circle cx="154.473" cy="370.936" r="5.68485" transform="rotate(6.74505 154.473 370.936)" fill="#EDEDED"/>
<circle cx="151.637" cy="394.93" r="5.68485" transform="rotate(6.74505 151.637 394.93)" fill="#EDEDED"/>
<circle cx="148.801" cy="418.926" r="5.68485" transform="rotate(6.74505 148.801 418.926)" fill="#EDEDED"/>
<circle cx="145.963" cy="442.921" r="5.68485" transform="rotate(6.74505 145.963 442.921)" fill="#EDEDED"/>
<circle cx="143.123" cy="466.911" r="5.68485" transform="rotate(6.74505 143.123 466.911)" fill="#EDEDED"/>
<circle cx="140.284" cy="490.901" r="5.68485" transform="rotate(6.74505 140.284 490.901)" fill="#EDEDED"/>
<circle cx="137.449" cy="514.899" r="5.68485" transform="rotate(6.74505 137.449 514.899)" fill="#EDEDED"/>
<circle cx="134.61" cy="538.889" r="5.68485" transform="rotate(6.74505 134.61 538.889)" fill="#EDEDED"/>
<circle cx="131.773" cy="562.885" r="5.68485" transform="rotate(6.74505 131.773 562.885)" fill="#EDEDED"/>
<circle cx="128.936" cy="586.876" r="5.68485" transform="rotate(6.74505 128.936 586.876)" fill="#EDEDED"/>
<circle cx="126.098" cy="610.87" r="5.68485" transform="rotate(6.74505 126.098 610.87)" fill="#EDEDED"/>
<circle cx="198.303" cy="254.475" r="5.68485" transform="rotate(6.74505 198.303 254.475)" fill="#EDEDED"/>
<circle cx="201.14" cy="230.481" r="5.68485" transform="rotate(6.74505 201.14 230.481)" fill="#EDEDED"/>
<circle cx="203.978" cy="206.487" r="5.68485" transform="rotate(6.74505 203.978 206.487)" fill="#EDEDED"/>
<circle cx="206.815" cy="182.491" r="5.68485" transform="rotate(6.74505 206.815 182.491)" fill="#EDEDED"/>
<circle cx="209.655" cy="158.505" r="5.68485" transform="rotate(6.74505 209.655 158.505)" fill="#EDEDED"/>
<circle cx="195.466" cy="278.471" r="5.68485" transform="rotate(6.74505 195.466 278.471)" fill="#EDEDED"/>
<circle cx="192.628" cy="302.466" r="5.68485" transform="rotate(6.74505 192.628 302.466)" fill="#EDEDED"/>
<circle cx="189.792" cy="326.46" r="5.68485" transform="rotate(6.74505 189.792 326.46)" fill="#EDEDED"/>
<circle cx="186.953" cy="350.452" r="5.68485" transform="rotate(6.74505 186.953 350.452)" fill="#EDEDED"/>
<circle cx="184.112" cy="374.44" r="5.68485" transform="rotate(6.74505 184.112 374.44)" fill="#EDEDED"/>
<circle cx="181.276" cy="398.434" r="5.68485" transform="rotate(6.74505 181.276 398.434)" fill="#EDEDED"/>
<circle cx="178.438" cy="422.428" r="5.68485" transform="rotate(6.74505 178.438 422.428)" fill="#EDEDED"/>
<circle cx="175.602" cy="446.423" r="5.68485" transform="rotate(6.74505 175.602 446.423)" fill="#EDEDED"/>
<circle cx="172.764" cy="470.419" r="5.68485" transform="rotate(6.74505 172.764 470.419)" fill="#EDEDED"/>
<circle cx="169.926" cy="494.409" r="5.68485" transform="rotate(6.74505 169.926 494.409)" fill="#EDEDED"/>
<circle cx="167.09" cy="518.407" r="5.68485" transform="rotate(6.74505 167.09 518.407)" fill="#EDEDED"/>
<circle cx="164.251" cy="542.399" r="5.68485" transform="rotate(6.74505 164.251 542.399)" fill="#EDEDED"/>
<circle cx="161.411" cy="566.387" r="5.68485" transform="rotate(6.74505 161.411 566.387)" fill="#EDEDED"/>
<circle cx="158.574" cy="590.382" r="5.68485" transform="rotate(6.74505 158.574 590.382)" fill="#EDEDED"/>
<circle cx="155.736" cy="614.374" r="5.68485" transform="rotate(6.74505 155.736 614.374)" fill="#EDEDED"/>
<circle cx="227.941" cy="257.977" r="5.68485" transform="rotate(6.74505 227.941 257.977)" fill="#EDEDED"/>
<circle cx="230.78" cy="233.987" r="5.68485" transform="rotate(6.74505 230.78 233.987)" fill="#EDEDED"/>
<circle cx="233.616" cy="209.993" r="5.68485" transform="rotate(6.74505 233.616 209.993)" fill="#EDEDED"/>
<circle cx="236.456" cy="186.001" r="5.68485" transform="rotate(6.74505 236.456 186.001)" fill="#EDEDED"/>
<circle cx="239.291" cy="162.007" r="5.68485" transform="rotate(6.74505 239.291 162.007)" fill="#EDEDED"/>
<circle cx="242.129" cy="138.014" r="5.68485" transform="rotate(6.74505 242.129 138.014)" fill="#EDEDED"/>
<circle cx="225.103" cy="281.973" r="5.68485" transform="rotate(6.74505 225.103 281.973)" fill="#EDEDED"/>
<circle cx="222.268" cy="305.973" r="5.68485" transform="rotate(6.74505 222.268 305.973)" fill="#EDEDED"/>
<circle cx="219.429" cy="329.962" r="5.68485" transform="rotate(6.74505 219.429 329.962)" fill="#EDEDED"/>
<circle cx="216.591" cy="353.952" r="5.68485" transform="rotate(6.74505 216.591 353.952)" fill="#EDEDED"/>
<circle cx="213.753" cy="377.946" r="5.68485" transform="rotate(6.74505 213.753 377.946)" fill="#EDEDED"/>
<circle cx="210.915" cy="401.94" r="5.68485" transform="rotate(6.74505 210.915 401.94)" fill="#EDEDED"/>
<circle cx="208.076" cy="425.932" r="5.68485" transform="rotate(6.74505 208.076 425.932)" fill="#EDEDED"/>
<circle cx="205.24" cy="449.926" r="5.68485" transform="rotate(6.74505 205.24 449.926)" fill="#EDEDED"/>
<circle cx="202.401" cy="473.919" r="5.68485" transform="rotate(6.74505 202.401 473.919)" fill="#EDEDED"/>
<circle cx="199.564" cy="497.913" r="5.68485" transform="rotate(6.74505 199.564 497.913)" fill="#EDEDED"/>
<circle cx="196.725" cy="521.905" r="5.68485" transform="rotate(6.74505 196.725 521.905)" fill="#EDEDED"/>
<circle cx="193.888" cy="545.901" r="5.68485" transform="rotate(6.74505 193.888 545.901)" fill="#EDEDED"/>
<circle cx="191.054" cy="569.899" r="5.68485" transform="rotate(6.74505 191.054 569.899)" fill="#EDEDED"/>
<circle cx="188.213" cy="593.887" r="5.68485" transform="rotate(6.74505 188.213 593.887)" fill="#EDEDED"/>
<circle cx="185.377" cy="617.885" r="5.68485" transform="rotate(6.74505 185.377 617.885)" fill="#EDEDED"/>
<circle cx="257.58" cy="261.487" r="5.68485" transform="rotate(6.74505 257.58 261.487)" fill="#EDEDED"/>
<circle cx="260.417" cy="237.491" r="5.68485" transform="rotate(6.74505 260.417 237.491)" fill="#EDEDED"/>
<circle cx="263.254" cy="213.497" r="5.68485" transform="rotate(6.74505 263.254 213.497)" fill="#EDEDED"/>
<circle cx="266.092" cy="189.505" r="5.68485" transform="rotate(6.74505 266.092 189.505)" fill="#EDEDED"/>
<circle cx="268.931" cy="165.512" r="5.68485" transform="rotate(6.74505 268.931 165.512)" fill="#EDEDED"/>
<circle cx="271.767" cy="141.516" r="5.68485" transform="rotate(6.74505 271.767 141.516)" fill="#EDEDED"/>
<circle cx="254.741" cy="285.479" r="5.68485" transform="rotate(6.74505 254.741 285.479)" fill="#EDEDED"/>
<circle cx="251.906" cy="309.473" r="5.68485" transform="rotate(6.74505 251.906 309.473)" fill="#EDEDED"/>
<circle cx="249.068" cy="333.467" r="5.68485" transform="rotate(6.74505 249.068 333.467)" fill="#EDEDED"/>
<circle cx="246.231" cy="357.466" r="5.68485" transform="rotate(6.74505 246.231 357.466)" fill="#EDEDED"/>
<circle cx="243.394" cy="381.458" r="5.68485" transform="rotate(6.74505 243.394 381.458)" fill="#EDEDED"/>
<circle cx="240.554" cy="405.444" r="5.68485" transform="rotate(6.74505 240.554 405.444)" fill="#EDEDED"/>
<circle cx="237.717" cy="429.44" r="5.68485" transform="rotate(6.74505 237.717 429.44)" fill="#EDEDED"/>
<circle cx="234.88" cy="453.434" r="5.68485" transform="rotate(6.74505 234.88 453.434)" fill="#EDEDED"/>
<circle cx="232.043" cy="477.43" r="5.68485" transform="rotate(6.74505 232.043 477.43)" fill="#EDEDED"/>
<circle cx="229.203" cy="501.419" r="5.68485" transform="rotate(6.74505 229.203 501.419)" fill="#EDEDED"/>
<circle cx="226.366" cy="525.415" r="5.68485" transform="rotate(6.74505 226.366 525.415)" fill="#EDEDED"/>
<circle cx="223.53" cy="549.411" r="5.68485" transform="rotate(6.74505 223.53 549.411)" fill="#EDEDED"/>
<circle cx="220.691" cy="573.401" r="5.68485" transform="rotate(6.74505 220.691 573.401)" fill="#EDEDED"/>
<circle cx="217.855" cy="597.399" r="5.68485" transform="rotate(6.74505 217.855 597.399)" fill="#EDEDED"/>
<circle cx="287.219" cy="264.991" r="5.68485" transform="rotate(6.74505 287.219 264.991)" fill="#EDEDED"/>
<circle cx="290.057" cy="240.999" r="5.68485" transform="rotate(6.74505 290.057 240.999)" fill="#EDEDED"/>
<circle cx="292.893" cy="217.001" r="5.68485" transform="rotate(6.74505 292.893 217.001)" fill="#EDEDED"/>
<circle cx="295.731" cy="193.009" r="5.68485" transform="rotate(6.74505 295.731 193.009)" fill="#EDEDED"/>
<circle cx="298.57" cy="169.018" r="5.68485" transform="rotate(6.74505 298.57 169.018)" fill="#EDEDED"/>
<circle cx="301.407" cy="145.022" r="5.68485" transform="rotate(6.74505 301.407 145.022)" fill="#EDEDED"/>
<circle cx="284.381" cy="288.985" r="5.68485" transform="rotate(6.74505 284.381 288.985)" fill="#EDEDED"/>
<circle cx="281.544" cy="312.981" r="5.68485" transform="rotate(6.74505 281.544 312.981)" fill="#EDEDED"/>
<circle cx="278.706" cy="336.971" r="5.68485" transform="rotate(6.74505 278.706 336.971)" fill="#EDEDED"/>
<circle cx="275.867" cy="360.964" r="5.68485" transform="rotate(6.74505 275.867 360.964)" fill="#EDEDED"/>
<circle cx="273.032" cy="384.964" r="5.68485" transform="rotate(6.74505 273.032 384.964)" fill="#EDEDED"/>
<circle cx="270.191" cy="408.948" r="5.68485" transform="rotate(6.74505 270.191 408.948)" fill="#EDEDED"/>
<circle cx="267.356" cy="432.948" r="5.68485" transform="rotate(6.74505 267.356 432.948)" fill="#EDEDED"/>
<circle cx="264.52" cy="456.944" r="5.68485" transform="rotate(6.74505 264.52 456.944)" fill="#EDEDED"/>
<circle cx="261.678" cy="480.928" r="5.68485" transform="rotate(6.74505 261.678 480.928)" fill="#EDEDED"/>
<circle cx="258.844" cy="504.928" r="5.68485" transform="rotate(6.74505 258.844 504.928)" fill="#EDEDED"/>
<circle cx="256.004" cy="528.919" r="5.68485" transform="rotate(6.74505 256.004 528.919)" fill="#EDEDED"/>
<circle cx="253.169" cy="552.919" r="5.68485" transform="rotate(6.74505 253.169 552.919)" fill="#EDEDED"/>
<circle cx="250.328" cy="576.903" r="5.68485" transform="rotate(6.74505 250.328 576.903)" fill="#EDEDED"/>
<circle cx="247.493" cy="600.901" r="5.68485" transform="rotate(6.74505 247.493 600.901)" fill="#EDEDED"/>
<circle cx="316.856" cy="268.493" r="5.68485" transform="rotate(6.74505 316.856 268.493)" fill="#EDEDED"/>
<circle cx="319.695" cy="244.501" r="5.68485" transform="rotate(6.74505 319.695 244.501)" fill="#EDEDED"/>
<circle cx="322.533" cy="220.509" r="5.68485" transform="rotate(6.74505 322.533 220.509)" fill="#EDEDED"/>
<circle cx="325.371" cy="196.516" r="5.68485" transform="rotate(6.74505 325.371 196.516)" fill="#EDEDED"/>
<circle cx="328.212" cy="172.53" r="5.68485" transform="rotate(6.74505 328.212 172.53)" fill="#EDEDED"/>
<circle cx="331.047" cy="148.53" r="5.68485" transform="rotate(6.74505 331.047 148.53)" fill="#EDEDED"/>
<circle cx="314.019" cy="292.489" r="5.68485" transform="rotate(6.74505 314.019 292.489)" fill="#EDEDED"/>
<circle cx="311.183" cy="316.487" r="5.68485" transform="rotate(6.74505 311.183 316.487)" fill="#EDEDED"/>
<circle cx="308.345" cy="340.477" r="5.68485" transform="rotate(6.74505 308.345 340.477)" fill="#EDEDED"/>
<circle cx="305.507" cy="364.469" r="5.68485" transform="rotate(6.74505 305.507 364.469)" fill="#EDEDED"/>
<circle cx="302.671" cy="388.469" r="5.68485" transform="rotate(6.74505 302.671 388.469)" fill="#EDEDED"/>
<circle cx="299.833" cy="412.462" r="5.68485" transform="rotate(6.74505 299.833 412.462)" fill="#EDEDED"/>
<circle cx="296.996" cy="436.456" r="5.68485" transform="rotate(6.74505 296.996 436.456)" fill="#EDEDED"/>
<circle cx="294.157" cy="460.448" r="5.68485" transform="rotate(6.74505 294.157 460.448)" fill="#EDEDED"/>
<circle cx="291.32" cy="484.444" r="5.68485" transform="rotate(6.74505 291.32 484.444)" fill="#EDEDED"/>
<circle cx="288.48" cy="508.428" r="5.68485" transform="rotate(6.74505 288.48 508.428)" fill="#EDEDED"/>
<circle cx="285.645" cy="532.43" r="5.68485" transform="rotate(6.74505 285.645 532.43)" fill="#EDEDED"/>
<circle cx="282.803" cy="556.413" r="5.68485" transform="rotate(6.74505 282.803 556.413)" fill="#EDEDED"/>
<circle cx="279.969" cy="580.411" r="5.68485" transform="rotate(6.74505 279.969 580.411)" fill="#EDEDED"/>
<circle cx="277.13" cy="604.403" r="5.68485" transform="rotate(6.74505 277.13 604.403)" fill="#EDEDED"/>
<circle cx="346.498" cy="272.005" r="5.68485" transform="rotate(6.74505 346.498 272.005)" fill="#EDEDED"/>
<circle cx="349.336" cy="248.012" r="5.68485" transform="rotate(6.74505 349.336 248.012)" fill="#EDEDED"/>
<circle cx="352.172" cy="224.014" r="5.68485" transform="rotate(6.74505 352.172 224.014)" fill="#EDEDED"/>
<circle cx="355.012" cy="200.026" r="5.68485" transform="rotate(6.74505 355.012 200.026)" fill="#EDEDED"/>
<circle cx="357.849" cy="176.034" r="5.68485" transform="rotate(6.74505 357.849 176.034)" fill="#EDEDED"/>
<circle cx="360.687" cy="152.04" r="5.68485" transform="rotate(6.74505 360.687 152.04)" fill="#EDEDED"/>
<circle cx="343.66" cy="295.999" r="5.68485" transform="rotate(6.74505 343.66 295.999)" fill="#EDEDED"/>
<circle cx="340.824" cy="319.995" r="5.68485" transform="rotate(6.74505 340.824 319.995)" fill="#EDEDED"/>
<circle cx="337.985" cy="343.987" r="5.68485" transform="rotate(6.74505 337.985 343.987)" fill="#EDEDED"/>
<circle cx="335.147" cy="367.979" r="5.68485" transform="rotate(6.74505 335.147 367.979)" fill="#EDEDED"/>
<circle cx="332.31" cy="391.973" r="5.68485" transform="rotate(6.74505 332.31 391.973)" fill="#EDEDED"/>
<circle cx="329.471" cy="415.966" r="5.68485" transform="rotate(6.74505 329.471 415.966)" fill="#EDEDED"/>
<circle cx="326.635" cy="439.96" r="5.68485" transform="rotate(6.74505 326.635 439.96)" fill="#EDEDED"/>
<circle cx="323.795" cy="463.952" r="5.68485" transform="rotate(6.74505 323.795 463.952)" fill="#EDEDED"/>
<circle cx="320.958" cy="487.946" r="5.68485" transform="rotate(6.74505 320.958 487.946)" fill="#EDEDED"/>
<circle cx="318.12" cy="511.938" r="5.68485" transform="rotate(6.74505 318.12 511.938)" fill="#EDEDED"/>
<circle cx="315.283" cy="535.93" r="5.68485" transform="rotate(6.74505 315.283 535.93)" fill="#EDEDED"/>
<circle cx="312.445" cy="559.926" r="5.68485" transform="rotate(6.74505 312.445 559.926)" fill="#EDEDED"/>
<circle cx="309.606" cy="583.917" r="5.68485" transform="rotate(6.74505 309.606 583.917)" fill="#EDEDED"/>
<circle cx="306.77" cy="607.913" r="5.68485" transform="rotate(6.74505 306.77 607.913)" fill="#EDEDED"/>
<circle cx="376.138" cy="275.512" r="5.68485" transform="rotate(6.74505 376.138 275.512)" fill="#EDEDED"/>
<circle cx="378.974" cy="251.516" r="5.68485" transform="rotate(6.74505 378.974 251.516)" fill="#EDEDED"/>
<circle cx="381.81" cy="227.516" r="5.68485" transform="rotate(6.74505 381.81 227.516)" fill="#EDEDED"/>
<circle cx="384.651" cy="203.532" r="5.68485" transform="rotate(6.74505 384.651 203.532)" fill="#EDEDED"/>
<circle cx="387.486" cy="179.534" r="5.68485" transform="rotate(6.74505 387.486 179.534)" fill="#EDEDED"/>
<circle cx="390.324" cy="155.542" r="5.68485" transform="rotate(6.74505 390.324 155.542)" fill="#EDEDED"/>
<circle cx="373.3" cy="299.507" r="5.68485" transform="rotate(6.74505 373.3 299.507)" fill="#EDEDED"/>
<circle cx="370.462" cy="323.497" r="5.68485" transform="rotate(6.74505 370.462 323.497)" fill="#EDEDED"/>
<circle cx="367.623" cy="347.489" r="5.68485" transform="rotate(6.74505 367.623 347.489)" fill="#EDEDED"/>
<circle cx="364.788" cy="371.487" r="5.68485" transform="rotate(6.74505 364.788 371.487)" fill="#EDEDED"/>
<circle cx="361.949" cy="395.479" r="5.68485" transform="rotate(6.74505 361.949 395.479)" fill="#EDEDED"/>
<circle cx="359.112" cy="419.471" r="5.68485" transform="rotate(6.74505 359.112 419.471)" fill="#EDEDED"/>
<circle cx="356.272" cy="443.462" r="5.68485" transform="rotate(6.74505 356.272 443.462)" fill="#EDEDED"/>
<circle cx="353.435" cy="467.458" r="5.68485" transform="rotate(6.74505 353.435 467.458)" fill="#EDEDED"/>
<circle cx="350.595" cy="491.446" r="5.68485" transform="rotate(6.74505 350.595 491.446)" fill="#EDEDED"/>
<circle cx="347.761" cy="515.446" r="5.68485" transform="rotate(6.74505 347.761 515.446)" fill="#EDEDED"/>
<circle cx="344.923" cy="539.44" r="5.68485" transform="rotate(6.74505 344.923 539.44)" fill="#EDEDED"/>
<circle cx="342.085" cy="563.434" r="5.68485" transform="rotate(6.74505 342.085 563.434)" fill="#EDEDED"/>
<circle cx="339.247" cy="587.426" r="5.68485" transform="rotate(6.74505 339.247 587.426)" fill="#EDEDED"/>
<circle cx="336.409" cy="611.419" r="5.68485" transform="rotate(6.74505 336.409 611.419)" fill="#EDEDED"/>
<circle cx="405.772" cy="279.009" r="5.68485" transform="rotate(6.74505 405.772 279.009)" fill="#EDEDED"/>
<circle cx="408.61" cy="255.016" r="5.68485" transform="rotate(6.74505 408.61 255.016)" fill="#EDEDED"/>
<circle cx="411.449" cy="231.026" r="5.68485" transform="rotate(6.74505 411.449 231.026)" fill="#EDEDED"/>
<circle cx="414.286" cy="207.03" r="5.68485" transform="rotate(6.74505 414.286 207.03)" fill="#EDEDED"/>
<circle cx="417.126" cy="183.042" r="5.68485" transform="rotate(6.74505 417.126 183.042)" fill="#EDEDED"/>
<circle cx="419.963" cy="159.048" r="5.68485" transform="rotate(6.74505 419.963 159.048)" fill="#EDEDED"/>
<circle cx="402.937" cy="303.009" r="5.68485" transform="rotate(6.74505 402.937 303.009)" fill="#EDEDED"/>
<circle cx="400.1" cy="327.001" r="5.68485" transform="rotate(6.74505 400.1 327.001)" fill="#EDEDED"/>
<circle cx="397.264" cy="350.997" r="5.68485" transform="rotate(6.74505 397.264 350.997)" fill="#EDEDED"/>
<circle cx="394.423" cy="374.983" r="5.68485" transform="rotate(6.74505 394.423 374.983)" fill="#EDEDED"/>
<circle cx="391.588" cy="398.983" r="5.68485" transform="rotate(6.74505 391.588 398.983)" fill="#EDEDED"/>
<circle cx="388.749" cy="422.973" r="5.68485" transform="rotate(6.74505 388.749 422.973)" fill="#EDEDED"/>
<circle cx="385.914" cy="446.973" r="5.68485" transform="rotate(6.74505 385.914 446.973)" fill="#EDEDED"/>
<circle cx="383.074" cy="470.962" r="5.68485" transform="rotate(6.74505 383.074 470.962)" fill="#EDEDED"/>
<circle cx="380.237" cy="494.956" r="5.68485" transform="rotate(6.74505 380.237 494.956)" fill="#EDEDED"/>
<circle cx="377.4" cy="518.952" r="5.68485" transform="rotate(6.74505 377.4 518.952)" fill="#EDEDED"/>
<circle cx="374.562" cy="542.942" r="5.68485" transform="rotate(6.74505 374.562 542.942)" fill="#EDEDED"/>
<circle cx="371.723" cy="566.936" r="5.68485" transform="rotate(6.74505 371.723 566.936)" fill="#EDEDED"/>
<circle cx="368.885" cy="590.928" r="5.68485" transform="rotate(6.74505 368.885 590.928)" fill="#EDEDED"/>
<circle cx="366.048" cy="614.923" r="5.68485" transform="rotate(6.74505 366.048 614.923)" fill="#EDEDED"/>
<circle cx="435.413" cy="282.518" r="5.68485" transform="rotate(6.74505 435.413 282.518)" fill="#EDEDED"/>
<circle cx="438.25" cy="258.522" r="5.68485" transform="rotate(6.74505 438.25 258.522)" fill="#EDEDED"/>
<circle cx="441.09" cy="234.536" r="5.68485" transform="rotate(6.74505 441.09 234.536)" fill="#EDEDED"/>
<circle cx="443.927" cy="210.542" r="5.68485" transform="rotate(6.74505 443.927 210.542)" fill="#EDEDED"/>
<circle cx="446.765" cy="186.55" r="5.68485" transform="rotate(6.74505 446.765 186.55)" fill="#EDEDED"/>
<circle cx="449.601" cy="162.551" r="5.68485" transform="rotate(6.74505 449.601 162.551)" fill="#EDEDED"/>
<circle cx="452.441" cy="138.561" r="5.68485" transform="rotate(6.74505 452.441 138.561)" fill="#EDEDED"/>
<circle cx="432.575" cy="306.51" r="5.68485" transform="rotate(6.74505 432.575 306.51)" fill="#EDEDED"/>
<circle cx="429.74" cy="330.51" r="5.68485" transform="rotate(6.74505 429.74 330.51)" fill="#EDEDED"/>
<circle cx="426.902" cy="354.505" r="5.68485" transform="rotate(6.74505 426.902 354.505)" fill="#EDEDED"/>
<circle cx="424.063" cy="378.495" r="5.68485" transform="rotate(6.74505 424.063 378.495)" fill="#EDEDED"/>
<circle cx="421.222" cy="402.481" r="5.68485" transform="rotate(6.74505 421.222 402.481)" fill="#EDEDED"/>
<circle cx="418.386" cy="426.477" r="5.68485" transform="rotate(6.74505 418.386 426.477)" fill="#EDEDED"/>
<circle cx="415.552" cy="450.477" r="5.68485" transform="rotate(6.74505 415.552 450.477)" fill="#EDEDED"/>
<circle cx="412.713" cy="474.467" r="5.68485" transform="rotate(6.74505 412.713 474.467)" fill="#EDEDED"/>
<circle cx="409.874" cy="498.458" r="5.68485" transform="rotate(6.74505 409.874 498.458)" fill="#EDEDED"/>
<circle cx="407.038" cy="522.456" r="5.68485" transform="rotate(6.74505 407.038 522.456)" fill="#EDEDED"/>
<circle cx="404.201" cy="546.448" r="5.68485" transform="rotate(6.74505 404.201 546.448)" fill="#EDEDED"/>
<circle cx="401.361" cy="570.438" r="5.68485" transform="rotate(6.74505 401.361 570.438)" fill="#EDEDED"/>
<circle cx="398.526" cy="594.436" r="5.68485" transform="rotate(6.74505 398.526 594.436)" fill="#EDEDED"/>
<circle cx="395.687" cy="618.428" r="5.68485" transform="rotate(6.74505 395.687 618.428)" fill="#EDEDED"/>
<circle cx="465.054" cy="286.028" r="5.68485" transform="rotate(6.74505 465.054 286.028)" fill="#EDEDED"/>
<circle cx="467.891" cy="262.034" r="5.68485" transform="rotate(6.74505 467.891 262.034)" fill="#EDEDED"/>
<circle cx="470.726" cy="238.034" r="5.68485" transform="rotate(6.74505 470.726 238.034)" fill="#EDEDED"/>
<circle cx="473.567" cy="214.048" r="5.68485" transform="rotate(6.74505 473.567 214.048)" fill="#EDEDED"/>
<circle cx="476.406" cy="190.053" r="5.68485" transform="rotate(6.74505 476.406 190.053)" fill="#EDEDED"/>
<circle cx="479.242" cy="166.059" r="5.68485" transform="rotate(6.74505 479.242 166.059)" fill="#EDEDED"/>
<circle cx="482.08" cy="142.067" r="5.68485" transform="rotate(6.74505 482.08 142.067)" fill="#EDEDED"/>
<circle cx="462.216" cy="310.02" r="5.68485" transform="rotate(6.74505 462.216 310.02)" fill="#EDEDED"/>
<circle cx="459.376" cy="334.009" r="5.68485" transform="rotate(6.74505 459.376 334.009)" fill="#EDEDED"/>
<circle cx="456.54" cy="358.007" r="5.68485" transform="rotate(6.74505 456.54 358.007)" fill="#EDEDED"/>
<circle cx="453.704" cy="382.003" r="5.68485" transform="rotate(6.74505 453.704 382.003)" fill="#EDEDED"/>
<circle cx="450.864" cy="405.993" r="5.68485" transform="rotate(6.74505 450.864 405.993)" fill="#EDEDED"/>
<circle cx="448.027" cy="429.987" r="5.68485" transform="rotate(6.74505 448.027 429.987)" fill="#EDEDED"/>
<circle cx="445.188" cy="453.977" r="5.68485" transform="rotate(6.74505 445.188 453.977)" fill="#EDEDED"/>
<circle cx="442.35" cy="477.971" r="5.68485" transform="rotate(6.74505 442.35 477.971)" fill="#EDEDED"/>
<circle cx="439.513" cy="501.967" r="5.68485" transform="rotate(6.74505 439.513 501.967)" fill="#EDEDED"/>
<circle cx="436.677" cy="525.96" r="5.68485" transform="rotate(6.74505 436.677 525.96)" fill="#EDEDED"/>
<circle cx="433.839" cy="549.956" r="5.68485" transform="rotate(6.74505 433.839 549.956)" fill="#EDEDED"/>
<circle cx="431.003" cy="573.95" r="5.68485" transform="rotate(6.74505 431.003 573.95)" fill="#EDEDED"/>
<circle cx="428.164" cy="597.942" r="5.68485" transform="rotate(6.74505 428.164 597.942)" fill="#EDEDED"/>
<circle cx="494.694" cy="289.532" r="5.68485" transform="rotate(6.74505 494.694 289.532)" fill="#EDEDED"/>
<circle cx="497.531" cy="265.538" r="5.68485" transform="rotate(6.74505 497.531 265.538)" fill="#EDEDED"/>
<circle cx="500.368" cy="241.544" r="5.68485" transform="rotate(6.74505 500.368 241.544)" fill="#EDEDED"/>
<circle cx="503.208" cy="217.555" r="5.68485" transform="rotate(6.74505 503.208 217.555)" fill="#EDEDED"/>
<circle cx="506.045" cy="193.557" r="5.68485" transform="rotate(6.74505 506.045 193.557)" fill="#EDEDED"/>
<circle cx="508.883" cy="169.567" r="5.68485" transform="rotate(6.74505 508.883 169.567)" fill="#EDEDED"/>
<circle cx="511.72" cy="145.573" r="5.68485" transform="rotate(6.74505 511.72 145.573)" fill="#EDEDED"/>
<circle cx="491.855" cy="313.526" r="5.68485" transform="rotate(6.74505 491.855 313.526)" fill="#EDEDED"/>
<circle cx="489.017" cy="337.518" r="5.68485" transform="rotate(6.74505 489.017 337.518)" fill="#EDEDED"/>
<circle cx="486.182" cy="361.514" r="5.68485" transform="rotate(6.74505 486.182 361.514)" fill="#EDEDED"/>
<circle cx="483.342" cy="385.507" r="5.68485" transform="rotate(6.74505 483.342 385.507)" fill="#EDEDED"/>
<circle cx="480.505" cy="409.501" r="5.68485" transform="rotate(6.74505 480.505 409.501)" fill="#EDEDED"/>
<circle cx="477.665" cy="433.491" r="5.68485" transform="rotate(6.74505 477.665 433.491)" fill="#EDEDED"/>
<circle cx="474.83" cy="457.489" r="5.68485" transform="rotate(6.74505 474.83 457.489)" fill="#EDEDED"/>
<circle cx="471.991" cy="481.479" r="5.68485" transform="rotate(6.74505 471.991 481.479)" fill="#EDEDED"/>
<circle cx="469.153" cy="505.471" r="5.68485" transform="rotate(6.74505 469.153 505.471)" fill="#EDEDED"/>
<circle cx="466.317" cy="529.469" r="5.68485" transform="rotate(6.74505 466.317 529.469)" fill="#EDEDED"/>
<circle cx="463.476" cy="553.454" r="5.68485" transform="rotate(6.74505 463.476 553.454)" fill="#EDEDED"/>
<circle cx="460.64" cy="577.454" r="5.68485" transform="rotate(6.74505 460.64 577.454)" fill="#EDEDED"/>
<circle cx="457.802" cy="601.444" r="5.68485" transform="rotate(6.74505 457.802 601.444)" fill="#EDEDED"/>
<circle cx="524.331" cy="293.034" r="5.68485" transform="rotate(6.74505 524.331 293.034)" fill="#EDEDED"/>
<circle cx="527.172" cy="269.05" r="5.68485" transform="rotate(6.74505 527.172 269.05)" fill="#EDEDED"/>
<circle cx="530.008" cy="245.051" r="5.68485" transform="rotate(6.74505 530.008 245.051)" fill="#EDEDED"/>
<circle cx="532.844" cy="221.055" r="5.68485" transform="rotate(6.74505 532.844 221.055)" fill="#EDEDED"/>
<circle cx="535.683" cy="197.063" r="5.68485" transform="rotate(6.74505 535.683 197.063)" fill="#EDEDED"/>
<circle cx="538.52" cy="173.069" r="5.68485" transform="rotate(6.74505 538.52 173.069)" fill="#EDEDED"/>
<circle cx="541.358" cy="149.075" r="5.68485" transform="rotate(6.74505 541.358 149.075)" fill="#EDEDED"/>
<circle cx="521.495" cy="317.032" r="5.68485" transform="rotate(6.74505 521.495 317.032)" fill="#EDEDED"/>
<circle cx="518.656" cy="341.024" r="5.68485" transform="rotate(6.74505 518.656 341.024)" fill="#EDEDED"/>
<circle cx="515.819" cy="365.016" r="5.68485" transform="rotate(6.74505 515.819 365.016)" fill="#EDEDED"/>
<circle cx="545.457" cy="368.522" r="5.68485" transform="rotate(6.74505 545.457 368.522)" fill="#EDEDED"/>
<circle cx="512.98" cy="389.009" r="5.68485" transform="rotate(6.74505 512.98 389.009)" fill="#EDEDED"/>
<circle cx="542.62" cy="392.518" r="5.68485" transform="rotate(6.74505 542.62 392.518)" fill="#EDEDED"/>
<circle cx="510.141" cy="412.999" r="5.68485" transform="rotate(6.74505 510.141 412.999)" fill="#EDEDED"/>
<circle cx="539.783" cy="416.51" r="5.68485" transform="rotate(6.74505 539.783 416.51)" fill="#EDEDED"/>
<circle cx="507.306" cy="436.999" r="5.68485" transform="rotate(6.74505 507.306 436.999)" fill="#EDEDED"/>
<circle cx="536.946" cy="440.507" r="5.68485" transform="rotate(6.74505 536.946 440.507)" fill="#EDEDED"/>
<circle cx="504.468" cy="460.991" r="5.68485" transform="rotate(6.74505 504.468 460.991)" fill="#EDEDED"/>
<circle cx="534.108" cy="464.499" r="5.68485" transform="rotate(6.74505 534.108 464.499)" fill="#EDEDED"/>
<circle cx="501.63" cy="484.983" r="5.68485" transform="rotate(6.74505 501.63 484.983)" fill="#EDEDED"/>
<circle cx="531.269" cy="488.491" r="5.68485" transform="rotate(6.74505 531.269 488.491)" fill="#EDEDED"/>
<circle cx="498.792" cy="508.977" r="5.68485" transform="rotate(6.74505 498.792 508.977)" fill="#EDEDED"/>
<circle cx="528.431" cy="512.483" r="5.68485" transform="rotate(6.74505 528.431 512.483)" fill="#EDEDED"/>
<circle cx="495.955" cy="532.973" r="5.68485" transform="rotate(6.74505 495.955 532.973)" fill="#EDEDED"/>
<circle cx="525.594" cy="536.477" r="5.68485" transform="rotate(6.74505 525.594 536.477)" fill="#EDEDED"/>
<circle cx="493.117" cy="556.966" r="5.68485" transform="rotate(6.74505 493.117 556.966)" fill="#EDEDED"/>
<circle cx="522.757" cy="560.471" r="5.68485" transform="rotate(6.74505 522.757 560.471)" fill="#EDEDED"/>
<circle cx="490.278" cy="580.956" r="5.68485" transform="rotate(6.74505 490.278 580.956)" fill="#EDEDED"/>
<circle cx="519.918" cy="584.464" r="5.68485" transform="rotate(6.74505 519.918 584.464)" fill="#EDEDED"/>
<circle cx="487.443" cy="604.954" r="5.68485" transform="rotate(6.74505 487.443 604.954)" fill="#EDEDED"/>
<circle cx="517.078" cy="608.452" r="5.68485" transform="rotate(6.74505 517.078 608.452)" fill="#EDEDED"/>
</g>
</g>
</svg>
