<svg width="618" height="558" viewBox="0 0 618 558" fill="none" xmlns="http://www.w3.org/2000/svg">
<circle cx="278.886" cy="278.886" r="277.386" stroke="#EDEDED" stroke-width="3"/>
<path d="M576.565 278.886C576.565 432.08 452.23 556.271 298.852 556.271C145.473 556.271 21.1387 432.08 21.1387 278.886C21.1387 125.691 145.473 1.5 298.852 1.5C452.23 1.5 576.565 125.691 576.565 278.886Z" stroke="#EDEDED" stroke-width="3"/>
<path d="M596.861 278.886C596.861 432.08 472.527 556.271 319.148 556.271C165.77 556.271 41.4355 432.08 41.4355 278.886C41.4355 125.691 165.77 1.5 319.148 1.5C472.527 1.5 596.861 125.691 596.861 278.886Z" stroke="#EDEDED" stroke-width="3"/>
<circle cx="339.114" cy="278.886" r="277.386" stroke="#EDEDED" stroke-width="3"/>
</svg>
