<svg width="938" height="937" viewBox="0 0 938 937" fill="none" xmlns="http://www.w3.org/2000/svg">
<g clip-path="url(#clip0_2189_231582)">
<path d="M363.628 933.874C314.962 933.874 267.755 924.339 223.298 905.528C180.371 887.363 141.82 861.362 108.717 828.243C75.6133 795.123 49.6243 756.554 31.4684 713.607C12.6668 669.129 3.13574 621.899 3.13574 573.21C3.13574 524.521 12.6668 477.291 31.4684 432.812C49.6243 389.866 75.6133 351.296 108.717 318.177C141.82 285.058 180.371 259.056 223.298 240.892C267.755 222.081 314.973 212.535 363.628 212.535C383.273 212.535 402.866 214.119 422.116 217.266C431.855 160.866 460.136 109.217 502.916 70.3034C550.519 26.9816 612.206 3.12695 676.6 3.12695C745.588 3.12695 810.441 30.0038 859.231 78.8073C908.012 127.611 934.876 192.505 934.876 261.526C934.876 326.16 910.897 388.021 867.367 435.72C828.222 478.604 776.317 506.815 719.672 516.33C722.641 535.047 724.141 554.107 724.141 573.199C724.141 621.888 714.61 669.118 695.797 713.597C677.642 756.543 651.653 795.113 618.549 828.232C585.446 861.352 546.895 887.353 503.968 905.518C459.511 924.328 412.304 933.864 363.638 933.864L363.628 933.874Z" stroke="#EDEDED" stroke-width="6" stroke-miterlimit="10"/>
<path d="M700.099 502.104C704.932 525.041 707.463 548.823 707.463 573.199C707.463 763.192 553.519 917.199 363.627 917.199C173.736 917.199 19.791 763.192 19.791 573.199C19.791 383.206 173.725 229.198 363.627 229.198C388.543 229.198 412.834 231.845 436.24 236.889C448.573 114.969 551.477 19.8008 676.599 19.8008C810.034 19.8008 918.209 128.027 918.209 261.526C918.209 387.093 822.502 490.296 700.099 502.104Z" fill="#EDEDED"/>
</g>
<defs>
<clipPath id="clip0_2189_231582">
<rect width="938" height="937" fill="white"/>
</clipPath>
</defs>
</svg>
