<svg width="99" height="28" viewBox="0 0 99 28" fill="none" xmlns="http://www.w3.org/2000/svg">
<g clip-path="url(#clip0_2120_67239)">
<path d="M45.6306 14.2388C46.0196 14.0531 46.3548 13.8456 46.6273 13.6213C46.9291 13.3872 47.165 13.1353 47.3284 12.8699C47.6445 12.3205 47.7976 11.7366 47.7833 11.1355C47.7833 9.96182 47.3961 9.00325 46.6321 8.28752C45.8761 7.57979 44.7343 7.21428 43.2377 7.20117H37.3135V21.7558H43.7502C44.9523 21.7558 45.9695 21.3666 46.772 20.6007C47.5851 19.866 48.0045 18.855 48.0188 17.5939C48.0188 16.8334 47.8159 16.1195 47.4144 15.4696C47.0064 14.8711 46.4068 14.4576 45.631 14.2391L45.6306 14.2388ZM39.7368 15.3557H43.1996C44.0282 15.3688 44.6409 15.5785 45.0208 15.979C45.4014 16.3874 45.5944 16.8858 45.5944 17.4603C45.5944 18.0348 45.4014 18.5139 45.0204 18.922C44.6399 19.3359 44.0271 19.5522 43.2004 19.5649H39.7364V15.3557H39.7368ZM44.7746 12.6795C44.3952 13.0811 43.7908 13.2849 42.978 13.2849H39.7372V9.27339H42.9769C43.7915 9.28613 44.397 9.47726 44.7761 9.83986C45.1622 10.2294 45.3581 10.7118 45.3581 11.2739C45.3581 11.836 45.1625 12.3071 44.775 12.6795H44.7746Z" fill="#CC0029"/>
<path d="M53.0627 7.20117H50.7676V9.39207H53.0627V7.20117Z" fill="#CC0029"/>
<path d="M53.0627 11.3555H50.7676V21.7562H53.0627V11.3555Z" fill="#CC0029"/>
<path d="M56.4734 13.309H61.6658L56.361 20.0146L56.3467 20.0328V21.7562H64.5052V19.684H59.018L64.4902 13.1095L64.5052 13.0909V11.3555H56.4734V13.309Z" fill="#CC0029"/>
<path d="M77.0556 8.22344C76.4842 7.79167 75.9106 7.50115 75.3472 7.36063C74.7912 7.25505 74.2077 7.20117 73.6125 7.20117H68.0674V21.7558H70.4911V16.1271H73.9103C75.4795 16.1005 76.69 15.6134 77.5072 14.6807C78.3039 13.795 78.7082 12.7982 78.7082 11.718C78.7082 10.92 78.5489 10.2174 78.2354 9.63162C77.935 9.02437 77.5369 8.55 77.0556 8.22344ZM76.2846 11.6594C76.2846 12.223 76.0842 12.7436 75.689 13.2052C75.2736 13.6781 74.644 13.9242 73.8187 13.937H70.4911V9.39207H73.7367C74.3495 9.37532 74.8832 9.51293 75.3436 9.79107C75.6432 9.95636 75.8783 10.1853 76.0432 10.4671C76.2036 10.7868 76.2849 11.1876 76.2849 11.6594H76.2846Z" fill="#CC0029"/>
<path d="M86.1549 11.2266C85.0249 11.2266 84.0917 11.6157 83.3785 12.3835V11.3547H81.083V21.7555H83.3785V15.4999C83.3913 14.7725 83.6129 14.2406 84.0396 13.9155C84.4195 13.5849 84.8828 13.4171 85.4169 13.4171C85.8905 13.4171 86.3542 13.586 86.797 13.9195L86.8472 13.9574L88.4654 12.1265L88.5127 12.0737L88.457 12.0297C87.8046 11.5098 87.03 11.24 86.1545 11.2266H86.1549Z" fill="#CC0029"/>
<path d="M98.4748 14.0331C98.2928 13.4571 97.9807 12.9646 97.5536 12.5761C97.2654 12.2281 96.8537 11.9132 96.3288 11.6387C95.7966 11.3784 95.093 11.2397 94.2355 11.2266C93.407 11.2393 92.7176 11.3776 92.1847 11.6372C91.6462 11.9095 91.2206 12.2226 90.9247 12.5641C90.5185 12.9587 90.2126 13.451 90.0156 14.028C89.8277 14.6145 89.7324 15.4613 89.7324 16.5454C89.7324 17.6296 89.8277 18.4669 90.0159 19.0396C90.2115 19.6137 90.517 20.1179 90.9206 20.5373C91.2217 20.8646 91.647 21.1624 92.1821 21.4213C92.7147 21.7089 93.4051 21.8614 94.2333 21.8745H94.2355C95.0919 21.8614 95.7962 21.7089 96.3226 21.4242C96.6108 21.3037 96.8511 21.1562 97.0299 20.9913C97.2331 20.845 97.4071 20.6917 97.5452 20.5399C97.98 20.1183 98.2928 19.613 98.4748 19.0374C98.6485 18.4658 98.7367 17.6274 98.7367 16.5454C98.7367 15.4635 98.6488 14.6199 98.4748 14.0331ZM96.4416 16.5655C96.4416 17.2568 96.4072 17.7734 96.3394 18.1C96.2724 18.4251 96.1343 18.7156 95.9266 18.9642C95.7735 19.1543 95.5442 19.3254 95.2431 19.4721C94.9571 19.6126 94.6172 19.6836 94.2344 19.6836C93.8795 19.6836 93.5465 19.6123 93.2476 19.4728C92.9579 19.3247 92.7198 19.1525 92.5444 18.9671C92.3631 18.7174 92.2305 18.4251 92.1503 18.0974C92.0689 17.7745 92.0275 17.2528 92.0275 16.5458C92.0275 15.8388 92.0689 15.3036 92.1503 14.9745C92.2301 14.6611 92.3623 14.3822 92.5422 14.1467C92.7216 13.9246 92.9579 13.7473 93.2436 13.6206C93.5458 13.4859 93.8791 13.4175 94.234 13.4175C94.6164 13.4175 94.9563 13.4852 95.2468 13.6202C95.5442 13.7469 95.772 13.9224 95.9288 14.1488C96.1347 14.3829 96.2728 14.66 96.3394 14.9713C96.4072 15.3047 96.4416 15.8414 96.4416 16.5658V16.5655Z" fill="#CC0029"/>
<ellipse cx="14.0858" cy="13.9955" rx="14.0858" ry="13.9994" fill="white"/>
<path d="M17.8982 13.9215C18.4414 13.2866 18.7132 12.5821 18.7132 11.806C18.7132 11.1627 18.6026 10.6202 18.3814 10.1794C18.1513 9.7829 17.8283 9.46945 17.414 9.24082C16.7873 8.86184 16.0588 8.68127 15.2295 8.69838H10.8213V14.9263H15.3401C16.4738 14.9088 17.3261 14.5735 17.8982 13.9215Z" fill="#CC0029"/>
<path d="M15.0663 5.9618C15.8571 5.9618 16.6219 6.03243 17.3581 6.17186C18.0943 6.3568 18.8401 6.7336 19.595 7.30408C20.2283 7.73403 20.7429 8.3482 21.1385 9.14621C21.5517 9.9191 21.7586 10.8318 21.7586 11.8846C21.7586 13.3067 21.2326 14.6001 20.1832 15.7673C19.447 16.6068 18.4786 17.1678 17.2779 17.45C18.6742 17.7234 19.8162 18.2313 20.6913 18.856C22.004 19.7931 22.6608 21.3378 22.6608 23.0506C22.6608 24.1876 22.1824 25.1476 21.44 25.9409C19.9027 26.878 18.1713 27.5307 16.319 27.8245C23.0369 26.7607 28.1711 20.9762 28.1711 13.9998C28.1711 6.26797 21.8648 0 14.0854 0C6.30591 0 0 6.26797 0 13.9998C0 19.4763 3.16578 24.2153 7.7758 26.5157V5.9618H15.0659H15.0663Z" fill="#CC0029"/>
<path d="M14.5527 27.9912C14.5699 27.9905 14.5872 27.9901 14.604 27.9898C14.6791 27.9872 14.7542 27.9839 14.8293 27.9799C14.8414 27.9792 14.8534 27.9785 14.8659 27.9778C14.9304 27.9741 14.9948 27.9705 15.0589 27.9661C15.0765 27.965 15.0945 27.9636 15.112 27.9625C15.2651 27.9515 15.4175 27.9381 15.5692 27.9224C15.5801 27.9213 15.5911 27.9202 15.6018 27.9188C15.6717 27.9111 15.742 27.9035 15.8116 27.8947C15.819 27.8937 15.8267 27.8929 15.834 27.8922C15.9926 27.8725 16.1504 27.8503 16.3072 27.8256C16.3109 27.8248 16.3145 27.8245 16.3178 27.8238C18.1701 27.53 19.9015 26.8772 21.4388 25.9401C22.1813 25.1468 22.6596 24.1865 22.6596 23.0499C22.6596 21.3373 22.0025 19.7927 20.6902 18.8552C19.8151 18.2308 18.673 17.7226 17.2768 17.4492C16.7907 17.5635 16.2669 17.632 15.7051 17.6545C15.7029 17.6545 15.7007 17.6545 15.6985 17.6545C15.6197 17.6578 15.5402 17.6604 15.4596 17.6615H10.8203V27.6086C11.869 27.8572 12.9594 27.9981 14.0846 27.9981C14.1601 27.9981 14.2352 27.9974 14.3106 27.9963C14.3315 27.9963 14.3524 27.9956 14.3732 27.9952C14.433 27.9941 14.4927 27.9923 14.552 27.9905L14.5527 27.9912Z" fill="#FF1947"/>
</g>
<defs>
<clipPath id="clip0_2120_67239">
<rect width="98.7368" height="28" fill="white"/>
</clipPath>
</defs>
</svg>
