<svg width="76" height="30" viewBox="0 0 76 30" fill="none" xmlns="http://www.w3.org/2000/svg">
<g clip-path="url(#clip0_2376_231706)">
<path d="M7.19046 24.0417V17.5H15.7197C16.6814 17.5 17.5176 17.8333 18.1447 18.4167C18.7719 19 19.1481 19.7917 19.1481 20.75C19.1481 21.6667 18.7719 22.5 18.1447 23.0833C17.5176 23.6667 16.6814 24.0417 15.7197 24.0417H11.4551H7.19046ZM7.19046 12.25V5.95833H14.34C15.2598 5.95833 16.0542 6.29167 16.6395 6.83333C17.2249 7.375 17.5594 8.16667 17.5594 9.08333C17.5594 10 17.2249 10.7917 16.6395 11.3333C16.0542 11.9167 15.2598 12.25 14.34 12.25H10.7861H7.19046V12.25ZM75.2991 15C75.2991 14.5833 75.2991 14.1667 75.2573 13.75C75.2155 13.3333 75.1737 12.9167 75.0901 12.5H69.2366H63.3832L61.6272 15.2917L59.8712 18.0833H68.8604C68.3168 19.875 67.3134 21.4583 65.8918 22.5833C64.5121 23.7083 62.7561 24.3333 60.7074 24.3333C58.157 24.3333 55.8992 23.2917 54.2686 21.5833C52.638 19.875 51.6346 17.5417 51.6346 15C51.6346 12.5 52.638 10.2083 54.3104 8.5C55.9828 6.83333 58.2824 5.79167 60.8328 5.79167C61.9617 5.79167 62.9651 5.95833 63.9268 6.29167C64.8884 6.625 65.7246 7.08333 66.519 7.66667L68.066 5.16667L69.6547 2.66667C68.4423 1.83333 67.1043 1.16667 65.641 0.708333C64.1776 0.25 62.5888 0 60.8746 0C58.6169 0 56.5682 0.416667 54.7704 1.16667C52.9725 1.91667 51.3837 3 50.0458 4.33333C46.8682 7.5 45.9484 10.75 45.3213 13.7083C44.6941 16.6667 44.3178 19.375 42.1437 21.5417C41.2239 22.4583 40.2204 23.125 39.1334 23.5833C38.0463 24.0417 36.8756 24.2917 35.5795 24.2917C32.9455 24.2917 30.6041 23.2083 28.8899 21.5417C27.1757 19.8333 26.1304 17.5417 26.1304 15C26.1304 12.5417 27.1757 10.25 28.8899 8.54167C30.6041 6.83333 32.9455 5.79167 35.5795 5.75C36.6666 5.75 37.7118 5.91667 38.6317 6.25C39.5515 6.54167 40.4295 7 41.1821 7.58333L42.7709 5.08333L44.3596 2.58333C43.1471 1.75 41.8092 1.08333 40.3459 0.666667C38.8407 0.208333 37.2519 0 35.5795 0C32.9873 0 30.5623 0.625 28.43 1.70833C26.2977 2.79167 24.4998 4.375 23.1619 6.25C22.6184 4.625 21.5313 3.20833 20.0262 2.20833C18.4792 1.20833 16.5559 0.625 14.4236 0.625H7.65037H0.918945V15V29.375H15.8033C17.6848 29.375 19.3572 28.9167 20.7369 28.1667C22.1167 27.4167 23.2455 26.2917 23.9981 25C25.3779 26.5 27.0503 27.75 28.9735 28.625C30.8968 29.5 33.0291 29.9583 35.3287 29.9583C38.0463 29.9583 40.5131 29.3333 42.6454 28.2083C44.7777 27.0833 46.5756 25.4583 47.9553 23.5C49.2932 25.4583 51.0911 27.0833 53.2234 28.2083C55.3557 29.3333 57.8643 29.9583 60.582 29.9583C64.7212 29.9583 68.4004 28.2917 71.0345 25.5417C73.7103 22.875 75.2991 19.125 75.2991 15Z" fill="#00532F"/>
</g>
<defs>
<clipPath id="clip0_2376_231706">
<rect width="74.3802" height="30" fill="white" transform="translate(0.918945)"/>
</clipPath>
</defs>
</svg>
