<svg width="82" height="25" viewBox="0 0 82 25" fill="none" xmlns="http://www.w3.org/2000/svg">
<g clip-path="url(#clip0_2375_231616)">
<path d="M9.68447 20.4755C6.75077 20.4755 4.41869 18.0978 4.41869 15.2311C4.41869 12.3644 6.80614 9.98668 9.68447 9.98668C12.6182 9.98668 14.9502 12.3644 14.9502 15.2311C14.9369 18.1529 12.6029 20.4755 9.68447 20.4755ZM9.68447 6.38574C7.65225 6.38574 5.71364 7.08009 4.07679 8.36978L3.69483 8.71026C3.69483 8.71026 3.68146 0.951114 3.68146 0.408975H-0.000976562V24.3199H3.68146C3.68146 23.8729 3.69483 21.8889 3.69483 21.8889L4.07679 22.1742C5.66017 23.4639 7.59688 24.1582 9.68447 24.1582C14.595 24.1582 18.6193 20.1503 18.6193 15.2596C18.6193 10.3671 14.595 6.38574 9.68447 6.38574V6.38574ZM24.6625 13.4107L24.8668 13.0169C25.7129 11.1831 27.5962 9.9467 29.6284 9.9467C31.6606 9.9467 33.5438 11.128 34.3899 13.0169L34.5943 13.4107H24.6625ZM29.5882 6.40099C24.6777 6.40099 20.6515 10.409 20.6515 15.2996C20.6515 20.1921 24.6777 24.1982 29.5882 24.1982C33.0663 24.1982 36.2865 22.0791 37.7323 18.9138H33.4082C32.4112 19.9467 31.0207 20.5973 29.5882 20.5973C27.5542 20.5973 25.6728 19.416 24.8267 17.5271L24.6223 17.1333H38.2786C38.4276 16.536 38.483 15.8969 38.483 15.2996C38.5231 10.3538 34.4988 6.40099 29.5882 6.40099V6.40099ZM53.5011 20.0285C52.8612 20.3271 51.9616 20.5155 50.8691 20.5155H45.5632V13.3022H50.978C52.1259 13.3022 52.9701 13.4525 53.5584 13.7512C54.7024 14.2933 55.2888 15.2844 55.2888 16.6711C55.2888 18.2899 54.7024 19.4293 53.5011 20.0285ZM45.5632 3.71123H50.2828C51.4689 3.71123 52.5213 3.8596 53.312 4.105C54.307 4.49876 54.7979 5.39469 54.7979 6.63113C54.7979 7.7725 54.4026 8.55999 53.6539 9.04888C52.9567 9.49779 52.0151 9.68804 50.8691 9.68804H45.5632V3.71123ZM58.9731 20.816C59.6683 19.6747 60.0637 18.3964 60.0637 17.0116C60.0637 15.6249 59.7638 14.4436 59.124 13.5058C58.5224 12.568 57.5807 11.8756 56.3412 11.4266L55.7396 11.2231L56.2839 10.9245C57.0765 10.5307 57.6763 10.0818 58.127 9.59291C58.8776 8.71026 59.2195 7.56894 59.2195 6.12897C59.2195 4.74226 58.8776 3.50581 58.127 2.51472C56.939 0.884552 54.7578 0.0551454 51.8375 0H41.0615V24.3199H51.02C52.2615 24.3199 53.4763 24.2134 54.5267 23.968C55.5638 23.7645 56.4615 23.3289 57.2542 22.7867C57.9226 22.2009 58.5224 21.6035 58.9731 20.816V20.816ZM81.209 21.5084H80.5137C79.1214 21.5084 78.726 21.3049 78.5751 21.1679C78.3307 20.9244 78.1797 20.4223 78.1797 19.5396L78.1664 9.66137H81.209V6.79476H78.1664L78.1797 0H73.9396V6.79476H69.9822V9.64806H73.9396V21.1965C73.9396 22.2826 74.1574 23.0854 74.6616 23.5876C75.4523 24.3751 76.9402 24.7688 79.1214 24.6737C79.1214 24.6737 80.8136 24.5653 81.209 24.5653V21.5084V21.5084ZM63.1617 3.93952H67.5259V0H63.1617V3.93952ZM63.1617 24.4569H67.5259V6.79476H63.1617V24.4569Z" fill="#1E1E1E"/>
</g>
<defs>
<clipPath id="clip0_2375_231616">
<rect width="81.5238" height="24.7289" fill="white"/>
</clipPath>
</defs>
</svg>
