<svg width="237" height="30" viewBox="0 0 237 30" fill="none" xmlns="http://www.w3.org/2000/svg">
<g clip-path="url(#clip0_2379_231616)">
<path d="M237.024 19.3612C237.024 16.5458 235.436 15.2766 232.26 14.6535C229.084 14.0304 227.193 13.7073 227.193 11.515C227.193 9.94579 228.454 8.99964 230.695 8.99964C233.544 8.99964 234.502 10.2458 234.502 11.815L234.829 12.1381H236.09L236.417 11.815C236.417 8.67656 233.871 7.43041 230.695 7.43041C227.193 7.43041 225.301 9.29964 225.301 11.515C225.301 14.0304 227.216 15.2766 230.369 15.8996C233.544 16.5227 235.132 16.8458 235.132 19.3381C235.132 20.9073 234.175 22.1535 230.999 22.1535C228.15 22.1535 226.866 20.5843 226.866 18.715L226.539 18.3919H225.278L224.951 18.715C224.951 21.5304 227.169 23.7227 230.976 23.7227C235.109 23.7458 237.024 21.8766 237.024 19.3612ZM223.386 16.2227L223.69 15.8996V14.9535C223.69 10.5689 221.144 7.43041 216.708 7.43041C212.271 7.43041 209.725 10.5689 209.725 14.9535V15.5766C209.725 19.9612 211.944 23.7227 217.011 23.7227C221.448 23.7227 223.036 20.9073 223.363 19.015L223.036 18.6919H221.775L221.448 19.015C220.818 20.9073 219.533 22.1535 217.011 22.1535C212.878 22.1535 211.617 18.3919 211.617 16.5227L211.944 16.1996H223.386V16.2227ZM221.471 14.6535H211.944L211.617 14.3304C211.617 12.1381 212.878 8.99964 216.684 8.99964C220.491 8.99964 221.752 12.1381 221.752 14.3304L221.471 14.6535ZM207.53 23.1227V8.07656L207.203 7.75349H205.942L205.615 8.07656V23.1227L205.942 23.4458H207.203L207.53 23.1227ZM207.53 4.9381V3.06887L207.203 2.74579H205.942L205.615 3.06887V4.9381L205.942 5.26118H207.203L207.53 4.9381ZM195.457 22.1766C192.281 22.1766 190.39 19.9843 190.39 15.5996C190.39 11.215 192.305 9.02272 195.457 9.02272C198.633 9.02272 200.525 11.215 200.525 15.5996C200.548 19.9843 198.633 22.1766 195.457 22.1766ZM200.548 21.2304C200.548 25.315 199.59 28.4304 195.784 28.4304C192.935 28.4304 191.978 27.1843 191.651 25.615L191.324 25.2919H190.063L189.736 25.615C190.063 28.1304 191.954 29.9996 195.761 29.9996C199.894 29.9996 202.416 27.4843 202.416 21.2304V8.07656L202.089 7.75349H201.132L200.805 8.07656L200.478 9.96887H200.151C199.52 8.72272 197.932 7.45349 195.083 7.45349C190.647 7.45349 188.428 10.915 188.428 15.5996C188.428 20.3073 190.647 23.7458 195.083 23.7458C197.932 23.7458 199.52 22.4996 200.151 21.2304H200.548V21.2304ZM179.928 9.02272C183.104 9.02272 185.322 11.5381 185.322 15.5996C185.322 19.6612 183.104 22.1766 179.928 22.1766C176.752 22.1766 174.534 19.6612 174.534 15.5996C174.534 11.515 176.752 9.02272 179.928 9.02272ZM179.928 23.7458C184.061 23.7458 187.214 20.9304 187.214 15.5996C187.214 10.2689 184.038 7.45349 179.928 7.45349C175.795 7.45349 172.642 10.2689 172.642 15.5996C172.619 20.9304 175.795 23.7458 179.928 23.7458ZM170.4 23.1227V1.79964L170.073 1.47656H168.812L168.485 1.79964V23.1227L168.812 23.4458H170.073L170.4 23.1227ZM158.981 9.02272C162.157 9.02272 164.375 11.5381 164.375 15.5996C164.375 19.6612 162.157 22.1766 158.981 22.1766C155.805 22.1766 153.587 19.6612 153.587 15.5996C153.587 11.5381 155.805 9.02272 158.981 9.02272ZM158.981 23.7458C163.114 23.7458 166.267 20.9304 166.267 15.5996C166.267 10.2689 163.091 7.45349 158.981 7.45349C154.871 7.45349 151.695 10.2689 151.695 15.5996C151.672 20.9304 154.848 23.7458 158.981 23.7458ZM149.78 23.1227V13.7073C149.78 9.62272 147.562 7.43041 144.059 7.43041C141.841 7.43041 139.926 8.37656 138.992 9.94579H138.665L138.361 8.05349L138.034 7.73041H137.077L136.75 8.05349V23.0996L137.077 23.4227H138.338L138.641 23.0996V14.6535C138.641 11.1919 140.229 8.99964 143.709 8.99964C146.254 8.99964 147.842 10.5689 147.842 13.7073V23.1227L148.169 23.4458H149.43L149.78 23.1227ZM133.597 23.1227V13.7073C133.597 9.62272 131.379 7.43041 127.876 7.43041C125.658 7.43041 123.743 8.37656 122.809 9.94579H122.482V1.79964L122.155 1.47656H120.894L120.567 1.79964V23.1227L120.894 23.4458H122.155L122.482 23.1227V14.6535C122.482 11.1919 124.07 8.99964 127.549 8.99964C130.094 8.99964 131.682 10.5689 131.682 13.7073V23.1227L132.009 23.4458H133.27L133.597 23.1227ZM106.322 15.5996C106.322 11.215 108.54 9.02272 111.716 9.02272C114.892 9.02272 116.153 10.915 116.48 12.7843L116.807 13.1073H118.068L118.395 12.7843C118.068 9.64579 115.546 7.45349 111.74 7.45349C107.606 7.45349 104.454 9.96887 104.454 15.5996C104.454 21.2535 107.63 23.7458 111.74 23.7458C115.546 23.7458 118.091 21.5535 118.395 18.415L118.068 18.0919H116.807L116.48 18.415C116.153 20.3073 114.892 22.1766 111.716 22.1766C108.54 22.1766 106.322 19.9843 106.322 15.5996ZM102.819 16.2227L103.146 15.8996V14.9535C103.146 10.5689 100.601 7.43041 96.1638 7.43041C91.7268 7.43041 89.1815 10.5689 89.1815 14.9535V15.5766C89.1815 19.9612 91.3999 23.7227 96.4673 23.7227C100.904 23.7227 102.492 20.9073 102.819 19.015L102.492 18.6919H101.231L100.904 19.015C100.274 20.9073 99.0127 22.1535 96.4673 22.1535C92.334 22.1535 91.073 18.3919 91.073 16.5227L91.3999 16.1996H102.819V16.2227ZM100.928 14.6535H91.3999L91.073 14.3304C91.073 12.1381 92.334 8.99964 96.1404 8.99964C99.9468 8.99964 101.208 12.1381 101.208 14.3304L100.928 14.6535ZM92.3807 2.74579V1.79964L92.0538 1.47656H75.5672L75.2402 1.79964V2.74579L75.5672 3.06887H82.5495L82.8764 3.39195V23.1458L83.2033 23.4689H84.4643L84.7913 23.1458V3.36887L85.1182 3.04579H92.1005L92.3807 2.74579Z" fill="#0076CE"/>
<path d="M75.2406 19.0846V23.4462H60.9024V1.47692H65.9465V19.0615C65.9698 19.0615 75.2406 19.0615 75.2406 19.0846ZM8.99058 23.4462C14.1514 23.4462 18.4949 19.9615 19.7326 15.2308L32.296 24.9231L44.8595 15.2308V23.4462H59.1743V19.0846H49.8802V1.47692H44.8361V9.69231L32.7864 18.9923L30.1009 16.9154L35.8923 12.4615L42.174 7.61538L38.6011 4.84615L26.5514 14.1462L23.8659 12.0692L35.8923 2.76923L32.3194 0L19.7559 9.69231C18.5183 4.96154 14.1748 1.47692 9.01393 1.47692H0V23.4231C0 23.4231 8.99058 23.4231 8.99058 23.4462ZM5.04406 19.0846V5.86154H9.01393C12.3533 5.86154 15.0621 8.81538 15.0621 12.4615C15.0621 16.1077 12.3533 19.0846 8.99058 19.0846H5.04406Z" fill="#0076CE"/>
</g>
<defs>
<clipPath id="clip0_2379_231616">
<rect width="236.842" height="30" fill="white"/>
</clipPath>
</defs>
</svg>
