<svg width="76" height="30" viewBox="0 0 76 30" fill="none" xmlns="http://www.w3.org/2000/svg">
<path d="M15.3096 27.8848H0.697266V29.9756H15.3096V27.8848Z" fill="#1E1E1E"/>
<path d="M15.3096 23.916H0.697266V26.0069H15.3096V23.916Z" fill="#1E1E1E"/>
<path d="M11.1514 19.9219H4.87891V22.0127H11.1514V19.9219Z" fill="#1E1E1E"/>
<path d="M11.1514 15.9277H4.87891V18.0186H11.1514V15.9277Z" fill="#1E1E1E"/>
<path d="M11.1514 11.957H4.87891V14.0479H11.1514V11.957Z" fill="#1E1E1E"/>
<path d="M11.1514 7.96484H4.87891V10.0557H11.1514V7.96484Z" fill="#1E1E1E"/>
<path d="M15.3096 3.9707H0.697266V6.06154H15.3096V3.9707Z" fill="#1E1E1E"/>
<path d="M15.3096 0H0.697266V2.09084H15.3096V0Z" fill="#1E1E1E"/>
<path d="M17.4004 26.0069H39.6948C40.0707 25.3491 40.3526 24.6443 40.5406 23.916H17.4239V26.0069H17.4004Z" fill="#1E1E1E"/>
<path d="M37.9329 15.9277H21.582V18.0186H39.6948C39.2249 17.2433 38.6376 16.5385 37.9329 15.9277Z" fill="#1E1E1E"/>
<path d="M21.582 11.957V14.0479H37.9329C38.6376 13.4606 39.2249 12.7558 39.6713 11.957H21.582Z" fill="#1E1E1E"/>
<path d="M39.6948 3.9707H17.4238V6.06154H40.5405C40.3526 5.33327 40.0707 4.62849 39.6948 3.9707Z" fill="#1E1E1E"/>
<path d="M32.788 0H17.4004V2.09084H38.1678C36.6878 0.728272 34.7614 0 32.788 0Z" fill="#1E1E1E"/>
<path d="M27.8545 7.96484H21.582V10.0557H27.8545V7.96484Z" fill="#1E1E1E"/>
<path d="M33.7275 10.0557H40.4699C40.6578 9.3744 40.7518 8.66962 40.7518 7.96484H33.7275V10.0557Z" fill="#1E1E1E"/>
<path d="M27.8545 19.9219H21.582V22.0127H27.8545V19.9219Z" fill="#1E1E1E"/>
<path d="M33.7275 19.9219V22.0127H40.7518C40.7518 21.3079 40.6578 20.6032 40.4699 19.9219H33.7275Z" fill="#1E1E1E"/>
<path d="M17.4004 29.9755L32.788 29.999C34.7849 29.999 36.7113 29.2473 38.1678 27.9082H17.4004V29.9755Z" fill="#1E1E1E"/>
<path d="M59.1707 29.9756L59.8989 27.8848H58.4424L59.1707 29.9756Z" fill="#1E1E1E"/>
<path d="M57.784 26.0069H60.5561L61.2844 23.916H57.0322L57.784 26.0069Z" fill="#1E1E1E"/>
<path d="M56.3748 22.0127H61.966L62.6943 19.9219H55.6465L56.3748 22.0127Z" fill="#1E1E1E"/>
<path d="M54.9646 18.0186H63.3514L64.1032 15.9277H54.2363L54.9646 18.0186Z" fill="#1E1E1E"/>
<path d="M46.6484 10.0557H57.9249L57.1966 7.96484H46.6484V10.0557Z" fill="#1E1E1E"/>
<path d="M61.8018 6.06154H75.8738V3.9707H62.53L61.8018 6.06154Z" fill="#1E1E1E"/>
<path d="M63.9158 0L63.1875 2.09084H75.8735V0H63.9158Z" fill="#1E1E1E"/>
<path d="M52.8975 27.8848H42.4668V29.9756H52.8975V27.8848Z" fill="#1E1E1E"/>
<path d="M52.8975 23.916H42.4668V26.0069H52.8975V23.916Z" fill="#1E1E1E"/>
<path d="M52.9209 19.9219H46.6484V22.0127H52.9209V19.9219Z" fill="#1E1E1E"/>
<path d="M52.9209 15.9277H46.6484V18.0186H52.9209V15.9277Z" fill="#1E1E1E"/>
<path d="M71.6915 7.96484H61.1433L60.415 10.0557H71.6915V7.96484Z" fill="#1E1E1E"/>
<path d="M65.4425 14.0479H71.6915V11.957H65.4425H59.7573L59.17 13.6485L58.5827 11.957H52.8975H46.6484V14.0479H52.8975V12.1215L53.5787 14.0479H64.7612L65.4425 12.1215V14.0479Z" fill="#1E1E1E"/>
<path d="M71.7149 15.9277H65.4424V18.0186H71.7149V15.9277Z" fill="#1E1E1E"/>
<path d="M71.7149 19.9219H65.4424V22.0127H71.7149V19.9219Z" fill="#1E1E1E"/>
<path d="M75.8731 23.916H65.4424V26.0069H75.8731V23.916Z" fill="#1E1E1E"/>
<path d="M75.8731 27.8848H65.4424V29.9756H75.8731V27.8848Z" fill="#1E1E1E"/>
<path d="M56.5388 6.06154L55.8106 3.9707H42.4668V6.06154H56.5388Z" fill="#1E1E1E"/>
<path d="M55.1528 2.09084L54.4245 0H42.4668V2.09084H55.1528Z" fill="#1E1E1E"/>
</svg>
