<svg width="142" height="30" viewBox="0 0 142 30" fill="none" xmlns="http://www.w3.org/2000/svg">
<g clip-path="url(#clip0_2376_231696)">
<path d="M50.5122 17.2785L49.6741 19.6506H49.6042C49.4645 19.1157 49.2084 18.3017 48.7893 17.325L44.2959 6.04592H39.8955V24.0227H42.8058V12.9296C42.8058 12.232 42.8058 11.4413 42.7825 10.4645C42.7592 9.97615 42.7127 9.60406 42.6894 9.32499H42.7592C42.8989 10.0227 43.0619 10.5343 43.1783 10.8599L48.5798 23.9762H50.6286L55.9836 10.7436C56.1 10.4413 56.2164 9.83662 56.3328 9.32499H56.4026C56.3328 10.6506 56.2862 11.8366 56.263 12.5575V23.9529H59.3595V5.99941H55.1221L50.5122 17.2785ZM62.2931 11.0692H65.3198V23.9529H62.2931V11.0692ZM63.8297 5.62732C63.3175 5.62732 62.8984 5.81336 62.5492 6.13894C62.1999 6.46453 62.0137 6.88313 62.0137 7.39476C62.0137 7.88313 62.1999 8.30173 62.5492 8.62732C62.8984 8.9529 63.3175 9.11569 63.8297 9.11569C64.3419 9.11569 64.7843 8.92964 65.1102 8.62732C65.4595 8.30173 65.6457 7.88313 65.6457 7.39476C65.6457 6.90639 65.4595 6.48778 65.1102 6.13894C64.8076 5.81336 64.3652 5.62732 63.8297 5.62732ZM76.0529 10.9529C75.4941 10.8366 74.9121 10.7669 74.3533 10.7669C72.9796 10.7669 71.7224 11.0692 70.6747 11.6738C69.627 12.2785 68.7888 13.1157 68.2533 14.1622C67.6946 15.232 67.4152 16.4645 67.4152 17.8831C67.4152 19.1157 67.6946 20.2087 68.23 21.2087C68.7655 22.1855 69.5106 22.9762 70.5117 23.511C71.4663 24.0459 72.5838 24.325 73.8411 24.325C75.2846 24.325 76.5185 24.0227 77.4964 23.4645L77.5197 23.4413V20.6506L77.4033 20.7436C76.9609 21.0692 76.4487 21.3482 75.9365 21.511C75.401 21.6971 74.9121 21.7901 74.493 21.7901C73.2823 21.7901 72.3277 21.4413 71.6525 20.6738C70.9541 19.9296 70.6048 18.9064 70.6048 17.6273C70.6048 16.3017 70.9541 15.2552 71.6758 14.4878C72.3976 13.7203 73.3521 13.325 74.5163 13.325C75.4941 13.325 76.4953 13.6506 77.4033 14.3017L77.5197 14.3948V11.4413L77.4964 11.418C77.1006 11.2552 76.6582 11.0692 76.0529 10.9529ZM86.041 10.8599C85.296 10.8599 84.5975 11.0924 83.9922 11.5808C83.4799 11.9994 83.1307 12.6041 82.828 13.325H82.8048V11.0692H79.7781V23.9529H82.8048V17.3715C82.8048 16.2552 83.0376 15.325 83.5498 14.6506C84.062 13.9529 84.7139 13.6041 85.5055 13.6041C85.7849 13.6041 86.0643 13.6738 86.4135 13.7203C86.7395 13.8134 86.9723 13.9064 87.1353 14.0227L87.2517 14.1157V11.0924L87.1818 11.0692C86.9723 10.9296 86.5532 10.8599 86.041 10.8599ZM94.2829 10.7901C92.1642 10.7901 90.4646 11.418 89.2772 12.6506C88.0666 13.8831 87.4845 15.5808 87.4845 17.7203C87.4845 19.7203 88.0898 21.3482 89.254 22.5343C90.4181 23.6971 92.0013 24.3017 93.9803 24.3017C96.0524 24.3017 97.7054 23.6738 98.8928 22.418C100.103 21.1622 100.686 19.4878 100.686 17.418C100.686 15.3715 100.127 13.7436 98.9859 12.5575C97.8917 11.3715 96.2852 10.7901 94.2829 10.7901ZM96.7043 20.6971C96.1455 21.418 95.2608 21.7669 94.1665 21.7669C93.0722 21.7669 92.1875 21.418 91.5589 20.6506C90.9303 19.9296 90.6276 18.8831 90.6276 17.5575C90.6276 16.1855 90.9536 15.1389 91.5589 14.3948C92.1875 13.6506 93.049 13.2785 94.1432 13.2785C95.2142 13.2785 96.0524 13.6273 96.6577 14.3482C97.2631 15.0692 97.589 16.1157 97.589 17.4878C97.5424 18.8831 97.2863 19.9762 96.7043 20.6971ZM107.437 16.418C106.483 16.0227 105.878 15.7203 105.598 15.4645C105.365 15.232 105.249 14.9064 105.249 14.4878C105.249 14.1389 105.389 13.7901 105.738 13.5575C106.087 13.325 106.483 13.2087 107.065 13.2087C107.577 13.2087 108.113 13.3017 108.625 13.4413C109.137 13.5808 109.603 13.7901 109.975 14.0692L110.092 14.1622V11.325L110.022 11.3017C109.673 11.1622 109.207 11.0227 108.648 10.9064C108.089 10.8134 107.577 10.7669 107.158 10.7669C105.715 10.7669 104.527 11.1157 103.596 11.8831C102.665 12.6041 102.222 13.5808 102.222 14.7203C102.222 15.325 102.315 15.8599 102.525 16.3017C102.734 16.7436 103.037 17.1622 103.456 17.511C103.875 17.8366 104.481 18.2087 105.319 18.5576C106.017 18.8599 106.553 19.0924 106.879 19.2785C107.205 19.4645 107.414 19.6738 107.577 19.8366C107.694 20.0227 107.763 20.2552 107.763 20.5576C107.763 21.418 107.111 21.8366 105.784 21.8366C105.272 21.8366 104.737 21.7436 104.108 21.5343C103.479 21.325 102.897 21.0227 102.408 20.6738L102.292 20.5808V23.5343L102.362 23.5576C102.804 23.7669 103.34 23.9064 103.992 24.0692C104.644 24.1855 105.226 24.2785 105.738 24.2785C107.298 24.2785 108.578 23.9296 109.486 23.1622C110.418 22.418 110.906 21.4645 110.906 20.232C110.906 19.3715 110.674 18.6041 110.161 18.0227C109.486 17.4645 108.648 16.8831 107.437 16.418ZM118.892 10.7901C116.774 10.7901 115.074 11.418 113.887 12.6506C112.699 13.8831 112.094 15.5808 112.094 17.7203C112.094 19.7203 112.699 21.3482 113.863 22.5343C115.027 23.6971 116.611 24.3017 118.59 24.3017C120.662 24.3017 122.315 23.6738 123.502 22.418C124.713 21.1622 125.295 19.4878 125.295 17.418C125.295 15.3715 124.736 13.7436 123.595 12.5575C122.501 11.3715 120.895 10.7901 118.892 10.7901ZM121.29 20.6971C120.732 21.418 119.847 21.7669 118.753 21.7669C117.635 21.7669 116.774 21.418 116.145 20.6506C115.516 19.9296 115.214 18.8831 115.214 17.5575C115.214 16.1855 115.54 15.1389 116.145 14.3948C116.774 13.6506 117.635 13.2785 118.729 13.2785C119.777 13.2785 120.638 13.6273 121.244 14.3482C121.849 15.0692 122.175 16.1157 122.175 17.4878C122.175 18.8831 121.872 19.9762 121.29 20.6971ZM141.476 13.5575V11.0692H138.426V7.25522L138.333 7.27848L135.446 8.13894L135.376 8.1622V11.0692H130.813V9.44127C130.813 8.69708 130.999 8.11569 131.325 7.7436C131.651 7.3715 132.14 7.18546 132.745 7.18546C133.164 7.18546 133.607 7.27848 134.096 7.48778L134.212 7.55755V4.92964L134.142 4.90639C133.723 4.76685 133.164 4.67383 132.443 4.67383C131.535 4.67383 130.743 4.88313 130.021 5.23197C129.299 5.62732 128.764 6.1622 128.368 6.88313C127.972 7.58081 127.763 8.3715 127.763 9.27848V11.0692H125.644V13.5343H127.763V23.9529H130.813V13.5575H135.376V20.1855C135.376 22.9064 136.657 24.2785 139.218 24.2785C139.637 24.2785 140.079 24.2087 140.498 24.1389C140.941 24.0459 141.267 23.9296 141.453 23.8366L141.476 23.8134V21.325L141.36 21.418C141.173 21.5343 141.01 21.6273 140.731 21.6971C140.498 21.7669 140.289 21.7901 140.126 21.7901C139.52 21.7901 139.101 21.6506 138.799 21.3017C138.519 20.9762 138.38 20.4413 138.38 19.6506V13.5575H141.476Z" fill="#737373"/>
<path d="M0.874023 0H15.1461V14.2558H0.874023V0Z" fill="#F25022"/>
<path d="M16.6357 0H30.9078V14.2558H16.6357V0Z" fill="#7FBA00"/>
<path d="M0.874023 15.7441H15.1461V30H0.874023V15.7441Z" fill="#00A4EF"/>
<path d="M16.6357 15.7441H30.9078V30H16.6357V15.7441Z" fill="#FFB900"/>
</g>
<defs>
<clipPath id="clip0_2376_231696">
<rect width="140.625" height="30" fill="white" transform="translate(0.874023)"/>
</clipPath>
</defs>
</svg>
