<svg width="137" height="30" viewBox="0 0 137 30" fill="none" xmlns="http://www.w3.org/2000/svg">
<path d="M13.5393 3.9668H5.94185V4.59583H8.37692V17.0797C8.37692 20.8055 7.30549 21.87 4.96782 21.87C4.0912 21.9668 3.31198 21.3378 3.21458 20.4668C3.21458 20.37 3.21458 20.2732 3.21458 20.1765C3.21458 18.8216 3.11717 17.9991 1.89964 17.9991C0.68211 17.9991 0.487305 19.2571 0.487305 19.6442C0.487305 21.3861 1.26653 22.6926 4.72432 22.6926C8.86393 22.6926 11.0555 21.3378 11.0555 16.741V4.59583H13.588L13.5393 3.9668Z" fill="#503629"/>
<path d="M14.5136 19.7402C14.124 19.7402 13.7344 19.8854 13.4422 20.1757C13.15 20.466 13.0039 20.8531 13.0039 21.2402C13.0039 21.6273 13.15 22.0144 13.4422 22.2564C13.7344 22.5467 14.124 22.6918 14.5136 22.6918C14.9033 22.6918 15.2929 22.5467 15.5851 22.2564C15.8773 21.966 16.0234 21.6273 16.0234 21.2402C16.0234 20.4177 15.3903 19.7886 14.5623 19.7886H14.5136" fill="#503629"/>
<path d="M31.4131 19.7417C30.6338 19.7417 29.952 20.3708 29.9033 21.145V21.1934C29.9033 21.5805 30.0981 21.9676 30.3903 22.2095C30.6825 22.4998 31.0721 22.645 31.4618 22.645C31.8514 22.645 32.241 22.4998 32.5332 22.2095C32.8254 21.9676 32.9715 21.5805 32.9715 21.1934C32.9715 20.8063 32.8254 20.4192 32.5332 20.1288C32.241 19.8385 31.9001 19.6934 31.5105 19.6934" fill="#503629"/>
<path d="M26.1524 3.9668H18.6524V4.59583H20.844V18.8216C20.8927 19.4023 20.844 19.9829 20.6492 20.5636C20.4544 20.9507 20.1135 21.2894 19.7239 21.3862C19.2856 21.5313 18.7985 21.6281 18.3115 21.6281V22.2087H26.2498V21.6281C25.7141 21.6281 25.2271 21.5797 24.7401 21.4345C24.3018 21.2894 23.9609 20.9991 23.8148 20.612C23.6687 20.2249 23.5713 19.8378 23.62 19.4507V14.5152H25.6167C31.3635 14.5152 32.9706 12.241 32.9706 9.1926C32.9706 6.14422 31.9479 3.9668 26.1524 3.9668ZM25.081 13.7894H23.5713V4.6926H24.9349C29.3667 4.6926 30.4381 6.48293 30.4381 9.38615C30.4381 12.2894 28.6849 13.8862 25.1784 13.8862" fill="#503629"/>
<path d="M56.6888 20.5156C56.5427 20.1285 56.494 19.693 56.5427 19.2576V4.59627H58.5395V4.01562H53.8155L48.0687 17.9027C48.0687 17.9511 48.02 17.9995 47.9713 17.9995C47.9226 17.9995 47.8739 17.9511 47.8252 17.9027C47.8252 17.9027 41.8836 4.16079 41.8349 4.01562H36.5752V4.59627H38.8642V20.0318C38.8642 20.3705 38.7181 20.6608 38.5719 20.9511C38.3771 21.2414 38.0849 21.435 37.744 21.5318C37.4031 21.6285 37.0135 21.6285 36.6726 21.6285V22.2092H41.8836V21.6285C41.5427 21.6285 41.2505 21.5801 40.9583 21.4834C40.5687 21.3866 40.2765 21.193 40.033 20.9027C39.8382 20.6124 39.7408 20.3221 39.6921 19.9834L39.6434 18.6769V6.48337H39.9356C39.9356 6.48337 46.7051 22.0156 46.7051 22.2092H47.3382L53.7181 6.62853H53.8642V19.1608C53.8642 19.5963 53.8155 20.0318 53.7181 20.4672C53.5719 20.8543 53.2797 21.1447 52.9388 21.2898C52.5005 21.435 52.0622 21.5318 51.6239 21.5318V22.1124H58.8804V21.5318C58.4421 21.5318 57.9551 21.435 57.5168 21.2898C57.1271 21.0963 56.8349 20.7576 56.6888 20.3705" fill="#503629"/>
<path d="M66.4777 8.85352C62.5815 8.85352 60.1465 11.3696 60.1465 15.8213C60.1465 22.3535 65.2601 22.7406 66.3803 22.7406C68.5718 22.7406 72.7114 21.3858 72.7114 15.6761C72.6627 11.2245 70.0328 8.85352 66.4777 8.85352ZM66.4289 21.918C63.5069 21.918 63.0686 20.4664 63.0686 15.8696C63.0686 12.289 63.3121 9.57932 66.4289 9.57932C69.7893 9.57932 69.838 12.3858 69.838 15.5793C69.838 20.2729 69.0101 21.918 66.4289 21.918Z" fill="#503629"/>
<path d="M82.8412 9.04688C80.5035 9.04688 79.8217 10.4017 79.1399 11.8049H78.9451C78.9451 11.8049 78.6042 9.82107 78.5068 9.19204H73.9775V9.86946H76.4126V18.9178C76.4613 19.5469 76.3639 20.1759 76.1204 20.7566C75.8769 21.192 75.2925 21.434 74.4159 21.434H74.0262V22.2566H81.5262V21.434H81.1853C80.2113 21.434 79.773 21.2404 79.5295 20.8049C79.286 20.2243 79.1399 19.5469 79.2373 18.9178V14.2243C79.2373 12.6759 80.4548 10.8372 81.8672 10.8372C83.3282 10.8372 83.3282 13.1114 85.0327 12.192C85.9094 11.6598 85.7146 9.04688 82.8412 9.04688Z" fill="#503629"/>
<path d="M112.792 20.8531C111.964 20.8531 111.721 20.4177 111.672 19.6918V12.5306C111.77 11.5628 111.429 10.5467 110.747 9.82088C110.065 9.14346 108.701 8.75636 106.753 8.75636C105.292 8.65959 103.88 8.9983 102.614 9.77249C101.883 10.208 101.445 11.0306 101.445 11.8531C101.396 12.1918 101.542 12.5306 101.786 12.7725C102.029 12.966 102.322 13.0628 102.614 13.0628C103.344 13.0628 103.783 12.6757 103.929 11.708C103.929 11.1273 104.172 10.5951 104.513 10.1596C105 9.72411 105.682 9.48217 106.315 9.57894C107.046 9.48217 107.825 9.77249 108.312 10.3531C108.701 10.9338 108.848 11.5628 108.848 12.2402V14.5144C106.461 14.708 100.763 15.1918 101.007 19.4499C101.201 21.2402 102.76 22.5951 104.562 22.5467C106.266 22.4983 107.873 21.7241 108.945 20.3693C109.188 21.5789 110.26 22.4015 111.477 22.3531C113.231 22.3531 114.302 21.4822 114.399 19.4015H113.961C113.864 20.3693 113.279 20.8531 112.792 20.8531ZM108.848 19.4499C108.848 19.4983 108.848 19.4983 108.848 19.5467V19.5951C108.068 20.466 106.997 20.9983 105.828 21.1435C104.708 21.1918 103.734 20.3209 103.685 19.1596C103.685 19.0628 103.685 18.966 103.685 18.8693C103.685 16.4499 107.046 15.2402 108.896 15.2402L108.848 19.4499Z" fill="#503629"/>
<path d="M128.182 20.7578C127.841 20.1772 127.695 19.4998 127.695 18.8224V12.9191C127.744 12.1449 127.598 11.4191 127.257 10.7417C126.965 10.2095 126.478 9.72559 125.942 9.43526C125.309 9.14494 124.627 8.99978 123.945 8.99978C122.143 8.95139 120.487 9.91913 119.659 11.5159H119.367L118.88 9.14494H114.838V9.82236H116.883V18.8224C116.883 19.3546 116.835 19.8385 116.737 20.3707C116.64 20.7578 116.348 21.0966 115.958 21.1933C115.617 21.3385 115.228 21.3869 114.838 21.3869V22.2095H121.315V21.3869C120.828 21.4353 120.341 21.1933 120 20.8546C119.708 20.274 119.562 19.6449 119.659 19.0159V15.5804C119.513 14.3224 119.708 13.0643 120.146 11.8546C120.682 10.9353 121.705 10.3546 122.776 10.403C123.507 10.3062 124.237 10.6933 124.578 11.3224C124.919 12.2901 125.065 13.3546 125.016 14.3707V18.6288C125.065 19.1611 125.065 19.6933 125.016 20.2256C124.968 20.6127 124.773 20.9514 124.432 21.1449C124.091 21.3385 123.75 21.4353 123.409 21.4353V22.2578H129.692V21.4353C128.913 21.3385 128.426 21.1449 128.182 20.7578Z" fill="#503629"/>
<path d="M98.8149 8.32213C98.3765 8.51568 98.0843 8.90277 98.0356 9.33826C97.9382 9.87052 97.7434 10.1608 97.4512 10.2576C97.159 10.3544 96.8181 10.306 96.5259 10.2092C95.3571 9.1931 93.7986 8.70923 92.2889 8.806C89.6103 8.61245 87.224 10.5963 87.0291 13.2576C87.0291 13.4512 87.0291 13.6447 87.0291 13.8383C87.0291 16.6447 88.1006 17.9028 90.4382 18.435C90.5843 18.435 90.5843 18.6286 90.4382 18.6286C88.4415 18.9673 86.6882 19.5479 86.6882 21.4834C86.6882 22.4028 87.2727 23.2254 88.1493 23.5157C89.4155 23.9512 90.7304 24.1447 92.0454 24.0963C93.0681 24.0963 94.1395 24.1447 95.1623 24.2415C95.7467 24.2899 96.3311 24.4834 96.8668 24.8221C97.3051 25.2092 97.5486 25.7415 97.4999 26.3221C97.4999 27.2415 96.9155 28.0641 96.0876 28.4028C94.9675 28.935 93.7499 29.177 92.5324 29.1286C91.4123 29.2254 90.2434 28.9834 89.2694 28.4028C88.685 27.9673 88.3928 27.2415 88.5876 26.5641C88.7824 26.0318 88.4902 25.4028 87.9058 25.2092H87.7597C87.3214 25.1608 86.883 25.3544 86.6395 25.6931C86.4447 26.0318 86.2986 26.4673 86.3473 26.9028C86.396 28.1608 87.2727 29.177 88.5389 29.4189C89.7077 29.806 90.9252 29.9512 92.1428 29.9512C93.5551 29.9995 94.9675 29.7576 96.2824 29.177C97.8408 28.4995 98.9123 26.9995 98.9123 25.306C98.961 24.4834 98.7175 23.7092 98.2791 23.0318C96.9642 21.2415 95.1136 21.4834 90.9252 21.2899C88.9285 21.2899 88.5389 20.9512 88.5389 20.3705C88.5389 19.4512 89.2694 19.1125 92.1428 18.677C95.0162 18.2415 97.6947 17.177 97.6947 13.7415C97.6947 12.9189 97.5486 12.0479 97.159 11.2737C97.6947 11.4189 98.2791 11.4189 98.8149 11.2737C99.3019 11.1286 99.7402 10.7899 99.9837 10.3544C100.227 10.0157 100.325 9.53181 100.227 9.14471C99.9837 8.4189 99.4967 8.12858 98.8149 8.32213ZM92.3376 17.8544C90.633 17.8544 89.6103 17.2254 89.6103 13.7899C89.6103 11.3705 90.4382 9.58019 92.3376 9.58019C94.4804 9.58019 95.0649 11.2254 95.0649 13.7415C95.0162 17.3221 93.896 17.8544 92.3376 17.8544Z" fill="#503629"/>
</svg>
