<svg width="131" height="30" viewBox="0 0 131 30" fill="none" xmlns="http://www.w3.org/2000/svg">
<path d="M58.9858 18.3094V14.21C58.9858 12.666 58.004 11.6275 56.4222 11.6138C55.9716 11.5844 55.5213 11.6767 55.1184 11.8809C54.7154 12.0852 54.3745 12.3941 54.1313 12.7753C53.9096 12.4055 53.5924 12.1024 53.2132 11.8979C52.834 11.6935 52.4069 11.5954 51.9767 11.6138C51.6017 11.5949 51.2283 11.6745 50.8935 11.8447C50.5587 12.0149 50.274 12.2697 50.0677 12.584V11.7778H48.6494V18.3094H50.0812V14.6882C50.0812 13.5541 50.7086 12.953 51.6767 12.953C52.6176 12.953 53.0949 13.5678 53.0949 14.6747V18.3094H54.5267V14.6882C54.5267 13.5541 55.1813 12.953 56.1222 12.953C57.0903 12.953 57.554 13.5678 57.554 14.6747V18.3094H58.9858ZM80.1767 11.7778H77.8585V9.79652H76.4268V11.7778H75.104V13.0759H76.4268V16.0547C76.4268 17.5715 77.0131 18.4734 78.6903 18.4734C79.3169 18.4752 79.9313 18.3 80.463 17.9678L80.054 16.7516C79.6737 16.9789 79.242 17.1059 78.7994 17.1206C78.0903 17.1206 77.8585 16.6832 77.8585 16.0275V13.0759H80.1767V11.7778ZM92.2722 11.6138C91.9264 11.6036 91.5843 11.6871 91.2819 11.8554C90.9795 12.0238 90.7281 12.2707 90.5541 12.5703V11.7778H89.1495V18.3094H90.5676V14.6473C90.5676 13.5678 91.0313 12.9666 91.9586 12.9666C92.262 12.9624 92.5632 13.0181 92.845 13.1306L93.2813 11.7915C92.9575 11.6753 92.6162 11.6152 92.2722 11.6138V11.6138ZM73.9858 12.2971C73.1831 11.8188 72.2601 11.5816 71.3267 11.6138C69.6767 11.6138 68.6131 12.4063 68.6131 13.7044C68.6131 14.7703 69.404 15.4262 70.863 15.6312L71.5313 15.7268C72.3085 15.836 72.6767 16.041 72.6767 16.41C72.6767 16.9156 72.1585 17.2025 71.1903 17.2025C70.4116 17.225 69.6479 16.9843 69.0221 16.5193L68.354 17.626C69.18 18.2042 70.1695 18.5013 71.1767 18.4734C73.0585 18.4734 74.1494 17.5851 74.1494 16.3417C74.1494 15.1938 73.2904 14.5926 71.8721 14.3876L71.204 14.292C70.5903 14.21 70.0995 14.0871 70.0995 13.6499C70.0995 13.1716 70.563 12.8846 71.3404 12.8846C72.0541 12.8954 72.7534 13.0882 73.3722 13.4449L73.9858 12.2971ZM111.977 11.6138C111.631 11.6036 111.289 11.6871 110.987 11.8554C110.684 12.0237 110.433 12.2707 110.259 12.5703V11.7778H108.854V18.3094H110.272V14.6473C110.272 13.5678 110.736 12.9666 111.663 12.9666C111.966 12.9624 112.268 13.0181 112.55 13.1306L112.986 11.7915C112.662 11.6753 112.321 11.6152 111.977 11.6138V11.6138ZM93.704 15.0435C93.704 17.0249 95.0813 18.4734 97.1814 18.4734C98.0328 18.5162 98.8694 18.2383 99.5267 17.6944L98.845 16.5466C98.3546 16.9211 97.7568 17.1272 97.1404 17.1341C96.0086 17.1206 95.1768 16.3007 95.1768 15.0435C95.1768 13.7865 96.0086 12.9666 97.1404 12.953C97.7568 12.96 98.3546 13.166 98.845 13.5405L99.5267 12.3927C98.8694 11.8488 98.0328 11.571 97.1814 11.6138C95.0813 11.6138 93.704 13.0622 93.704 15.0435ZM106.986 15.0435V11.7778H105.568V12.5703C105.326 12.2577 105.012 12.0078 104.654 11.8414C104.296 11.675 103.903 11.5969 103.509 11.6138C101.681 11.6138 100.25 13.0487 100.25 15.0435C100.25 17.0385 101.681 18.4734 103.509 18.4734C103.903 18.4903 104.296 18.4122 104.654 18.2458C105.012 18.0794 105.326 17.8294 105.568 17.5168V18.3094H106.986V15.0435ZM101.709 15.0435C101.709 13.8957 102.459 12.953 103.686 12.953C104.859 12.953 105.649 13.8547 105.649 15.0435C105.649 16.2323 104.859 17.1341 103.686 17.1341C102.459 17.1341 101.709 16.1913 101.709 15.0435ZM84.595 11.6138C82.6858 11.6138 81.3495 13.0076 81.3495 15.0435C81.3495 17.1206 82.7404 18.4734 84.6904 18.4734C85.6633 18.5076 86.6147 18.1817 87.3632 17.5578L86.6677 16.5056C86.1291 16.9381 85.4622 17.1785 84.7722 17.1888C83.8585 17.1888 83.0267 16.7653 82.8222 15.5901H87.6631C87.6768 15.4125 87.6904 15.2349 87.6904 15.0435C87.6768 13.0076 86.4222 11.6138 84.595 11.6138ZM84.5676 12.8846C85.4813 12.8846 86.0677 13.4585 86.2177 14.4697H82.8358C82.9858 13.5268 83.5585 12.8846 84.5676 12.8846ZM120.145 15.0435V9.1543H118.727V12.5703C118.485 12.2577 118.171 12.0078 117.813 11.8414C117.455 11.675 117.062 11.5969 116.668 11.6138C114.84 11.6138 113.409 13.0487 113.409 15.0435C113.409 17.0385 114.84 18.4734 116.668 18.4734C117.062 18.4902 117.455 18.4122 117.813 18.2458C118.171 18.0794 118.485 17.8294 118.727 17.5168V18.3094H120.145V15.0435ZM121.802 17.7066C121.859 17.7063 121.914 17.7173 121.966 17.7391C122.016 17.76 122.061 17.7902 122.1 17.828C122.138 17.8658 122.169 17.9107 122.19 17.9601C122.212 18.0109 122.223 18.0656 122.223 18.1209C122.223 18.1762 122.212 18.2309 122.19 18.2817C122.169 18.3309 122.138 18.3755 122.1 18.4132C122.061 18.4511 122.016 18.4814 121.966 18.5026C121.914 18.5248 121.859 18.5361 121.802 18.5357C121.72 18.5365 121.638 18.5129 121.569 18.4677C121.499 18.4225 121.445 18.3578 121.412 18.2817C121.39 18.2309 121.379 18.1762 121.379 18.1209C121.379 18.0656 121.39 18.0109 121.412 17.9601C121.454 17.8598 121.535 17.7804 121.636 17.7391C121.689 17.7172 121.745 17.7062 121.802 17.7066V17.7066ZM121.802 18.4442C121.845 18.4445 121.888 18.4359 121.927 18.4188C121.965 18.4024 121.999 18.3789 122.028 18.3497C122.089 18.2889 122.122 18.2067 122.122 18.1211C122.122 18.0355 122.089 17.9533 122.028 17.8925C121.999 17.8634 121.965 17.8401 121.927 17.824C121.888 17.8072 121.845 17.7987 121.802 17.7991C121.759 17.7987 121.715 17.8072 121.675 17.824C121.627 17.8447 121.584 17.877 121.551 17.918C121.518 17.9591 121.495 18.0077 121.485 18.0595C121.475 18.1114 121.477 18.1649 121.492 18.2155C121.508 18.2661 121.535 18.3122 121.572 18.3497C121.602 18.3792 121.637 18.4026 121.675 18.4188C121.715 18.4359 121.759 18.4445 121.802 18.4442V18.4442ZM121.827 17.9271C121.867 17.9244 121.908 17.9361 121.941 17.9601C121.954 17.971 121.965 17.9847 121.971 18.0003C121.978 18.0159 121.982 18.0329 121.981 18.05C121.981 18.0646 121.979 18.0792 121.973 18.0927C121.968 18.1063 121.959 18.1186 121.949 18.1287C121.924 18.1511 121.892 18.1645 121.858 18.1668L121.984 18.3121H121.886L121.769 18.1678H121.731V18.3121H121.649V17.9271H121.827ZM121.731 17.9992V18.1018H121.826C121.844 18.1028 121.862 18.0983 121.877 18.0891C121.884 18.0849 121.889 18.079 121.892 18.0721C121.896 18.0653 121.897 18.0576 121.897 18.05C121.897 18.0425 121.896 18.0351 121.892 18.0284C121.889 18.0217 121.884 18.016 121.877 18.0119C121.862 18.0027 121.844 17.9983 121.826 17.9992H121.731ZM114.868 15.0435C114.868 13.8957 115.618 12.953 116.845 12.953C118.018 12.953 118.809 13.8547 118.809 15.0435C118.809 16.2323 118.018 17.1341 116.845 17.1341C115.618 17.1341 114.868 16.1913 114.868 15.0435ZM66.9767 15.0435V11.7778H65.5585V12.5703C65.3164 12.2577 65.0032 12.0078 64.6449 11.8414C64.2867 11.675 63.8939 11.5969 63.4994 11.6138C61.6721 11.6138 60.2404 13.0487 60.2404 15.0435C60.2404 17.0385 61.6721 18.4734 63.4994 18.4734C63.8939 18.4903 64.2867 18.4122 64.6449 18.2458C65.0032 18.0794 65.3164 17.8294 65.5585 17.5168V18.3094H66.9767V15.0435ZM61.6995 15.0435C61.6995 13.8957 62.4495 12.953 63.6767 12.953C64.8494 12.953 65.6403 13.8547 65.6403 15.0435C65.6403 16.2323 64.8494 17.1341 63.6767 17.1341C62.4495 17.1341 61.6995 16.1913 61.6995 15.0435V15.0435Z" fill="white"/>
<path d="M30.5555 7.2793H21.9795V22.7222H30.5555V7.2793Z" fill="#FF5F00"/>
<path d="M22.5237 15.0009C22.5224 13.5137 22.8587 12.0456 23.5073 10.7078C24.1558 9.37007 25.0996 8.19771 26.2672 7.27948C24.8213 6.14066 23.0849 5.43244 21.2563 5.23578C19.4278 5.03912 17.5809 5.36193 15.9267 6.16735C14.2726 6.97276 12.878 8.22827 11.9023 9.79036C10.9266 11.3525 10.4092 13.1581 10.4092 15.0009C10.4092 16.8438 10.9266 18.6494 11.9023 20.2115C12.878 21.7736 14.2726 23.0291 15.9267 23.8345C17.5809 24.64 19.4278 24.9628 21.2563 24.7661C23.0849 24.5694 24.8213 23.8612 26.2672 22.7224C25.0996 21.8042 24.1559 20.6318 23.5073 19.294C22.8587 17.9563 22.5224 16.4882 22.5237 15.0009V15.0009Z" fill="#EB001B"/>
<path d="M42.1251 15.0009C42.1252 16.8438 41.6078 18.6494 40.6322 20.2115C39.6565 21.7736 38.262 23.0291 36.6079 23.8345C34.9538 24.64 33.1069 24.9628 31.2784 24.7661C29.4498 24.5695 27.7134 23.8612 26.2676 22.7224C27.4341 21.8033 28.3772 20.6307 29.0256 19.2932C29.6741 17.9556 30.011 16.488 30.011 15.0009C30.011 13.5139 29.6741 12.0463 29.0256 10.7087C28.3772 9.3712 27.4341 8.19864 26.2676 7.27948C27.7134 6.14066 29.4498 5.43244 31.2784 5.23578C33.1069 5.03912 34.9538 5.36195 36.6079 6.16737C38.262 6.97279 39.6565 8.22831 40.6322 9.7904C41.6078 11.3525 42.1252 13.1581 42.1251 15.0009V15.0009Z" fill="#F79E1B"/>
<path d="M41.19 21.0863V20.7701H41.3172V20.7057H40.9932V20.7701H41.1204V21.0863H41.19ZM41.819 21.0863V20.7051H41.7197L41.6054 20.9673L41.4912 20.7051H41.3918V21.0863H41.4619V20.7987L41.5691 21.0466H41.6418L41.7489 20.7981V21.0863H41.819Z" fill="#F79E1B"/>
</svg>
