<svg width="97" height="30" viewBox="0 0 97 30" fill="none" xmlns="http://www.w3.org/2000/svg">
<g clip-path="url(#clip0_2376_231642)">
<path d="M12.3399 10.7045V13.9091H20.0734C19.8681 15.6818 19.2522 17.0455 18.294 17.9318C17.199 19.0227 15.4196 20.25 12.3399 20.25C7.6177 20.25 3.92205 16.4318 3.92205 11.7273C3.92205 7.02273 7.54927 3.20455 12.3399 3.20455C14.8721 3.20455 16.7884 4.22727 18.1571 5.52273L20.4156 3.27273C18.4993 1.43182 15.8987 0 12.3399 0C5.83832 0 0.363281 5.25 0.363281 11.7273C0.363281 18.2045 5.83832 23.4545 12.3399 23.4545C15.8303 23.4545 18.4993 22.2955 20.5525 20.1818C22.6741 18.0682 23.3584 15.0682 23.3584 12.6818C23.3584 11.9318 23.29 11.25 23.2216 10.7045H12.3399V10.7045Z" fill="#4285F4"/>
<path d="M32.9395 8.04492C28.7647 8.04492 25.2744 11.2495 25.2744 15.6131C25.2744 19.9767 28.6963 23.1813 32.9395 23.1813C37.1826 23.1813 40.6045 20.0449 40.6045 15.6813C40.6045 11.2495 37.1826 8.04492 32.9395 8.04492ZM32.9395 20.2495C30.6126 20.2495 28.6279 18.3404 28.6279 15.6813C28.6279 12.954 30.6126 11.1131 32.9395 11.1131C35.2664 11.1131 37.2511 12.954 37.2511 15.6813C37.2511 18.3404 35.2664 20.2495 32.9395 20.2495Z" fill="#EA4335"/>
<path d="M70.3753 9.74947H70.2384C69.4856 8.8631 68.0484 8.04492 66.2006 8.04492C62.368 8.04492 59.083 11.3176 59.083 15.6131C59.083 19.8404 62.368 23.1813 66.2006 23.1813C68.0484 23.1813 69.4856 22.3631 70.2384 21.4767H70.3753V22.5676C70.3753 25.4313 68.8012 26.9995 66.3374 26.9995C64.2843 26.9995 63.0524 25.5676 62.5049 24.2722L59.6305 25.4995C60.4518 27.4767 62.7102 29.9995 66.4059 29.9995C70.3068 29.9995 73.6603 27.6813 73.6603 22.0904V8.45401H70.5121V9.74947H70.3753ZM66.5427 20.2495C64.2158 20.2495 62.5049 18.2722 62.5049 15.6813C62.5049 13.0222 64.2843 11.1131 66.5427 11.1131C68.8012 11.1131 70.5806 13.0904 70.5806 15.7495C70.649 18.3404 68.8696 20.2495 66.5427 20.2495Z" fill="#4285F4"/>
<path d="M49.9805 8.04492C45.8058 8.04492 42.3154 11.2495 42.3154 15.6131C42.3154 19.9767 45.7373 23.1813 49.9805 23.1813C54.2236 23.1813 57.6455 20.0449 57.6455 15.6813C57.6455 11.2495 54.2236 8.04492 49.9805 8.04492ZM49.9805 20.2495C47.6536 20.2495 45.6689 18.3404 45.6689 15.6813C45.6689 12.954 47.6536 11.1131 49.9805 11.1131C52.3074 11.1131 54.2921 12.954 54.2921 15.6813C54.2921 18.3404 52.3074 20.2495 49.9805 20.2495Z" fill="#FBBC05"/>
<path d="M76.1924 0.341797H79.4774V23.2509H76.1924V0.341797Z" fill="#34A853"/>
<path d="M89.6063 20.2495C87.8953 20.2495 86.7319 19.4995 85.9106 17.9313L96.1079 13.7722L95.7657 12.8858C95.1498 11.1813 93.1651 8.04492 89.2641 8.04492C85.3631 8.04492 82.0781 11.1131 82.0781 15.6131C82.0781 19.8404 85.2947 23.1813 89.6063 23.1813C93.0966 23.1813 95.0813 21.0676 95.971 19.8404L93.3704 18.1358C92.4807 19.4313 91.3172 20.2495 89.6063 20.2495ZM89.401 10.9086C90.7697 10.9086 91.9332 11.5904 92.2754 12.5449L85.4316 15.4086C85.3631 12.2722 87.69 10.9086 89.401 10.9086Z" fill="#EA4335"/>
</g>
<defs>
<clipPath id="clip0_2376_231642">
<rect width="95.7447" height="30" fill="white" transform="translate(0.363281)"/>
</clipPath>
</defs>
</svg>
