<svg width="1304" height="326" viewBox="0 0 1304 326" fill="none" xmlns="http://www.w3.org/2000/svg">
<g opacity="0.1">
<path d="M594.345 316.677C593.637 314.649 593.12 312.56 592.803 310.436C592.774 309.347 592.652 308.264 592.438 307.196C592.284 306.411 591.035 304.587 590.713 303.718C590.39 302.848 591.821 301.782 590.236 301.895C590.236 301.895 588.834 294.587 589.128 293.241C589.423 291.895 589.535 291.839 589.451 291.221C589.366 290.604 588.974 290.324 588.862 289.959C588.749 289.595 589.324 278.627 589.451 276.734C589.577 274.84 589.451 263.887 590.082 261.755C590.713 259.623 590.432 254.448 589.493 250.142C588.553 245.836 582.48 230.9 581.274 227.155C581.274 227.155 580.054 215.107 580.082 212.653C580.11 210.199 578.679 188.151 579.212 186.188C579.765 185.029 580.166 183.803 580.404 182.541C580.755 180.578 582.256 174.126 582.494 172.724C582.733 171.321 583.714 163.916 583.714 163.916C583.714 163.916 585.888 164.112 586.407 163.565C586.926 163.018 586.407 161.7 586.519 160.999C586.632 160.297 585.93 155.739 586.169 153.257C586.407 150.774 586.169 131.644 586.253 129.989C586.253 129.989 585.061 108.573 586.014 102.724C586.968 96.876 587.417 80.2844 584.43 73.2718C581.144 66.3498 576.768 59.9999 571.47 54.4643C568.469 51.7855 569.268 51.7855 568.469 51.7855C567.449 51.7969 566.434 51.6357 565.468 51.3086C564.602 50.7865 563.865 50.0747 563.314 49.2269C562.762 48.3791 562.41 47.4173 562.284 46.4138C561.751 42.8655 560.881 41.8557 561.891 40.2148C562.293 39.3877 562.762 38.595 563.294 37.8445C564.452 36.2282 565.15 34.3282 565.313 32.3467C565.589 30.6512 565.776 28.9425 565.874 27.2276C565.874 25.5165 565.973 25.4604 565.874 24.4225C565.783 23.7448 565.642 23.0745 565.454 22.417C565.342 21.6316 565.454 20.2571 565.215 19.0088C565.069 18.1536 564.77 17.3317 564.332 16.5825C563.939 15.7551 562.172 13.1043 561.709 12.2768C561.246 11.4493 560.755 10.8743 560.166 9.85047C559.577 8.82664 555.117 6.24603 554.29 5.82528C553.462 5.40453 553.013 4.84355 552.228 4.84355C551.612 4.7358 550.985 4.71218 550.363 4.7734C549.535 4.9417 548.133 4.84355 547.712 4.96977C547.133 5.07 546.561 5.21057 546.001 5.39051C545.331 5.55801 544.652 5.6891 543.967 5.78321C543.629 5.90645 543.275 5.97738 542.915 5.99358C541.864 6.0052 540.818 6.14655 539.802 6.41435C539.034 6.66103 538.32 7.05131 537.698 7.56442C537.053 8.08335 535.833 8.71447 535.174 9.35963C534.514 10.0048 533.645 10.3133 533.014 11.0707C532.383 11.828 531.962 11.7579 531.611 12.4732C531.261 13.1885 531.443 12.4732 530.882 13.4549C530.198 14.641 529.235 15.6424 528.077 16.3722C527.39 16.5685 527.165 16.8911 527.39 16.9332C527.614 16.9752 528.273 17.0313 528.371 17.6204C528.49 18.3119 528.49 19.0185 528.371 19.7101C528.245 20.3693 527.923 20.1168 528.077 20.762C528.139 21.0866 528.252 21.3992 528.413 21.6876C528.54 21.9822 527.923 28.7002 527.923 29.5276C527.923 29.6258 529.451 31.2948 528.54 32.7675H528.399C527.087 34.5551 525.897 36.4294 524.837 38.3775C524.599 39.3172 524.837 40.3971 525.959 40.3971C526.817 40.3061 527.682 40.3061 528.54 40.3971C528.96 40.5794 528.932 40.7197 528.932 41.0703C528.932 41.4209 528.582 42.0801 528.75 42.2484C528.918 42.4167 529.521 41.9819 530.153 42.4588C530.784 42.9356 531.134 43.4826 530.573 43.9595C530.012 44.4363 529.563 45.362 529.802 45.7126C530.04 46.0632 530.545 46.0913 530.686 46.5541C530.819 47.2026 530.78 47.8746 530.573 48.5036C530.363 49.1628 530.335 50.8037 531.092 51.3086C532.719 51.6987 534.408 51.7559 536.057 51.4769C537.366 51.3388 538.685 51.3153 539.998 51.4068C540.251 51.4769 540.798 52.8093 541.569 53.3703C542.599 53.9573 543.543 54.6842 544.374 55.5301C545.076 56.472 545.555 57.5604 545.777 58.7139C546.015 60.1164 546.436 61.5189 546.394 61.603C546.352 61.6872 544.991 62.8652 544.753 63.4964C544.514 64.1275 544.234 67.4655 544.023 68.1667C544.023 68.1667 540.77 78.6715 539.185 84.2815C537.55 90.2919 536.387 96.4208 535.707 102.612C535.23 107.591 534.683 115.964 534.683 115.964L529.942 116.441C529.471 115.786 528.881 115.224 528.203 114.786C527.011 113.987 525.033 113.384 525.033 112.879C525.054 112.217 524.894 111.563 524.571 110.985C524.248 110.677 523.533 109.877 523.168 110.046C522.803 110.214 522.467 110.508 521.906 110.438C521.345 110.368 519.774 107.633 518.666 106.567C517.395 105.488 515.824 104.823 514.164 104.66C514.164 104.66 514.164 103.257 513.645 103.131C513.019 103.032 512.378 103.172 511.85 103.524C511.85 103.524 512.902 102.276 513.252 101.869C513.603 101.462 514.529 100.551 514.122 99.9616C513.715 99.3725 513.575 99.3585 513.056 99.4707C512.171 99.9081 511.338 100.444 510.574 101.07C510.083 101.42 509.648 101.925 509.564 101.925C509.48 101.925 509.017 101.757 509.269 101.364C509.729 100.772 510.23 100.214 510.77 99.6951C511.064 99.4146 512.397 98.517 512.172 97.9139C511.948 97.3108 511.261 96.5114 510.686 96.7779C510.168 96.9639 509.691 97.2498 509.283 97.6194C508.764 98.0822 508.554 98.2645 508.358 98.2645C508.161 98.2645 508.189 98.1664 508.133 97.9279C508.077 97.6895 507.712 97.1565 507.488 97.1145C507.264 97.0724 506.829 96.9602 506.647 97.1145C506.464 97.2687 505.314 98.1523 504.851 98.517C504.438 98.8136 504.049 99.1418 503.687 99.4987C503.687 99.4987 500.728 101.49 501.163 103.706C501.127 103.977 501.156 104.253 501.246 104.511C501.336 104.769 501.485 105.003 501.682 105.193C502.341 105.824 502.145 105.978 502.341 106.89C502.537 107.802 502.229 108.433 502.705 108.98C503.114 109.355 503.402 109.843 503.533 110.382C503.813 111.21 504.08 111.14 504.487 111.532C504.893 111.925 504.753 112.935 505.272 113.58C505.438 113.853 505.67 114.08 505.947 114.24C506.224 114.399 506.537 114.486 506.857 114.492C508.012 114.548 509.153 114.76 510.251 115.123C510.948 115.552 511.726 115.834 512.537 115.95L514.038 116.273C514.038 116.273 513.294 117.142 514.599 118.559C514.599 118.559 515.034 118.994 514.08 120.144C513.126 121.294 514.515 121.883 514.949 122.402C515.384 122.921 515.903 122.794 515.931 123.426C515.959 124.057 515.819 124.926 516.057 125.235C516.296 125.543 518.147 126.82 518.862 127.339C519.578 127.857 519.451 128.404 520.125 128.362C520.798 128.32 522.93 128.839 523.364 128.797C523.799 128.755 527.39 127.296 528.105 127.016C528.534 126.779 529.017 126.658 529.507 126.665C529.83 126.735 530.265 127.731 530.91 128.068C531.649 128.517 532.303 129.091 532.845 129.765C532.845 129.933 530.784 149.484 530.349 151.265C529.914 153.046 528.385 161.293 528.498 162.008C528.61 162.724 528.61 163.271 531.022 164.379C533.434 165.487 534.5 165.599 534.627 165.781C534.753 165.964 534.627 166.132 534.458 166.567C534.206 168.001 534.126 169.461 534.22 170.914C534.304 173.046 534.893 177.31 535.019 179.638C535.179 181.729 535.203 183.828 535.089 185.921C534.935 187.324 535.37 192.317 535.286 195.444C535.202 198.572 535.847 208.249 535.763 211.25C535.678 214.252 536.197 231.278 536.197 231.545C536.197 231.811 546.113 231.391 546.113 231.391C546.113 231.391 546.281 235.303 547.347 236.93C548.413 238.557 550.419 239.89 550.741 240.829C551.643 243.975 552.369 247.168 552.915 250.394C553.182 252.849 553.939 258.81 554.023 261.096C554.107 263.382 556.071 273.269 556.309 276.032C556.548 278.795 557.964 285.275 556.983 290.184L556.744 290.689C556.744 290.689 556.155 290.689 556.155 290.969C556.155 291.25 555.524 297.883 554.921 298.122C554.318 298.36 553.392 297.561 553.027 297.491C552.663 297.421 552.326 297.294 552.2 297.687C552.074 298.08 549.914 300.562 549.746 300.366C549.456 300.067 549.219 299.72 549.044 299.342C549.044 299.061 548.61 299.622 548.652 298.823C548.694 298.024 548.848 296.579 548.371 296.341C547.894 296.102 547.459 295.387 547.502 296.06C547.544 296.733 547.894 296.341 547.852 297.463C547.911 298.194 547.815 298.93 547.572 299.622C547.221 300.927 547.347 301.334 546.87 301.726C546.094 302.224 545.273 302.647 544.416 302.989C543.014 303.704 542.396 303.423 542.326 304.054C542.256 304.685 541.653 304.728 542.004 305.597C542.169 306.021 542.37 306.429 542.607 306.817C540.479 307.97 538.243 308.91 535.931 309.622C533.331 310.128 530.704 310.484 528.063 310.688C527.252 311.006 526.544 311.539 526.015 312.231C525.412 312.988 524.304 313.339 524.5 314.685C524.697 316.032 524.977 316.929 525.777 317.364C526.576 317.799 530.237 320.015 533.238 320.015C536.239 320.015 555.285 320.295 555.398 320.295L594.233 320.772C594.677 319.449 594.716 318.023 594.345 316.677V316.677ZM576.113 290.282C575.913 290.279 575.717 290.337 575.552 290.45C575.383 290.618 575.832 292.638 575.552 293.143C575.271 293.648 574.654 293.367 574.598 293.704C574.542 294.04 574.935 295.457 574.598 295.738C573.851 296.21 573.168 296.775 572.564 297.421C572.112 298.529 571.774 299.68 571.555 300.857L571.218 297.477L570.937 292.133L570.545 291.348C570.538 284.609 571.291 277.89 572.789 271.32C574.267 273.382 575.164 275.804 575.383 278.332C575.706 282.4 576.548 288.024 576.113 290.282Z" fill="white"/>
<path d="M61.5875 30.182C62.9329 27.1922 63.1871 21.6311 48.7313 19.329C34.2755 17.0268 32.2872 26.1009 28.8638 32.0806C25.4405 38.0602 24.8425 39.5551 23.8409 43.4569C23.2314 46.5055 22.1628 49.4441 20.6717 52.1722C20.6717 52.1722 22.047 50.0793 22.4058 50.2288C22.7646 50.3782 22.3311 55.2666 19.6702 59.1982C17.0092 63.1298 12.6142 65.7459 10.7007 64.8041C9.97237 64.5764 9.30696 64.1824 8.75723 63.6531C9.06303 64.3922 9.58385 65.0224 10.2521 65.4619C11.1939 65.9552 8.45828 66.1048 7.66598 64.5202C7.7604 65.0255 8.02897 65.4818 8.42502 65.8095C8.82107 66.1373 9.31954 66.3158 9.83362 66.314C7.37037 67.0025 5.11911 68.2977 3.2859 70.0812C3.2859 70.0812 8.03971 66.4187 10.8501 66.628C10.8501 66.628 7.60622 68.9301 6.96341 70.455C6.96341 70.455 3.15139 70.455 1.2678 68.2126C1.83242 69.0875 2.59751 69.8152 3.49968 70.3352C4.40184 70.8551 5.41501 71.1524 6.4551 71.2024L5.88703 72.1292C5.88703 72.1292 3.07665 72.8468 1.64153 71.9199C3.07422 72.691 4.67872 73.087 6.30565 73.0711C5.0114 76.7803 4.26116 80.6575 4.07824 84.5819C4.15538 85.5871 4.30018 86.586 4.51174 87.5717C4.79577 88.6481 4.00348 90.7259 4.15297 91.7425C4.52792 93.371 4.57868 95.0574 4.30243 96.7056C3.82073 99.4426 3.53098 102.21 3.43535 104.987C3.43535 107.648 3.15135 110.877 3.00186 113.957C2.85237 117.036 2.4936 127.411 2.35906 129.653C2.22452 131.896 1.70129 140.521 1.70129 142.465C1.70129 144.408 1.62654 153.976 1.41726 154.843C1.20797 155.71 0.69971 155.635 0.774456 156.562C0.849202 157.489 0.340964 164.201 0.340964 166.354C0.340964 168.506 -0.242088 170.524 0.116691 171.107C1.14343 171.962 2.2555 172.708 3.43535 173.335C3.2439 174.696 3.16894 176.072 3.21117 177.446C4.17993 178.194 5.38185 178.575 6.60456 178.522L9.59438 178.731C9.59438 178.731 9.37014 179.882 9.59438 180.226C10.7781 180.811 12.002 181.311 13.2569 181.721C14.7518 182.289 16.2468 181.931 16.2468 182.14C16.2468 182.349 17.6071 185.967 17.7417 186.819C17.8762 187.671 16.7999 187.252 17.1587 188.119C17.5175 188.987 17.951 189.271 18.1603 189.779C18.3696 190.287 18.8928 195.25 19.3861 198.046C19.8794 200.841 20.1784 203.592 20.1784 204.025C20.1784 204.459 19.2516 204.818 19.4609 206.043C19.6701 207.269 20.6867 208.779 20.4774 209.93C20.0939 211.087 19.7795 212.265 19.5356 213.458C19.4755 214.975 19.6726 216.492 20.1186 217.943C20.4774 218.66 20.6867 218.66 20.3279 219.094C19.6175 220.451 19.0368 221.873 18.5938 223.34C18.5938 223.564 17.3082 224.132 17.3829 225.148C17.5249 226.27 17.5249 227.405 17.3829 228.527C17.2473 228.505 17.1086 228.513 16.9765 228.551C16.8444 228.588 16.722 228.654 16.618 228.744C16.514 228.834 16.431 228.945 16.3746 229.07C16.3182 229.195 16.2899 229.331 16.2916 229.469C16.2916 230.396 16.6504 231.113 15.9329 232.204C15.3252 233.083 15.0017 234.126 15.006 235.194C14.8566 236.495 14.8565 240.382 14.8565 242.669C14.7995 245.007 14.9698 247.345 15.3648 249.65C15.7983 251.593 15.9328 253.178 16.2318 255.121C16.5308 257.065 16.9494 261.37 16.9494 262.955C16.9494 264.539 18.4443 282.03 18.4443 284.332C18.7173 286.431 19.1725 288.501 19.8047 290.521C20.0289 291.747 20.313 292.464 19.9542 292.689C19.5954 292.913 19.0871 292.464 19.2366 293.331C19.3861 294.198 20.0289 294.124 20.0289 294.916C19.9103 296.064 19.9103 297.221 20.0289 298.369C20.2382 300.238 21.3893 302.181 21.3145 302.854C21.2398 303.527 21.1053 302.719 20.9558 304.02C20.7185 305.016 20.7968 306.061 21.1799 307.01C21.6135 307.578 21.748 307.443 21.6733 308.236C21.5985 309.028 22.0471 311.749 22.1069 312.72C22.1667 313.692 22.6151 314.305 23.2579 314.44C23.9007 314.574 24.125 314.873 24.125 315.606C24.125 316.338 24.992 319.193 26.1431 319.193H39.8066C40.476 318.319 41.0334 317.365 41.4659 316.353C41.7041 315.725 41.8502 315.065 41.8995 314.395C41.8654 313.393 41.7706 312.395 41.6155 311.405C41.466 310.613 41.1819 310.134 41.3314 309.551C41.3529 308.842 41.2774 308.133 41.1071 307.443C40.6221 306.275 40.0211 305.158 39.3132 304.11C38.8797 303.243 38.2369 298.13 37.7286 296.829C37.4252 296.002 37.2782 295.125 37.2951 294.243C37.2204 293.66 36.3533 290.641 36.144 289.848C35.898 289.231 35.8459 288.553 35.9946 287.905C36.1839 287.01 36.0845 286.078 35.7105 285.244C35.3518 284.736 35.5012 284.452 35.7105 283.51C36.2877 281.133 36.5292 278.688 36.4281 276.244C36.2188 273.255 35.277 268.187 35.2172 266.812C34.8697 264.939 34.7443 263.033 34.8435 261.131C35.2172 259.546 35.576 259.262 35.7853 258.141C36.1291 255.803 36.3437 253.447 36.4281 251.085C36.416 248.244 36.6108 245.407 37.0111 242.594C37.2085 241.31 37.473 240.038 37.8034 238.782C38.1961 237.594 38.4127 236.355 38.4463 235.105C38.3715 234.671 37.654 233.879 38.0875 233.52C38.6248 233.178 39.0711 232.712 39.3881 232.16C39.5802 231.253 39.8451 230.363 40.1803 229.499C40.7484 228.333 40.6737 227.69 41.3314 226.972C41.9892 226.255 42.617 219.991 43.0505 218.481C43.484 216.971 44.8594 211.216 45.4275 209.198C45.9955 207.18 47.0121 201.723 47.6549 199.914C48.2977 198.105 48.8807 194.727 49.2395 194.727C49.5983 194.727 49.4637 195.445 49.5982 196.596C49.7328 197.747 50.9736 201.349 51.2577 202.934C51.5417 204.519 51.9154 209.048 52.334 211.575C52.7525 214.101 53.8289 221.471 53.8289 221.934C54.1823 223.719 54.7338 225.459 55.4732 227.122C55.6975 227.914 54.5464 228.333 54.8304 229.065C55.1145 229.798 55.5481 230.56 55.8321 231.218C56.1161 231.875 57.1326 231.651 56.1908 232.802C55.2491 233.953 54.9799 233.669 55.1145 234.387C55.249 235.105 55.8321 235.463 55.8321 236.256C55.8321 237.048 55.0397 241.727 55.1892 243.446C55.3387 245.165 56.4898 252.416 56.6841 253.462C56.8031 254.635 56.8031 255.817 56.6841 256.99C56.6841 258.485 56.8935 264.106 56.7589 266.333C56.6244 268.561 56.7588 276.917 56.6841 279.294C56.6094 281.671 57.2522 283.181 56.7589 284.481C56.2212 285.404 55.8564 286.417 55.6825 287.471C55.582 288.887 55.6272 290.31 55.8171 291.717C56.0309 294.183 56.3903 296.634 56.8934 299.057C57.2522 300.133 58.194 302.734 58.3883 303.452C58.5 304.144 58.6906 304.821 58.9564 305.47C59.2404 306.113 62.0509 308.131 62.2752 308.983C62.5282 309.81 62.7182 310.654 62.8432 311.509C62.8432 312.377 62.7086 312.87 62.9927 313.528C63.2933 313.997 63.3954 314.567 63.2767 315.112C63.2767 316.114 63.1272 317.34 63.4262 317.34L64.9211 317.265C64.9211 317.265 65.4294 316.039 65.7882 316.039C66.1469 316.039 71.5436 314.679 71.7678 314.813C72.2841 315.186 72.7254 315.652 73.0685 316.189C73.2321 316.452 73.4501 316.678 73.7079 316.851C73.9657 317.023 74.2573 317.139 74.5634 317.19C75.1314 317.19 82.6209 317.414 83.5328 317.624C85.1449 317.65 86.7561 317.53 88.3464 317.265C89.363 317.265 90.4393 315.606 90.7981 315.321C91.0386 315.164 91.255 314.973 91.4408 314.753C91.4408 314.604 90.8727 313.961 90.6485 313.259C90.4242 312.556 90.9326 312.541 90.3645 312.107C89.7964 311.674 85.9695 309.671 85.3267 309.312C84.6839 308.953 84.1755 307.653 83.5925 307.294C83.0095 306.935 83.0993 307.07 82.9498 306.352C82.8003 305.634 81.724 305.56 81.2905 304.857C80.921 303.769 80.7291 302.628 80.7224 301.479C80.3692 299.991 79.935 298.524 79.4218 297.084C79.2873 296.441 78.9883 294.632 78.8538 293.78C78.7192 292.928 78.9882 292.629 78.4202 291.896C77.8521 291.164 77.4037 290.82 77.3439 289.953C77.2841 289.086 76.1779 287.651 76.6114 286.963C77.0449 286.275 77.9118 286.171 78.3454 285.094C78.933 282.664 78.8085 280.116 77.9866 277.754C76.9701 274.017 76.4916 271.775 77.1943 270.13C77.8969 268.486 78.196 259.546 78.1213 257.752C78.0465 255.959 76.3274 233.924 76.6264 233.281C76.9253 232.638 77.568 232.264 77.4185 231.621C77.269 230.979 75.4752 230.127 75.7742 229.962C76.0731 229.798 76.9253 229.962 76.7758 229.469C76.6263 228.975 75.834 228.093 75.7742 227.735C75.7144 227.376 76.0583 226.942 76.0583 226.24C76.0583 225.537 74.9071 222.786 75.5499 221.994C76.1927 221.202 77.0448 221.202 77.0448 219.692C76.8951 218.472 76.8502 217.242 76.9103 216.015C77.1196 214.938 76.2525 209.317 76.686 207.748C77.1196 206.178 77.3439 203.353 77.7027 202.351C78.0614 201.349 78.1362 195.146 78.2707 193.486C78.4053 191.827 78.6294 183.769 78.9284 180.675C79.2274 177.58 78.7789 172.617 79.2872 171.616C79.7954 170.614 79.6459 170.749 80.0047 170.315C80.3635 169.882 79.6459 167.863 80.0047 167.579C80.3635 167.295 81.2157 167.146 81.0812 166.578C80.9466 166.01 80.8569 165.711 81.0812 165.427C81.3054 165.143 81.7239 163.842 81.5146 163.618C81.3053 163.394 79.4964 153.542 79.0629 152.75C78.6294 151.958 76.402 145.918 75.8937 144.259C75.3854 142.599 74.2344 137.143 73.7411 136.067C73.2478 134.99 72.3659 133.824 72.5154 133.331C72.8546 132.736 73.2889 132.201 73.801 131.746C75.416 131.503 76.9902 131.04 78.48 130.371C80.5729 129.369 81.7239 127.934 82.5162 127.86C83.3117 127.651 84.0833 127.361 84.8184 126.993C85.3267 126.843 86.5376 125.124 87.8083 123.823C89.4907 122.194 91.2948 120.694 93.2049 119.339C95.5892 117.782 98.0878 116.408 100.679 115.228C101.905 114.944 102.772 113.733 103.415 113.583C104.058 113.434 105.284 112.866 105.717 112.791C106.852 112.48 108.006 112.24 109.17 112.073C110.091 111.934 110.975 111.614 111.772 111.132C112.252 110.897 112.752 110.707 113.266 110.563C113.266 110.563 114.059 110.13 114.477 108.187C114.896 106.243 118.155 92.6395 118.663 91.0549C119.172 89.4703 123.701 69.5281 123.701 69.5281C123.76 69.3513 123.775 69.1627 123.744 68.9788C123.713 68.795 123.638 68.6215 123.524 68.4738C123.41 68.3261 123.262 68.2086 123.092 68.1317C122.922 68.0549 122.736 68.0211 122.55 68.0332C120.965 67.8987 85.3416 66.8074 85.3416 66.8074C84.7807 66.8859 84.258 67.1366 83.8456 67.5249C83.4333 67.9132 83.1515 68.4198 83.0394 68.975C82.5311 70.9931 75.4752 102.222 75.4752 102.222L73.2478 102.73C73.2478 102.73 72.9637 97.1092 72.7394 95.8236C72.4675 94.6063 72.1332 93.4038 71.7379 92.2209C71.3379 90.5178 71.0977 88.7812 71.0203 87.0336C70.2522 84.1118 68.9551 81.3555 67.1934 78.9012C65.5359 77.2316 63.4767 76.0166 61.2137 75.3732C59.3451 74.8051 55.533 73.8783 55.0248 73.5794C54.5165 73.2804 53.0067 72.9963 53.0814 72.4283C53.1562 71.8602 53.2309 65.8057 53.3654 65.3722C53.4465 64.8577 53.5921 64.3554 53.7989 63.8773C54.1577 63.1597 54.1578 62.0087 54.5166 61.6499C55.4622 60.217 56.4957 58.844 57.611 57.5389C58.2735 56.9717 58.8567 56.3181 59.3451 55.5955C59.6291 55.2368 60.84 53.3681 60.6307 53.2186C60.4214 53.0691 60.9297 50.1242 60.9297 49.5561C60.9297 48.9881 60.9297 48.9133 61.2137 48.9731C61.4978 49.0329 60.6307 48.405 60.9297 47.822C61.2287 47.239 61.4977 46.1028 61.9313 45.8786C62.3648 45.6544 62.7236 45.0863 63.2318 44.6677C63.8519 43.6244 64.4014 42.5407 64.8763 41.4238C66.0722 40.0036 71.0951 37.7014 61.5875 30.182Z" fill="white"/>
<path d="M130.873 30.7142C131.065 29.8451 130.534 24.6456 130.785 23.3494C131.506 20.1032 133.245 17.1721 135.749 14.9831C139.151 12.1697 143.599 9.09129 148.711 9.51845C151.232 9.83536 153.622 10.8224 155.632 12.3767C157.643 13.931 159.199 15.9958 160.141 18.3562C161.614 22.6277 162.365 24.8371 161.938 26.4574C161.51 28.0776 162.203 29.6242 161.687 30.5522C161.172 31.4801 160.597 31.8337 160.774 32.4376C160.951 33.0415 162.483 31.8336 162.998 32.5259C163.514 33.2182 163.469 34.3082 162.792 36.0168C161.987 37.8205 161.303 39.6756 160.744 41.5699C160.57 42.4038 160.085 43.1402 159.387 43.6297C158.69 44.1193 157.832 44.3254 156.989 44.2064C155.724 46.7577 154.888 49.4996 154.514 52.3224C154.275 54.1312 154.275 55.9635 154.514 57.7723C155.019 57.7418 155.524 57.8327 155.987 58.0375C157.373 58.9194 158.586 60.0476 159.566 61.3663C159.728 61.9555 160.759 61.8819 161.275 61.9555C161.79 62.0292 162.556 63.6641 162.748 63.8409C162.939 64.0176 164.883 63.7525 165.561 64.0029C166.239 64.2533 166.165 65.2107 166.253 65.7115C166.342 66.2123 172.896 68.8784 175.371 70.1304C177.845 71.3824 180.585 73.0763 181.263 76.9501C181.462 78.7316 181.893 80.4795 182.544 82.1497C183.132 84.4167 183.502 86.735 183.649 89.0725C183.615 89.5026 183.683 89.9346 183.846 90.3337C184.01 90.7328 184.266 91.0879 184.592 91.3703C185.019 91.7091 185.711 92.0479 185.534 92.8433C185.358 93.6387 184.061 94.3162 184.061 94.8023C184.061 95.2884 184.916 95.6566 184.665 96.4225C184.415 97.1885 179.112 98.8087 178.008 100.429C178.008 100.429 177.242 105.805 176.137 111.697C175.032 117.589 168.772 131.935 167.093 134.395C166.916 134.646 166.401 134.484 166.666 135.338C167.252 137.322 168.11 139.215 169.214 140.965C170.584 142.924 171.011 147.534 171.35 149.419C171.689 151.305 171.689 153.838 172.293 156.239C172.896 158.64 175.533 163.604 175.71 164.355C175.886 165.106 174.001 165.622 174.001 165.622C174.001 165.622 175.474 169.893 174.59 170.409C173.231 171.161 171.835 171.844 170.407 172.456C170.599 175.249 170.486 178.055 170.068 180.823C169.391 184.402 170.495 191.826 170.245 193.284C169.995 194.742 170.333 203.344 170.245 205.067C170.157 206.791 170.157 224.613 169.641 225.556C169.126 226.499 163.749 227.942 153.439 226.484C153.439 226.484 152.069 232.803 151.804 235.616C151.539 238.43 150.964 246.546 152.496 250.891C154.028 255.236 152.746 263.868 150.36 270.26C150.36 270.26 150.964 282.633 151.833 289.409C151.833 289.409 152.525 301.354 153.041 303.829C153.557 306.303 154.735 313.388 155.162 314.92C155.589 316.452 157.475 324.568 153.807 324.391L153.38 325.511L112.417 325.083C112.417 325.083 109.604 323.714 109.604 323.124C109.604 322.535 112.417 322.344 113.522 322.609L113.949 321.416L115.23 321.062C115.23 321.062 115.834 318.676 116.6 318.764C117.366 318.853 119.075 320.134 119.841 319.707C120.607 319.28 120.356 318.426 121.314 318.234C123.022 317.901 124.706 317.448 126.351 316.879C126.69 316.54 126.778 306.289 127.544 304.33C127.991 303.337 128.365 302.313 128.664 301.266C128.826 300.485 129.002 266.357 128.575 263.882C128.148 261.408 127.102 247.754 127.102 247.076C125.978 245.018 125.554 242.65 125.895 240.33C125.895 240.33 122.742 228.045 121.976 227.442C121.976 227.442 107.718 227.869 102.828 225.144C102.828 225.144 105.641 171.042 106.672 163.957C106.672 163.957 101.429 161.807 101.046 160.628C100.956 159.501 101.102 158.368 101.473 157.3C101.885 156.622 99.7643 156.622 99.7643 156.622C99.7643 156.622 105.995 127.855 106.496 126.839C106.496 126.839 98.6449 129.225 97.7906 129.225C96.9363 129.225 96.3177 128.96 95.5812 127.34C94.8404 124.668 94.4104 121.92 94.2997 119.15C94.2114 117.28 99.5876 105.069 100.53 103.787L92.1639 101.578C91.8333 101.036 91.6552 100.415 91.6484 99.7809C91.6484 98.7645 93.2686 73.2678 93.2686 73.2678C93.2686 73.2678 93.8726 72.5018 94.5501 72.5902C95.2277 72.6786 109.28 75.8307 109.28 75.8307C109.28 75.8307 112.432 70.0273 123.273 68.0682C123.273 68.0682 126.764 63.8851 130.358 62.854L133.937 61.8376L137.089 59.2747C137.516 58.9359 137.442 57.1389 137.442 57.1389C137.442 57.1389 136.839 56.7118 136.073 56.0342C134.311 53.5838 133.008 50.834 132.228 47.9183C132.066 45.9593 131.551 38.8007 131.374 37.4308C130.697 35.2595 130.525 32.962 130.873 30.7142V30.7142Z" fill="white"/>
<path d="M942.109 106.719C941.919 108.205 942.504 109.88 943.895 109.88C943.895 109.88 943.405 111.76 944.479 112.645L945.57 113.546C945.57 113.546 943.895 114.241 944.084 115.426C944.274 116.611 945.175 117.686 946.265 117.591C946.265 117.591 944.779 119.171 945.57 119.866C946.36 120.562 947.245 121.257 947.94 121.146C948.635 121.036 949.915 119.961 950.594 119.866C951.274 119.772 953.565 119.772 953.565 119.772C952.68 124.607 953.66 122.932 952.68 125.002C951.701 127.072 950.199 134.293 951.1 136.379C951.874 138.18 952.68 141.025 955.588 140.898C955.193 143.269 957.168 150.506 957.516 151.959C958.682 154.44 959.353 157.123 959.491 159.86C959.491 163.811 961.261 170.147 962.051 175.867C962.209 177.037 962.335 178.49 962.43 180.086C962.296 180.605 962.296 181.148 962.43 181.667C962.43 181.777 962.43 181.904 962.509 182.014C962.793 188.05 962.841 195.43 963.425 198.274C964.2 202.224 966.586 211.121 967.565 214.076C968.545 217.03 966.775 218.216 967.36 227.712C967.945 237.209 978.627 288.991 978.816 290.382C979.006 291.772 978.626 293.147 975.861 295.517C973.782 297.088 971.529 298.414 969.146 299.468C967.565 300.463 966.175 305.204 967.17 306.784C968.166 308.364 969.335 309.154 968.15 309.154C966.965 309.154 964.01 313.31 962.635 313.31C961.261 313.31 962.635 313.31 961.055 314.1C959.475 314.89 954.924 314.495 952.159 314.495C949.394 314.495 948.603 318.05 948.603 318.05C948.603 318.05 947.829 318.445 948.414 319.441C948.998 320.436 952.949 319.836 952.949 319.836H1007.64C1007.64 319.446 1007.64 319.051 1007.64 318.651C1007.64 318.493 1007.64 318.303 1007.64 318.098C1007.34 314.06 1006.35 310.104 1004.7 306.404C1004.68 306.31 1004.68 306.214 1004.7 306.12C1004.9 306.12 1005.65 306.578 1006.5 304.034C1007.54 300.981 1008.07 297.779 1008.08 294.553C1008.16 294.253 1008.22 293.953 1008.29 293.684C1008.84 290.856 1007.13 286.573 1006.01 282.512C1005.88 280.126 1006.28 277.645 1005.92 270.298C1005.32 258.431 1007.5 233.322 1008.87 223.051C1010.25 212.78 1010.85 185.285 1010.85 185.285C1016.17 169.863 1016.17 156.842 1015.38 152.876C1014.59 148.91 1008.92 137.169 1008.51 136.316C1009.28 136.17 1010.07 136.17 1010.85 136.316C1011.94 136.616 1016.57 130.39 1017.45 126.93C1018.34 123.469 1019.82 103.117 1015.38 86.5093C1015.22 81.9143 1014.32 77.3751 1012.73 73.0621C1010.61 66.6749 1007.1 60.8362 1002.46 55.9647C999.5 53.0888 993.97 47.9533 993.369 47.0684L992.785 46.1835C992.785 46.1835 989.719 41.6327 989.53 41.0323C989.444 40.8761 989.303 40.7577 989.135 40.7004C988.898 40.2422 988.724 39.7681 988.929 39.5626C990.429 37.8961 991.557 35.9296 992.238 33.7937C992.919 31.6577 993.138 29.4013 992.88 27.1742C992.216 19.6527 991.694 13.332 991.173 12.1469C990.651 10.9618 985.121 3.83524 978.674 1.86004C978.674 1.86004 977.094 1.08581 974.186 3.18742C972.085 2.52375 969.193 0.943522 962.477 5.28896C955.762 9.63441 953.786 14.5171 954.055 16.0973C954.324 17.6775 955.24 17.5511 955.635 18.4675C956.03 19.384 954.971 21.2328 955.367 22.4179C955.762 23.6031 954.513 27.427 954.529 28.5963C954.529 30.4135 955.54 29.9869 955.667 31.0457C955.793 32.1044 955.114 32.9734 955.367 34.9486C955.708 39.2912 956.963 43.5128 959.048 47.3371L959.981 51.2875C960.281 51.8336 960.719 52.2916 961.251 52.6159C961.784 52.9403 962.391 53.1197 963.015 53.1363C964.595 53.1363 966.301 52.599 967.344 53.9264C968.387 55.2537 969.319 57.3553 970.504 57.6082L970.599 57.1973C970.599 57.5923 970.504 58.0031 970.473 58.4298C970.014 60.3458 969.296 62.1904 968.34 63.913C967.866 63.913 966.238 69.0801 966.428 70.597C966.617 72.114 962.683 84.4234 962.477 88.1842C962.31 90.3098 961.999 92.4216 961.545 94.5049C960.344 97.6652 959.349 100.952 958.732 102.532C958.59 102.896 958.369 103.48 958.116 104.207C958.124 104.144 958.124 104.08 958.116 104.017C956.946 103.407 955.679 103.006 954.371 102.832C952.696 102.722 950.421 102.042 948.84 102.722C947.639 103.252 946.383 103.649 945.095 103.907C944.495 104.017 944.1 105.203 944.59 105.487C944.574 105.282 942.314 105.282 942.109 106.719Z" fill="white"/>
<path d="M677.382 94.2182C677.382 94.2182 677.888 101.029 677.761 103.699C678.198 109.745 679.414 115.71 681.38 121.444C682.96 124.905 687.385 127.575 687.701 128.919C688.017 130.262 686.326 129.709 686.326 130.388C686.326 131.068 687.464 134.923 689.075 135.713V135.603C689.438 138.229 689.374 140.897 688.886 143.503C687.89 147.77 683.387 158.72 689.897 171.788C689.897 171.788 691.935 176.339 693.452 178.978C693.689 179.389 693.926 179.737 694.116 180.037C693.01 182.042 692.413 184.289 692.378 186.579C692.378 186.579 692.378 187.211 692.378 188.159C692.378 189.107 692.251 190.561 692.078 192.267C692.078 192.467 692.046 192.657 691.983 192.836C691.814 193.814 691.698 194.801 691.635 195.791C691.177 199.22 691.114 206.315 690.845 211.687C690.671 213.805 690.466 215.764 690.292 216.854C689.929 219.256 686.547 226.857 686.357 229.053C686.357 229.196 686.357 229.338 686.357 229.512C686.266 229.932 686.213 230.361 686.199 230.792V231.582C686.041 233.841 685.836 236.749 685.615 238.471C685.445 239.306 685.224 240.129 684.951 240.936C684.264 243.881 683.982 246.906 684.114 249.927C683.973 251.503 683.92 253.086 683.956 254.668C683.903 262.228 683.465 269.78 682.644 277.296C682.091 281.688 683.576 297.3 683.956 296.7C683.956 296.7 682.455 304.443 681.459 309.247C681.459 309.247 682.202 313.513 682.202 314.587C682.202 315.662 680.953 318.854 681.965 319.913C681.965 319.913 695.696 322.314 698.951 321.493C698.884 321.324 698.857 321.141 698.873 320.959C698.89 320.778 698.949 320.603 699.046 320.449C699.143 320.295 699.276 320.166 699.432 320.072C699.589 319.979 699.765 319.924 699.947 319.913C701.448 319.644 703.692 321.256 706.441 321.256C709.191 321.256 724.692 323.12 731.392 318.949L732.625 318.696L732.435 314.587C732.435 314.587 728.437 313.94 724.092 313.497C720.931 312.944 717.771 312.154 716.444 311.111C713.441 308.709 711.703 296.89 711.703 293.492C711.703 291.169 710.123 291.248 709.696 290.079C709.78 289.048 709.96 288.027 710.234 287.029C712.225 282.289 713.71 277.754 713.71 277.754C714.457 275.581 714.94 273.326 715.148 271.038C719.383 251.207 731.582 194.1 732.198 191.035C732.956 187.306 731.945 179.294 731.692 173.953C731.692 173.953 734.695 165.42 734.947 160.348C735.2 155.276 732.941 146.126 733.952 137.135L735.2 134.734L734.868 132.474C735.602 132.487 736.324 132.295 736.954 131.921C737.513 131.404 737.867 130.702 737.95 129.946C738.724 131.7 741.315 137.135 741.315 137.135C741.315 134.639 739.198 129.693 737.207 125.426C736.99 124.675 736.863 123.901 736.828 123.119C736.954 122.582 739.198 121.539 739.988 120.86C740.465 120.377 740.746 119.736 740.778 119.058C741.114 118.857 741.462 118.677 741.821 118.521C742.673 118.654 743.545 118.584 744.365 118.316C745.361 117.778 751.492 114.982 751.492 114.982C751.492 114.982 750.243 111.252 750.243 110.842C750.243 110.431 750.986 107.681 749.864 106.196C750.561 105.466 751.43 104.922 752.392 104.616C753.704 104.41 757.354 104.41 758.571 104.41C759.788 104.41 760.546 103.81 761.573 103.81C762.619 103.698 763.619 103.323 764.481 102.72C765.318 102.214 766.63 100.918 766.63 100.207C766.63 99.4959 765.603 99.6066 765.603 99.1167C765.603 98.6269 765.982 98.4057 766.266 97.8052C766.454 97.4409 766.509 97.0227 766.422 96.6221C766.336 96.2216 766.113 95.8634 765.792 95.6088C765.792 95.6088 765.697 95.0083 767.009 94.8029C768.32 94.5975 768.131 94.0128 768.226 93.2227C768.32 92.4327 766.914 92.4168 766.914 91.8164C766.914 91.2159 767.673 90.6154 767.941 90.2362C768.21 89.857 770.296 90.2362 770.849 90.2362C771.402 90.2362 772.16 89.541 771.702 88.8299C770.972 87.9495 769.931 87.3838 768.794 87.2498C767.846 87.2498 762.885 88.1504 761.384 88.4506C760.546 88.6143 759.722 88.8416 758.918 89.1302C758.539 89.225 758.302 89.1301 757.544 89.2565C754.68 90.7558 752.059 92.6789 749.769 94.9609C749.769 94.9609 745.361 97.9632 744.428 98.5637C742.081 99.6722 739.806 100.928 737.618 102.324C736.798 102.977 735.867 103.475 734.868 103.794C734.573 104.095 734.356 104.464 734.236 104.869C734.236 104.869 730.618 104.063 730.239 104.063C730.112 104.063 729.243 101.06 727.853 96.8887C726.857 93.0805 726.004 89.8096 725.498 88.0556C723.918 82.3196 719.177 68.4458 718.624 65.9333C718.146 64.1864 717.445 62.5082 716.539 60.9401C716.52 59.2945 716.131 57.6742 715.401 56.1996C715.819 55.5116 716.353 54.902 716.981 54.3982C718.257 53.4487 719.786 52.8989 721.374 52.818C722.227 52.6442 724.534 53.9558 724.534 53.9558C725.846 54.3666 726.588 52.5652 726.588 51.1589C726.588 49.7525 725.498 50.0686 725.877 49.0731C726.257 48.0775 727.363 47.8406 727.173 46.8451C726.983 45.8496 726.225 46.5606 726.035 45.3597C725.846 44.1588 728.042 44.064 728.042 44.064C728.042 44.064 728.532 42.0097 729.211 41.7569C729.891 41.5041 730.792 42.4048 731.471 42.1519C731.924 41.9394 732.289 41.5752 732.503 41.1223C732.716 40.6693 732.765 40.1561 732.64 39.6711L731.834 37.5537C732.908 35.732 733.49 33.6632 733.525 31.5491C733.336 30.9487 732.024 31.1541 731.834 30.3482C731.529 29.3091 731.281 28.2541 731.092 27.1879C731.001 24.8982 730.689 22.6227 730.16 20.3932C729.401 18.181 727.774 18.0861 728.074 17.138C728.263 16.5533 729.654 16.5376 730.839 17.5805C731.123 17.2802 730.839 16.6798 730.839 16.6798C730.397 12.7768 724.819 10.9596 722.18 9.30044C717.945 6.47195 711.798 5.77669 709.649 5.55547C707.5 5.33425 704.466 5.80826 704.308 6.80376C704.15 7.79926 699.994 9.53743 699.299 9.45842C698.604 9.37941 699.299 8.25748 699.299 8.25748C699.039 8.47353 698.873 8.78144 698.835 9.117C698.797 9.45257 698.889 9.78994 699.094 10.0589C698.803 9.90409 698.474 9.83661 698.146 9.86465C697.818 9.89268 697.505 10.0151 697.245 10.217C697.815 10.1697 698.381 10.3453 698.825 10.7068C698.92 10.928 698.43 10.9754 698.43 10.9754C694.306 13.8039 693.911 18.655 693.911 22.9372C694.032 26.6672 694.73 30.3558 695.981 33.8719C696.739 36.0051 696.486 39.8292 696.708 39.845C696.917 39.8113 697.132 39.8236 697.337 39.8808C697.541 39.9381 697.731 40.039 697.893 40.1767C698.126 40.3299 698.325 40.5298 698.477 40.7637C698.63 40.9976 698.732 41.2603 698.778 41.5357C697.94 41.5357 696.581 45.5335 695.364 46.9557L695.617 47.6193C695.617 47.6193 694.622 46.9556 694.242 47.4929C693.863 48.0301 690.877 51.2221 689.881 52.2334C688.886 53.2447 688.507 55.1725 687.622 56.1048C683.735 59.7309 680.744 64.2097 678.883 69.1885C676.497 76.394 677.761 78.5272 677.509 79.8545C676.19 84.546 676.146 89.5043 677.382 94.2182V94.2182ZM730.728 33.1925C730.783 32.5606 730.954 31.9444 731.234 31.3752C731.422 31.2841 731.626 31.2311 731.834 31.2191C732.042 31.2071 732.251 31.2365 732.447 31.3055C732.644 31.3745 732.826 31.4819 732.981 31.6214C733.136 31.7608 733.262 31.9296 733.351 32.118C733.226 33.9122 732.626 35.641 731.613 37.127C731.297 37.127 730.855 36.1157 730.539 35.5469C730.223 34.978 730.792 33.8561 730.728 33.2556V33.1925ZM713.52 65.5068C714.241 65.5757 714.92 65.8762 715.456 66.3633C715.991 66.8504 716.354 67.4979 716.491 68.2088C716.493 69.8348 716.403 71.4597 716.223 73.0757L715.985 72.8703C715.69 70.2753 714.838 67.7745 713.489 65.5383L713.52 65.5068Z" fill="white"/>
<path d="M765.729 137.484C766.377 139.381 765.35 142.509 765.855 143.805C766.361 145.101 768.146 149.367 768.652 151.279C769.158 153.191 769.3 156.841 770.564 158.2C771.437 159.034 772.596 159.503 773.803 159.512C774.593 160.697 775.858 162.562 775.952 162.672L779.934 165.833V165.69C780.067 165.877 780.209 166.056 780.361 166.228C780.361 166.228 780.503 170.067 780.503 170.605C780.578 173.08 780.462 175.558 780.156 178.016C779.647 185.431 779.52 192.868 779.776 200.296C780.029 204.641 781.357 213.474 781.357 219.258C781.357 225.041 781.104 236.118 782.368 238.22C783.632 240.321 780.456 242.834 780.582 246.231C780.709 249.628 781.104 271.229 781.104 275.037C781.104 278.846 783.632 289.717 783.126 290.934C782.621 292.151 781.862 295.959 782.494 297.46C782.494 297.46 776.395 298.945 776.521 300.857C776.753 303.8 777.283 306.712 778.101 309.548C778.101 309.548 776.964 312.708 775.81 313.356C774.657 314.004 772.887 314.036 772.887 316.074C772.887 318.113 771.307 318.239 772.255 318.381C772.255 318.381 770.216 319.471 789.637 319.471C789.637 319.471 791.549 318.508 792.307 318.918C793.139 319.446 794.122 319.685 795.104 319.598H797.774C797.829 317.671 797.589 315.748 797.063 313.894C797.434 313.671 797.766 313.388 798.043 313.056C799.623 311.776 802.373 308.616 801.725 302.611C801.472 300.036 799.686 299.087 799.686 298.266C799.686 298.06 799.686 297.839 799.686 297.586C799.918 296.288 800.267 295.013 800.729 293.778C800.729 293.778 800.729 293.083 800.887 291.803C801.353 288.546 801.617 285.264 801.677 281.974C803.068 264.735 805.517 233.574 805.991 223.192C806.265 220.952 806.677 218.73 807.224 216.54C807.718 215.211 808.073 213.834 808.282 212.431C808.362 212.163 808.425 211.91 808.488 211.657C809.2 207.192 809.612 202.683 809.72 198.163C809.847 197.072 809.957 195.966 810.084 194.876C810.553 192.801 810.807 190.683 810.842 188.555C811.02 186.474 811.38 184.412 811.917 182.393C812.628 182.946 813.497 185.3 814.414 188.46C814.635 189.314 814.856 190.278 815.093 191.352C815.772 194.339 816.405 196.677 816.958 198.7C818.317 204.799 819.423 210.583 819.691 211.973V212.589C819.642 214.638 819.742 216.687 819.991 218.72C819.991 219.1 819.991 219.479 819.991 219.89C820.396 221.966 820.95 224.009 821.651 226.005C821.745 226.321 821.84 226.685 821.919 227.064C822.409 229.987 822.093 236.118 823.31 240.274C823.31 240.463 823.42 240.653 823.484 240.843C823.857 242.501 824.342 244.133 824.937 245.725C825.253 246.816 825.49 247.716 825.727 248.886C825.727 250.245 825.253 251.193 825.143 252.599C824.998 252.933 824.892 253.283 824.827 253.642C824.574 255.222 825.348 256.36 825.348 259.346C825.348 262.333 825.095 264.782 825.601 266.015C826.107 267.247 825.475 268.464 825.348 270.36C825.222 272.256 822.931 289.243 823.563 291.55C824.195 293.857 824.827 294.947 829.283 299.293C829.283 299.293 828.651 301.063 828.019 302.69C827.401 304.401 827.013 306.186 826.865 308C826.739 309.485 825.854 311.397 827.371 313.024C827.806 313.372 828.125 313.844 828.286 314.378C828.447 314.911 828.442 315.48 828.272 316.011C828.272 316.422 826.107 318.318 827.118 318.997C828.129 319.677 845.827 318.997 845.827 318.997C845.895 317.945 845.895 316.889 845.827 315.837C845.701 315.015 844.042 309.848 843.789 308.221C844.703 307.41 845.269 306.278 845.369 305.06C845.369 303.291 844.215 303.022 844.61 301.9C845.005 300.778 847.407 301.505 850.078 284.25C852.748 266.994 848.292 248.506 847.407 235.597C846.522 222.687 845.827 178.948 845.827 166.86C847.412 164.274 849.198 161.817 851.168 159.512C851.35 159.328 851.5 159.114 851.611 158.88C853.269 157.948 854.878 156.93 856.43 155.83V155.925L859.053 154.598L859.258 154.787L859.638 155.403C859.638 155.403 865.595 148.877 866.353 146.839C867.225 144.144 868.38 141.548 869.798 139.096C870.936 137.674 869.798 128.904 870.177 124.021C870.472 120.702 870.013 117.358 868.834 114.24C868.076 111.586 864.836 100.019 864.647 96.4951C864.457 92.9713 857.015 72.05 856.825 69.6324C856.635 67.2147 854.328 65.5556 854.534 64.1334C854.513 62.9116 854.181 61.7151 853.57 60.6571C853.57 60.6571 831.242 53.7359 829.725 51.9029C828.603 50.5598 827.687 49.5486 827.276 49.1061C826.929 47.859 826.396 46.6711 825.696 45.5823H825.617C825.547 45.3878 825.446 45.2063 825.317 45.0451C825.822 43.4649 826.202 39.1984 826.897 38.3768C828.289 36.9739 829.529 35.4273 830.594 33.7627C831.445 31.6985 831.791 29.4614 831.606 27.2366C831.353 26.1463 830.468 26.6995 830.847 26.02C831.311 24.8573 831.485 23.5989 831.353 22.354C831.226 20.9951 831.479 21.3901 832.238 18.5458C832.996 15.7015 832.111 15.1484 831.606 12.2251C831.134 9.99308 829.927 7.98414 828.177 6.52077C827.276 5.8413 828.177 4.751 828.177 4.751C827.79 4.73977 827.41 4.64985 827.06 4.48684C826.709 4.32383 826.396 4.09119 826.138 3.80294C825.931 3.52309 825.831 3.17888 825.854 2.83164C825.877 2.4844 826.023 2.15665 826.265 1.90673C825.768 2.3121 825.207 2.63241 824.606 2.85479C823.973 2.997 821.682 0.674214 820.924 0.13696C820.165 -0.400295 820.671 0.816417 819.897 0.816417C818.378 0.608123 816.842 0.560413 815.314 0.67416C813.292 0.958589 810.115 3.39205 809.215 3.9451C808.314 4.49816 808.33 3.53425 807.935 3.53425C807.54 3.53425 807.935 4.48232 807.176 4.89316C805.363 6.59892 803.703 8.4601 802.215 10.4554C801.203 11.8301 801.33 18.609 801.583 21.6113C801.835 24.6136 802.467 24.0447 801.709 24.8664C800.951 25.6881 801.709 32.5934 802.088 33.2887C802.673 34.2842 803.747 34.1104 803.874 35.8644C804.146 39.1672 804.874 42.4164 806.039 45.5191C805.531 45.8605 805.087 46.2884 804.727 46.7832C804.727 46.7832 804.727 46.6726 804.727 46.6094C804.727 46.5462 804.727 46.7675 804.538 47.0203C804.332 47.3429 804.162 47.6874 804.032 48.0474C803.663 48.9276 803.127 49.7273 802.452 50.4019C801.693 50.8127 784.896 55.5689 779.555 57.876C779.555 57.876 777.39 58.0182 777.39 58.8399C777.309 60.5975 776.969 62.3334 776.379 63.9912C775.731 65.3501 772.808 73.7724 773.314 75.8108C773.962 77.8934 773.827 80.1413 772.934 82.1314C771.923 84.9915 770.517 97.0798 769.774 100.477C769.031 103.874 767.736 111.064 766.851 113.656C765.966 116.247 766.851 123.579 765.95 126.155C765.049 128.73 766.203 129.552 766.076 130.642C765.95 131.733 765.097 135.572 765.729 137.484ZM845.811 115.583C846.191 112.012 847.028 104.27 847.391 104.127C847.597 104.285 847.818 104.443 848.024 104.633C848.924 105.707 850.394 108.125 851.073 108.125C851.215 108.125 851.215 108.014 851.073 107.825C851.737 108.631 852.164 109.215 852.164 109.215C852.164 109.705 852.701 113.766 853.744 118.854C854.787 123.943 853.744 122.505 853.87 123.895C854.123 125.712 854.897 124.701 854.834 130.01C854.834 131.195 850.82 137.911 850.82 137.911L848.656 143.742C847.482 137.998 846.611 132.196 846.048 126.36C845.711 122.778 845.632 119.177 845.811 115.583V115.583ZM782.605 116.342C783.743 115.331 782.605 113.498 782.605 113.498C782.557 109.993 783.594 106.56 785.576 103.669V103.827C784.754 106.134 786.239 111.854 786.239 113.308C786.239 114.762 784.896 121.873 784.659 124.369C784.231 126.583 783.458 128.716 782.368 130.69C782.368 130.69 780.645 128.051 780.788 127.024C781.166 125.002 781.424 122.96 781.562 120.909C781.578 119.407 781.388 117.369 782.605 116.342ZM778.623 149.525C778.671 149.425 778.73 149.33 778.797 149.241C778.728 149.343 778.664 149.448 778.607 149.557L778.623 149.525Z" fill="white"/>
<path d="M1101.05 80.4272C1101.76 85.4363 1101.28 88.1857 1102.83 93.8111C1104.38 99.4365 1105.35 106.452 1106.55 113.184C1107.75 119.915 1108.82 121.559 1108.7 129.681C1108.7 130.092 1108.7 130.487 1108.7 130.866C1108.55 132.304 1108.4 133.584 1108.35 135.022C1108.35 137.408 1108.35 139.083 1108.35 140.394C1108.25 143.254 1108.17 146.004 1108.17 149.306C1108.17 156.243 1109.75 167.842 1109.85 169.991L1111.97 170.749C1111.97 170.749 1112.28 172.503 1112.6 173.767C1112.91 175.031 1113.23 176.643 1113.88 179.203C1114.53 181.763 1115.79 182.063 1115.46 191.639C1115.24 197.172 1115.45 202.714 1116.09 208.215C1115.42 209.015 1114.89 209.916 1114.51 210.885C1113.73 212.216 1113.23 213.697 1113.06 215.231C1113.06 217.791 1114.81 226.292 1114.49 227.983C1114.18 229.673 1111.46 241.54 1111.33 245.206C1111.21 248.872 1111.33 267.534 1111.67 274.866C1112 282.198 1111.67 287.507 1113.09 289.846C1114.51 292.185 1116.6 292.564 1116.25 294.586C1115.9 296.609 1115.46 296.167 1114.97 299.327C1114.48 302.487 1116.25 301.397 1114.97 303.151C1113.69 304.905 1112.58 306.501 1113.55 307.449C1114.51 308.397 1115.3 309.029 1114.65 310.325C1114.21 311.167 1113.61 311.922 1112.9 312.553L1112.74 316.219H1124.54L1124.23 315.113C1125.66 316.175 1127.38 316.786 1129.16 316.867H1159.62C1162.6 317.146 1165.6 316.536 1168.24 315.113C1168.24 315.113 1168.71 313.675 1167.9 313.201C1167.15 312.418 1166.55 311.494 1166.15 310.483L1164.89 310.641C1164.89 310.641 1163.76 308.729 1162.33 308.887C1160.89 309.045 1152.12 309.693 1149.89 307.623C1147.66 305.553 1149.42 305.063 1148.45 304.747C1147.49 304.431 1146.07 304.747 1146.07 303.467C1145.9 302.356 1145.9 301.228 1146.07 300.117C1146.38 298.205 1145.26 297.731 1146.07 296.135C1146.87 294.539 1147.19 296.451 1147.82 291.837C1148.45 287.223 1146.24 276.035 1146.07 270.141C1145.89 264.247 1146.22 250.847 1146.86 245.428C1147.49 240.008 1151.01 230.764 1154.2 206.208C1154.2 206.208 1157.06 204.628 1159.29 181.81C1166.64 178.934 1170.15 172.25 1168.77 161.268C1167.4 150.286 1168.14 143.744 1165.74 132.73C1165.74 132.73 1173.88 127.99 1178.19 127.279C1179.96 127.279 1181.94 127.279 1183.14 127.279C1184.04 127.279 1184.4 127.358 1184.4 127.358C1184.4 127.358 1189.46 128.78 1190.44 114.906C1192.81 113.895 1195.37 112.963 1196.03 112.694C1196.99 112.299 1197.23 112.694 1198.1 112.378C1198.97 112.062 1199.14 111.572 1199.68 111.256C1200.22 110.94 1200.72 111.098 1201.26 110.308C1202.25 109.193 1203.31 108.138 1204.42 107.148C1205.39 106.105 1206.1 105.789 1206.57 104.904L1206.7 104.698C1211.17 103.972 1214.5 103.434 1214.87 103.403C1215.17 103.214 1215.42 102.948 1215.59 102.631C1215.75 102.314 1215.83 101.959 1215.81 101.601C1215.94 100.163 1217.49 74.7387 1217.49 74.7387C1216.99 74.44 1216.4 74.3176 1215.81 74.391C1215.34 74.391 1205.73 75.8605 1196.28 77.2511C1195.39 76.2874 1194.32 75.5135 1193.12 74.9756C1189.96 73.3007 1188.38 71.0569 1183.55 71.3887C1178.71 71.7206 1177.81 71.2781 1173.5 71.7521C1171.64 71.8805 1169.78 72.1232 1167.95 72.4789H1167.81C1167.12 72.6201 1166.44 72.7995 1165.77 73.0162C1165.64 72.8266 1165.52 72.6212 1165.38 72.4316C1160.27 73.8733 1155.26 75.6306 1150.38 77.6935L1149.84 77.7884H1149.95C1150.79 77.1879 1148.86 70.7251 1148.37 68.8131C1147.88 66.9011 1146.59 65.9372 1146.79 65.4631C1147 64.9891 1146.37 63.8829 1145.43 63.3298L1144.88 62.1131C1144.88 61.9551 1144.68 61.6865 1144.49 61.323C1144.24 60.7826 1144.11 60.1953 1144.11 59.6007C1144.09 59.3129 1144.17 59.0272 1144.34 58.7974C1144.52 58.5676 1144.77 58.4094 1145.05 58.3524C1146.95 58.6305 1148.88 58.55 1150.74 58.1153C1151.84 57.7194 1152.77 56.9542 1153.37 55.9505C1153.97 54.9392 1155.22 53.1378 1155.64 53.0904C1156.1 53.0193 1156.53 52.8345 1156.89 52.5531C1157.13 52.3161 1156.89 51.9527 1156.89 51.9527C1156.89 51.9527 1157.85 51.8263 1158.03 51.5261C1158.2 51.2259 1158.03 51.1152 1158.57 50.6886C1159.57 49.8599 1160.46 48.8976 1161.2 47.8285C1161.73 47.0623 1162.06 46.1769 1162.15 45.2528C1162.88 45.3792 1164.79 45.4266 1164.79 45.4266C1166.47 43.8464 1167.78 42.2663 1167.54 41.492C1167.3 40.7177 1164.73 39.9908 1164.73 39.9908L1164.96 39.3905C1165.09 38.6794 1166.4 37.8103 1166.88 37.3678C1167.13 37.0284 1167.29 36.6243 1167.33 36.2004C1167.38 35.7764 1167.3 35.3492 1167.11 34.966C1167.04 34.6112 1167.07 34.2437 1167.2 33.9056C1167.33 33.5675 1167.55 33.2724 1167.84 33.054C1168.12 33.8159 1168.24 34.6291 1168.19 35.4401C1169.86 32.817 1170.12 30.905 1170.35 24.379C1170.59 17.8529 1162.69 11.7376 1159.59 9.77819C1156.5 7.81879 1154.57 9.66763 1154.2 9.4306C1152.07 8.00846 1157.92 6.79176 1157.92 6.79176C1154.91 5.84366 1152.42 9.19354 1152.42 9.19354C1148.34 3.44175 1140.93 8.10322 1140.93 8.10322C1131.45 11.4532 1127.42 22.5775 1127.42 28.4399C1127.42 34.3023 1127.66 40.4017 1127.66 40.4017C1128.73 42.9142 1125.62 43.8623 1125.62 43.8623C1126.82 45.3002 1128.97 43.9887 1128.78 44.5892C1128.42 45.4942 1128.01 46.3802 1127.56 47.2438V47.5757L1127.2 47.4493C1126.77 47.274 1126.3 47.1905 1125.84 47.2041C1125.37 47.2177 1124.92 47.3281 1124.5 47.5282C1123.94 48.1484 1123.61 48.9295 1123.53 49.7563C1121.21 48.7924 1120.86 49.7563 1120.86 49.7563C1120.86 49.7563 1120.02 53.7067 1118.24 54.1808C1115.86 53.7966 1113.44 53.7966 1111.07 54.1808C1107.97 54.8998 1105.24 56.7332 1103.4 59.3321C1101.25 62.4924 1101.82 63.7565 1101.25 67.454C1100.68 71.1516 1101.38 71.5309 1101.49 71.8786C1100.82 74.6777 1100.67 77.5744 1101.05 80.4272ZM1171.32 93.4161C1171.32 93.4161 1171.32 91.9782 1171.08 89.7344L1171.71 89.5606C1171.22 87.8462 1170.94 86.0797 1170.87 84.2986C1170.87 83.5401 1170.73 82.7974 1170.65 82.1022C1172.19 83.0165 1173.77 83.8499 1175.39 84.5988C1176.17 84.9465 1176.97 85.2467 1177.65 85.5311C1177.65 93.8111 1177.89 108.159 1177.89 108.159C1177.89 108.159 1178.17 108.649 1179.8 108.759C1180.57 108.719 1181.34 108.64 1182.11 108.522C1181.88 108.631 1181.66 108.753 1181.45 108.886C1181.45 108.886 1173.64 111.904 1171.08 113.026C1168.52 114.148 1168.38 113.658 1168.54 114.148C1168.69 114.638 1166.78 113.658 1166.29 114.148C1165.8 114.638 1163.27 113.342 1162.63 113.026L1161.99 112.71C1161.99 112.71 1161.68 102.976 1161.52 101.87C1160.75 99.6361 1159.84 97.4514 1158.8 95.3281C1158.8 95.3281 1167.81 92.9105 1171.32 93.3845V93.4161ZM1164.54 40.2437C1165.42 40.4808 1167.1 41.2708 1167.02 41.6816C1166.94 42.0925 1165.11 44.6208 1164.54 44.6998C1164.01 44.7103 1163.48 44.6571 1162.96 44.5417C1162.63 40.9232 1164.13 40.1015 1164.54 40.2121V40.2437Z" fill="white"/>
<path d="M1244.35 24.5531C1239.61 16.7313 1236.69 14.6928 1229.48 11.5641C1226.95 11.4235 1224.44 11.0586 1221.98 10.4738C1216.94 9.20968 1208.04 12.5122 1204.44 20.9661C1200.84 29.42 1200.83 33.6073 1201.94 36.9257C1203.05 40.244 1203.66 42.7249 1205.54 43.9732C1206.82 44.7616 1208.26 45.2431 1209.75 45.3796C1209.91 46.8558 1210.18 48.3185 1210.55 49.7567C1210.63 50.8628 1210.93 52.19 1211.56 52.3481C1212.5 52.3481 1213.14 51.637 1213.68 51.953C1214.43 52.6369 1215.06 53.4309 1215.56 54.3074L1215.86 54.9237L1216.65 55.7138C1217.08 55.8897 1217.5 56.0957 1217.9 56.3301C1218.37 56.6461 1218.22 56.9622 1219.01 57.9103C1219.8 58.8584 1221.82 60.2647 1223.23 59.4904C1225.86 58.1155 1228.37 56.5302 1230.75 54.7499C1232 53.5016 1233.56 55.698 1234.33 56.6303L1235.12 57.5784C1234.68 59.6669 1234.34 61.7765 1234.11 63.899C1231.4 66.7433 1224.11 74.4387 1223.23 75.845C1222.14 77.5674 1222.14 82.8768 1221.98 83.9829C1221.98 84.1725 1221.68 84.2358 1221.27 84.22C1221.24 82.7782 1221.32 81.3363 1221.5 79.9061C1222.15 77.722 1222.47 75.4531 1222.45 73.1746C1222.14 71.2942 1222.75 69.5718 1221.98 68.9556C1221.67 68.7466 1221.43 68.465 1221.26 68.1365C1221.1 67.8079 1221.02 67.4429 1221.03 67.0752C1221.03 66.4431 1221.03 66.4431 1220.57 65.8269C1220.11 65.2106 1220.26 64.8787 1220.57 64.1045C1220.89 63.3302 1220.1 62.5244 1219.78 61.9081C1219.6 60.8642 1219.49 59.8077 1219.47 58.7478C1219.39 58.5218 1219.26 58.3151 1219.1 58.1417C1218.93 57.9683 1218.73 57.8322 1218.51 57.7423C1218.29 57.6525 1218.05 57.6111 1217.81 57.621C1217.57 57.6309 1217.34 57.6918 1217.13 57.7996C1215.67 58.6371 1216.18 60.154 1216.02 60.6281C1215.86 61.1021 1213.68 59.9961 1212.86 61.0864C1211.59 62.8377 1210.44 64.6692 1209.42 66.5695C1208.8 67.9758 1208.17 68.6079 1208.32 69.8563C1208.15 70.602 1208.26 71.3867 1208.64 72.0527C1209.26 72.827 1208.8 74.0911 1209.42 74.8653C1210.38 76.1982 1211.22 77.6156 1211.93 79.1002C1212.34 80.0483 1212.15 82.4027 1212.61 84.1409C1211.13 86.8201 1210.31 89.8079 1210.21 92.8634C1210.05 96.0237 1211.45 99.5949 1210.66 104.604C1209.87 109.613 1210.82 109.929 1212.39 115.57C1213.95 121.211 1214.42 124.482 1215.55 125.43C1216.67 126.379 1217.73 127.927 1219.13 128.085C1220.69 128.073 1222.24 128.222 1223.76 128.528C1223.76 128.638 1223.84 128.67 1223.84 128.528C1224.62 129.002 1224.93 148.722 1225.86 154.98C1226.32 159.742 1226.5 164.528 1226.4 169.312C1226.21 173.941 1226.15 178.002 1226.81 178.303C1227.59 180.341 1229.31 179.709 1230.26 179.551C1231.21 179.393 1233.42 200.694 1234.16 211.96C1234.9 223.227 1237.92 244.053 1240.28 256.205C1242.63 268.356 1243.72 270.774 1244.18 275.166C1244.49 278.558 1245.12 281.912 1246.06 285.185C1246.53 286.275 1248.73 289.72 1249.05 291.6C1249.36 293.481 1247.78 299.122 1248.41 299.896C1249.05 300.67 1252.17 301.476 1252.95 301.618C1253.72 301.761 1253.58 304.273 1250.75 306.153C1247.92 308.034 1243.88 312.111 1231.98 312.585C1231.98 312.585 1229.31 312.427 1228.99 314.607C1228.68 316.788 1228.06 316.646 1228.69 316.804C1229.33 316.962 1233.54 320.249 1250.82 319.458C1253.66 318.886 1256.53 318.521 1259.43 318.368C1261.47 318.526 1262.26 319.3 1265.07 319.3C1267.88 319.3 1276.81 319.774 1278.22 318.842C1279.62 317.91 1278.85 314.449 1278.85 313.359C1278.85 312.269 1278.85 307.876 1278.69 306.311C1278.69 306.311 1280.1 306.47 1281.98 309.472C1283.86 312.474 1282.91 311.984 1282.29 313.707C1281.68 315.429 1281.03 316.867 1281.5 317.768L1282.29 319.348H1302.96C1302.96 319.348 1303.28 312.158 1303.12 308.081C1302.96 304.004 1301.24 276.146 1301.4 270.837C1302.28 260.747 1301.16 250.583 1298.11 240.924C1297.55 238.661 1297.14 236.365 1296.86 234.051C1296.86 232.471 1290.13 225.913 1289.97 223.4C1289.81 220.888 1291.06 217.759 1290.29 216.195C1289.49 214.692 1289.01 213.04 1288.88 211.344C1288.72 209.463 1288.57 203.838 1288.57 201.863C1288.57 199.888 1289.04 183.233 1289.04 180.736C1289.04 180.215 1289.04 179.156 1289.04 177.923C1289.36 177.781 1289.55 177.402 1289.61 176.817C1289.62 175.974 1289.46 175.137 1289.15 174.352C1289.15 173.546 1289.15 172.772 1289.24 171.871C1289.43 171.886 1289.61 171.859 1289.79 171.793C1289.96 171.728 1290.11 171.625 1290.24 171.492C1290.73 171.019 1291.06 170.398 1291.17 169.723C1291.28 169.047 1291.17 168.354 1290.86 167.747C1290.43 166.531 1289.92 165.709 1289.64 164.682C1289.67 163.974 1289.77 163.271 1289.92 162.58C1290.4 161.316 1303.23 157.84 1303.86 156.149C1304.49 154.458 1302.76 152.562 1302.76 149.575C1302.76 146.589 1299.78 132.051 1297.27 122.807C1294.76 113.564 1294.46 95.2652 1294.46 87.9017C1294.46 80.5381 1289.91 58.3053 1284 48.1922C1278.09 38.0792 1269.11 35.8354 1258.32 40.2124C1258.32 40.2124 1253.79 40.0545 1253.15 38.4901C1252.52 36.9258 1251.91 36.6097 1251.91 36.6097C1251.43 37.1064 1251 37.6343 1250.59 38.1899C1249.69 38.0477 1248.4 37.7632 1248.3 36.262C1246.47 38.2542 1244.74 40.3374 1243.12 42.5037C1244.06 40.7054 1245.22 39.0329 1246.58 37.5261C1246.58 37.5261 1245.17 36.7361 1245.79 33.2913C1245.79 33.2913 1246.74 32.201 1247.37 33.6074C1247.75 34.4681 1248.06 35.3554 1248.3 36.262C1248.3 36.262 1249.06 32.3907 1244.35 24.5531ZM1204.28 40.0545C1204.28 40.0545 1205.39 40.8446 1206.16 41.4608C1206.93 42.0771 1207.27 43.1832 1208.04 43.4992C1208.81 43.8152 1209.45 43.1832 1209.62 44.2893C1209.62 44.5737 1209.72 44.953 1209.76 45.3796C1209.4 45.269 1204.28 43.6888 1204.28 40.0545V40.0545Z" fill="white"/>
<path d="M942.677 288.467C942.677 288.467 941.097 284.801 942.535 273.55C943.973 262.299 944.636 245.692 940.054 231.439C935.471 217.186 936.261 216.269 936.514 212.998C936.736 210.233 937.241 198.603 937.399 195.08H942.203C943.088 189.66 946.311 169.576 946.311 162.307C946.862 161.213 947.103 159.989 947.007 158.767C946.722 157.187 945.742 154.959 945.885 153.474C945.885 153.474 946.027 154.959 946.311 154.422C946.596 153.885 945.332 144.088 943.925 138.62C942.944 133.935 942.336 129.18 942.108 124.399C941.824 122.629 939.596 124.13 940.022 121.681C940.449 119.232 941.128 115.566 941.271 112.974C941.413 110.383 941.966 107.681 941.413 105.769C940.86 103.857 941.413 101.155 942.393 98.026C943.372 94.8973 951.621 64.9849 934.839 65.1271C934.839 65.1271 933.259 65.459 931.489 65.617C930.596 65.6219 929.707 65.4941 928.851 65.2377L928.029 64.9849C926.275 64.416 925.185 63.8946 925.011 62.3619C924.954 61.7663 925.013 61.1652 925.185 60.592C925.738 60.3392 926.196 60.4972 927.112 60.2286C928.029 59.96 928.977 58.522 929.72 58.1586C930.462 57.7951 931.221 57.4317 932.422 56.7997C933.623 56.1676 933.733 55.899 935.108 53.908C940.591 47.8875 941.065 40.0183 939.027 31.7857C936.988 23.5531 930.194 22.4154 929.182 22.4154C927.741 22.4262 926.315 22.113 925.011 21.4988C921.347 19.8593 917.235 19.5139 913.349 20.5192C907.629 21.8939 904.326 24.7698 900.819 29.3523C897.311 33.9348 896.584 38.2012 897.658 41.9936C898.685 45.4541 898.069 45.4699 898.527 46.3864C898.986 47.3029 899.27 46.3864 898.606 50.4474C898.192 53.0232 898.756 55.6608 900.186 57.8425C900.413 58.8823 900.551 59.9396 900.597 61.0029C900.186 65.5221 904.943 64.416 906.649 64.3686C907 64.3602 907.348 64.4192 907.676 64.5424C908.482 65.8872 908.984 67.392 909.146 68.9511C909.351 70.6419 909.415 71.6374 909.43 72.2852C909.175 72.795 908.868 73.2769 908.514 73.7232C908.403 73.8812 908.308 74.0234 908.166 74.1973C906.902 75.7774 902.209 77.9264 897.753 79.5066C893.297 81.0867 892.507 85.9852 891.796 88.6398C891.18 90.9469 889.789 97.3782 889.457 98.9742L880.403 105.295C880.403 105.295 863.021 99.3059 861.188 98.0418L860.445 99.2111L859.039 99.1163C859.039 99.1163 880.656 118.078 884.322 120.954C883.919 121.887 883.601 122.855 883.374 123.846C882.996 125.352 882.726 126.884 882.568 128.428C882.375 129.394 882.41 130.391 882.671 131.34C882.931 132.289 883.41 133.164 884.069 133.896C885.933 136.44 885.933 137.34 886.771 137.514C887.292 137.714 887.855 137.777 888.408 137.7C888.961 137.623 889.485 137.407 889.931 137.072C891.132 136.155 893.85 135.618 894.213 134.386C894.782 132.489 894.498 131.225 894.877 130.483L896.647 130.214C896.638 130.256 896.638 130.299 896.647 130.34C896.754 131.172 896.939 131.992 897.2 132.79C897.484 134.291 897.895 134.149 897.058 135.507C896.22 136.866 895.098 136.187 895.809 137.546C896.388 138.889 896.605 140.359 896.441 141.812C896.141 142.903 895.446 145.131 894.861 147.343C894.343 149.041 893.916 150.766 893.581 152.51C893.46 153.144 893.307 153.772 893.123 154.39C892.918 155.038 892.712 155.623 892.586 156.113C892.033 157.693 891.59 159.004 892.175 159.162C892.421 159.149 892.665 159.106 892.902 159.036L892.744 159.162C892.744 159.162 891.48 172.625 891.622 178.741C891.605 184.103 891.315 189.462 890.753 194.795H891.006C890.938 195.326 890.843 195.854 890.721 196.375C890.721 196.375 891.116 197.292 894.782 197.023H895.367C895.809 199.425 896.947 205.366 897.911 208.084C899.096 211.608 902.746 224.549 902.889 225.735C903.031 226.92 902.493 229.653 903.268 231.486C904.166 233.014 904.746 234.707 904.974 236.464C904.974 238.155 904.722 251.365 906.017 256.722C907.313 262.078 910.758 279.744 910.473 290.079C910.189 300.413 907.85 307.208 906.286 309.436C906.286 309.436 904.974 311.142 899.965 311.395C899.965 311.395 896.947 311.142 896.805 313.623C896.663 316.104 897.326 318.98 903.126 318.98C908.925 318.98 913.065 319.375 913.981 317.668C914.898 315.962 916.731 308.393 919.749 305.517C922.767 302.641 922.751 302.894 923.399 305.375C923.775 306.516 923.951 307.713 923.92 308.914C923.92 308.914 924.837 309.167 923.92 309.688C923.004 310.21 919.875 310.874 918.959 312.043C918.527 312.566 918.259 313.205 918.189 313.88C918.118 314.554 918.249 315.235 918.564 315.835C919.212 316.752 917.774 318.458 920.65 318.853C923.525 319.248 934.523 320.686 937.652 318.727C938.613 317.246 939.119 315.515 939.106 313.75C939.076 311.169 940.057 308.679 941.839 306.813C943.025 306.038 943.42 307.729 943.672 310.479C943.925 313.228 944.336 318.379 944.336 318.379L945.774 318.237C945.774 318.237 946.296 302.151 948.255 297.316C948.524 297.616 947.244 291.216 942.677 288.467ZM932.469 283.632C932.074 287.155 931.426 288.372 931.031 290.821C930.636 293.271 930.636 298.138 929.988 299.844C929.34 301.551 926.97 305.865 926.828 305.343C927.139 302.646 927.313 299.935 927.349 297.221C927.21 295.846 926.761 294.52 926.036 293.343C925.31 292.166 924.328 291.169 923.162 290.426C922.135 287.777 921.434 285.013 921.076 282.194C920.555 277.738 921.076 267.672 921.076 263.485C921.076 259.297 922.514 253.814 922.656 251.317C922.748 248.509 922.482 245.7 921.866 242.958C921.151 240.157 920.587 237.319 920.175 234.457C920.039 232.998 920.217 231.527 920.697 230.143C922.404 231.186 924.094 235.626 924.616 237.854C925.137 240.082 925.011 238.502 929.467 257.859C933.923 277.216 932.864 280.092 932.469 283.632V283.632Z" fill="white"/>
<path d="M421.785 84.6098C421.723 84.3984 421.713 84.1754 421.754 83.9592C421.796 83.7429 421.888 83.5397 422.023 83.3661C422.159 83.1926 422.334 83.0539 422.534 82.9614C422.733 82.8688 422.952 82.8252 423.172 82.8341C425.101 82.8341 460.628 79.463 460.628 79.463C460.628 79.463 463.209 73.6782 466.746 72.5268C470.284 71.3753 471.074 69.6274 474.14 69.6274C477.206 69.6274 480.244 68.0182 481.853 67.8656C483.463 67.713 486.834 66.2564 487.638 64.6472C487.638 64.6472 487.777 64.2448 486.889 63.1212C486.001 61.9975 482.727 58.2658 482.45 56.9756C482.172 55.6855 480.036 47.14 480.036 44.31C480.036 41.48 479.148 41.6465 478.898 39.4685C478.649 37.2905 477.692 30.1877 479.703 26.7196C480.613 24.8337 482.061 23.2598 483.865 22.1971C484.753 21.559 485.724 20.1856 486.445 19.9359C488.391 19.3694 490.399 19.0479 492.424 18.9787C493.931 18.9261 495.44 19.005 496.933 19.2145C497.266 19.4642 497.502 20.6018 498.389 20.7544C499.792 21.0628 501.111 21.6683 502.26 22.5301C503.314 23.4179 504.84 24.3058 505.034 25.0271C505.229 25.7485 505.686 25.5127 505.839 26.4144C506.214 27.5488 506.511 28.7075 506.727 29.8825C506.81 31.1727 507.212 34.9599 507.129 36.1668C507.046 37.3737 506.574 37.2211 507.046 37.3876C507.518 37.554 508.669 37.3876 508.752 38.1089C508.442 40.8242 507.979 43.5197 507.365 46.1828C507.046 47.3064 504.59 49.2486 504.382 49.8174C504.174 50.3862 504.618 54.8115 504.535 57.0727C504.452 59.334 505.756 64.4113 507.767 65.7015C509.779 66.9916 509.376 67.7269 509.779 67.7269C510.181 67.7269 510.431 67.2413 510.833 67.6436C511.235 68.0459 517.131 72.5684 520.114 73.6227C523.096 74.677 523.346 75.3151 523.665 75.87C523.984 76.4249 525.677 76.4388 526.44 77.8954C527.829 79.6659 528.569 81.8599 528.535 84.1103C528.669 90.2102 528.265 96.31 527.328 102.339C526.995 105.227 526.344 108.07 525.385 110.815C525.066 111.301 524.9 111.134 524.664 111.62C524.428 112.105 519.573 121.552 512.553 132.845C512.553 132.845 511.985 140.114 510.292 143.943C508.6 147.772 507.878 147.98 507.518 149.353C507.157 150.726 506.463 153.307 506.866 153.626C507.268 153.945 508.156 154.514 507.518 155.082C507.164 155.442 506.905 155.884 506.762 156.368C506.62 156.851 506.598 157.363 506.699 157.857C506.836 158.306 506.864 158.782 506.782 159.244C506.782 159.73 509.363 168.775 509.931 170.467C510.5 172.159 511.624 180.871 511.707 181.926C511.79 182.98 508.156 190.887 507.837 191.928C507.837 191.928 507.296 202.069 506.644 206.799C505.992 211.53 505.783 222.059 505.353 230.258C504.923 238.456 503.425 240.801 503.855 243.381C504.233 248.469 504.089 253.582 503.425 258.641C502.773 262.081 502.995 269.822 502.995 275.427C502.995 281.031 502.773 288.98 503.425 292.851C504.077 296.721 503.425 302.561 501.053 303.394C498.681 304.226 498.695 305.336 499.763 305.974C500.838 306.752 501.845 307.62 502.773 308.568C502.773 308.568 501.053 309.636 501.705 309.636C502.357 309.636 503.633 309.539 504.715 312.328C505.797 315.116 505.575 317.613 504.063 317.613H487.499C487.499 317.613 485.127 316.309 485.127 315.449C485.256 314.202 484.953 312.948 484.267 311.898C483.407 311.038 481.687 309.581 481.909 308.943C482.221 308.052 482.293 307.095 482.117 306.168C481.909 304.878 478.246 304.24 478.885 302.52C479.523 300.8 481.257 292.199 481.659 289.84C482.061 287.482 479.079 284.291 483.809 270.682C483.575 266.738 483.649 262.782 484.031 258.849C484.669 254.549 482.311 254.34 484.891 245.296C484.891 245.296 482.117 238.193 482.949 234.961C482.949 234.961 481.021 227.012 479.717 219.257C478.413 211.502 475.208 201.403 474.556 200.751C473.904 200.099 469.396 206.563 467.884 208.284C466.372 210.004 466.385 212.445 466.163 213.833C465.942 215.22 462.293 223.946 461.433 228.038C460.573 232.131 459.491 238.151 457.771 240.093C456.05 242.036 456.272 242.022 456.272 243.104C455.995 244.941 455.851 246.795 455.842 248.653C456.079 250.303 456.004 251.983 455.62 253.605C455.19 255.755 455.62 255.755 455.62 258.336C455.62 260.916 454.76 261.11 455.19 262.65C455.62 264.19 454.76 271.251 452.416 280.504C450.071 289.757 450.918 291.699 450.265 293.849C449.613 296 448.115 296.86 447.907 298.15C447.699 299.44 447.685 301.59 447.477 302.672L447.255 303.741C447.047 304.823 448.115 305.891 447.907 306.973C447.699 308.055 445.965 311.287 446.187 313.216C446.409 315.144 446.395 317.53 445.327 317.53H409.383C409.383 317.53 402.447 314.617 405.513 310.954C408.578 307.292 413.475 310.261 414.974 309.831C416.472 309.401 417.998 307.431 419.926 306.571C421.678 305.834 423.14 304.542 424.088 302.894C424.726 301.604 424.518 299.454 425.808 298.372C427.098 297.29 427.958 297.72 428.18 297.082C428.402 296.444 424.518 293.198 424.948 290.409C425.378 287.621 432.481 243.922 435.921 235.751C439.362 227.58 437.211 205.828 437.863 201.528C438.515 197.227 437.433 188.182 440.444 178.929C440.444 178.929 445.604 163.905 445.854 162.13C446.089 160.508 446.556 158.929 447.241 157.441C447.491 157.205 446.922 153.279 447.644 152.28C448.365 151.281 450.307 150.671 450.418 150.019C450.529 149.367 448.642 147.119 451.958 144.373C451.958 144.373 453.345 138.643 453.803 136.216C454.21 134.722 454.807 133.286 455.579 131.943C455.662 131.457 453.484 131.624 452.998 131.138C452.513 130.653 449.378 128.475 448.726 128.072C448.074 127.67 446.714 127.185 445.951 126.685C445.188 126.186 444.98 125.714 444.425 125.714C443.87 125.714 441.845 125.881 441.429 125.076C441.255 124.663 441.172 124.218 441.187 123.77C441.201 123.322 441.312 122.883 441.512 122.482C441.845 122.246 439.015 122.01 439.015 122.01C439.015 122.01 438.529 123.772 437.891 123.397C437.217 122.917 436.638 122.315 436.185 121.622C436.032 121.386 435.228 121.538 434.576 120.415C433.924 119.291 421.785 84.6098 421.785 84.6098Z" fill="white"/>
<path d="M350.19 312.968C349.768 312.621 350.19 312.968 349.858 312.107C349.526 311.246 348.831 310.219 348.137 310.144C347.442 310.068 342.398 310.31 341.371 310.144C339.609 309.63 337.892 308.973 336.236 308.181C335.119 307.743 332.884 306.293 332.204 305.946C331.562 305.59 330.95 305.181 330.377 304.722C330.014 302.261 325.846 299.346 325.529 299.089C325.059 298.19 324.684 297.243 324.412 296.265C324.155 295.661 323.551 295.842 323.203 295.918C322.856 295.993 322.69 295.329 322.433 294.725C322.176 294.121 320.636 294.302 320.636 294.302C320.371 292.543 320.285 290.762 320.379 288.986C320.636 287.265 320.379 279.925 323.4 273.129C326.644 265.676 328.834 257.808 329.909 249.752C330.239 245.393 331.044 241.084 332.31 236.9C332.989 234.846 334.454 233.034 335.134 230.3C335.642 228.508 335.642 226.61 335.134 224.818C334.877 224.124 334.787 223.308 334.107 221.043C333.427 218.778 332.476 216.512 331.54 212.994C331.001 211.632 330.794 210.162 330.936 208.705C330.796 207.153 330.569 205.61 330.256 204.084C330.051 202.638 329.966 201.179 329.999 199.719C329.909 197.65 329.305 194.66 329.305 193.195C329.305 191.73 328.957 191.579 328.111 188.317C327.266 185.055 327.507 186.807 326.737 184.98C325.967 183.153 326.481 183.258 326.314 181.114C326.148 178.969 325.967 177.957 324.804 177.263C323.641 176.568 324.804 176.236 324.804 174.862C324.91 173.609 324.88 172.348 324.714 171.101C324.366 170.24 322.916 169.304 322.312 168.081C321.687 166.526 321.182 164.926 320.802 163.294C320.032 160.636 319.171 157.555 318.658 156.09C318.315 155.128 317.858 154.211 317.299 153.357C317.117 153.1 317.555 153.009 318.069 152.662C319.763 152.356 321.482 152.215 323.203 152.239C323.717 152.239 323.974 152.239 324.14 150.955C324.306 149.672 323.294 146.757 322.63 144.19C321.965 141.622 320.666 134.932 320.062 132.441C319.638 130.149 319.351 127.834 319.201 125.509C318.869 122.851 316.891 114.364 316.287 111.207C315.683 108.051 315.184 104.261 314.777 101.859C314.369 99.4581 312.723 93.9006 312.889 90.8954C312.84 88.3527 312.526 85.8221 311.953 83.3445C311.862 82.4837 311.696 82.1514 312.375 82.0608C313.972 81.5752 315.532 80.9746 317.042 80.2637C318.93 79.4784 322.358 79.6596 323.807 78.8894C325.257 78.1192 324.834 74.1777 324.834 74.1777C326.345 73.4075 336.569 68.2577 339.74 66.0378C342.993 64.0693 345.797 61.4404 347.97 58.3207C350.281 54.7265 350.024 52.4914 349.088 51.0416C348.152 49.5919 343.425 47.0094 339.06 45.5597C334.696 44.1099 325.469 40.9385 320.636 40.6818C316.347 40.3742 312.101 39.6253 307.966 38.4467C306.591 37.9332 304.945 37.0724 304.538 36.9365C304.13 36.8006 304.19 36.9365 304.447 36.2569C304.704 35.5774 304.96 35.6529 304.96 34.8827C304.96 34.1125 305.127 34.3692 305.308 33.599C305.384 33.2604 305.439 32.9175 305.474 32.5721C305.627 32.0113 305.658 31.4242 305.564 30.8505C305.474 29.7329 305.731 30.2464 306.078 29.3403C306.448 28.5021 306.649 27.5986 306.667 26.6824C306.667 25.6554 306.335 26.2444 306.153 25.731C305.972 25.2175 306.501 25.0514 306.501 24.2208C306.579 23.4869 306.752 22.7662 307.014 22.0763C307.221 21.2976 307.252 20.4824 307.105 19.6902C307.014 18.18 307.618 18.4821 308.298 17.5458C308.977 16.6095 308.736 17.1078 308.298 15.9148C307.86 14.7217 307.528 14.8878 307.362 13.423C307.195 11.9581 308.298 11.5503 308.298 10.4026C308.298 9.25485 307.014 9.20955 305.987 8.89241C304.96 8.57527 305.051 7.941 304.356 6.58183C303.662 5.22267 300.928 5.29818 300.158 4.43737C299.434 3.70069 298.456 3.26848 297.425 3.22922C296.141 2.97249 294.51 4.60349 293.74 3.66718C292.97 2.73086 292.622 3.66717 291.339 3.22922C290.055 2.79127 287.654 4.51288 287.05 4.7394C286.181 5.0303 285.293 5.25744 284.392 5.41899C283.376 5.65936 282.417 6.09537 281.568 6.70265C280.541 7.30672 280.707 9.10384 280.057 9.28506C279.846 9.28506 279.74 9.28506 279.695 9.02833C279.729 9.15274 279.723 9.28441 279.68 9.40581C279.637 9.52721 279.558 9.63258 279.453 9.70791C278.849 10.1308 278.683 8.93771 278.683 8.93771C278.426 9.45118 279.106 10.0553 278.849 10.7348C278.497 11.7207 278.215 12.7299 278.004 13.7552C277.438 15.2924 276.979 16.8667 276.629 18.467C276.392 19.6665 276.481 20.9076 276.886 22.0612C277.2 22.999 277.288 23.9977 277.143 24.9759C276.191 25.4893 276.282 29.2497 276.629 31.0166C277.038 32.2507 277.743 33.3656 278.683 34.2635C279.106 34.9582 280.057 35.2149 279.71 35.381C279.363 35.5472 279.031 35.5472 278.593 36.5892C278.155 37.6312 279.453 38.9753 279.453 38.9753C279.453 38.9753 278.94 38.7185 278.593 39.7455C278.245 40.7724 279.71 41.9805 279.71 41.9805C279.37 41.9597 279.036 42.073 278.779 42.2961C278.522 42.5192 278.363 42.8343 278.336 43.1736C278.17 44.4572 279.846 45.9221 279.846 45.9221C279.499 46.949 273.926 53.3824 272.129 53.9714C270.433 54.4551 268.773 55.0556 267.161 55.7685C265.65 56.5387 264.85 58.4264 263.566 59.4534C262.283 60.4803 261.679 60.1481 259.715 61.2505C257.752 62.3529 253.675 67.2912 252.602 68.1067C251.013 69.3586 249.5 70.7051 248.072 72.1389C247.135 73.1658 247.302 74.963 246.275 77.3641C245.248 79.7653 245.671 80.9584 245.323 82.4233C244.976 83.8881 245.248 85.4436 244.9 86.8783C244.573 87.9396 244.111 88.9546 243.526 89.8987C242.907 91.3416 242.505 92.8684 242.333 94.4292C241.924 96.1771 241.321 97.874 240.536 99.4883C240.098 100.334 240.536 100.772 240.536 102.131C240.536 103.49 238.135 116.191 237.969 117.309C237.664 118.885 237.547 120.492 237.621 122.096C237.712 124.497 238.996 125.01 240.189 126.294C241.382 127.578 248.419 137.53 250.473 140.097C252.527 142.664 265.726 153.689 265.575 154.051C265.424 154.414 265.152 155.259 264.895 155.773C264.638 156.286 265.243 156.966 264.986 157.479C264.723 158.263 264.521 159.066 264.382 159.881C264.291 170.165 267.296 176.417 268.233 176.84C269.169 177.263 268.489 177.535 268.489 178.139C268.561 179.028 268.474 179.923 268.233 180.782C267.966 181.622 267.966 182.524 268.233 183.364C268.399 184.723 269.078 183.953 269.169 185.493C269.26 187.034 268.822 193.724 269.26 195.355C269.698 196.986 270.619 197.152 270.453 199.462C270.287 201.773 269.849 207.602 269.939 210.864C270.03 214.126 270.709 215.063 270.619 215.999C270.528 216.935 270.709 225.77 270.619 226.193C270.528 226.616 270.8 231.161 270.8 231.161C270.543 233.396 266.677 240.071 266.934 256.517C268.048 268.311 270.407 279.954 273.971 291.251C273.71 291.479 273.477 291.738 273.277 292.022C274.56 294.68 274.56 301.611 274.56 301.611C274.243 301.529 273.908 301.561 273.612 301.702C273.316 301.842 273.08 302.083 272.944 302.381C271.646 304.179 271.223 311.805 270.966 312.756C270.709 313.708 270.105 313.527 269.939 313.783C269.773 314.04 269.003 317.725 269.849 319.175C270.694 320.625 277.732 320.458 278.245 320.458C278.879 320.409 279.509 320.323 280.133 320.202C282.444 321.319 303.949 320.458 304.643 320.383C305.293 320.228 305.922 319.995 306.516 319.688L306.606 320.458C307.377 320.549 314.399 320.126 315.169 319.945C316.759 319.825 318.336 319.567 319.881 319.175C321.089 318.661 324.261 320.036 326.148 320.292C326.88 320.488 327.655 320.457 328.368 320.202C329.422 320.081 330.486 320.081 331.54 320.202C332.476 320.383 334.198 320.202 335.647 320.292C338.1 320.075 340.533 319.676 342.926 319.099C344.739 318.752 346.022 317.8 347.215 317.589C347.857 317.484 348.47 317.247 349.016 316.894C349.562 316.54 350.028 316.078 350.387 315.535C350.696 315.166 350.848 314.691 350.811 314.212C350.775 313.732 350.552 313.285 350.19 312.968V312.968ZM261.83 132.078C261.437 131.504 256.982 126.279 255.789 124.724C254.596 123.168 250.956 121.824 251.923 119.498C252.679 117.354 253.26 115.152 253.659 112.914C253.659 112.914 254.822 110.014 254.822 110.785C254.822 111.555 257.148 117.762 256.952 119.498C256.755 121.235 262.222 132.667 261.83 132.078ZM294.767 57.1428C295.19 55.9799 297.213 50.2412 297.425 49.8637C297.636 49.4862 297.938 49.4257 298.406 49.471C298.874 49.5164 300.626 47.0699 301.155 46.9037C302.63 46.8212 304.106 47.0688 305.474 47.6286C306.696 47.7808 307.93 47.8112 309.159 47.7192C314.429 48.0968 323.505 54.2281 323.762 54.4396C324.019 54.651 323.853 54.8624 323.385 55.1644C322.431 55.4108 321.454 55.5576 320.47 55.6024C319.443 55.7685 319.352 56.1914 318.537 56.7954C317.721 57.3995 317.933 56.7048 317.132 56.4481C316.241 56.2589 315.32 56.2589 314.429 56.4481C313.659 56.584 311.862 57.9583 311.409 57.9583C310.956 57.9583 312.104 57.1126 311.545 56.4481C310.986 55.7836 309.868 57.6562 308.449 57.1881C307.029 56.7199 307.513 56.282 307.09 56.4179C306.667 56.5538 304.689 58.1697 304.175 58.0791C303.662 57.9885 303.662 57.475 303.224 57.4448C302.786 57.4146 302.121 58.3358 301.713 58.2603C301.199 58.0948 300.667 57.9934 300.128 57.9583C299.524 57.9583 298.98 58.6832 298.723 58.4264C298.6 58.2782 298.432 58.1734 298.244 58.1272C298.057 58.081 297.86 58.0959 297.681 58.1697C297.092 58.2905 296.745 58.804 296.398 58.6832C295.958 58.6045 295.514 58.5491 295.069 58.517C294.933 58.4264 294.344 58.2905 294.767 57.1428ZM314.399 225.407C314.399 227.205 310.971 238.169 309.868 243.137C308.766 248.106 309.461 255.566 309.868 258.813C310.276 262.06 310.322 276.467 310.155 277.071C309.989 277.675 310.155 278.355 309.702 278.687C309.249 279.019 309.053 280.197 308.358 284.184C307.664 288.171 307.346 290.949 306.848 291.538C306.35 292.127 306.002 291.72 305.051 292.052C304.1 292.384 303.178 299.255 303.178 299.255C302.081 298.098 300.843 297.084 299.494 296.235C297.017 294.619 297.606 294.106 297.787 293.411C297.968 292.716 298.98 293.245 298.814 292.641C298.648 292.037 295.643 291.01 295.386 290.844C295.129 290.678 295.733 290.421 295.552 288.79C295.549 288.369 295.394 287.964 295.117 287.648C294.84 287.332 294.458 287.126 294.042 287.068C294.736 286.389 293.876 285.452 292.758 284.592C291.641 283.731 291.248 285.452 290.961 285.362C290.674 285.271 289.073 285.196 288.817 285.105C288.56 285.014 288.907 283.595 288.907 283.595C288.607 283.476 288.319 283.329 288.046 283.157C287.623 282.9 287.956 281.103 287.88 280.257C287.805 279.412 287.11 279.396 286.853 278.974C286.098 276.008 285.663 272.971 285.555 269.913C285.736 267.934 286.763 263.147 287.065 256.321C287.367 249.495 286.038 237.564 286.808 233.97C287.958 229.896 289.78 226.042 292.199 222.568C293.574 220.937 293.71 218.113 293.996 217.086C294.283 216.059 294.691 216.226 294.782 215.365C294.838 213.871 295.219 212.407 295.899 211.076C297.002 208.493 295.899 204.627 297.017 201.803C298.134 198.979 299.101 196.956 299.101 196.956C299.569 198.149 303.767 209.717 305.051 212.465C306.335 215.214 307.482 222.236 308.509 222.659C309.536 223.082 314.459 220.937 314.459 220.937L314.399 225.407ZM328.806 303.454C328.133 302.838 327.53 302.149 327.009 301.4C328.263 301.475 329.909 304.043 330.331 304.737C329.788 304.345 329.259 303.892 328.776 303.454H328.806Z" fill="white"/>
</g>
</svg>
