<svg width="528" height="476" viewBox="0 0 528 476" fill="none" xmlns="http://www.w3.org/2000/svg">
<circle cx="237.85" cy="237.85" r="236.454" stroke="white" stroke-width="2.79167"/>
<path d="M491.612 237.85C491.612 368.439 385.625 474.304 254.879 474.304C124.133 474.304 18.1458 368.439 18.1458 237.85C18.1458 107.262 124.133 1.39583 254.879 1.39583C385.625 1.39583 491.612 107.262 491.612 237.85Z" stroke="white" stroke-width="2.79167"/>
<path d="M508.921 237.85C508.921 368.439 402.934 474.304 272.188 474.304C141.442 474.304 35.4544 368.439 35.4544 237.85C35.4544 107.262 141.442 1.39583 272.188 1.39583C402.934 1.39583 508.921 107.262 508.921 237.85Z" stroke="white" stroke-width="2.79167"/>
<circle cx="289.216" cy="237.85" r="236.454" stroke="white" stroke-width="2.79167"/>
</svg>
