<svg width="16" height="17" viewBox="0 0 16 17" fill="none" xmlns="http://www.w3.org/2000/svg">
<path d="M13.0462 9.04877C13.135 8.98761 13.2076 8.90578 13.2578 8.81031C13.308 8.71485 13.3342 8.60862 13.3342 8.50077C13.3342 8.39293 13.308 8.2867 13.2578 8.19123C13.2076 8.09577 13.135 8.01393 13.0462 7.95277L4.3795 1.95277C4.27953 1.88332 4.16245 1.8426 4.04097 1.83502C3.91948 1.82744 3.79824 1.8533 3.69043 1.90978C3.58261 1.96627 3.49233 2.05122 3.4294 2.15542C3.36647 2.25961 3.33331 2.37905 3.3335 2.50077L3.3335 14.5008C3.334 14.6222 3.36759 14.7412 3.43067 14.845C3.49375 14.9488 3.58392 15.0334 3.69149 15.0897C3.79906 15.1461 3.91996 15.1721 4.04118 15.1648C4.16241 15.1576 4.27937 15.1175 4.3795 15.0488L13.0462 9.04877Z" fill="white"/>
</svg>
